<?xml version="1.0" encoding="UTF-8" standalone="no"?>
<!-- Created with Inkscape (http://www.inkscape.org/) -->

<svg
   xmlns:dc="http://purl.org/dc/elements/1.1/"
   xmlns:cc="http://creativecommons.org/ns#"
   xmlns:rdf="http://www.w3.org/1999/02/22-rdf-syntax-ns#"
   xmlns:svg="http://www.w3.org/2000/svg"
   xmlns="http://www.w3.org/2000/svg"
   xmlns:sodipodi="http://sodipodi.sourceforge.net/DTD/sodipodi-0.dtd"
   xmlns:inkscape="http://www.inkscape.org/namespaces/inkscape"
   version="1.1"
   id="svg1372"
   width="1495.6953"
   height="768.6001"
   viewBox="0 0 1495.6953 768.6001"
   sodipodi:docname="idPage1Img2.svg"
   inkscape:version="0.92.5 (2060ec1f9f, 2020-04-08)">
  <metadata
     id="metadata1378">
    <rdf:RDF>
      <cc:Work
         rdf:about="">
        <dc:format>image/svg+xml</dc:format>
        <dc:type
           rdf:resource="http://purl.org/dc/dcmitype/StillImage" />
        <dc:title></dc:title>
      </cc:Work>
    </rdf:RDF>
  </metadata>
  <defs
     id="defs1376" />
  <sodipodi:namedview
     pagecolor="#ffffff"
     bordercolor="#666666"
     borderopacity="1"
     objecttolerance="10"
     gridtolerance="10"
     guidetolerance="10"
     inkscape:pageopacity="0"
     inkscape:pageshadow="2"
     inkscape:window-width="1920"
     inkscape:window-height="1043"
     id="namedview1374"
     showgrid="false"
     fit-margin-top="0"
     fit-margin-left="0"
     fit-margin-right="0"
     fit-margin-bottom="0"
     inkscape:zoom="0.63073565"
     inkscape:cx="983.44787"
     inkscape:cy="467.87466"
     inkscape:window-x="0"
     inkscape:window-y="0"
     inkscape:window-maximized="1"
     inkscape:current-layer="svg1372" />
  <path
     style="fill:#000000;stroke:#000000;stroke-opacity:1;stroke-width:5.6;stroke-miterlimit:4;stroke-dasharray:none"
     d="M 708.48816,768.25141 C 633.81568,764.23275 559.37769,761.17669 484.48338,763.01636 407.9639,757.22825 330.0522,775.9039 255.46614,751.00086 206.16163,737.56439 140.499,718.80393 125.3767,663.80911 79.250123,646.89393 17.238074,620.09841 6.6156007,563.73471 -17.374563,499.98886 20.661403,438.13599 71.291141,401.08103 139.46899,343.22982 212.20312,285.4016 300.91322,263.88775 c 48.14361,-25.22233 97.65819,-48.50676 151.93868,-56.88835 54.98413,-14.10521 111.01161,-23.51729 164.35254,-44.21138 86.86869,-24.15699 169.07155,-62.05377 257.09604,-82.561601 83.0664,-12.944864 166.54172,-23.318048 249.49072,-35.47194 69.4046,-19.334209 143.0691,-16.263092 212.3215,-37.4170298 56.2938,-35.9847482 92.1606,42.2226668 35.714,68.3074988 -39.221,11.17722 -36.1464,49.086882 -40.5024,76.263232 44.091,14.35578 93.9961,55.2983 57.1859,104.18299 48.609,20.57329 74.4281,88.67786 38.3727,130.9562 27.7479,32.94208 93.9324,72.62503 57.6164,122.03443 -43.97,43.56506 -94.7311,83.1272 -153.2763,104.85268 -17.4418,49.02982 -82.9024,54.82513 -121.4659,84.22353 -41.609,9.61235 -51.0133,48.25305 -102.6099,46.84679 -42.0475,4.3605 -84.7143,7.9893 -128.85601,12.37201 -65.92597,7.09312 -132.75723,-5.51227 -198.08284,9.47688 -23.84336,1.71469 -47.83048,2.14292 -71.72019,1.39772 z m 61.14396,-3.8713 c -52.56537,-9.46366 -102.72899,-28.41731 -156.34098,-19.8606 -25.35885,-9.08677 -113.01731,18.65025 -43.96038,15.37912 66.77275,-2.83416 133.2107,10.14858 200.30136,4.48148 z m -400.56026,-2.9646 c 53.97841,-5.81795 108.53487,-0.73005 162.71928,-1.3937 45.53987,-30.09137 -115.04018,2.89861 -72.83717,-10.7294 -68.96366,1.30903 -138.30702,-1.02331 -206.66694,-9.398 -0.23891,18.67069 85.12871,21.37099 116.78483,21.5204 z m 420.21928,-1.638 c 83.20858,-19.61997 166.32669,-41.32273 245.12146,-75.12369 64.7873,-4.83777 57.1529,-85.42325 -2.7688,-93.35904 -41.56351,15.5012 -85.87678,50.32104 -131.35261,67.51033 -48.96644,18.60483 -100.45179,23.83134 -136.10263,60.5168 -18.70119,19.38599 -132.25163,16.88493 -54.39742,29.5636 27.11921,0.95677 52.25775,16.35616 79.5,10.892 z m 77.00005,-4.3076 c 60.55702,2.83632 122.02684,-0.0955 181.20121,-8.5822 36.3604,-7.55218 107.3212,2.37738 119.4783,-34.21715 -50.9175,0.24321 -98.4099,-49.38475 -145.5831,-18.20515 -62.36175,26.26825 -127.90885,42.06327 -192.83675,60.4211 -12.66211,5.60306 33.7025,-1.838 37.74034,0.5834 z m -358.30167,-10.4413 c 57.57799,14.05791 1.40551,-63.78473 -22.69838,-72.2219 -38.86717,-22.91802 -87.48627,0.60207 -131.5,1.8801 -35.27353,-7.38998 -59.29616,23.11248 -94.05754,22.52795 -71.83098,4.98793 20.25888,62.13615 59.27524,45.85392 62.92904,3.9032 125.94708,4.10379 188.98068,1.95993 z m 77.80162,-2.3603 c 67.41028,-6.1635 144.05905,1.49068 200.62435,-42.38594 6.71466,-56.15033 -81.87347,-50.42045 -120.51391,-54.02972 -67.58132,1.27531 -134.30495,15.477 -202.09337,15.38506 57.20653,-5.21172 52.29993,75.83516 92.43569,82.1745 9.85803,-0.03 19.72168,-0.28843 29.54724,-1.1439 z m -340.13722,-2.8382 c -24.35575,-28.41324 -116.76215,-27.28819 -102.28182,-95.8087 -5.62934,-65.85094 -33.2386,54.90335 12.9579,58.8663 25.97746,16.90893 56.97976,41.08675 89.32392,36.9424 z m -17.90432,-21.6388 c 9.68677,-39.08012 -42.6596,-78.59951 -55.77056,-103.88694 -55.40227,-7.64028 -22.37284,89.44047 16.34981,94.01194 13.13112,2.14504 25.74591,15.30524 39.42075,9.875 z m 940.0416,-12.4286 c 51.7803,-7.1345 92.582,-43.46325 139.4693,-63.875 54.8837,-39.09826 -41.0544,-83.42108 -69.2246,-86.94873 -43.5886,39.11767 -96.1375,67.38977 -151.2447,86.36293 -1.5621,28.44432 -44.1947,40.09994 5.6862,49.5858 23.7754,8.17906 51.1436,12.76878 75.3138,14.875 z m -900.00006,-13.2527 c 55.95858,0.2503 57.7134,-51.50338 24.52019,-86.14263 -2.73457,-52.36972 -76.44698,-0.18318 -107.52019,7.35905 12.95551,30.33221 40.85942,92.12052 83,78.78358 z m 538,-7.2994 c 54.81344,-14.80758 108.13946,-33.63389 157.19465,-62.32286 39.15631,-26.42409 94.11341,-45.10081 113.81221,-90.9952 13.3295,-57.2754 -43.824,-86.09616 -79.04761,-39.93623 -55.02541,22.88598 -103.95258,49.10695 -146.3217,91.74376 -22.4657,29.45309 -76.20976,49.1858 -90.11639,72.67135 28.74991,-1.32518 21.43028,41.12271 44.47884,28.83918 z m -450.5,-14.1982 c 77.5296,-14.22054 157.37749,-11.46206 234.74678,-23 -29.64181,-48.58953 -96.1106,-71.4385 -113.59732,-131.23687 -41.80126,-4.07479 -92.40762,29.8969 -137.14946,41.10722 -50.13625,3.45273 -61.0599,40.2852 -27.07024,76.00499 17.06252,30.32747 -1.30565,47.82142 43.07024,37.12466 z M 124.48515,648.45751 C 117.75156,593.86266 37.281999,582.67887 40.260809,522.38338 52.015387,495.23587 4.3627823,439.84394 4.0994407,499.3672 -2.8078822,556.69898 23.264604,614.54762 77.037829,639.66081 c 10.637465,3.00594 48.663631,28.92954 47.447321,8.7967 z m 638.01355,-3.7786 c 50.99523,-29.93678 94.23478,-69.63171 139.07449,-107.92496 26.82687,-32.46159 -35.25583,-81.22276 -63.03956,-42.32569 -45.25037,32.55055 -90.18537,64.64075 -126.22983,107.90894 -20.72916,21.3745 -62.03947,50.22375 -5.39703,43.44446 17.95095,-1.96955 40.36785,12.48924 55.59193,-1.10275 z m -155.75762,1.6683 c 61.00877,11.30455 95.03194,-36.90676 131.20539,-76.99874 40.85657,-32.97218 -53.88696,-44.62598 -62.56029,-82.14165 -14.15096,-38.36418 -37.00368,-66.5742 -77.09504,-32.80279 -35.37905,21.73769 -97.61279,32.01394 -118.65586,59.73969 17.24465,61.00441 86.4086,82.37487 114.47279,133.16144 l 1.60738,0.46864 z m 483.37762,-10.8873 c 59.7331,-20.48055 119.0809,-52.3834 160.2912,-101.1307 31.3355,-25.22458 12.1499,-113.0587 -27.1816,-99.78671 -40.238,37.17609 -85.9231,72.69125 -141.2605,82.60845 15.3388,49.05636 -98.24285,66.20969 -19.1766,85.99741 16.512,3.56768 19.3245,25.59088 27.3275,32.31155 z M 145.00568,612.89078 c 26.45166,-3.04177 90.5765,-14.18919 38.77212,-39.41943 -32.68842,-25.85267 -21.5744,-99.40794 -42.65326,-111.04208 -44.310198,7.45592 -74.062965,43.70375 -97.334679,58.74215 2.75409,44.93383 56.034617,94.87052 101.215819,91.71936 z m 1192.53052,-6.0687 c 57.1883,-22.65324 107.6931,-62.28369 149.057,-107.1443 20.9171,-41.98084 -42.3908,-97.59372 -68.1303,-103.80205 -38.3971,40.72829 -93.2222,58.39786 -138.3809,90.12862 -21.0585,1.88175 53.7338,-35.79787 70.7092,-45.90432 49.7242,-23.46352 111.693,-73.26264 82.4759,-135.39775 -18.4484,-40.94068 -61.3085,-60.48678 -87.5143,-12.48114 -45.5263,38.01819 -92.5729,67.99831 -108.0985,127.04724 31.8217,26.46505 40.9236,96.8978 11.532,130.13654 31.1332,18.06587 66.8594,38.46101 88.3499,57.41716 z M 223.79114,592.42285 C 258.18419,573.39 361.97004,572.8773 306.48354,519.00209 281.11198,477.486 321.7654,400.36524 293.05981,379.53021 248.39997,407.14092 186.57056,413.19966 154.7316,457.56668 151.69042,507.7089 169.08423,567.10109 215.30497,593.7732 Z M 336.55471,551.94109 C 371.1837,529.99168 456.80648,525.47692 461.73941,494.658 428.01333,463.88535 448.51456,360.28278 394.84492,370.20101 c -39.77678,-1.3826 -95.47819,-15.94473 -90.93548,46.70872 -2.14281,44.45915 -10.32134,108.81754 32.64527,135.03136 z m 427.08298,-8.15595 c 43.29573,-36.9766 97.6746,-59.46885 136.7617,-100.29663 31.52576,-55.90516 -39.4631,-122.48648 -86.8658,-69.0977 -53.63193,22.75161 -107.88811,45.11985 -163.74245,62.17962 25.95614,43.52652 61.92629,103.62905 113.84655,107.21471 z m 165.1535,-24.60533 c 60.41085,-23.24528 119.69091,-56.0838 162.14621,-106.00734 27.3442,-28.91339 6.4047,-124.16794 -31.0011,-67.49689 -34.611,35.74272 -82.37776,58.90243 -129.15055,73.53771 -26.55107,-1.27794 -59.76171,73.01058 -53.96456,58.18182 40.07348,-3.40843 20.51254,65.37641 51.97,41.7847 z m 167.29661,-9.35261 c 54.7264,-15.57721 101.4289,-53.32298 139.4042,-94.59147 44.3925,-28.54671 9.3852,-135.59198 -34.2364,-102.0425 -31.0689,49.93792 -78.5465,85.92725 -123.8154,120.46585 -26.9458,22.72591 -41.6549,26.17875 -6.6478,47.65213 13.7777,11.79568 -0.2801,43.33162 25.2954,28.51599 z M 66.514301,505.91503 c 26.606791,-45.79384 -63.957973,-16.71015 -7.690274,1.70734 z m -11.03709,-2.04385 c -16.956716,-12.14112 43.745423,-11.40424 0,0 z m 427.114629,-6.12694 c 32.34454,-23.19373 100.09695,-24.59071 110.68472,-62.21665 16.58541,-58.46074 -50.50329,-88.81846 -79.8414,-128.60268 -47.22816,-49.52448 -67.33502,33.85793 -92.60692,58.96284 22.04185,37.54339 16.96682,122.14985 61.7636,131.85649 z m -381.3007,-25.31367 c 54.7325,-13.37144 89.48622,-61.16636 145.00473,-75.28259 59.26205,-6.292 49.62386,-73.85582 50.12879,-115.38872 -5.17543,-27.55782 -73.39445,18.69428 -100.42844,29.84943 -62.52675,44.26115 -128.364925,87.89352 -175.370259,149.16442 4.14254,40.22604 34.353293,-0.3193 54.16518,25.2413 9.13207,-3.95083 17.473337,-9.42497 26.499999,-13.58384 z m 503.76312,-27.67705 c 84.44245,-29.76424 172.48191,-52.44345 251.06467,-96.62258 56.21181,-32.30427 55.03129,-97.48615 52.89434,-154.08735 -29.40444,-23.92825 -70.9471,-77.27077 -110.22213,-52.69458 -87.05635,29.12353 -174.47208,58.54252 -259.02977,94.41834 -21.352,7.70656 -39.59214,86.13267 -29.91819,64.24922 31.35013,34.8563 88.36303,65.59785 88.23896,116.70333 2.5028,7.02883 -11.35999,38.57987 6.97212,28.03362 z m 329.23693,-29.80536 c 49.66152,-19.6989 104.34571,-42.69187 135.71441,-88.48906 33.8401,-38.28313 -22.1061,-111.39132 -55.7296,-60.57135 -39.92773,40.16286 -108.33466,20.52761 -139.03951,69.42437 -33.00259,22.05261 53.96719,34.3061 35.5547,76.37392 1.30363,14.66725 12.24111,3.55911 23.5,3.26212 z m 177.04531,-11.26664 c 47.6616,-39.47891 92.9107,-87.35769 114.968,-145.92674 15.3983,-45.61624 -55.5015,-94.20567 -70.3199,-33.63961 -21.4567,32.71022 -55.934,79.1422 -73.6934,99.25715 62.7258,-5.8507 -12.4938,112.02039 29.0453,80.3092 z m -803.834,-28.55867 c 52.90413,-6.06572 -2.87971,-45.40886 11.57903,-77.6871 -30.84215,-10.15904 -36.30631,90.79293 -11.57903,77.6871 z m 962.1285,-25.10168 c 41.989,-38.42853 100.5921,-67.64541 125.1597,-119.02032 14.7965,-37.58599 -56.4208,-93.24582 -81.8272,-67.02249 -21.3014,32.81556 -73.3199,48.36575 -82.4285,85.40939 1.7351,30.04395 -38.9747,52.18037 7.3262,61.43252 13.6403,7.93672 18.5542,57.83803 31.7698,39.2009 z m -178.6244,-43.32731 c 28.9145,-46.81226 81.3366,-85.70375 86.3399,-142.01842 4.4126,-61.42081 -66.0667,-60.38266 -82.5294,-9.96709 -39.5852,21.36474 -73.6103,87.65829 -21.1376,106.15826 21.7894,9.60738 -10.2614,81.13393 17.3271,45.82725 z m -169.71541,-4.43604 c 51.03998,-16.88448 121.09551,-36.4379 130.31451,-98.3657 5.2773,-35.17302 -52.50754,-87.12458 -77.41067,-46.69905 -54.50682,15.03566 -72.88634,51.27041 -63.94188,104.91958 3.55593,12.12404 -16.72408,50.84263 11.03804,40.14517 z m -600.25005,-9.0583 c 16.82371,-52.09675 83.5474,-72.79472 131.68955,-56.37538 -1.8694,-22.24587 68.33342,-39.48885 13.15262,-29.27956 -57.20861,10.15897 -111.94239,30.09917 -161.72531,60.2752 -10.88374,15.03523 -0.39454,33.65028 16.88314,25.37974 z m 190.08887,-11.13931 c 46.78797,-51.59143 -79.47189,-97.87157 -49.05888,-23.05868 -7.81856,37.78709 31.91013,37.92183 49.05888,23.05868 z m -72.95815,-8.51466 c -8.60342,-42.60587 -89.66922,16.52136 -29.52045,-6.36145 11.05088,-7.69549 26.82378,14.46211 29.52045,6.36145 z m 100.61928,-41.22679 c 88.74819,-38.23262 181.2912,-67.84723 272.33619,-99.93101 19.98541,-31.45048 115.9786,-49.89597 109.65949,-55.047652 -67.45074,6.530397 -131.51831,30.937612 -194.78998,53.590612 -64.55333,23.10882 -130.75017,43.18687 -196.63711,62.51729 -68.14415,-12.16303 -26.16484,62.73663 9.43141,38.87076 z m 695.02756,-2.10468 c 34.1972,-36.67831 93.9229,-63.64092 100.975,-116.34496 -12.6348,-55.142839 -98.3976,-60.444982 -119.9926,-7.03969 -34.3648,11.29695 -57.9761,78.80456 -17.5497,88.22532 19.1677,2.58708 29.0175,29.20296 36.5673,35.15933 z M 919.81469,185.88959 c 57.65521,-20.53641 77.54582,-69.29652 108.04961,-114.897711 10.6434,-20.446194 -67.27212,0.509913 -90.57283,6.683128 -28.92959,18.013837 -112.42707,20.831657 -104.82698,56.139263 32.15954,9.5407 58.72994,48.44009 87.3502,52.07532 z m 147.71661,-13.17844 c 30.7568,-27.87277 96.2884,-81.38289 55.7099,-122.728741 -55.6053,-2.896011 -119.4698,19.59717 -124.99748,83.492021 28.81918,2.4109 48.66018,60.44589 69.28758,39.23672 z m 111.6156,-41.8234 c 26.6517,-31.037622 83.6647,-54.958037 87.3482,-93.129501 -34.4247,-12.059971 -123.0495,-6.674804 -131.744,16.820511 27.5752,24.000662 -32.2684,68.13595 19.6148,57.58276 10.4004,0.86593 16.186,24.46613 24.781,18.72623 z M 1341.963,91.742059 c 42.6447,-9.196734 86.4155,-94.6422192 17.3962,-86.1775186 -27.0871,8.6267296 -99.5432,19.0061886 -97.5539,24.5796376 20.1327,19.471532 -8.6658,45.318516 38.1725,41.163813 19.1189,-2.730602 26.2433,33.704039 41.9852,20.434068 z"
     id="path1925"
     inkscape:connector-curvature="0" />
</svg>
