<?xml version="1.0" encoding="UTF-8" standalone="no"?>
<!-- Created with Inkscape (http://www.inkscape.org/) -->

<svg
   xmlns:dc="http://purl.org/dc/elements/1.1/"
   xmlns:cc="http://creativecommons.org/ns#"
   xmlns:rdf="http://www.w3.org/1999/02/22-rdf-syntax-ns#"
   xmlns:svg="http://www.w3.org/2000/svg"
   xmlns="http://www.w3.org/2000/svg"
   xmlns:sodipodi="http://sodipodi.sourceforge.net/DTD/sodipodi-0.dtd"
   xmlns:inkscape="http://www.inkscape.org/namespaces/inkscape"
   width="263.32303mm"
   height="152.70134mm"
   viewBox="0 0 263.32303 152.70134"
   version="1.1"
   id="svg8"
   inkscape:version="0.92.5 (2060ec1f9f, 2020-04-08)"
   sodipodi:docname="idPage1Img1.svg">
  <defs
     id="defs2" />
  <sodipodi:namedview
     id="base"
     pagecolor="#ffffff"
     bordercolor="#666666"
     borderopacity="1.0"
     inkscape:pageopacity="0.0"
     inkscape:pageshadow="2"
     inkscape:zoom="0.98994949"
     inkscape:cx="1321.8894"
     inkscape:cy="736.23022"
     inkscape:document-units="mm"
     inkscape:current-layer="layer1"
     showgrid="false"
     fit-margin-top="0"
     fit-margin-left="0"
     fit-margin-right="0"
     fit-margin-bottom="0"
     inkscape:window-width="1920"
     inkscape:window-height="1043"
     inkscape:window-x="0"
     inkscape:window-y="0"
     inkscape:window-maximized="1"
     inkscape:object-nodes="false" />
  <metadata
     id="metadata5">
    <rdf:RDF>
      <cc:Work
         rdf:about="">
        <dc:format>image/svg+xml</dc:format>
        <dc:type
           rdf:resource="http://purl.org/dc/dcmitype/StillImage" />
        <dc:title />
      </cc:Work>
    </rdf:RDF>
  </metadata>
  <g
     inkscape:label="Layer 1"
     inkscape:groupmode="layer"
     id="layer1"
     transform="translate(85.580635,-24.992266)">
    <path
       style="fill:#000000;stroke:#000000;stroke-width:1.39999998;stroke-miterlimit:4;stroke-dasharray:none;stroke-opacity:1"
       d="m -56.568629,177.2883 c 5.451321,-3.33667 25.137324,-1.48411 23.509727,-3.80791 -10.351593,-1.5372 -20.379758,-4.8327 -30.258028,-8.12946 -3.821799,-4.62897 9.805809,-8.47109 8.994244,-8.66279 -1.565919,3.87952 -14.062029,5.99147 -5.497288,8.78893 9.737625,3.46983 19.801203,6.20614 29.997657,7.75323 5.217119,-1.87239 8.979321,-0.16121 1.409635,0.46897 6.066491,4.72962 8.843008,-12.46783 7.608851,-3.97049 -4.132778,7.4073 12.2661224,2.3154 16.6197529,4.10479 8.8800036,-0.23546 18.1126241,2.6826 26.7095361,0.31348 -9.234394,-2.57286 -18.5071446,-0.88305 -27.801787,-2.81821 -10.53716,0.58748 -15.971926,-9.58087 -24.54494,-9.33484 -7.43882,0.32992 -14.361387,-3.0622 -21.071333,-5.611 -6.745521,-2.68567 -2.577761,-10.67797 -11.172429,-9.55401 -7.815802,-3.32575 -19.552391,-2.58418 -22.76529,-12.2398 -2.854312,-7.99929 3.516511,-14.86677 7.190476,-21.31517 -0.470439,-6.1655 -1.969266,-16.506157 5.499583,-21.250879 10.512927,-2.687332 -0.783361,-14.932751 5.981542,-21.840755 -0.527322,-7.37377 15.945397,-11.430977 7.413975,-15.16088 -9.343234,-5.004774 -2.54344,-18.873346 6.678306,-18.696778 0.933609,-2.520666 6.839741,-8.654273 -0.687492,-8.275018 -2.628975,-1.830921 -17.102624,-1.624215 -14.327707,-3.049421 8.150276,0.3571 16.82193,2.386248 24.018935,4.920615 10.331552,-1.710234 20.045049,2.218451 30.007338,3.725831 19.0914186,0.19054 38.177167,1.449504 56.993479,4.662836 17.665701,3.346831 35.472325,6.101447 52.939282,10.561859 10.026234,3.468054 19.985854,6.706392 29.944084,10.151485 15.4359,5.571507 31.62804,12.196056 42.5025,24.920353 6.65633,5.562554 12.03722,17.363032 4.72126,24.606642 -7.31572,7.62151 -16.86556,12.85593 -26.40822,17.15908 -3.24858,6.62641 -8.75275,16.49106 -18.06917,18.97263 -20.03678,10.28192 -41.484775,18.16901 -63.843825,21.54571 -14.730377,3.34248 -29.558706,6.56266 -44.456039,9.16757 -10.976148,1.2873 -22.3389646,-1.44312 -33.495834,-1.00711 -14.800598,-0.0895 -29.770382,1.01018 -44.315973,3.20036 l -0.02447,-0.2999 z m 34.57681,-3.72344 c -1.377299,-0.40576 -0.24999,0.43751 0,0 z m 51.083628,-0.44751 c 15.431624,-2.81111 30.611968,-6.7806 45.974939,-9.69996 -3.974662,-5.25616 1.781942,-13.66356 -8.084243,-9.285 -7.772215,1.49132 -28.893816,1.43827 -23.509726,13.6901 1.840657,4.65744 -3.975654,-5.88696 -8.030527,-1.57911 -8.609567,-0.10567 -18.757849,-2.86044 -26.3106129,-2.28424 -5.3171209,10.67708 14.2301749,8.98209 19.9601699,9.15821 z m -21.6294974,-1.412 c -0.096173,-3.73796 3.4215784,-12.94494 -5.7456115,-11.04102 -8.2750077,-2.5865 -19.8717331,-4.34335 -24.4377981,-12.22392 -1.352287,-6.40721 -14.471387,-2.34709 -20.12083,-6.29218 -4.710608,-0.5499 -17.951457,7.62185 -8.927833,12.59399 4.976029,2.73115 10.626568,4.35851 16.084701,5.98288 6.820709,1.46042 12.880756,1.87301 13.696768,-6.20106 8.058151,-3.07788 -7.654832,7.24767 1.440744,10.74275 8.61234,4.34465 18.4287009,6.46302 28.0098596,6.43856 z m 33.5094374,-7.13918 c -8.229385,-1.80149 -17.798759,-3.66125 -25.277905,-8.74562 -5.161755,-6.76804 -15.90042716,0.83532 -7.4068606,5.54714 9.4305326,3.27364 19.6543776,3.29531 29.5062146,4.10103 0.912836,-0.37502 2.876287,0.48057 3.178551,-0.90255 z m -0.407711,-1.48718 c 0.799929,-5.17215 15.246685,-7.13385 4.24587,-8.40914 C 33.302414,153.396 26.579823,142.40459 15.057678,143.30074 3.5531986,135.4739 0.72129188,154.40491 13.675004,153.96387 c 8.00482,3.69851 15.784314,8.26513 24.826091,9.01794 l 1.22776,0.18066 0.835219,-0.0835 z m 39.423845,-0.46613 c 18.40676,-4.56478 35.973577,-11.90076 52.695667,-20.65477 -7.48482,-4.39555 -19.24807,2.29615 -28.17229,3.36277 -9.77861,2.09455 -19.263854,5.30701 -29.028718,7.44444 -3.300333,2.97772 -1.420668,13.00906 4.505341,9.84756 z M 4.324011,159.29288 c -1.654188,-6.19359 6.868311,-6.892 -0.8678039,-10.3323 -6.6037808,-4.03182 -15.6091251,-5.10684 -21.4679111,-10.75752 -9.780212,6.27453 -0.535815,17.49507 8.4828038,17.63039 3.3312814,2.47188 11.8309922,5.35467 13.8529112,3.45943 z m 49.77816,-4.17179 c 12.018565,-0.7485 20.805337,-10.1493 29.645713,-17.21134 5.808329,-5.77597 5.952461,-8.85793 -2.769408,-8.02174 -7.478709,-0.97269 -15.895576,-5.0818 -20.759195,3.04933 -10.66554,5.72065 -22.281537,9.23601 -34.215093,11.11043 6.751169,7.01768 18.315652,10.62248 28.097983,11.07341 z m 15.874137,-2.41395 c 14.949542,-2.74281 29.400379,-7.44931 44.235792,-10.71838 3.79191,-2.48727 19.58143,-8.96446 14.28704,-11.99067 -10.78006,1.00433 -21.58203,1.7387 -32.362963,0.0416 -10.34304,-0.42838 -13.146086,14.48599 -23.111122,17.90415 -2.74174,2.91407 -14.375904,7.59864 -3.048747,4.76331 z M 3.4386311,145.9653 c 8.4348659,-6.88629 -4.15186203,-14.88253 1.1704701,-24.30022 2.2528262,-5.51064 8.2476988,-7.43069 0.00679,-11.67627 -7.3639914,-5.05535 2.7855637,-17.304049 -7.2481714,-17.795156 -5.7810965,-11.746402 -16.9639928,4.305539 -19.9090798,11.404816 -2.831139,12.0593 9.349909,18.3836 18.2520992,22.73231 4.13148334,0.81168 12.2523475,2.25468 3.0626499,1.68059 -8.4346276,-0.48632 -16.8028891,-14.43728 -22.2222331,-1.49665 -1.897715,11.27932 14.0343018,15.20503 22.2781357,19.29705 1.12364292,0.1401 4.9308823,2.88036 4.6093375,0.15353 z m -55.7555021,-0.49666 c 11.770033,-4.26999 -3.527338,-8.51326 -1.476981,-16.50667 -8.626825,-3.21256 -16.310294,-8.58406 -21.802388,-16.07486 -3.498773,3.3154 -5.547065,8.32484 -7.983557,12.57334 -3.483953,6.63929 1.153847,14.57807 7.841239,16.4281 6.843666,1.69576 13.555867,4.52085 20.589854,5.32198 1.069181,-0.0243 1.896656,-1.26389 2.831833,-1.74189 z m 28.386748,-0.82796 c 1.607329,-4.77889 9.207948,-8.09315 0.392766,-10.62326 -1.143634,-7.55002 -10.963567,-6.3592 -15.565712,-11.74738 -4.440074,-4.65675 -10.72938,-10.20791 -11.551804,0.53542 -4.141336,7.5401 -0.729808,17.45454 8.644418,18.59982 6.04074,1.01103 11.894123,3.83222 18.080332,3.2354 z m 53.021932,-1.94859 c 11.520532,-2.43772 23.238498,-5.70682 33.022471,-12.4796 6.758551,-6.05915 -13.680237,-3.11092 -17.712052,-5.6071 -11.918935,-0.51008 -23.603961,-4.06745 -34.369148,-8.62199 -7.1237615,4.71181 -8.0932827,20.17534 0.0016,23.7849 5.105439,4.11996 12.853697,3.97997 19.057151,2.92379 z M 134.41015,141.007 c 8.56161,-2.68527 10.56003,-18.22112 -1.3378,-12.1111 -3.34345,3.78003 -8.80048,10.44793 -14.5919,11.93218 5.11359,-0.30823 11.88764,-3.1994 15.9297,0.17892 z m 9.68021,-9.98784 c 2.4642,-7.68653 -4.7323,-1.94518 -1.12101,1.79309 l 1.12094,-1.79316 z m -28.46273,-1.46272 c 10.68855,0.39891 21.40572,-2.77108 24.21592,-14.26706 3.34006,-9.2377 -3.32435,-18.60739 -12.99247,-18.623259 -5.83751,-0.0096 -17.20136,3.193665 -18.4099,-4.669949 9.45555,13.046348 21.34743,-4.517441 13.25433,-14.243381 -0.61093,-8.616069 -17.27766,-13.824201 -10.07158,-2.26437 2.85197,9.514189 -4.33471,21.5247 -14.810334,21.210191 2.40073,10.379068 0.488321,21.951898 -4.407729,31.262958 7.706733,0.68004 15.445703,2.42716 23.221763,1.59487 z m -26.023258,-1.37187 c 7.109988,-5.47437 6.944768,-16.92443 7.364826,-25.41334 0.817546,-6.867065 -8.588612,-10.124256 -13.590714,-11.433171 -11.103927,-3.057996 -3.714473,10.551971 -9.058936,15.875151 -1.694373,7.63828 -14.198314,22.34791 1.666638,20.24793 4.488553,0.45762 9.122281,1.80692 13.618186,0.72343 z m -114.355358,-0.7236 c 1.372283,-6.06906 10.954494,-7.50498 2.870295,-13.00501 -0.0547,-10.95804 -10.669351,-14.668132 -17.352354,-21.519579 -4.254563,4.161994 -9.94902,9.910939 -9.792901,16.328909 0.761198,7.27506 9.331396,10.14335 14.266927,14.50704 2.168855,1.85938 7.989073,5.68468 10.008033,3.68864 z m -27.982523,-0.54319 c 2.375646,-7.15369 5.556432,-12.24567 3.072697,-19.51614 -0.274775,-6.19041 -11.809904,-6.84423 -14.168772,-13.867486 -2.268534,-7.007551 -9.64696,0.0936 -11.496823,3.915651 -5.288456,7.313665 -0.182907,15.798475 5.896853,20.937795 4.14956,3.55903 12.473637,10.14701 16.696045,8.53018 z m 188.611049,-0.11841 c 6.44685,-1.3001 21.13733,-3.16779 22.2319,-9.34249 -6.63893,-3.19969 -9.7135,-10.50012 -13.67977,-15.65744 -9.99287,-2.525753 1.15254,10.52452 -5.54747,16.90928 -1.42702,5.30001 -13.73414,11.3519 -3.00466,8.09065 z M 66.482296,124.99549 C 69.127269,114.61352 76.086565,105.46019 76.664208,94.562646 74.238435,88.042763 64.139935,83.247416 68.040489,73.355951 54.852181,67.65064 40.225779,66.473388 26.028559,65.54315 18.786517,70.533978 12.164819,77.999382 6.5814898,85.193809 c -5.92938281,9.216416 -6.7036246,24.182681 4.9727142,29.386751 11.065322,5.98519 23.531802,7.576 35.849136,8.6938 5.251799,-0.39453 16.203351,4.55513 19.078956,1.72113 z m 95.023774,-7.8724 c 6.98543,-4.43035 18.23253,-11.39346 14.46283,-21.123889 -0.30285,-4.087451 -9.5284,-15.760985 -10.34552,-12.613124 5.48864,10.485391 -5.85716,17.829693 -4.82072,27.871473 -1.8848,11.70013 -1.65606,-6.81551 1.35612,-10.86994 5.24112,-10.781085 -14.97461,-1.797332 -14.53606,3.31386 1.15656,3.5148 5.87273,13.76126 7.22184,5.53093 9.75017,-2.43995 -2.75557,10.52653 6.66151,7.89069 z M -23.551202,104.26424 c 1.115529,-9.022807 12.061619,-15.340083 16.2918052,-19.045269 -4.2685902,-8.993036 -13.0925122,-14.24826 -19.9792842,-20.852587 -7.284859,0.558726 -17.443303,8.201352 -16.761499,17.25812 0.423104,11.131434 13.343591,15.116753 19.288201,22.692416 l 0.844355,0.6087 0.316398,-0.66138 z m -25.031277,-1.89769 c 3.547341,-5.796045 12.355564,-10.321462 4.189932,-16.518264 -0.314162,-8.901668 3.465003,-15.946118 -5.230364,-22.199276 -4.359152,-10.891633 -13.934557,0.707442 -15.785886,7.283779 -5.100594,9.054132 -1.190922,20.125979 6.396817,26.411879 2.024796,1.365378 8.358586,8.939652 10.429501,5.021882 z m 196.098319,-1.56412 c 4.88222,-5.668602 13.8294,-6.685845 18.05407,-6.112425 -0.0906,-7.148912 1.13451,-16.113286 -7.05699,-19.384135 -12.36252,-8.393096 -26.41456,-14.315244 -40.90986,-17.806499 4.98673,4.667705 0.96967,11.539302 3.29845,16.43983 6.65321,5.628281 0.81065,18.761535 4.00715,21.591292 6.90254,-0.77449 11.56533,4.944217 17.57813,5.348247 1.51936,-1.804921 4.44012,2.45337 5.02905,-0.0763 z M 2.4691001,92.446866 C 4.9026327,80.505092 16.435059,74.510753 23.000617,65.171873 16.532301,57.698244 6.3799019,55.988667 -1.1223196,49.962444 -9.741734,46.368651 -20.513607,37.867348 -28.548745,46.361211 c -12.584302,7.758737 2.498144,18.45362 9.466292,23.532977 8.701579,5.624502 11.6005095,16.690189 19.17216576,22.694253 l 1.75426784,0.25987 0.6251195,-0.401463 z M 83.634277,90.442087 c 2.016631,-3.547246 -5.279068,-15.426972 1.72846,-21.034678 -1.681169,-5.09572 -18.566966,-3.921916 -16.737162,6.335802 -1.120526,8.726652 5.573583,17.756384 15.008702,14.698876 z m 10.131197,-18.27131 c 3.884445,-0.787513 12.132226,1.395331 5.223253,-4.447614 -3.880631,-4.673429 -14.068198,7.800156 -5.223253,4.447614 z M 68.637637,71.435389 C 75.003444,66.200985 66.671312,57.537326 75.497338,52.707417 70.355678,44.956236 63.425823,41.486037 54.227232,40.924423 31.363142,36.689501 8.1697189,34.439202 -15.093385,34.268046 c -8.275965,-3.929044 -13.446978,8.085664 -2.68918,7.855895 11.2155137,2.408843 20.0162489,9.785032 30.242498,14.315539 8.035069,6.236083 15.988562,10.047393 26.510971,9.372376 9.902791,0.362367 21.652976,4.409498 29.666733,5.623533 z M -40.704676,70.375212 c 4.768234,-5.379289 16.854696,-6.4301 6.723961,-13.156341 2.125313,-8.856665 -6.895651,-13.082775 -12.608758,-18.044058 -7.049837,-6.593065 -20.241732,4.872398 -14.25183,12.755273 7.199079,4.397033 12.323331,10.847342 17.213869,17.680962 0.812154,0.294253 1.974298,3.568668 2.922758,0.764164 z M 119.24471,69.794024 C 123.4002,56.100527 106.26102,57.13274 97.85743,54.28794 89.29558,52.352255 76.361424,49.220711 71.677583,59.281987 c -3.24379,10.138355 9.790373,5.161565 15.26414,7.976144 5.936621,-6.10189 16.264697,-5.322637 21.561567,1.226414 4.26382,-2.726747 8.25274,0.932726 10.74142,1.309479 z M 116.503,57.307312 C 112.55151,53.472292 99.863513,51.809915 92.882744,48.6804 85.92943,47.626504 73.057199,43.439748 69.595044,44.614561 c 5.087493,11.669116 17.217211,4.797654 27.00214,8.47954 6.437366,1.616806 13.737226,3.814486 19.905816,4.213211 z M -29.881679,46.134413 c 5.426316,-2.882392 7.260704,-4.103772 4.704266,-9.482022 8.659491,-7.294355 -11.006645,-6.403989 -15.990118,-5.726586 -8.134569,-3.524585 -12.60002,6.014813 -3.21588,8.621366 5.341701,1.820629 9.107722,13.778681 14.501732,6.587242 z"
       id="path880"
       inkscape:connector-curvature="0"
       sodipodi:nodetypes="cccccccccccccccccccccccccccccccccccccccccccccccccccccccccccccccccccccccccccccccccccccccccccccccccccccccccccccccccccccccccccccccccccccscccccccccccccccccccccccccccccccccccccccccccccccccccccccccccccccccccccccccccccccccccccccccccccccccccccccccccccccccc" />
    <path
       style="fill:none;stroke:none;stroke-width:0.26458332px;stroke-linecap:butt;stroke-linejoin:miter;stroke-opacity:1"
       d="m 80.303665,127.28103 2.83482,0.47247 3.590774,0.0472 c 2.045116,0.52795 3.574881,-0.66194 4.866444,-2.64584 1.099822,-1.63438 1.921952,-3.4539 2.645833,-5.33891 0.850927,-3.52173 1.64054,-7.14564 1.748139,-11.90625 0.352757,-3.85665 0.339615,-6.77242 -0.188986,-8.362722 -1.525463,-2.149379 -2.806319,-4.373204 -7.134302,-5.669643 0,0 -3.307291,-1.417412 -7.039806,-2.220611 l -1.984377,-4e-6 c -3.260045,-0.236235 -2.929314,12.80395 -2.929314,12.80395 0,0 -0.920882,2.74587 -1.795386,3.21279 -0.566965,3.05945 -2.362352,5.95313 -3.779763,8.83519 -1.250612,3.37351 -3.461747,7.15641 -1.88988,9.11869 1.275669,1.93712 7.370536,1.03943 7.370536,1.03943 z"
       id="path1973"
       inkscape:connector-curvature="0"
       sodipodi:nodetypes="cccccccccccccccc" />
    <path
       style="fill:none;stroke:none;stroke-width:0.26458332px;stroke-linecap:butt;stroke-linejoin:miter;stroke-opacity:1"
       d="m 97.690568,97.373663 c 1.141073,5.228677 0.851427,10.457347 0.377975,15.686017 -0.78869,5.04549 -2.493437,9.72455 -4.535712,14.2686 7.165799,1.00471 14.331599,2.19838 21.497389,1.74814 9.91419,-0.45634 20.57247,-1.50338 24.33222,-14.2686 2.19045,-11.69705 -3.22182,-16.219972 -11.57552,-17.38691 -8.68927,0.06564 -11.96524,0.813551 -12.99293,0.519719 0,0 -4.76114,0.318598 -6.99256,-5.338914 -2.75108,2.966659 -6.22796,4.320443 -10.110862,4.771948 z"
       id="path1975"
       inkscape:connector-curvature="0"
       sodipodi:nodetypes="ccccccccc" />
  </g>
</svg>
