<?xml version="1.0" encoding="UTF-8" standalone="no"?>
<!-- Created with Inkscape (http://www.inkscape.org/) -->

<svg
   xmlns:dc="http://purl.org/dc/elements/1.1/"
   xmlns:cc="http://creativecommons.org/ns#"
   xmlns:rdf="http://www.w3.org/1999/02/22-rdf-syntax-ns#"
   xmlns:svg="http://www.w3.org/2000/svg"
   xmlns="http://www.w3.org/2000/svg"
   xmlns:sodipodi="http://sodipodi.sourceforge.net/DTD/sodipodi-0.dtd"
   xmlns:inkscape="http://www.inkscape.org/namespaces/inkscape"
   width="100%"
   viewBox="0 0 388.39651 116.00159"
   version="1.1"
   id="svg8"
   inkscape:version="0.92.5 (2060ec1f9f, 2020-04-08)"
   sodipodi:docname="slide1.svg">
  <defs
     id="defs2" />
  <sodipodi:namedview
     id="base"
     pagecolor="#ffffff"
     bordercolor="#666666"
     borderopacity="1.0"
     inkscape:pageopacity="0.0"
     inkscape:pageshadow="2"
     inkscape:zoom="0.7"
     inkscape:cx="907.64207"
     inkscape:cy="336.56866"
     inkscape:document-units="mm"
     inkscape:current-layer="layer1"
     showgrid="false"
     fit-margin-top="0"
     fit-margin-left="0"
     fit-margin-right="0"
     fit-margin-bottom="0"
     inkscape:window-width="1920"
     inkscape:window-height="1043"
     inkscape:window-x="0"
     inkscape:window-y="0"
     inkscape:window-maximized="1" />
  <metadata
     id="metadata5">
    <rdf:RDF>
      <cc:Work
         rdf:about="">
        <dc:format>image/svg+xml</dc:format>
        <dc:type
           rdf:resource="http://purl.org/dc/dcmitype/StillImage" />
        <dc:title></dc:title>
      </cc:Work>
    </rdf:RDF>
  </metadata>
  <g
     inkscape:label="Layer 1"
     inkscape:groupmode="layer"
     id="layer1"
     transform="translate(-36.184911,-160.73889)">
    <path
       style="fill:#000000;stroke-width:0.35277778"
       d="m 198.4627,270.91965 v -5.82084 h 1.5875 1.5875 v 4.57066 4.57066 l 2.55763,0.10365 2.55764,0.10365 0.11055,1.14652 0.11055,1.14653 h -4.25569 -4.25568 z m 10.23055,0 v -5.82084 h 1.5875 1.5875 v 4.58612 4.58611 h 2.64584 2.64583 v 1.23472 1.23472 h -4.23333 -4.23334 z m 15.875,4.7625 c 0,-0.99954 0.0784,-1.05834 1.41111,-1.05834 h 1.41111 v -3.71088 -3.71089 l -0.97013,0.21257 c -0.53358,0.11692 -1.16858,0.27371 -1.41112,0.34843 -0.29194,0.0899 -0.44097,-0.26279 -0.44097,-1.0437 0,-1.03888 0.13148,-1.20585 1.10243,-1.40004 0.60634,-0.12127 1.87634,-0.22049 2.82223,-0.22049 h 1.71979 v 4.7625 4.7625 h 1.41111 c 1.33272,0 1.41111,0.0588 1.41111,1.05834 v 1.05833 h -4.23333 -4.23334 z M 55.940467,271.01129 c 0,-0.69499 5.415382,-1.57944 11.641667,-1.90135 l 4.7625,-0.24622 -2.822222,-0.58691 c -3.573563,-0.74315 -7.128699,-1.7503 -13.581945,-3.84769 -4.842321,-1.57382 -5.121344,-1.7144 -5.228963,-2.63442 -0.14724,-1.25874 0.412337,-1.89829 2.045756,-2.33812 0.726393,-0.1956 2.041948,-0.99048 2.923456,-1.76642 1.549816,-1.3642 2.376418,-1.7465 2.376418,-1.09906 0,0.63145 -2.966601,2.96595 -4.798578,3.77614 -1.191515,0.52694 -1.823701,1.00309 -1.71341,1.29051 0.09613,0.2505 1.521276,0.92221 3.166995,1.49268 1.645718,0.57046 2.992215,1.16285 2.992215,1.31641 0,0.15356 0.385419,0.2792 0.856487,0.2792 0.890191,0 6.362958,1.4069 8.044025,2.0679 0.903882,0.35541 5.948085,0.92514 7.503655,0.84753 3.448918,-0.17209 4.410806,-0.30618 4.417569,-0.61583 0.0043,-0.19763 0.318283,-0.7562 0.697709,-1.24127 0.923061,-1.18007 0.879631,-1.91052 -0.176388,-2.96654 -0.48507,-0.48507 -0.881945,-1.13665 -0.881945,-1.44797 0,-0.31131 -0.14314,-0.47755 -0.318089,-0.36943 -0.696489,0.43045 -8.710012,-0.50715 -10.618023,-1.24235 -1.067152,-0.41119 -2.972152,-1.07501 -4.233333,-1.47516 -4.132871,-1.31127 -6.415729,-3.22889 -6.484739,-5.44722 -0.04137,-1.32985 -0.05466,-1.34158 -1.981928,-1.74921 -1.067153,-0.22571 -2.892778,-0.74948 -4.056945,-1.16393 -1.164166,-0.41445 -3.170682,-0.97797 -4.458923,-1.25226 -2.380497,-0.50685 -6.298968,-2.10061 -6.30303,-2.56363 -0.0012,-0.13983 -0.459434,-0.51432 -1.018238,-0.83219 -1.227381,-0.69817 -2.507309,-3.80751 -2.507309,-6.09102 0,-1.78003 1.090577,-4.65814 2.619478,-6.91298 0.592025,-0.87312 1.428157,-2.34156 1.85807,-3.26319 0.429912,-0.92163 0.947713,-1.6757 1.150667,-1.6757 0.531767,0 0.454029,-0.92895 -0.180404,-2.15581 -0.699692,-1.35306 -0.737807,-4.64858 -0.07554,-6.53108 0.890922,-2.53244 2.46572,-4.60479 4.437419,-5.83941 3.20646,-2.00778 2.993416,-1.72132 2.377093,-3.19638 -0.840247,-2.011 -0.731744,-6.91415 0.203575,-9.19942 2.29802,-5.61476 4.417969,-8.60153 7.083571,-9.97997 0.993796,-0.51391 1.015916,-0.57091 0.402056,-1.03605 -0.357279,-0.27072 -0.812756,-0.49726 -1.012169,-0.50344 -0.199414,-0.006 -0.617941,-0.28903 -0.930061,-0.62858 -0.312119,-0.33954 -0.879648,-0.85548 -1.261175,-1.14652 -1.642968,-1.25332 -2.004974,-4.2299 -0.828255,-6.81033 1.240699,-2.72073 2.148573,-3.40103 6.116089,-4.58299 1.16501,-0.34707 1.322917,-0.52664 1.322917,-1.50444 0,-0.70482 0.332688,-1.4693 0.910935,-2.09324 0.675723,-0.72912 0.79642,-1.05369 0.467438,-1.25701 -1.088441,-0.6727 -8.614869,-2.06751 -11.697123,-2.16774 -0.848103,-0.0276 -1.322917,-0.21243 -1.322917,-0.51503 0,-0.57744 -0.291141,-0.58028 4.599519,0.0449 4.599393,0.58791 4.697609,0.60643 7.571315,1.42825 1.164166,0.33293 2.513541,0.62148 2.998611,0.64122 0.485069,0.0197 0.996022,0.19996 1.135451,0.40048 0.157463,0.22645 1.797757,0.32299 4.329576,0.2548 4.260774,-0.11476 8.496348,0.50284 11.051779,1.61148 1.932968,0.83859 1.77952,0.82271 9.941528,1.02891 4.171598,0.10539 7.735536,0.33318 7.919862,0.5062 0.184326,0.17302 2.327451,0.31522 4.762504,0.316 2.43505,7.7e-4 5.85611,0.22459 7.60236,0.49737 1.74625,0.27277 4.28625,0.5986 5.64445,0.72406 1.35819,0.12547 3.66006,0.45105 5.11527,0.72351 1.45521,0.27247 3.99521,0.67711 5.64445,0.89919 5.42443,0.73045 7.08482,1.02584 7.74147,1.37727 0.35657,0.19083 1.99975,0.50052 3.65152,0.68821 1.65176,0.18768 3.85188,0.5692 4.88914,0.84781 1.03726,0.27862 2.99717,0.6963 4.35537,0.9282 6.84495,1.1687 14.44027,3.05143 16.22778,4.02255 0.77017,0.41842 1.76055,0.71955 7.01794,2.13384 1.91959,0.51639 3.90397,1.22212 4.40973,1.56829 0.50575,0.34616 1.95143,0.91135 3.21261,1.25598 1.26118,0.34462 2.92805,0.86738 3.70416,1.16167 7.11264,2.69706 12.52361,5.05242 12.52361,5.45143 0,0.16333 0.23114,0.29697 0.51365,0.29697 0.64999,0 3.39862,1.61624 7.24747,4.26163 3.28512,2.25793 4.64748,3.43235 5.51174,4.75137 0.31164,0.47563 0.691,0.86478 0.84301,0.86478 0.15201,0 2.30389,-3.17973 4.78196,-7.06607 2.59917,-4.07626 4.63713,-6.93453 4.81649,-6.75517 0.17935,0.17935 -1.50347,3.12261 -3.97713,6.95604 -2.35842,3.65483 -4.37247,6.86517 -4.47567,7.13411 -0.10527,0.27434 0.44066,1.13557 1.24378,1.96211 1.54245,1.58743 3.39497,5.28044 4.03098,8.03574 0.30902,1.33878 0.29122,2.03705 -0.082,3.21804 -0.53274,1.68552 -0.59162,1.89807 -0.65457,2.36325 -0.0705,0.52067 -4.68598,4.99276 -6.04132,5.85357 -0.6791,0.43132 -2.61353,1.67676 -4.29874,2.76765 -1.68521,1.09088 -3.51084,2.17751 -4.05695,2.41472 -0.54611,0.23721 -1.56302,0.78018 -2.2598,1.20659 -0.69678,0.42641 -1.89542,0.96361 -2.66365,1.19378 -1.23973,0.37143 -1.38879,0.53368 -1.32582,1.44316 0.0959,1.38573 -1.28212,4.0127 -3.17947,6.06097 l -1.56278,1.68709 7.46874,6.52826 c 4.10781,3.59055 7.52166,6.68104 7.58634,6.86777 0.34986,1.0101 -1.30576,-0.25327 -7.78237,-5.93854 -3.93354,-3.45293 -7.35323,-6.40096 -7.5993,-6.55119 -0.38599,-0.23564 -2.70295,0.86255 -3.25676,1.54364 -0.097,0.11931 -1.12889,0.58856 -2.29305,1.04277 -1.76805,0.68983 -4.7436,2.11433 -10.77869,5.16013 -0.4955,0.25007 -1.84487,0.7929 -2.99861,1.20629 -1.15374,0.41338 -2.4152,0.90066 -2.80326,1.08284 -3.60961,1.69461 -15.83589,5.13691 -22.93056,6.45609 -3.88055,0.72155 -7.76993,1.52575 -8.64305,1.78712 -0.87313,0.26137 -2.8575,0.73728 -4.40973,1.05758 -1.55222,0.3203 -3.37784,0.72015 -4.05694,0.88855 -0.6791,0.16841 -1.9491,0.4127 -2.82222,0.54288 -0.87313,0.13018 -2.77813,0.52032 -4.23334,0.86699 -1.4552,0.34666 -3.83645,0.82261 -5.29166,1.05766 -1.45521,0.23505 -3.43959,0.6108 -4.40972,0.835 -0.97014,0.22421 -1.96132,0.38724 -2.20261,0.3623 -0.73057,-0.0755 -7.576564,-0.44362 -15.905616,-0.85522 -4.332711,-0.21412 -9.174586,-0.30592 -10.759723,-0.20399 -1.585133,0.10192 -5.977686,0.36419 -9.761227,0.58281 -5.967366,0.34483 -12.615573,1.13712 -14.022918,1.67117 -0.242534,0.092 -0.440972,-0.0635 -0.440972,-0.34568 z m 51.741283,-1.93087 c 1.06993,-0.41679 -6.10866,-1.46254 -8.702392,-1.26774 -2.05249,0.15415 -4.755127,-0.16321 -10.804335,-1.26873 -0.994675,-0.18177 -2.97905,-0.79939 -4.409723,-1.37248 l -2.601221,-1.04197 -0.604499,1.22676 c -0.332475,0.67472 -0.770995,1.42738 -0.974488,1.67258 -0.262224,0.31596 -0.240281,0.54821 0.07533,0.79738 0.247773,0.19562 4.435969,0.46924 9.441156,0.61683 4.947708,0.14588 10.186458,0.37994 11.641672,0.52013 3.79827,0.36591 6.19614,0.40642 6.9385,0.11724 z m 11.22955,-2.10196 c 2.52236,-0.50087 4.62225,-0.93992 4.6664,-0.97568 0.0442,-0.0357 -0.29167,-0.60784 -0.74628,-1.27131 l -0.82658,-1.20631 -2.6888,0.11221 c -1.47884,0.0617 -4.31801,-0.13377 -6.30927,-0.43441 -1.99125,-0.30065 -5.12859,-0.71586 -6.97186,-0.9227 -1.84326,-0.20683 -3.74826,-0.46159 -4.23333,-0.56612 -0.71002,-0.15301 -1.00543,0.0196 -1.51541,0.88525 -0.539669,0.91609 -0.573101,1.27682 -0.22577,2.43609 0.49124,1.63962 1.22668,1.95783 5.79812,2.50873 1.74625,0.21043 3.65126,0.44263 4.23334,0.51599 1.5626,0.19692 3.70087,-0.0653 8.81944,-1.08174 z m -19.565815,-0.9977 c -0.247315,-1.60535 -0.21082,-3.44302 0.08465,-4.26259 0.347769,-0.96465 -0.757713,-1.47822 -4.116084,-1.91221 -3.135016,-0.40512 -5.992647,-1.24914 -6.565244,-1.93908 -0.240524,-0.28982 -1.444946,-0.83816 -2.676497,-1.21855 -1.231547,-0.38038 -2.720651,-0.94059 -3.309123,-1.2449 -0.952482,-0.49255 -1.069943,-0.4942 -1.069943,-0.0151 0,0.33758 -0.325737,0.53822 -0.873813,0.53822 -1.197247,0 -2.065253,1.42694 -2.036219,3.34741 0.0371,2.45456 0.303921,2.86518 2.419777,3.72394 1.074956,0.43629 2.140955,0.96986 2.368888,1.1857 1.009397,0.95585 11.189699,3.02099 14.349146,2.91081 1.555647,-0.0542 1.584229,-0.0766 1.42446,-1.11369 z m 28.914425,-0.91223 c 0.6791,-0.17521 1.73744,-0.31945 2.35186,-0.32052 0.61442,-0.001 1.17004,-0.15169 1.23472,-0.33467 0.0647,-0.18298 0.83197,-0.49491 1.70509,-0.69316 2.35017,-0.53365 7.74451,-1.53094 9.26263,-1.71246 0.72882,-0.0871 1.39613,-0.27332 1.48291,-0.41372 0.0868,-0.14041 -0.0834,-1.03645 -0.37821,-1.99121 -0.30775,-0.99675 -0.45729,-2.34931 -0.35118,-3.17643 0.22366,-1.74347 0.40738,-1.71307 -5.07726,-0.83991 -2.23132,0.35523 -5.32436,0.83273 -6.87342,1.06111 -4.31844,0.63669 -8.10278,2.65127 -8.70438,4.63374 -0.35778,1.17902 -0.30062,1.44524 0.62463,2.90934 1.10733,1.75222 1.23891,1.77667 4.72261,0.87789 z m -7.45243,-2.30687 c 1.79507,-0.35901 1.27002,-0.73017 -1.40596,-0.99385 -3.34842,-0.32995 -9.28057,-2.12478 -11.11538,-3.36307 -0.8137,-0.54916 -1.85154,-1.1127 -2.30631,-1.25232 -0.45477,-0.13961 -0.98561,-0.37443 -1.17964,-0.52181 -0.19403,-0.14739 -1.36584,-0.67356 -2.60403,-1.16929 -2.11539,-0.84691 -2.30363,-0.86699 -3.11898,-0.33275 -1.19791,0.7849 -1.643649,2.09055 -1.133863,3.32129 0.6768,1.63393 4.825173,2.95037 10.985653,3.48615 2.19181,0.19063 4.69949,0.48412 5.57261,0.65221 1.98935,0.38298 4.86303,0.46202 6.3059,0.17344 z m 1.2789,-2.24919 c 0.26072,-0.82146 1.98233,-2.20588 3.92803,-3.15869 0.91026,-0.44576 1.18764,-0.72608 0.83439,-0.84322 -0.29104,-0.0965 -2.59291,-0.84876 -5.11527,-1.67166 -2.52237,-0.8229 -5.14174,-1.80355 -5.82084,-2.17923 -1.79698,-0.99409 -4.93889,-3.40448 -4.93889,-3.78899 0,-0.18165 -0.2341,-0.24044 -0.52023,-0.13065 -0.98477,0.37789 -6.59596,-0.60213 -8.38271,-1.46409 -1.32508,-0.63924 -1.93139,-0.76484 -2.422713,-0.50189 -0.977942,0.52338 -2.434244,2.84151 -2.42153,3.85457 0.01235,0.98309 1.447024,2.82853 2.198962,2.82853 0.264037,0 1.302751,0.39687 2.308251,0.88194 1.0055,0.48507 1.97195,0.88195 2.14766,0.88195 0.49713,0 3.58475,1.51209 5.18216,2.53784 1.54055,0.98925 5.17195,2.17962 8.94208,2.93123 3.30698,0.65928 3.82214,0.63685 4.08065,-0.17764 z m 28.22215,-0.20182 c 1.74625,-0.48744 3.97514,-1.10695 4.95309,-1.37668 0.97796,-0.26973 2.48608,-0.74652 3.35139,-1.05954 0.86531,-0.31301 2.44642,-0.87039 3.51357,-1.23863 1.06716,-0.36824 3.28966,-1.17141 4.93889,-1.78483 1.64924,-0.61341 3.27643,-1.19648 3.61597,-1.29571 0.33955,-0.0992 0.61737,-0.32064 0.61737,-0.49203 0,-0.1714 0.16519,-0.31164 0.36709,-0.31164 0.30154,0 5.03821,-2.20049 11.18638,-5.19679 1.32988,-0.64811 1.39112,-0.83074 0.47127,-1.40519 -0.47524,-0.2968 -1.02314,-0.32193 -1.84975,-0.0849 -0.64598,0.18526 -1.81055,0.33808 -2.58794,0.33959 -0.7774,0.001 -2.68344,0.32694 -4.23567,0.72316 -4.19731,1.0714 -6.66683,1.64996 -10.58333,2.47942 -1.94028,0.41093 -4.16278,0.98488 -4.93889,1.27546 -0.77611,0.29057 -2.33048,0.73706 -3.45417,0.99219 -1.12368,0.25513 -2.79055,0.70584 -3.70416,1.00157 -0.91361,0.29573 -2.61361,0.72349 -3.77778,0.95059 -3.04551,0.59407 -2.97988,0.55775 -3.57306,1.97743 -0.45556,1.09031 -0.47266,1.54837 -0.10658,2.85586 0.48668,1.73827 1.144,2.56352 2.02914,2.54757 0.32569,-0.006 2.02092,-0.40949 3.76717,-0.89694 z m -72.309118,-2.16709 c 0.499417,-2.22848 0.937105,-2.80337 2.374752,-3.11913 l 1.101609,-0.24195 -0.906837,-0.47514 c -0.910752,-0.47719 -2.05069,-2.71868 -2.05069,-4.03233 0,-0.56227 -0.257895,-0.70895 -1.322917,-0.75247 -3.216575,-0.13144 -4.533459,-0.23495 -5.027083,-0.39513 -1.360774,-0.44158 -4.611021,-1.30505 -6.52639,-1.73383 l -2.116666,-0.47384 -1.612307,1.24023 c -2.649847,2.03834 -3.917039,2.99123 -4.293492,3.22858 -0.642122,0.40486 -0.372898,2.08738 0.48184,3.01127 1.192217,1.28868 3.145658,2.46689 4.85166,2.92627 0.807154,0.21734 2.203053,0.71044 3.101998,1.09577 1.839139,0.78835 2.947661,1.00814 6.995301,1.38696 4.551948,0.42602 4.474729,0.452 4.949222,-1.66526 z m 18.934586,-0.23941 c -0.16401,-1.40487 0.787033,-3.6392 1.635118,-3.84144 0.420843,-0.10036 0.325237,-0.21329 -0.338289,-0.39962 -0.508706,-0.14285 -1.121491,-0.62703 -1.361747,-1.07595 -0.482604,-0.90175 -0.894313,-1.14445 -4.239722,-2.49928 -1.261181,-0.51075 -3.642431,-1.47921 -5.291667,-2.15213 -1.649236,-0.67292 -3.594294,-1.69803 -4.322354,-2.27804 l -1.323738,-1.05456 -0.857462,0.92521 c -1.299729,1.40244 -1.72877,3.9533 -1.029233,6.11929 0.524662,1.62452 0.71168,1.81649 2.550181,2.6176 1.091195,0.47549 2.833797,1.13177 3.872446,1.4584 1.038645,0.32662 2.467395,0.97599 3.175,1.44305 1.449532,0.95675 4.539001,1.87683 6.419183,1.9117 1.219377,0.0226 1.248428,-0.008 1.112284,-1.17423 z m 37.675922,-2.7202 c 1.95981,-0.56624 4.69121,-1.84775 5.37228,-2.52055 0.34371,-0.33955 0.77839,-0.61736 0.96594,-0.61736 0.18755,0 1.13936,-0.70906 2.11513,-1.57568 0.97577,-0.86662 2.60826,-2.12453 3.62775,-2.79536 2.65479,-1.74686 4.1762,-3.23875 6.03704,-5.91991 l 1.63338,-2.35345 -2.55562,-0.17144 c -1.4056,-0.0943 -4.2225,-0.43638 -6.25979,-0.76019 -6.89192,-1.09543 -6.0746,-1.17253 -8.36518,0.78915 -2.15035,1.84158 -2.57269,2.09547 -6.80427,4.09033 -2.90147,1.36783 -7.69092,3.04951 -8.70526,3.05661 -0.35384,0.002 -1.85448,0.39133 -3.33474,0.86413 -1.48027,0.4728 -3.50434,0.96748 -4.49792,1.09928 -0.99359,0.13181 -1.80622,0.33826 -1.80584,0.45878 0.001,0.32956 3.12335,2.35774 5.0264,3.26501 0.92163,0.43939 1.67569,0.926 1.67569,1.08137 0,0.15536 0.40731,0.28248 0.90514,0.28248 0.49783,0 1.1952,0.15524 1.54974,0.34498 0.35452,0.18973 2.13002,0.74631 3.94555,1.23682 3.444,0.9305 6.58926,0.97863 9.47458,0.145 z m 8.00714,-1.18135 c 1.39649,-0.3 3.1692,-0.54545 3.93935,-0.54545 0.77015,0 1.45318,-0.124 1.51786,-0.27555 0.0647,-0.15155 1.78447,-0.71879 3.82176,-1.26053 2.03729,-0.54175 4.73604,-1.28851 5.99722,-1.65946 1.26118,-0.37096 3.72181,-0.99566 5.46806,-1.38822 6.8645,-1.54316 8.55111,-2.0675 10.75972,-3.34502 1.26118,-0.72951 3.12446,-1.78093 4.14062,-2.3365 2.3371,-1.27776 3.97327,-2.7265 3.97327,-3.51812 0,-0.5478 -0.35173,-0.60113 -3.2632,-0.49474 -1.79475,0.0656 -3.97757,0.28487 -4.85069,0.4873 -2.23757,0.51875 -6.18194,0.46661 -11.09909,-0.1467 -2.32096,-0.2895 -4.94034,-0.52513 -5.82084,-0.52363 -1.46868,0.002 -1.66781,0.11175 -2.41096,1.32291 -2.61193,4.25687 -4.49973,6.28876 -7.72132,8.31066 -0.8117,0.50943 -2.25468,1.60561 -3.20663,2.43595 -0.95194,0.83033 -2.5897,2.02739 -3.63946,2.66012 -2.02841,1.22261 -2.01487,1.22417 2.39433,0.27698 z m -82.923643,-5.35685 c 1.428378,-1.09405 2.59705,-2.11695 2.59705,-2.27311 0,-0.15617 -0.436562,-0.55039 -0.970139,-0.87605 -0.533576,-0.32566 -1.486076,-1.29007 -2.116666,-2.14314 -0.932509,-1.2615 -1.146528,-1.87907 -1.146528,-3.30838 0,-0.96655 -0.155268,-1.75737 -0.34504,-1.75737 -0.364606,0 -4.506925,-1.97234 -6.886905,-3.27916 -0.776111,-0.42616 -2.793476,-2.18411 -4.483033,-3.90656 -1.900052,-1.93705 -3.261474,-3.059 -3.568811,-2.94107 -1.08685,0.41707 -5.51215,8.437 -5.782495,10.47957 -0.242031,1.82865 1.096693,5.12534 2.39202,5.89051 0.569456,0.33639 1.035374,0.73148 1.035374,0.87799 0,0.52672 3.829353,2.00234 7.599217,2.92831 2.113997,0.51925 4.166178,1.11746 4.560401,1.32935 0.859809,0.46213 2.517622,0.88253 3.675972,0.93218 0.51958,0.0223 1.838016,-0.72637 3.439583,-1.95307 z m 36.925515,0.66626 c 0.108469,-0.53358 0.729795,-1.54881 1.380723,-2.25608 l 1.183506,-1.28593 -0.943465,-1.36191 c -1.040938,-1.50259 -1.724791,-3.59094 -1.727814,-5.27638 -0.0018,-1.07743 -0.03764,-1.1 -2.077805,-1.31324 -3.07533,-0.32144 -4.946283,-1.07695 -8.375354,-3.38207 l -3.08476,-2.07367 -1.241647,0.78582 c -2.648846,1.67642 -4.282722,4.84376 -3.525735,6.83479 0.392222,1.03163 1.905268,2.5377 2.549444,2.5377 0.240647,0 1.1222,0.69762 1.959007,1.55026 0.99696,1.01582 2.329649,1.87424 3.865813,2.49004 1.289388,0.51689 2.979346,1.23508 3.755457,1.59598 5.238214,2.43585 5.993956,2.57475 6.28263,1.15469 z m -18.941648,-0.65098 c 0.480208,-0.12889 0.888139,-0.673 1.143455,-1.52516 0.42836,-1.42974 1.320383,-2.6322 2.166951,-2.92108 0.358821,-0.12245 -0.01044,-0.50931 -1.147099,-1.20175 -1.314404,-0.80073 -1.803015,-1.36817 -2.263419,-2.6286 -0.509005,-1.39348 -0.802389,-1.69005 -2.204289,-2.22818 -3.465718,-1.33035 -6.123424,-2.95594 -9.44231,-5.7754 -0.740878,-0.62939 -1.854668,-1.54932 -2.475091,-2.04428 l -1.12804,-0.89993 -0.529542,0.80955 c -1.286955,1.96747 -2.830262,6.89301 -2.461154,7.85489 0.116988,0.30486 0.01724,0.53939 -0.229415,0.53939 -0.305985,0 -0.38496,0.45638 -0.264268,1.52716 0.162472,1.44144 0.76492,2.43016 2.56546,4.21036 0.870866,0.86103 3.983248,2.36398 4.938889,2.38497 0.388056,0.009 1.975556,0.34312 3.527778,0.74354 1.552222,0.40042 3.695347,0.84791 4.7625,0.99442 1.067153,0.14651 2.019653,0.28755 2.116667,0.31342 0.09701,0.0259 0.512332,-0.0431 0.922927,-0.15332 z m 39.117356,-1.91629 c 1.55222,-0.42177 3.53659,-0.90845 4.40972,-1.08151 1.51675,-0.30063 9.8626,-3.42506 10.23055,-3.83001 0.097,-0.10677 0.95498,-0.56117 1.90659,-1.00977 0.9516,-0.4486 2.34963,-1.4011 3.10672,-2.11667 l 1.37653,-1.30102 -1.872,-0.26178 c -1.0296,-0.14398 -3.142,-0.41214 -4.69422,-0.59591 -1.55223,-0.18377 -4.8066,-0.65948 -7.23195,-1.05713 -2.42535,-0.39765 -5.11282,-0.72481 -5.97217,-0.72701 -0.85935,-0.002 -2.04998,-0.1556 -2.64584,-0.34089 -0.59586,-0.18528 -2.75025,-0.80669 -4.78754,-1.38092 -3.40744,-0.9604 -7.42981,-2.42007 -8.88831,-3.22546 -0.46311,-0.25573 -0.91669,-0.0241 -2.010469,1.02684 -1.537878,1.47759 -1.666381,1.8135 -2.122699,5.54888 -0.41397,3.3887 -0.139474,5.35577 0.976186,6.99548 1.250301,1.83759 3.946292,3.42616 6.930012,4.08338 2.27522,0.50116 8.16597,0.12206 11.28889,-0.7265 z m -8.99584,-1.40148 v -1.05833 h -2.46944 -2.46945 v -1.32561 c 0,-1.04495 0.4866,-2.05327 2.29832,-4.7625 l 2.29831,-3.43689 h 1.75863 1.75863 v 3.70416 3.70417 h 0.88195 c 0.74475,0 0.88194,0.16463 0.88194,1.05833 0,0.89371 -0.13719,1.05834 -0.88194,1.05834 -0.74476,0 -0.88195,0.16463 -0.88195,1.05833 0,1.01914 -0.0588,1.05833 -1.5875,1.05833 -1.5287,0 -1.5875,-0.0392 -1.5875,-1.05833 z m 0,-5.35046 c 0,-1.19651 -0.0562,-2.10932 -0.12478,-2.02848 -0.0686,0.0809 -0.70166,1.05981 -1.40673,2.17547 l -1.28195,2.02847 h 1.40673 1.40673 z m 77.62386,3.95022 c -0.95748,-0.81647 -1.38795,-1.40253 -1.14186,-1.55462 0.21724,-0.13427 1.03123,0.33068 1.80885,1.03322 l 1.41386,1.27734 0.89348,-0.96409 c 0.49142,-0.53024 0.89348,-1.18461 0.89348,-1.45415 0,-0.26953 0.26114,-0.88861 0.58031,-1.37573 0.49754,-0.75934 0.51735,-1.07644 0.13887,-2.22323 l -0.44144,-1.33758 -2.69651,0.46842 c -3.52718,0.6127 -3.45184,0.57156 -3.72642,2.03519 -0.26568,1.41618 -2.42148,3.26226 -5.76106,4.93336 -1.01864,0.50973 -1.85208,0.99349 -1.85208,1.07504 0,0.15804 1.26811,0.0152 4.90589,-0.55276 2.2583,-0.35255 4.26633,0.0227 4.26633,0.79724 0,0.17547 0.50741,0.0566 1.12758,-0.26405 l 1.12758,-0.5831 z m 6.67753,-6.09629 c 0.0124,-0.96347 -0.46299,-1.21771 -1.29179,-0.69084 -0.27855,0.17707 -0.31041,0.44549 -0.0936,0.78835 0.18082,0.28592 0.33681,0.9961 0.34666,1.57819 l 0.0179,1.05833 0.50418,-0.88195 c 0.27729,-0.48506 0.50979,-1.3185 0.51666,-1.85208 z m -13.66736,0.18315 3.78264,-0.27134 2.11223,-2.09161 c 1.32116,-1.30826 2.19437,-2.49736 2.33158,-3.175 0.12064,-0.59587 0.7425,-1.95652 1.38191,-3.02367 0.63941,-1.06715 1.27873,-2.31823 1.42073,-2.78016 0.43021,-1.39959 -0.54043,-4.99675 -1.83541,-6.80194 -1.04794,-1.46084 -1.46434,-1.73293 -3.72665,-2.43509 -2.52604,-0.78402 -3.23714,-0.82867 -10.90168,-0.68454 -2.68678,0.0505 -4.18613,-0.54549 -5.11706,-2.03408 -0.33116,-0.52954 -0.63972,-1.01852 -0.68571,-1.08662 -0.046,-0.0681 -0.61851,0.28417 -1.27229,0.78283 -1.47211,1.12284 -3.4926,1.98682 -4.64633,1.98682 -1.20426,0 -1.29528,0.28577 -0.89085,2.79704 0.61973,3.84814 -0.67611,12.54422 -2.50508,16.81103 l -0.63702,1.4861 3.5879,0.41015 c 1.97334,0.22558 3.82602,0.46749 4.11707,0.53757 0.69936,0.16839 8.72327,-0.086 13.48402,-0.42749 z m -100.845459,-1.526 c 0.137329,-0.68664 0.956737,-1.81361 2.204209,-3.03153 1.959539,-1.91312 1.975714,-1.94552 1.231586,-2.46673 -1.128695,-0.79057 -2.488953,-3.75369 -2.727516,-5.94147 -0.188344,-1.72727 -0.407374,-2.13965 -2.037599,-3.83632 -1.004615,-1.04556 -2.45486,-2.22402 -3.222773,-2.61882 -0.767909,-0.39479 -1.872449,-1.2231 -2.454533,-1.84068 -0.582083,-0.61758 -1.510846,-1.44804 -2.063917,-1.84545 l -1.005584,-0.72259 -1.427012,1.54857 c -3.080781,3.34321 -4.201493,4.98576 -3.986425,5.84267 0.15271,0.60844 0.05696,0.82117 -0.369595,0.82117 -0.491775,0 -0.555016,0.36601 -0.433826,2.51078 0.152801,2.7042 0.271505,2.88598 3.428646,5.25033 0.647716,0.48507 1.739705,1.3582 2.426643,1.94028 2.613682,2.21473 5.065642,3.70804 8.546348,5.20496 1.485481,0.63885 1.611398,0.58458 1.891348,-0.81517 z m 78.514939,0.57358 c 0.41272,-0.37351 1.07484,-1.80182 1.47136,-3.17401 0.39653,-1.3722 0.87114,-2.86477 1.0547,-3.31682 0.96371,-2.3733 1.38107,-10.14155 0.68397,-12.73038 -0.28937,-1.07464 -0.56677,-1.44077 -1.09164,-1.44077 -1.04795,0 -3.89366,-1.55274 -5.0193,-2.73875 -0.90672,-0.95534 -1.10915,-1.01714 -2.46945,-0.75381 -0.81496,0.15776 -2.09428,0.29375 -2.84292,0.3022 -1.2903,0.0146 -1.34907,0.0635 -1.12894,0.94058 0.43389,1.72875 -0.50741,6.15729 -1.95465,9.19612 -0.75685,1.58917 -1.37608,3.07153 -1.37608,3.29414 0,0.22261 -0.79375,2.26672 -1.76389,4.54247 -1.82362,4.27782 -1.97312,4.80165 -1.46082,5.11827 0.16668,0.10302 2.34543,0.43905 4.84166,0.74674 2.49623,0.30769 4.62204,0.64406 4.72402,0.74749 0.10198,0.10343 1.39955,0.13351 2.8835,0.0668 2.04915,-0.0921 2.87855,-0.28454 3.44848,-0.80032 z m -97.545979,-0.9749 c 0.130127,-0.81377 0.83288,-2.75845 1.561673,-4.32152 1.183646,-2.53861 1.276721,-2.93608 0.872027,-3.72389 -0.250635,-0.48791 -0.455375,-2.08638 -0.458252,-3.57773 -0.0051,-2.6454 -0.02333,-2.7003 -0.97534,-2.93731 -2.547367,-0.6342 -7.551416,-5.1823 -10.027373,-9.11371 -0.356017,-0.5653 -2.918,0.70482 -4.480631,2.22131 -2.586372,2.50998 -3.718067,7.91561 -2.250294,10.7487 1.655554,3.19555 6.810785,7.97615 10.672881,9.89729 0.679098,0.33781 1.949098,0.98209 2.822223,1.43174 0.873125,0.44966 1.686273,0.82591 1.806995,0.83613 0.120723,0.0102 0.325964,-0.64723 0.456091,-1.46101 z m 38.45622,-1.28693 c 0.279986,-2.7328 0.595789,-3.39835 2.348124,-4.94858 l 1.343675,-1.18871 -1.832632,-1.4989 c -1.189658,-0.97301 -2.190164,-2.21123 -2.851672,-3.52921 -0.971688,-1.93598 -1.010176,-2.19106 -0.828393,-5.49003 0.200593,-3.64034 0.116629,-3.86138 -1.466815,-3.86138 -0.695466,0 -2.112444,-1.40072 -3.114572,-3.07884 l -0.679916,-1.13855 -2.442856,1.18064 c -3.232668,1.56235 -6.044396,4.87025 -8.27864,9.73952 -0.584214,1.27323 -0.142638,4.72336 0.876575,6.84887 1.11699,2.32941 1.501158,2.77222 3.196509,3.68442 0.775455,0.41725 1.806794,1.0544 2.291864,1.4159 4.030835,3.00398 7.005422,4.23016 10.100744,4.16371 1.096437,-0.0235 1.106699,-0.0412 1.338005,-2.29886 z m 90.574369,1.75671 c 1.61605,-0.36137 3.94981,-0.84784 5.18612,-1.08104 1.23631,-0.23321 2.82381,-0.78073 3.52778,-1.21672 0.70396,-0.43599 1.75618,-0.98689 2.33826,-1.22422 0.58209,-0.23733 1.44951,-0.73014 1.9276,-1.09514 0.79615,-0.60782 0.82888,-0.73911 0.38911,-1.56083 -0.26409,-0.49346 -1.21089,-1.23399 -2.10399,-1.64564 -0.8931,-0.41164 -1.80931,-0.9864 -2.03601,-1.27724 -0.34543,-0.44316 -0.61612,-0.21001 -1.67132,1.43953 -0.69252,1.08258 -1.41984,1.96833 -1.61628,1.96833 -0.58904,0 -0.42011,-0.44511 0.92957,-2.44927 l 1.28673,-1.91068 -1.11034,-2.05258 c -0.61069,-1.12892 -1.11034,-2.31825 -1.11034,-2.64294 0,-1.18613 -1.07839,-1.88064 -2.9201,-1.88064 -1.36024,0 -1.67121,0.0987 -1.38959,0.44097 0.57979,0.70469 1.24464,4.72351 1.03725,6.26979 -0.10444,0.77867 -0.66656,2.16698 -1.24915,3.08514 -0.58259,0.91816 -1.22745,2.29341 -1.43302,3.05611 -0.21904,0.81269 -0.99279,2.01749 -1.86914,2.91042 -0.82246,0.83803 -1.39548,1.52368 -1.27339,1.52368 0.12209,0 1.54421,-0.29566 3.16025,-0.65703 z m -48.29918,-1.54783 c 0.0929,-0.63059 0.7607,-2.4959 1.48401,-4.14514 0.72331,-1.64924 1.52561,-3.65803 1.78288,-4.46398 0.25728,-0.80596 0.96384,-2.49393 1.57014,-3.75105 1.8483,-3.83233 2.32715,-9.21471 0.88477,-9.94491 -1.69922,-0.86023 -2.90695,-2.00276 -3.61862,-3.42329 -1.10583,-2.20729 -1.61088,-4.65386 -1.39417,-6.75365 l 0.18954,-1.83643 -3.05277,-1.10932 c -2.94312,-1.06947 -10.32172,-2.64006 -14.68207,-3.12519 -1.15737,-0.12876 -2.34799,-0.27855 -2.64583,-0.33287 -2.31256,-0.42169 -8.28969,-0.55333 -9.11475,-0.20073 -0.52349,0.22371 -1.72712,1.40916 -2.67476,2.63432 -0.94763,1.22516 -2.58807,2.91789 -3.64541,3.7616 -1.88533,1.50441 -5.474351,5.85722 -6.559188,7.95507 -0.784994,1.51801 -1.792789,6.64037 -1.795322,9.12515 -0.0042,4.12655 2.598106,7.30134 8.07377,9.8499 5.00111,2.32768 10.37745,3.80669 15.35051,4.22286 3.91015,0.32722 17.68908,2.264 17.94785,2.52278 0.0888,0.0888 0.51446,0.16141 0.94596,0.16141 0.61531,0 0.82099,-0.24734 0.95346,-1.14653 z m -21.25838,-12.96458 v -1.05834 h -2.46945 -2.46944 v -1.32561 c 0,-1.04495 0.4866,-2.05327 2.29832,-4.7625 l 2.29831,-3.43689 h 1.75863 1.75863 v 3.70417 3.70417 h 0.88194 c 0.74476,0 0.88195,0.16463 0.88195,1.05833 0,0.8937 -0.13719,1.05833 -0.88195,1.05833 -0.74475,0 -0.88194,0.16463 -0.88194,1.05834 0,1.01913 -0.0588,1.05833 -1.5875,1.05833 -1.5287,0 -1.5875,-0.0392 -1.5875,-1.05833 z m -0.0127,-5.20348 -0.0127,-2.02847 -0.79,0.96473 c -0.4345,0.53059 -1.07276,1.44341 -1.41837,2.02847 l -0.62834,1.06375 h 1.43105 1.43106 z m 85.09093,13.71766 c 0.0647,-0.1679 1.22884,-1.015 2.58704,-1.88245 3.63768,-2.32331 6.63201,-5.49532 7.57973,-8.02949 0.86639,-2.31671 0.8572,-2.3807 -0.93917,-6.53974 -0.8235,-1.90661 -1.68371,-3.25142 -2.65144,-4.14514 -0.78785,-0.72761 -1.48619,-1.32292 -1.55185,-1.32292 -0.50295,0 -0.98606,2.07093 -1.05792,4.53488 -0.0768,2.63413 -0.19263,3.08405 -1.08963,4.23333 -2.03847,2.61178 -2.63957,4.38143 -2.66681,7.85117 -0.0244,3.10485 -0.37891,4.19451 -1.36469,4.19451 -0.2056,0 -0.19073,0.27889 0.0376,0.70555 0.39409,0.73637 0.91567,0.92326 1.11713,0.4003 z m -0.61625,-5.77903 c 0.24015,-3.48675 1.27438,-6.8506 2.3014,-7.48533 0.58892,-0.36397 0.43953,-0.75057 -0.44592,-1.15402 -0.77689,-0.35397 -0.98449,-0.11402 -4.07021,4.70429 -2.96802,4.63453 -3.21263,5.14664 -2.80509,5.87262 l 0.44649,0.79534 0.12811,-0.88194 c 0.17774,-1.22359 1.06718,-2.11667 2.10804,-2.11667 0.48212,0 1.08746,0.27781 1.34522,0.61736 0.59634,0.78558 0.62517,2.63423 0.0501,3.21354 -0.3534,0.35602 -0.32813,0.4013 0.12725,0.22806 0.44654,-0.16988 0.621,-0.98229 0.8146,-3.79325 z m -0.15235,-8.72444 c 0.64889,-1.21246 -0.7527,-0.87936 -3.23311,0.76837 -1.22688,0.81502 -2.82601,1.86849 -3.55362,2.34103 -1.50918,0.98015 -1.69053,1.92781 -0.70945,3.7074 1.49832,2.71783 1.36198,2.77612 4.37134,-1.86918 1.50864,-2.32877 2.91482,-4.5552 3.12484,-4.94762 z m -122.670854,1.80323 c 0.491324,-0.84712 1.810953,-2.64184 2.932507,-3.98826 1.917231,-2.30163 2.951449,-3.02459 5.966775,-4.17101 l 0.879231,-0.33429 -1.142679,-2.12855 c -1.222735,-2.27769 -7.660347,-8.90761 -9.59951,-9.88628 -0.576683,-0.29104 -1.505938,-1.0451 -2.065017,-1.67569 -0.559082,-0.63059 -1.181844,-1.14653 -1.383919,-1.14653 -0.202075,0 -1.500671,0.54508 -2.885768,1.21128 -5.263757,2.53177 -7.727437,5.91771 -7.727437,10.62015 0,2.27623 0.116229,2.74046 0.964605,3.85274 1.895691,2.48538 6.410862,6.81884 7.874138,7.55726 1.505363,0.75965 3.019828,2.09693 3.966704,3.50261 0.508854,0.75542 0.523417,0.74669 0.922045,-0.55283 0.222765,-0.72621 0.807018,-2.01348 1.298339,-2.8606 z m -18.243333,2.03788 c 0.530694,-1.02625 1.529815,-2.28569 3.164825,-3.98941 0.391421,-0.40787 1.086459,-1.17035 1.54453,-1.6944 l 0.832857,-0.95282 -1.430424,-1.62505 c -1.24489,-1.41427 -1.461481,-1.91506 -1.669871,-3.86098 -0.254048,-2.37226 0.178354,-5.17242 1.062857,-6.88286 0.506153,-0.97879 0.484282,-1.04352 -0.705613,-2.08826 -0.675361,-0.59298 -1.227941,-1.22853 -1.227941,-1.41231 0,-0.18379 -0.120267,-0.38708 -0.26726,-0.45175 -0.146993,-0.0647 -1.218555,-1.42205 -2.38125,-3.01638 -2.466774,-3.38254 -3.111097,-3.59465 -5.393456,-1.77552 -2.157958,1.71998 -3.645377,3.94876 -5.137885,7.69872 -1.228494,3.08662 -1.331137,3.60262 -1.192964,5.99722 0.08315,1.44102 0.374486,3.18035 0.647414,3.86519 1.27403,3.19681 6.513184,9.05364 9.315678,10.41395 0.970139,0.47089 1.878875,0.85805 2.019413,0.86034 0.140539,0.002 0.509135,-0.48627 0.819104,-1.08568 z m 132.451777,-0.65918 c 0,-0.18584 0.75407,-0.76922 1.6757,-1.29638 0.92163,-0.52716 2.45277,-1.51677 3.40254,-2.19913 1.18914,-0.85434 2.16209,-1.26176 3.12468,-1.30844 1.30164,-0.0631 1.491,-0.21512 2.75134,-2.20843 1.20242,-1.9017 1.31632,-2.27024 1.02045,-3.30187 -0.18317,-0.63868 -0.33304,-1.64708 -0.33304,-2.24089 0,-0.75828 -0.34127,-1.40557 -1.14653,-2.17458 -1.57397,-1.50313 -7.39345,-5.38489 -9.96597,-6.64759 -1.16417,-0.57142 -2.19604,-1.11849 -2.29305,-1.21571 -0.5765,-0.57773 -10.8243,-4.50256 -14.81667,-5.67468 -1.45521,-0.42723 -2.85389,-0.85392 -3.10818,-0.9482 -0.25428,-0.0943 0.0235,0.59472 0.61737,1.5311 0.93442,1.47344 1.0797,2.0286 1.0797,4.12608 0,1.33297 -0.17141,2.74384 -0.3809,3.13528 -0.28677,0.53584 -0.26132,0.85702 0.10297,1.29973 0.70791,0.86028 1.97464,3.60611 2.5721,5.57542 0.67281,2.2177 0.67216,7.06399 -0.001,8.24176 -0.27729,0.48507 -0.50979,0.97188 -0.51667,1.0818 -0.007,0.10993 1.05906,0.40426 2.36875,0.65408 3.99079,0.76122 7.10867,1.81387 7.76298,2.62092 0.37805,0.46629 0.92171,0.71554 1.40925,0.64609 0.43656,-0.0622 0.79375,0.0567 0.79375,0.26424 0,0.22216 0.79782,0.37731 1.94027,0.37731 1.06716,0 1.94028,-0.15206 1.94028,-0.33791 z m -18.08439,-3.76093 c 1.31317,-0.82795 2.20939,-3.02783 2.20939,-5.42323 0,-3.7322 -2.31605,-9.05666 -4.9905,-11.47287 -1.31424,-1.18734 -1.57566,-1.28567 -2.86842,-1.07895 -0.78232,0.1251 -1.53446,0.29671 -1.67142,0.38136 -0.13697,0.0846 0.15008,0.96038 0.63789,1.94607 1.73004,3.49579 1.27315,9.4148 -0.95003,12.30744 -0.65254,0.84902 -0.65081,0.85473 0.66015,2.17885 0.8901,0.89904 1.75869,1.40226 2.69073,1.55889 0.75698,0.12721 1.53508,0.28354 1.7291,0.3474 0.50216,0.16529 1.63252,-0.16453 2.55311,-0.74496 z m 30.43011,-1.81019 -10e-4,-2.02847 -1.037,1.56311 c -0.95619,1.44132 -0.99044,1.59849 -0.43946,2.01725 1.17362,0.89199 1.47955,0.57076 1.47797,-1.55189 z m -110.041782,-1.5875 c 0.429013,-1.59467 1.224128,-3.29931 1.874446,-4.01862 0.217374,-0.24043 0.792102,-1.02195 1.277172,-1.7367 0.984524,-1.45071 2.516224,-3.07905 5.126414,-5.4499 1.95398,-1.77481 3.56218,-3.56982 4.48719,-5.00842 l 0.6147,-0.95602 -2.48305,-1.98118 c -1.47158,-1.17416 -3.98418,-2.66674 -6.16817,-3.66416 -2.02682,-0.92563 -4.599875,-2.32212 -5.717909,-3.10331 -2.518537,-1.75974 -5.70931,-3.38009 -8.030009,-4.07782 -0.970139,-0.29167 -3.013111,-1.02977 -4.539933,-1.6402 -2.710812,-1.08381 -2.796671,-1.09508 -3.653737,-0.47949 -0.482734,0.34673 -1.386914,0.94791 -2.009292,1.33596 -2.49161,1.55353 -4.765001,3.42214 -4.977321,4.09109 -0.123391,0.38877 -0.224349,1.4359 -0.224349,2.32694 0,1.53596 0.134324,1.75811 2.58704,4.27853 4.648577,4.77689 4.888149,5.00201 5.327481,5.00601 0.239007,0.002 2.186266,1.70873 4.327243,3.79236 2.813085,2.73772 4.271701,4.47329 5.259289,6.25785 1.71958,3.10727 3.308985,5.51489 4.017327,6.08542 0.301121,0.24253 0.987284,0.44097 1.524805,0.44097 0.851316,0 1.029307,-0.19328 1.380663,-1.49931 z m 55.075342,-0.13017 c 0.13297,-0.0813 -0.0671,-0.84607 -0.44457,-1.69944 -1.10889,-2.50682 -1.45636,-5.03215 -0.99785,-7.25217 0.43157,-2.08959 1.78844,-5.068 2.51685,-5.52461 0.57212,-0.35864 -1.51257,-0.80905 -4.93218,-1.06562 -1.75324,-0.13155 -2.55764,-0.0688 -2.55764,0.19943 0,0.21523 -0.45799,0.39133 -1.01776,0.39133 -1.23185,0 -2.04141,1.09024 -2.73019,3.67677 -0.64539,2.4236 -0.60987,3.25336 0.26005,6.07566 0.82063,2.66236 2.66936,4.78891 4.70084,5.40725 0.979,0.29799 4.61231,0.1523 5.20245,-0.2086 z m 55.78904,-4.58749 c -0.70586,-1.07728 -0.88985,-0.91777 -0.60193,0.52184 0.17672,0.88358 0.32358,1.03775 0.69494,0.72955 0.38985,-0.32354 0.37384,-0.53889 -0.093,-1.25139 z m -49.34881,-7.72897 c 0.77578,-0.58677 3.21774,-0.70043 3.54855,-0.16517 0.11991,0.19403 0.52616,0.35278 0.90276,0.35278 0.91862,0 0.87827,-0.98324 -0.0823,-2.00574 -0.60744,-0.6466 -1.14165,-0.81649 -2.56734,-0.81649 -1.88473,0 -3.08488,0.57498 -3.73475,1.78928 -0.70474,1.31681 0.57173,1.87502 1.93309,0.84534 z m -16.97169,-0.83966 c 0.113,-0.56499 0.58939,-1.4112 1.05865,-1.88047 0.76756,-0.76756 0.80574,-0.93888 0.38031,-1.70676 -1.12389,-2.0286 -0.17527,-5.69577 1.93207,-7.46898 l 1.11925,-0.94178 -2.03919,-2.18049 c -1.12155,-1.19926 -2.53925,-2.71358 -3.15044,-3.36514 -0.94599,-1.0085 -1.36568,-1.19136 -2.82222,-1.22969 -2.15014,-0.0566 -2.85659,-0.15941 -4.18042,-0.60846 -0.94459,-0.32042 -4.37424,-0.93789 -11.99444,-2.15947 -2.70528,-0.43368 -8.8872,-1.23124 -13.58195,-1.75227 -1.64923,-0.18304 -6.25298,-0.42493 -10.230551,-0.53754 -8.045422,-0.22777 -12.691721,-0.45702 -15.368398,-0.75829 -1.585972,-0.1785 -1.914701,-0.0932 -2.929248,0.76053 -0.904836,0.76137 -1.12051,1.18627 -1.03577,2.0406 0.08995,0.90683 0.304042,1.1274 1.341748,1.38234 0.679098,0.16684 2.663473,0.83012 4.409723,1.47396 1.74625,0.64383 4.0074,1.43545 5.02478,1.75914 1.944342,0.61861 5.413925,2.52088 7.498832,4.11139 1.186063,0.90481 2.876158,1.76707 7.055554,3.59966 1.06715,0.46792 3.15938,1.83261 4.6494,3.03264 l 2.70912,2.18187 3.27094,0.15692 c 1.79903,0.0863 5.02493,0.39826 7.16866,0.69325 2.14375,0.29499 4.65178,0.62711 5.57341,0.73805 0.92163,0.11094 1.67569,0.35073 1.67569,0.53287 0,0.18214 0.54166,0.33116 1.20369,0.33116 2.09122,0 6.53588,1.00054 8.43365,1.8985 2.37799,1.12518 2.5829,1.11768 2.82715,-0.10354 z m -73.671432,-0.73662 c 0.557671,-0.58209 1.149634,-1.05834 1.315474,-1.05834 0.16584,0 0.615069,-0.2921 0.998287,-0.64912 0.383217,-0.35703 1.051267,-0.81024 1.484555,-1.00716 0.433288,-0.19691 1.478633,-0.66514 2.322989,-1.04052 l 1.535197,-0.6825 -2.00097,-2.00097 -2.000973,-2.00098 0.08507,-2.34664 0.08508,-2.34665 -2.088743,-2.02306 c -3.901288,-3.7786 -7.813723,-6.71628 -8.944803,-6.71628 -1.151546,0 -5.041169,1.74736 -5.778064,2.59571 -0.934955,1.07638 -2.006154,3.55397 -2.006154,4.64007 0,0.50847 0.185353,1.27082 0.411894,1.69412 0.482441,0.90145 2.780297,3.04061 3.292273,3.06491 0.941578,0.0447 3.58591,2.66894 6.191189,6.1442 3.207102,4.27805 3.597937,4.75871 3.885171,4.77812 0.10922,0.007 0.654858,-0.46283 1.21253,-1.04491 z m 108.013372,-1.28696 c 0.40532,-3.02192 -1.14261,-5.94629 -3.34185,-6.31344 -1.5325,-0.25584 -7.79496,-1.63403 -10.83263,-2.38395 -9.08318,-2.24239 -14.31998,-1.87656 -16.89195,1.18006 -1.51738,1.8033 -1.96409,5.14091 -0.78957,5.89928 0.21747,0.14041 1.59706,0.27865 3.06575,0.3072 1.46869,0.0285 3.54393,0.23325 4.61164,0.45491 1.90459,0.39539 1.97995,0.37973 3.98624,-0.82839 4.0032,-2.41061 8.53434,-2.00078 11.58274,1.04763 0.91009,0.91008 1.14017,0.96498 3.75501,0.89586 2.59789,-0.0687 2.82932,-0.0146 3.43561,0.80212 0.78469,1.05709 1.17392,0.76598 1.41901,-1.06128 z m -1.89781,-7.56776 c -0.16963,-0.16963 -1.41377,-0.56198 -2.76476,-0.87189 -1.351,-0.3099 -4.28174,-1.20747 -6.51276,-1.99458 -2.23103,-0.78712 -4.5329,-1.57797 -5.11528,-1.75745 -1.30349,-0.40171 -9.926,-2.24741 -13.75887,-2.94516 -1.55222,-0.28257 -3.02433,-0.58862 -3.27136,-0.6801 -0.7767,-0.28765 0.0654,0.89957 2.33952,3.2984 2.08071,2.1948 2.15485,2.23693 3.25883,1.85209 2.38076,-0.82994 9.58723,-0.21244 14.07718,1.20622 3.17025,1.00169 11.27528,2.63047 11.7606,2.3634 0.16243,-0.0894 0.15653,-0.3013 -0.0131,-0.47093 z m -99.798148,-6.62591 c 0.98806,-0.75324 2.284285,-1.61589 2.880501,-1.91702 1.599248,-0.80771 2.048545,-1.45478 1.389768,-2.00152 -0.900758,-0.74756 -0.683973,-3.15935 0.384196,-4.27428 0.86469,-0.90254 0.879976,-0.97788 0.264584,-1.30388 -1.640322,-0.86895 -6.419212,-1.44675 -11.220254,-1.3566 -4.843638,0.0909 -4.938517,0.10804 -5.909028,1.06452 -0.542492,0.53465 -0.986348,1.19261 -0.986348,1.46213 0,0.26953 0.754062,1.00274 1.675694,1.62936 2.287807,1.55549 5.191835,4.00268 7.314709,6.16401 0.973126,0.99076 1.913404,1.8242 2.089511,1.85209 0.176103,0.0279 1.128603,-0.56558 2.116667,-1.31881 z m 238.863148,77.87586 c -1.35819,-0.16856 -5.08882,-0.2717 -8.29027,-0.22919 -3.20146,0.0425 -9.23396,0.0415 -13.40556,-0.002 -4.1716,-0.0437 -10.2473,0.0195 -13.50155,0.14047 -4.90555,0.1824 -6.35263,0.11698 -8.46666,-0.38277 -9.01582,-2.13128 -11.6353,-2.91032 -14.3679,-4.27303 -1.82168,-0.90845 -5.67469,-3.69942 -6.72031,-4.86794 l -0.91101,-1.01809 -1.38781,0.89002 c -4.18938,2.68656 -14.30468,8.73075 -14.61163,8.73075 -1.0217,0 0.32815,-0.9543 7.73941,-5.47147 7.6027,-4.63386 8.08479,-4.98937 7.88873,-5.81742 -0.30868,-1.3037 -0.30955,-1.30437 -2.31505,-1.77633 -1.01924,-0.23987 -2.48817,-0.75538 -3.26428,-1.14558 -1.71861,-0.86405 -6.3861,-4.26538 -7.54986,-5.50179 -1.88662,-2.0044 -3.26569,-6.9287 -3.32175,-11.86102 -0.0335,-2.94758 0.0514,-3.35166 1.18443,-5.64134 0.71404,-1.44289 2.13844,-3.44014 3.43257,-4.81303 l 2.21206,-2.34668 -2.42202,-4.53559 c -9.91193,-18.56156 -9.69266,-18.11753 -8.94702,-18.11753 0.15785,0 2.80251,4.75434 5.87699,10.5652 3.07449,5.81085 5.7095,10.75857 5.85558,10.99493 0.26173,0.42348 2.46175,-1.16559 5.09013,-3.6766 0.58209,-0.55609 2.24896,-1.857 3.70417,-2.89091 1.45521,-1.03392 2.96389,-2.17116 3.35263,-2.5272 1.03386,-0.94693 6.90695,-4.8214 7.93626,-5.23555 0.48507,-0.19517 1.58383,-0.72821 2.44169,-1.18454 1.52302,-0.81014 2.50941,-1.18545 8.33732,-3.17227 1.56283,-0.5328 3.97351,-1.62137 5.35707,-2.41905 1.38356,-0.79768 2.88301,-1.55472 3.3321,-1.68232 0.4491,-0.12759 2.00717,-0.6777 3.46238,-1.22246 1.4552,-0.54477 4.55083,-1.41242 6.87916,-1.92811 2.32834,-0.51569 5.26521,-1.23441 6.52639,-1.59716 1.26118,-0.36274 3.11689,-0.75822 4.1238,-0.87884 1.00691,-0.12062 4.21178,-0.99832 7.12192,-1.95044 2.91015,-0.95212 7.72194,-2.4646 10.69287,-3.36108 2.97093,-0.89648 6.19544,-1.96007 7.16558,-2.36355 6.59465,-2.7427 19.64564,-6.70867 23.48827,-7.13769 1.24548,-0.13905 4.6289,-0.64508 7.51871,-1.12452 2.88981,-0.47943 6.69981,-1.02795 8.46667,-1.21892 1.76685,-0.19097 4.08559,-0.49966 5.15274,-0.68597 1.06715,-0.18632 3.1309,-0.43561 4.58611,-0.55399 1.45521,-0.11838 3.67771,-0.51397 4.93889,-0.8791 2.68351,-0.77689 8.5445,-1.7393 10.59224,-1.7393 2.00415,0 10.99529,-1.58394 16.07688,-2.83221 5.05605,-1.24199 5.40262,-1.2585 7.19741,-0.34286 1.72794,0.88152 2.4378,2.72108 1.79804,4.65951 -0.58272,1.76567 -5.22856,6.26038 -7.4675,7.22456 -0.85213,0.36698 -0.89881,0.51567 -0.77061,2.4554 0.10235,1.54862 -0.0324,2.38806 -0.53911,3.35806 l -0.67553,1.2933 1.43996,0.64698 c 1.89767,0.85263 6.20551,3.70678 7.09683,4.70198 0.59031,0.65912 0.69272,1.21577 0.62696,3.40816 -0.0467,1.55529 -0.31637,3.12141 -0.66354,3.85303 -0.32173,0.67796 -0.52447,1.28428 -0.45057,1.34738 0.0739,0.0631 1.16551,0.86699 2.42581,1.78643 1.2603,0.91944 2.56148,2.08339 2.89154,2.58655 1.05435,1.60722 1.51691,4.4736 1.38451,8.5788 -0.0233,0.72122 -0.42559,1.84026 -0.92748,2.57986 -1.07778,1.5882 -1.15496,1.45373 3.21475,5.602 2.6034,2.47145 3.35372,3.42232 3.96875,5.02952 1.09566,2.86308 1.00119,4.36904 -0.38809,6.1859 -1.38934,1.81699 -6.8926,6.62917 -9.08402,7.94329 -0.87313,0.52359 -2.14313,1.38047 -2.82223,1.90418 -1.75094,1.35031 -4.46803,2.81328 -6.52639,3.514 -1.48032,0.50395 -1.82746,0.7941 -2.15935,1.80486 -0.59845,1.82268 -1.81172,2.83463 -5.82337,4.85708 -2.01242,1.01455 -5.4646,2.77992 -7.67154,3.92306 -2.20691,1.14313 -4.62785,2.18237 -5.37985,2.30942 -1.14611,0.19363 -1.36728,0.36864 -1.36728,1.08193 0,1.47127 -1.1172,2.12982 -5.33941,3.14742 -2.82865,0.68173 -5.30768,1.01629 -8.41892,1.1362 -2.42982,0.0936 -4.62466,0.34499 -4.88844,0.55982 -0.57812,0.47083 -1.50855,0.5171 -15.25796,0.75873 -5.93877,0.10437 -11.2569,0.26116 -11.81805,0.34842 -4.73884,0.73693 -6.97155,0.87014 -14.07305,0.83967 -4.46264,-0.0192 -9.22514,-0.17274 -10.58334,-0.34131 z m 14.61089,-0.30328 c 1.64731,-0.006 0.39364,-0.4327 -3.21015,-1.09279 -2.00179,-0.36666 -4.354,-0.84497 -5.22712,-1.06291 -1.89831,-0.47383 -2.56414,-0.48333 -9.17223,-0.1308 -2.8134,0.15009 -5.62461,0.24962 -6.24713,0.22119 -0.74884,-0.0342 -1.40543,0.21645 -1.94028,0.74069 l -0.80842,0.79239 5.99722,0.0326 c 3.29847,0.0179 8.2991,0.20106 11.1125,0.40699 2.81341,0.20593 5.90903,0.31171 6.87917,0.23507 0.97014,-0.0766 2.14753,-0.14072 2.61644,-0.14241 z m -27.03653,-1.11383 c 0.36741,-0.19663 0.59167,-0.43385 0.49836,-0.52717 -0.0933,-0.0933 -5.78222,-0.18028 -12.64202,-0.19327 -11.59208,-0.0219 -17.62248,-0.23519 -23.18477,-0.81987 -2.87843,-0.30257 -2.61669,0.28327 0.38333,0.85797 1.21835,0.23339 2.85019,0.59285 3.6263,0.79878 0.77611,0.20593 1.56284,0.40573 1.74828,0.44399 1.26042,0.26003 29.02053,-0.26608 29.57052,-0.56043 z m 37.69928,-0.63557 c 1.81575,-0.56005 4.73012,-1.36637 6.47637,-1.79182 4.60388,-1.12167 9.06523,-2.42604 9.87777,-2.88798 0.38806,-0.22061 1.81681,-0.7571 3.175,-1.19219 1.3582,-0.4351 3.2632,-1.10673 4.23334,-1.49251 0.97014,-0.38577 2.31951,-0.89564 2.99861,-1.13303 2.62226,-0.91665 3.54523,-1.4154 4.92336,-2.66046 1.3077,-1.18143 1.42664,-1.43708 1.42664,-3.06635 0,-1.6016 -0.13366,-1.90461 -1.35095,-3.06258 -1.19754,-1.13919 -5.30125,-3.54452 -6.04728,-3.54452 -0.155,0 -1.1335,0.7 -2.17444,1.55556 -1.04093,0.85556 -3.45414,2.29927 -5.36268,3.20823 -1.90854,0.90896 -4.38215,2.19598 -5.49692,2.86004 -1.11476,0.66406 -3.04573,1.51312 -4.29104,1.8868 -1.2453,0.37368 -4.15393,1.32353 -6.46361,2.11078 -2.30969,0.78725 -4.57528,1.43137 -5.03465,1.43137 -0.54511,0 -0.97267,0.30166 -1.23093,0.86847 -0.42861,0.9407 -2.45712,2.43713 -4.70445,3.47048 -1.82688,0.84001 -6.65902,1.99913 -8.46666,2.03094 -1.30713,0.023 -1.34613,0.0512 -0.52917,0.3827 0.48507,0.19683 2.15194,0.58215 3.70417,0.85627 1.55222,0.27412 3.53659,0.73173 4.40972,1.01692 2.2009,0.71888 5.86405,0.4063 9.9278,-0.84712 z m 16.88331,0.48226 c 7.51917,-0.40144 9.14191,-0.54324 17.28611,-1.51045 3.01318,-0.35786 8.46215,-1.61533 9.6132,-2.21847 0.70251,-0.36812 0.8145,-1.19353 0.21241,-1.56564 -0.22272,-0.13764 -2.33171,-0.61259 -4.68665,-1.05543 -2.62714,-0.49403 -5.20105,-1.2307 -6.66082,-1.90636 -2.64408,-1.22382 -2.36723,-1.24779 -7.29758,0.63186 -8.688,3.31222 -12.91634,4.68138 -18.87361,6.11135 -2.52237,0.60547 -4.82424,1.23118 -5.11528,1.39047 -0.29571,0.16185 1.70261,0.28618 4.5295,0.28181 2.78226,-0.004 5.13935,0.0729 5.23796,0.17147 0.0986,0.0986 0.36221,0.12178 0.58578,0.0515 0.22356,-0.0703 2.54961,-0.24224 5.16898,-0.38209 z m -55.99699,-1.40664 1.32939,-0.21571 -1.20494,-1.64359 c -0.66272,-0.90398 -1.38259,-2.2786 -1.59971,-3.05471 -0.21711,-0.77611 -0.62782,-1.71587 -0.91269,-2.08836 -0.74376,-0.97255 -2.35072,-1.96355 -3.18839,-1.96626 -0.39554,-0.001 -1.34804,-0.3273 -2.11666,-0.72449 -1.56456,-0.80849 -1.91897,-0.79503 -10.48639,0.39851 -2.67055,0.37204 -5.72964,0.67644 -6.79798,0.67644 -1.41048,0 -2.30282,0.22225 -3.25835,0.81155 -2.05457,1.26711 -4.26131,1.83428 -7.13674,1.83428 h -2.64583 v 1.72718 c 0,1.20537 0.15987,1.79156 0.52917,1.94028 0.29104,0.1172 0.95523,0.50229 1.47597,0.85574 1.04408,0.70867 5.34428,1.24337 10.69486,1.32981 1.74625,0.0282 3.65125,0.17137 4.23333,0.31812 1.19577,0.30146 19.03872,0.13324 21.08496,-0.19879 z m -36.83968,-0.46214 c 0.33878,-0.21473 -0.0564,-0.56367 -1.39218,-1.22932 -1.02588,-0.51122 -2.1579,-0.92949 -2.51558,-0.92949 -0.35769,0 -1.23934,-0.29498 -1.95921,-0.6555 -0.71988,-0.36052 -1.72627,-0.75561 -2.23644,-0.87798 -1.20212,-0.28834 -4.46181,-3.21964 -4.60572,-4.14173 -0.10162,-0.65117 -0.17162,-0.66688 -0.8167,-0.18337 -0.69432,0.52041 -0.68869,0.54565 0.35277,1.58363 2.40138,2.39333 6.18118,4.69246 9.70139,5.90105 2.64364,0.90764 2.83403,0.93685 3.47167,0.53271 z m 56.84546,-0.57198 c 6.4063,-0.75093 9.22124,-1.5901 12.4504,-3.71163 2.60346,-1.71045 2.05477,-3.65466 -1.56586,-5.54833 -2.52488,-1.32057 -5.34425,-1.78951 -12.59873,-2.09551 -3.09083,-0.13038 -5.30842,-0.0239 -7.58472,0.36409 -3.76574,0.64189 -10.38276,1.2758 -13.83953,1.32583 -1.33654,0.0193 -2.81814,0.14347 -3.29243,0.27586 -0.7316,0.2042 -0.53423,0.33193 1.30156,0.84232 2.4919,0.69281 3.51355,1.76969 4.46855,4.71009 0.3227,0.99358 1.05262,2.26358 1.62205,2.82222 0.56943,0.55865 1.03973,1.22935 1.04512,1.49043 0.008,0.38861 1.24004,0.4355 6.79289,0.25858 3.73071,-0.11887 8.77102,-0.44915 11.2007,-0.73395 z m -58.76669,-3.3089 c 0.43166,-1.50512 -0.16783,-2.70419 -2.93113,-5.86265 -1.40246,-1.60302 -2.42312,-3.18349 -2.90904,-4.50458 l -0.74855,-2.03514 -1.27322,0.20338 c -3.20096,0.5113 -2.97069,0.24765 -2.78215,3.18562 0.093,1.44869 0.25708,2.72201 0.36468,2.82962 0.10761,0.1076 0.80596,-0.18418 1.55189,-0.64841 0.74594,-0.46423 1.54372,-0.95453 1.77284,-1.08955 0.22913,-0.13503 0.50938,-0.0954 0.62277,0.0881 0.11339,0.18347 -0.74877,0.92299 -1.9159,1.64339 -1.16714,0.7204 -2.12207,1.47519 -2.12207,1.6773 0,0.73826 3.46045,3.67716 4.97206,4.22268 0.85488,0.30852 2.18933,0.80078 2.96544,1.0939 1.78414,0.67384 2.03214,0.59191 2.43238,-0.80364 z m 128.62457,-2.84555 c 14.2778,-7.19538 15.01754,-7.79488 13.43822,-10.8906 -0.87535,-1.71581 -1.10567,-1.89603 -4.61532,-3.6111 -1.60419,-0.78393 -3.45817,-1.83831 -4.11995,-2.34307 l -1.20322,-0.91775 -0.95613,0.85606 c -4.45222,3.98627 -12.71661,8.77577 -18.15402,10.52088 -1.10032,0.35314 -1.32292,0.58601 -1.32292,1.38396 0,0.65212 -0.44547,1.39437 -1.39091,2.31758 l -1.39092,1.35819 2.18467,1.04186 c 1.34664,0.64221 3.80855,1.34159 6.418,1.82323 5.22713,0.96481 6.49113,0.78973 11.1125,-1.53924 z m -120.67757,-0.20135 c 4.43519,-1.59504 4.54964,-2.58005 1.00355,-8.63659 -0.51121,-0.87312 -1.12075,-2.3543 -1.35452,-3.29152 -0.3261,-1.30734 -0.55735,-1.66189 -0.99339,-1.52304 -2.11083,0.67218 -4.75338,1.41986 -6.56558,1.85766 -1.16416,0.28124 -2.94865,0.84132 -3.96552,1.24462 -1.70155,0.67485 -1.83172,0.8074 -1.63396,1.66375 0.27764,1.20219 1.61636,3.50673 2.70119,4.64997 0.46828,0.49349 1.45026,1.68412 2.18218,2.64583 0.73191,0.96171 1.50996,1.87672 1.72899,2.03334 0.59053,0.42228 5.104,7.1e-4 6.89706,-0.64402 z m 74.27512,-2.48484 c 3.29177,-1.0899 6.6106,-2.3246 7.37516,-2.74378 3.25815,-1.7863 5.77289,-3.06924 6.95833,-3.54992 0.6977,-0.2829 2.52332,-1.45507 4.05694,-2.60481 1.53363,-1.14974 3.18528,-2.29775 3.67035,-2.55114 2.42085,-1.26455 4.68922,-3.31217 5.36721,-4.84487 1.39093,-3.14444 0.0425,-8.09928 -2.60928,-9.58767 -0.88526,-0.49688 -1.05408,-0.43849 -3.87025,1.3387 -3.25947,2.05693 -9.03912,4.91463 -11.76407,5.81666 -1.22928,0.40691 -2.51234,1.28425 -4.23333,2.89469 -1.3582,1.27094 -3.65135,3.2149 -5.09591,4.31991 -1.44456,1.105 -3.13691,2.56823 -3.76079,3.25162 -0.62387,0.68339 -2.89987,2.33399 -5.05778,3.66799 -2.15789,1.334 -4.00361,2.55514 -4.10157,2.71366 -0.098,0.15851 0.61095,0.68806 1.57537,1.17677 0.99854,0.506 2.02939,1.35917 2.3943,1.98163 0.81767,1.39472 1.16722,1.34555 9.09532,-1.27944 z m -93.93591,0.46284 c 0.45544,-0.36198 0.52279,-0.99393 0.37596,-3.52778 -0.0984,-1.69774 -0.31024,-3.08681 -0.47082,-3.08681 -0.49131,0 -1.02663,2.52425 -1.02871,4.8507 -0.002,2.26552 0.16416,2.52641 1.12357,1.76389 z m 32.21197,-0.59151 c 5.42337,-0.80036 8.749,-1.1247 14.99305,-1.46223 7.32794,-0.39612 11.04235,-0.6909 11.258,-0.89344 0.42087,-0.39527 -0.88862,-2.05047 -2.8119,-3.55422 -6.64337,-5.19429 -9.13894,-7.9102 -11.43876,-12.44867 -0.49488,-0.97659 -0.98173,-1.77563 -1.08188,-1.77563 -0.10016,0 -2.04217,0.70108 -4.31559,1.55795 -2.27341,0.85687 -4.84786,1.79408 -5.72098,2.08269 -0.87313,0.28861 -2.61938,0.92032 -3.88056,1.40381 -1.26118,0.48348 -3.93535,1.48369 -5.94259,2.22268 l -3.64954,1.34361 0.22788,1.42512 c 0.12534,0.78381 0.63395,2.14045 1.13024,3.01476 2.50837,4.41891 2.94235,5.39073 2.94235,6.5889 v 1.27917 l 2.91041,-0.21003 c 1.60073,-0.11552 4.02167,-0.37403 5.37987,-0.57447 z m -34.39584,-2.24432 c 0,-0.44404 -0.3175,-1.43011 -0.70556,-2.19126 -0.38805,-0.76115 -0.70663,-1.54877 -0.70796,-1.75028 -0.001,-0.20151 -0.59292,-0.76326 -1.31466,-1.24833 -2.22729,-1.49693 -6.46593,-5.71717 -7.24901,-7.21755 -0.51973,-0.99579 -0.76392,-2.16991 -0.81003,-3.89495 -0.0764,-2.85644 -0.48094,-4.06756 -1.89785,-5.68133 -1.10439,-1.25784 -1.35206,-1.16787 -2.0438,0.74244 -0.73789,2.0378 -0.80442,3.02624 -0.41772,6.20663 0.43569,3.58332 1.32943,6.51197 2.48065,8.12871 0.86451,1.21409 5.4443,4.95665 7.14322,5.83736 1.35206,0.70091 4.47431,1.84566 5.08175,1.86319 0.24253,0.007 0.44097,-0.35058 0.44097,-0.79463 z m 85.34352,-2.01487 c 1.77292,-1.16416 3.3707,-2.11666 3.55061,-2.11666 0.1799,0 1.24413,-0.89531 2.36494,-1.98958 1.12082,-1.09426 2.91385,-2.63004 3.98453,-3.41285 3.99907,-2.92384 7.06196,-6.12153 7.06196,-7.37278 0,-1.66607 -3.10409,-4.86368 -4.72143,-4.86368 -1.11155,0 -4.73818,1.94978 -6.92024,3.72052 -1.06715,0.86599 -2.99339,2.28391 -4.28054,3.15091 -2.04545,1.37781 -12.22037,11.25333 -13.54926,13.15058 -0.46695,0.66667 -0.36621,0.70946 2.58655,1.09865 3.53616,0.46609 4.88346,0.62445 5.94423,0.6987 0.41533,0.0291 2.20572,-0.89964 3.97865,-2.06381 z m -17.98081,1.20209 3.68632,-0.24462 2.41874,-2.50721 c 2.17687,-2.25648 4.04081,-4.22629 7.55873,-7.98804 l 1.16664,-1.24751 -3.17296,-1.72 c -1.74512,-0.946 -3.17295,-1.856 -3.17295,-2.02222 0,-0.16622 -1.01757,-1.31979 -2.26127,-2.56349 -1.2437,-1.24369 -2.37797,-2.62895 -2.5206,-3.07835 -0.14264,-0.4494 -0.8879,-1.7961 -1.65616,-2.99267 -1.37683,-2.14445 -1.41269,-2.17037 -2.50648,-1.81222 -2.18887,0.71675 -7.48981,2.84833 -9.04716,3.638 -1.41936,0.7197 -5.14043,2.35514 -9.97535,4.38424 l -1.68507,0.70719 1.04836,2.03699 c 0.5766,1.12035 1.50824,2.71598 2.07031,3.54587 1.13407,1.67442 5.42857,5.70697 7.74605,7.27356 1.88993,1.27758 4.32348,3.89744 4.32348,4.65449 0,0.4556 0.24015,0.53487 1.14652,0.37846 0.63059,-0.10882 2.80537,-0.30794 4.83285,-0.44247 z m 63.67191,-3.03207 c 0.78839,-0.39846 2.22719,-1.1168 3.19733,-1.59631 1.6489,-0.815 4.848,-2.72834 5.64445,-3.37586 0.19402,-0.15775 1.16551,-0.88677 2.15886,-1.62005 6.09871,-4.50198 7.95369,-9.22645 5.62712,-14.33196 -0.86844,-1.9058 -2.36012,-3.6579 -3.14279,-3.69148 -0.16263,-0.007 -1.35104,0.93981 -2.64094,2.10398 -1.28988,1.16416 -2.46571,2.11666 -2.61294,2.11666 -0.14724,0 -1.24951,0.79115 -2.44949,1.7581 -2.66683,2.14896 -7.17555,4.3992 -9.90441,4.94314 -1.94851,0.3884 -2.02847,0.44764 -2.02847,1.50267 0,1.85556 -1.34791,4.08337 -3.48631,5.76211 -1.08996,0.85567 -2.18018,1.55586 -2.42272,1.55598 -0.98768,3.6e-4 -0.31937,0.66118 1.76389,1.74375 2.62086,1.36194 4.03163,2.61179 4.67545,4.14216 l 0.47251,1.12318 1.85751,-0.7058 c 1.02163,-0.38819 2.50256,-1.03181 3.29095,-1.43027 z m -126.09573,-1.32155 c 2.29317,-0.37413 5.36086,-1.4644 5.5258,-1.96389 0.0641,-0.19395 -0.36419,-0.67013 -0.95163,-1.05819 -2.72547,-1.8004 -5.55852,-8.26253 -5.89349,-13.44296 l -0.18491,-2.85962 -2.33863,0.79121 c -1.28625,0.43517 -2.923,1.03538 -3.63722,1.3338 l -1.29858,0.54258 2.41125,4.52444 c 1.32619,2.48844 2.33096,4.65734 2.23284,4.81976 -0.28559,0.47276 -0.65137,-0.0679 -2.94761,-4.35668 -1.19336,-2.22889 -2.21922,-4.10671 -2.2797,-4.17293 -0.0605,-0.0662 -0.43587,-0.017 -0.83422,0.10947 -0.46692,0.14819 -0.86048,0.7357 -1.1076,1.65343 -0.38202,1.41871 -0.38861,1.42313 -1.93909,1.29982 -1.45187,-0.11548 -1.57002,-0.0588 -1.76924,0.84822 -0.53721,2.4459 0.59578,4.69604 4.01623,7.97635 3.42483,3.28451 6.185,4.77975 8.17358,4.42783 0.48507,-0.0858 1.75507,-0.29853 2.82222,-0.47264 z m 156.42813,-1.81262 c 2.25347,-1.17638 7.02892,-4.34313 9.02465,-5.98455 0.6791,-0.55853 2.23122,-1.8334 3.44915,-2.83303 2.49689,-2.04937 4.31197,-4.45291 4.31197,-5.70996 0,-0.46405 -0.26046,-1.62607 -0.57881,-2.58227 -0.47134,-1.4157 -1.28291,-2.42661 -4.37049,-5.44394 l -3.79166,-3.7054 -2.24409,2.05188 c -1.23426,1.12852 -3.05392,2.47846 -4.04368,2.99984 -0.98975,0.52139 -2.93807,1.54712 -4.3296,2.2794 -1.39157,0.73229 -3.20527,1.84354 -4.03049,2.46945 -0.82522,0.6259 -2.30826,1.51229 -3.29565,1.96975 -1.69062,0.78326 -1.81927,0.9375 -2.20705,2.64583 -0.22645,0.99776 -0.94551,2.67393 -1.59794,3.72483 l -1.18614,1.91073 1.28569,0.87509 c 1.50859,1.02677 5.83721,3.24095 6.33589,3.24095 0.47096,0 2.42038,2.25949 2.69445,3.123 0.19135,0.60282 0.37917,0.65541 1.35407,0.37911 0.62254,-0.17643 2.0714,-0.81125 3.21973,-1.41071 z m -144.61007,-1.58149 c 1.16416,-0.44413 3.70416,-1.38701 5.64444,-2.09529 1.94028,-0.70829 3.65578,-1.41227 3.81223,-1.56441 0.15645,-0.15214 -0.13114,-0.77053 -0.63909,-1.3742 -0.50795,-0.60366 -1.31064,-2.08532 -1.78376,-3.29257 -0.79301,-2.02353 -0.86021,-2.66769 -0.86021,-8.24565 0,-4.11417 0.15508,-6.56596 0.48456,-7.66073 l 0.48456,-1.61008 -1.08978,-0.15994 c -0.78618,-0.11539 -1.86992,0.22934 -3.89016,1.23744 -1.54022,0.76857 -3.84142,1.78923 -5.11378,2.26815 -3.14001,1.1819 -7.28535,3.44006 -8.44419,4.59994 -0.88687,0.88767 -0.95161,1.15924 -0.94565,3.9667 0.0103,4.84278 2.16856,10.4814 5.02273,13.12217 2.49587,2.30927 3.1847,2.38537 7.3181,0.80847 z m 18.87361,-7.03327 c 1.84326,-0.65444 4.51743,-1.5975 5.94259,-2.09568 1.42515,-0.49819 2.72699,-0.98973 2.89297,-1.09231 0.16597,-0.10258 -0.0744,-0.74082 -0.53414,-1.4183 -0.83238,-1.22657 -3.50976,-8.89516 -4.59409,-13.15844 -0.84397,-3.31825 -1.05715,-3.56412 -2.60929,-3.00943 -1.73395,0.61965 -6.12312,0.60726 -7.62806,-0.0215 -0.66863,-0.27937 -1.29522,-0.37925 -1.39244,-0.22196 -0.0972,0.1573 -0.66061,0.38277 -1.252,0.50105 -1.69224,0.33844 -2.47369,2.5662 -2.80273,7.98996 -0.14713,2.42535 -0.19997,5.36223 -0.11741,6.52639 0.20042,2.8262 1.4012,6.04976 2.85157,7.65514 l 1.18304,1.30948 2.3543,-0.88724 c 1.29486,-0.48799 3.86242,-1.4227 5.70569,-2.07714 z m 51.79865,-1.05373 c 1.03432,-0.78031 2.54244,-1.93438 3.35139,-2.5646 0.80893,-0.63022 2.27858,-1.53555 3.26588,-2.01184 0.9873,-0.47629 2.00136,-1.11453 2.25346,-1.4183 0.2521,-0.30377 0.99371,-0.80634 1.64801,-1.11682 1.292,-0.6131 3.0625,-2.63432 3.64148,-4.15715 0.58504,-1.53876 0.40101,-4.11469 -0.44276,-6.19741 -0.63081,-1.5571 -1.12875,-2.16157 -2.54276,-3.08681 -0.96709,-0.63279 -2.0778,-1.15054 -2.46826,-1.15054 -0.39046,0 -2.37665,0.8489 -4.41376,1.88645 -2.03711,1.03754 -4.57696,2.16955 -5.64411,2.51558 -1.06715,0.34602 -2.33715,0.84429 -2.82222,1.10727 -1.47001,0.79694 -13.04668,5.07404 -13.73374,5.07404 -0.62608,0 -0.43595,0.60001 0.8083,2.55078 0.65212,1.02242 1.28843,2.17644 1.41402,2.56449 0.12559,0.38806 1.43168,1.97126 2.90243,3.51824 1.9417,2.04232 3.41438,3.20903 5.37696,4.25983 l 2.70286,1.44715 1.41111,-0.90081 c 0.77612,-0.49544 2.25738,-1.53924 3.29171,-2.31955 z m -5.14379,-0.57603 c -1.41641,-0.33544 -1.49931,-0.42446 -1.49931,-1.61018 0,-1.14431 0.0701,-1.23189 0.79375,-0.99219 0.43657,0.14461 1.51737,0.33514 2.40178,0.42341 1.8733,0.18696 2.56358,-0.36242 2.38622,-1.89912 -0.15035,-1.30262 -1.52372,-1.81443 -3.4728,-1.29419 l -1.40339,0.37459 -0.0255,-1.97946 c -0.014,-1.08871 -0.0537,-2.57487 -0.0882,-3.30259 l -0.0627,-1.32313 3.79236,2.1e-4 3.79236,2.1e-4 v 1.05834 c 0,1.04229 -0.0294,1.059 -1.94027,1.10243 -2.8225,0.0641 -2.81208,0.0609 -2.93496,0.92604 -0.10195,0.71788 0.0329,0.79387 1.41112,0.79507 3.23639,0.003 5.20868,2.61229 4.05725,5.36806 -0.29381,0.70318 -0.92426,1.53409 -1.40099,1.84646 -1.10347,0.72302 -3.87184,0.96427 -5.80673,0.50604 z m 26.97209,-1.6297 c 2.36836,-1.05919 4.49124,-2.14886 4.7175,-2.42149 0.22626,-0.27263 0.55314,-0.49569 0.7264,-0.49569 1.06029,0 7.27584,-4.74799 9.90455,-7.56598 1.48684,-1.59389 1.73896,-2.11228 2.38125,-4.89608 0.93095,-4.03488 0.91644,-5.26517 -0.0754,-6.39226 -0.85562,-0.9723 -3.0868,-1.64468 -3.0868,-0.93022 0,0.59187 -3.02319,3.73961 -4.91507,5.11755 -3.03148,2.20797 -10.9976,6.12827 -13.68759,6.73596 -2.49715,0.56412 -2.55889,0.60466 -2.91074,1.91133 -0.40002,1.48558 -2.81709,4.44553 -3.91464,4.79387 -0.59272,0.18812 -0.41526,0.37593 1.08634,1.14965 1.88203,0.96975 3.02253,2.40047 3.39396,4.25764 0.19555,0.97775 0.32483,1.07711 1.14725,0.88173 0.50978,-0.12111 2.86463,-1.08682 5.23299,-2.14601 z m 18.34836,0.39673 c 2.66139,-0.77368 5.85499,-2.44035 8.38997,-4.37853 1.16417,-0.8901 2.51354,-1.87026 2.99861,-2.17816 2.12899,-1.35136 5.40614,-4.76405 6.75478,-7.03416 1.22502,-2.06199 1.47923,-2.82406 1.60704,-4.81751 0.14736,-2.29827 0.10958,-2.42923 -1.28277,-4.44414 -0.78902,-1.14185 -1.4346,-2.22151 -1.4346,-2.39925 0,-0.3239 -2.13087,-1.3455 -2.80647,-1.3455 -0.19783,0 -0.77773,0.66222 -1.28866,1.4716 -0.51094,0.80938 -1.24296,1.80156 -1.62673,2.20486 -0.38375,0.4033 -1.37565,1.60639 -2.20421,2.67354 -2.13523,2.7501 -7.39346,7.45793 -9.58511,8.5818 -0.60886,0.31223 -2.26028,1.6739 -3.66983,3.02596 l -2.56281,2.45828 1.09427,0.92076 c 1.08318,0.91144 2.89399,4.21276 2.89399,5.27608 0,0.68954 0.30282,0.6878 2.72253,-0.0156 z m -137.13087,-0.84447 c 0,-0.19403 0.29806,-0.35278 0.66236,-0.35278 0.3643,0 0.85854,-0.23637 1.0983,-0.52528 0.23978,-0.2889 0.57671,-0.43829 0.74876,-0.33196 0.17204,0.10633 0.3128,0.0252 0.3128,-0.18027 0,-0.20548 -0.21868,-0.3736 -0.48597,-0.3736 -0.26728,0 -0.6836,-0.23812 -0.92514,-0.52916 -1.06232,-1.28002 -2.75836,0.0356 -2.31633,1.79674 0.20682,0.82404 0.90522,1.20695 0.90522,0.49631 z m 62.79445,-3.28608 c 2.42534,-1.07118 5.14663,-2.31783 6.04729,-2.77034 l 1.63758,-0.82274 0.25539,-3.249 0.2554,-3.249 -1.16913,-1.5135 c -0.64303,-0.83243 -2.24521,-2.62475 -3.56041,-3.98295 -1.3152,-1.35819 -2.91092,-3.09015 -3.54606,-3.84879 -1.91722,-2.29004 -5.1434,-4.44149 -6.66018,-4.44149 -1.25977,0 -1.34515,0.081 -2.34968,2.22759 -0.59636,1.27437 -1.95439,3.20248 -3.17366,4.50589 l -2.13125,2.27831 0.68466,2.28508 c 3.11749,10.40485 3.87673,12.57042 5.06969,14.46018 l 0.88492,1.40181 1.67286,-0.66673 c 0.92007,-0.36671 3.65723,-1.54315 6.08258,-2.61432 z m -63.02891,-0.22252 c 0.78159,-0.29537 1.76154,0.0464 2.63363,0.91849 0.54518,0.54517 1.0992,0.59299 1.79132,0.15461 0.38775,-0.24559 0.10842,-1.0132 -1.37805,-3.78696 -1.02541,-1.91341 -1.9226,-3.54873 -1.99376,-3.63405 -0.19975,-0.23948 -3.41623,3.03091 -4.07082,4.13905 -0.56835,0.96213 -0.55572,1.01547 0.53808,2.27375 0.90918,1.0459 1.17618,1.18827 1.41803,0.7561 0.16387,-0.29283 0.64158,-0.66227 1.06157,-0.82099 z m 164.06718,-1.32527 c 0.92343,-0.77297 2.99008,-1.9277 8.48593,-4.74145 2.13526,-1.09319 6.9728,-5.79371 7.9658,-7.74018 0.86815,-1.70172 0.87555,-3.72849 0.0247,-6.79658 -0.736,-2.65427 -1.58849,-3.74286 -4.50296,-5.75013 l -1.84768,-1.27254 -1.51888,1.18226 c -0.83538,0.65024 -3.08716,2.53587 -5.00394,4.19029 -1.91675,1.65442 -4.85673,4.05617 -6.53323,5.33723 -2.99953,2.292 -3.05524,2.36241 -3.48799,4.40972 -0.24186,1.14429 -0.98742,2.95365 -1.65678,4.02081 l -1.21702,1.94028 1.20809,1.05833 c 1.1357,0.99491 2.57838,3.72356 3.12536,5.91128 l 0.24314,0.97239 1.84481,-0.93153 c 1.01463,-0.51234 2.3064,-1.31792 2.87056,-1.79018 z m -152.44176,-0.65604 c 0.98074,-0.35627 1.98907,-1.03437 2.40345,-1.6163 0.85122,-1.19544 4.55257,-3.45721 7.73073,-4.724 1.25805,-0.50145 3.99845,-1.7307 6.08979,-2.73167 l 3.80242,-1.81994 -0.20052,-1.42228 c -0.1103,-0.78226 -0.0413,-2.53354 0.15331,-3.89173 0.45109,-3.14806 0.50357,-3.37037 1.01514,-4.30012 0.27664,-0.50279 0.3015,-0.84864 0.0712,-0.99096 -0.19455,-0.12024 -0.35373,-0.84425 -0.35373,-1.60891 0,-0.76466 -0.0604,-1.39029 -0.13431,-1.39029 -0.61632,0 -7.48165,2.73928 -8.90447,3.5529 -0.99376,0.56826 -1.99104,1.03321 -2.21619,1.03321 -0.76369,0 -10.52102,7.03275 -14.80311,10.66958 -1.4291,1.21374 -3.07582,2.61235 -3.65939,3.108 l -1.06102,0.90119 1.99623,3.7382 1.99624,3.73821 2.19232,-0.81566 c 1.20577,-0.44861 2.95262,-1.09186 3.88188,-1.42943 z m 61.22225,-2.06429 c 0.53035,-0.27426 3.10216,-1.13465 5.71512,-1.91199 2.61296,-0.77734 6.57647,-2.08232 8.80778,-2.89995 2.23132,-0.81764 5.4857,-1.99577 7.23195,-2.61807 1.74625,-0.6223 4.79996,-1.96408 6.78603,-2.98173 2.96646,-1.52001 4.14316,-2.38242 6.59226,-4.83151 3.51622,-3.51622 3.56148,-3.65427 3.92517,-11.97066 l 0.23227,-5.31117 -1.22479,-1.03883 c -2.47623,-2.10027 -3.98004,-3.18024 -5.88964,-4.22971 -2.99792,-1.64757 -3.69993,-2.07535 -3.93629,-2.39864 -0.11977,-0.16382 -0.6832,-0.0572 -1.25205,0.23699 -0.56885,0.29417 -3.09023,1.20205 -5.60306,2.01751 -2.51284,0.81547 -5.04504,1.69783 -5.62712,1.9608 -0.58209,0.26298 -3.75709,1.42361 -7.05556,2.57919 -10.32984,3.61893 -14.37999,5.16661 -17.02153,6.50441 -2.53596,1.28434 -2.55764,1.30734 -2.55764,2.71333 0,1.70148 -0.685,3.44252 -1.71581,4.36099 l -0.75486,0.67259 1.32353,0.88936 c 0.72794,0.48914 1.79939,1.45647 2.381,2.14963 0.58161,0.69315 2.28762,2.53386 3.79115,4.09046 1.50352,1.5566 3.00554,3.22348 3.33781,3.70416 0.33228,0.4807 0.82958,1.10427 1.10511,1.38572 0.399,0.40756 0.4525,1.21539 0.26287,3.96875 -0.13095,1.90136 -0.14357,3.45702 -0.0281,3.45702 0.11554,0 0.64399,-0.2244 1.17434,-0.49865 z m 15.37406,-12.16182 c -1.63723,-0.42049 -1.90949,-0.68646 -1.90949,-1.86539 0,-0.96132 0.0863,-1.05006 0.79375,-0.81574 0.43656,0.14461 1.52897,0.33592 2.42757,0.42515 1.38834,0.13785 1.71565,0.0454 2.17842,-0.6153 1.22288,-1.7459 -0.7036,-3.27031 -3.26788,-2.58587 l -1.38048,0.36847 -0.1111,-3.29705 -0.11111,-3.29705 3.79236,7.7e-4 3.79236,8.1e-4 7.1e-4,1.14653 7e-4,1.14653 h -2.38188 c -2.20151,0 -2.39042,0.0601 -2.49461,0.79375 -0.10195,0.71788 0.0329,0.79387 1.41111,0.79506 3.2364,0.003 5.20869,2.6123 4.05725,5.36807 -0.29381,0.70318 -0.92425,1.53409 -1.40099,1.84646 -1.02562,0.67201 -3.86075,0.97924 -5.39654,0.5848 z m 27.34287,8.39648 c 1.84794,-0.41121 10.35527,-4.76926 12.7282,-6.52028 2.00286,-1.47793 4.00245,-3.62375 4.79676,-5.14752 0.36436,-0.69896 0.68023,-2.29408 0.77682,-3.92287 l 0.16278,-2.74493 -1.43807,-1.36801 c -1.92563,-1.83181 -3.35001,-2.13877 -4.59512,-0.99028 -1.46778,1.35389 -4.12766,3.053 -6.24561,3.98966 -3.17432,1.40384 -8.02043,2.97125 -9.19495,2.97399 -0.8823,0.002 -1.61416,0.50335 -3.73777,2.5602 l -2.64065,2.55764 1.32942,0.63347 c 2.8222,1.34478 4.19838,3.11959 4.70611,6.06931 0.40496,2.35261 0.57665,2.71418 1.17909,2.483 0.30651,-0.11762 1.28436,-0.37564 2.17299,-0.57338 z m 23.8407,-2.278 c 0.77611,-0.70959 2.0786,-1.84304 2.89444,-2.51877 0.81582,-0.67573 2.35156,-2.3032 3.41274,-3.61661 1.06118,-1.3134 2.14003,-2.60986 2.39744,-2.88101 0.86641,-0.91269 3.82688,-5.54904 4.52377,-7.08461 0.96354,-2.12322 0.9592,-5.64435 -0.008,-7.00359 -0.76413,-1.07287 -4.10753,-3.16176 -5.06078,-3.16176 -0.31593,0 -0.57442,0.24493 -0.57442,0.54428 0,0.29936 -0.69462,1.29154 -1.54361,2.20486 -0.84898,0.91332 -2.07306,2.53371 -2.72018,3.60086 -0.64713,1.06716 -1.36651,2.09903 -1.59863,2.29306 -0.23212,0.19403 -0.97198,1.2259 -1.64414,2.29305 -0.67215,1.06716 -2.0084,2.77769 -2.96944,3.80119 -1.64382,1.75064 -1.70075,1.8726 -0.9608,2.05832 2.4404,0.6125 3.12365,3.49643 1.94551,8.21188 -0.40659,1.62738 -0.73926,3.02203 -0.73926,3.09921 0,0.29589 1.29306,-0.60353 2.64583,-1.84036 z M 269.8821,209.37992 c 0.34124,-0.37706 1.1199,-0.7926 1.73037,-0.92343 1.63758,-0.35094 1.71451,-0.46724 0.99391,-1.50258 -0.99341,-1.4273 -1.47146,-3.13448 -1.47146,-5.25478 0,-1.87051 -0.0203,-1.9087 -0.95663,-1.79944 -0.79595,0.0929 -1.03547,0.37825 -1.4261,1.69913 -0.25821,0.87312 -0.50051,2.93687 -0.53845,4.58611 -0.0879,3.82347 0.34656,4.65557 1.66836,3.19499 z m 128.07644,-5.49113 c 0.97014,-0.75688 3.43076,-2.82088 5.46805,-4.58667 2.0373,-1.76579 4.21379,-3.56522 4.83666,-3.99873 1.78177,-1.24007 2.59574,-2.67096 2.95254,-5.19031 0.2565,-1.81126 0.21773,-2.51447 -0.18112,-3.28574 -0.50878,-0.98387 -5.51674,-4.6313 -6.35882,-4.6313 -0.2467,0 -0.85129,-0.31681 -1.34355,-0.70401 l -0.895,-0.70401 -1.14702,0.96859 c -0.63084,0.53273 -2.27972,2.07984 -3.66416,3.43804 -1.38445,1.35819 -3.6443,3.40194 -5.0219,4.54166 -2.49245,2.06206 -2.50543,2.08194 -2.65236,4.05694 -0.088,1.18187 -0.51791,2.71779 -1.06296,3.7969 l -0.91531,1.81216 1.34944,0.53007 c 0.92146,0.36197 1.58627,0.962 2.09621,1.892 0.41074,0.74906 1.13728,1.90135 1.61456,2.56063 0.4773,0.65929 0.86779,1.60324 0.86779,2.09768 v 0.89897 l 1.14653,-1.05835 c 0.63059,-0.5821 1.94028,-1.67763 2.91042,-2.43452 z m -24.41449,-5.6605 c 1.31815,-1.73572 3.28787,-4.47409 4.37717,-6.08525 1.0893,-1.61116 2.25725,-3.1232 2.59545,-3.36008 0.3382,-0.23688 0.98785,-1.06178 1.44366,-1.83311 0.70187,-1.1877 0.82635,-1.86759 0.81301,-4.44059 -0.0122,-2.36025 -0.16372,-3.264 -0.67886,-4.0502 -0.81785,-1.24819 -1.86226,-2.17443 -2.97217,-2.63586 -1.13872,-0.47341 -3.10621,0.1909 -3.41118,1.15176 -0.30926,0.9744 -6.13252,6.77476 -7.52381,7.49422 -1.03171,0.53352 -1.0973,0.6871 -1.10459,2.58661 -0.005,1.24966 -0.27612,2.61094 -0.71182,3.57125 -0.38724,0.8535 -0.66157,1.58343 -0.60961,1.62204 0.0519,0.0386 0.87427,0.45155 1.82738,0.91762 2.5031,1.22402 3.07803,2.3332 2.95399,5.69901 -0.0629,1.70552 0.032,2.6942 0.25198,2.6267 0.19403,-0.0595 1.43126,-1.52839 2.7494,-3.26412 z m -20.91618,0.77573 c 11.29489,-3.9908 15.18707,-8.2929 13.38235,-14.79176 -0.37595,-1.35377 -1.02188,-1.93316 -4.75537,-4.26543 l -1.62399,-1.01449 -1.12088,1.06556 c -0.61649,0.58605 -1.99401,1.49988 -3.06117,2.03071 -1.06715,0.53084 -2.4959,1.39892 -3.175,1.92907 -0.67909,0.53015 -1.72701,1.21563 -2.32869,1.52329 l -1.09397,0.55939 -0.23661,4.51603 c -0.13013,2.48382 -0.33443,5.66697 -0.45399,7.07368 -0.26336,3.09851 -0.34367,3.0738 4.46732,1.37395 z m -81.52943,-0.22743 c 0.14222,0 0.50716,-0.51593 0.81099,-1.14652 0.30382,-0.6306 1.21139,-1.891 2.01683,-2.80091 1.1717,-1.32368 2.04396,-1.87909 4.36363,-2.77853 2.59199,-1.00503 3.29844,-1.12614 6.66696,-1.1429 3.31971,-0.0165 3.78746,-0.0941 3.9335,-0.65256 0.15959,-0.61029 0.45517,-0.78143 2.97027,-1.71976 0.63059,-0.23526 1.14652,-0.57985 1.14652,-0.76576 0,-0.38341 -0.67896,-0.27069 -6.17361,1.02491 -2.1343,0.50325 -5.38868,1.46122 -7.23194,2.12881 -3.35106,1.21368 -9.82448,4.46562 -10.31335,5.18094 -0.75305,1.10185 0.0522,3.24767 1.07185,2.85638 0.26387,-0.10125 0.59612,-0.1841 0.73835,-0.1841 z M 296.76,196.40667 c 0.53659,-1.26778 0.65392,-4.33285 0.16585,-4.33285 -0.17304,0 -1.10145,-0.70744 -2.06314,-1.57207 l -1.74852,-1.57207 -1.7061,0.6104 c -2.18756,0.78265 -2.55113,1.81681 -1.55762,4.43072 0.37778,0.99395 0.68695,2.32312 0.68705,2.95371 1.8e-4,1.13182 0.0217,1.1466 1.67587,1.15193 0.92164,0.003 1.9102,0.15369 2.19681,0.33493 0.66649,0.42146 1.69391,-0.45507 2.3498,-2.0047 z m -10.10286,-0.19985 c 0,-0.66372 -1.88075,-1.66356 -3.12927,-1.66356 -1.19848,0 -3.5735,1.00636 -3.5735,1.51419 0,0.17885 0.27781,0.21161 0.61736,0.0728 2.47819,-1.01314 4.54597,-1.00426 5.39868,0.0232 0.51903,0.6254 0.68673,0.63843 0.68673,0.0534 z m 14.03173,-5.66857 c 1.30484,-0.65054 3.08682,-1.43671 3.95994,-1.74705 0.87313,-0.31034 3.175,-1.14918 5.11528,-1.86409 4.90658,-1.80788 13.44852,-4.83347 19.9271,-7.05828 6.28255,-2.15749 6.78789,-2.39238 7.24963,-3.36987 0.46485,-0.98405 2.04858,-1.78359 7.2191,-3.64456 4.32597,-1.55699 4.36952,-1.58323 2.29306,-1.38155 -2.44958,0.23792 -7.51122,1.50839 -11.81806,2.96632 -1.64923,0.55829 -4.31222,1.42435 -5.91775,1.92457 -1.60553,0.50022 -3.95107,1.38213 -5.21231,1.95979 -1.26124,0.57765 -2.48416,1.05029 -2.7176,1.05029 -0.45091,0 -7.23502,2.1229 -15.96206,4.9949 -3.13726,1.03245 -6.27209,1.82817 -7.69978,1.95447 -2.02009,0.17869 -2.49698,0.34864 -2.95959,1.05466 -0.51652,0.78831 -0.49805,0.89936 0.29145,1.75233 0.86342,0.93284 3.09581,2.53291 3.58575,2.5701 0.15037,0.0114 1.34099,-0.5115 2.64584,-1.16203 z m 90.80071,-0.87373 c 0.0654,-0.16539 0.91271,-0.90119 1.88285,-1.63512 0.97014,-0.73392 3.53744,-3.11278 5.70512,-5.28634 4.20303,-4.21442 4.69434,-5.12227 4.1995,-7.75991 -0.26067,-1.3895 -2.9017,-3.96162 -4.40718,-4.29218 -0.50123,-0.11006 -1.781,-0.40869 -2.84388,-0.66363 -1.73669,-0.41654 -2.0585,-0.39862 -3.175,0.17683 -1.50252,0.77441 -2.91899,2.07457 -4.73606,4.34717 -0.74931,0.93715 -2.12465,2.20715 -3.05632,2.82222 l -1.69395,1.11831 0.065,3.43747 c 0.0502,2.6528 0.17599,3.43796 0.55122,3.43959 1.58166,0.007 6.04017,3.55296 6.04017,4.80409 0,0.39738 0.15363,0.43229 0.67479,0.15336 0.37116,-0.19863 0.72835,-0.49647 0.79375,-0.66186 z m -40.24333,-6.00904 c 1.05023,-0.74952 2.62388,-1.72315 3.49701,-2.16361 2.0956,-1.05715 4.23333,-2.76056 4.23333,-3.37324 0,-0.26968 0.47992,-1.72478 1.0665,-3.23355 0.82171,-2.11359 1.44922,-3.09665 2.73402,-4.28313 l 1.66754,-1.53992 -2.99861,0.21467 c -4.17363,0.29879 -7.63676,1.0461 -12.20855,2.63451 -2.15505,0.74874 -4.06005,1.44287 -4.23333,1.54252 -0.17329,0.0996 -1.41613,0.5427 -2.76188,0.98455 -3.1623,1.03828 -4.78513,2.00609 -4.78513,2.85371 0,0.36889 0.13951,0.67071 0.31004,0.67071 0.78461,0 8.3788,4.86932 9.70782,6.22456 1.06071,1.08165 1.62127,1.0026 3.77124,-0.53178 z m 18.96468,-1.81063 c 1.70753,-1.43893 3.57271,-3.54483 4.99344,-5.63788 0.29104,-0.42877 0.8825,-1.26662 1.31434,-1.8619 0.43185,-0.59527 0.96194,-1.6179 1.17798,-2.27251 0.33814,-1.02456 0.27796,-1.4217 -0.4324,-2.85351 -0.94469,-1.90413 -0.65387,-1.86167 -7.46073,-1.08943 -3.38536,0.38406 -3.5021,0.42808 -5.37371,2.02603 -1.05225,0.89839 -2.14656,1.96706 -2.43181,2.37481 -0.50299,0.71901 -2.41907,5.50501 -2.23229,5.57583 0.051,0.0194 0.56904,0.36348 1.15112,0.76474 0.58208,0.40125 1.87009,1.1682 2.86223,1.70434 1.2062,0.65181 2.06421,1.43797 2.58958,2.37274 0.88349,1.57196 0.55612,1.66596 3.84225,-1.10326 z m 16.02431,-6.55078 c 0.82101,-0.79774 2.26317,-2.27991 3.20481,-3.29372 0.94167,-1.0138 2.39589,-2.17549 3.23162,-2.58152 1.58919,-0.7721 2.44916,-2.03508 2.11106,-3.10039 -0.35768,-1.1269 -2.00706,-1.50081 -5.54197,-1.25636 -5.26193,0.36387 -11.91972,1.46555 -11.91972,1.97239 0,0.14534 0.23715,0.71896 0.52699,1.27471 0.76127,1.45967 0.67627,4.29623 -0.17035,5.68477 l -0.69905,1.14653 h 1.55987 c 1.33047,0 1.75772,0.19543 2.90523,1.32888 1.30124,1.28529 1.3774,1.31159 2.32207,0.802 0.53719,-0.28978 1.64844,-1.17956 2.46944,-1.97729 z m 20.02733,-3.87781 c 2.21845,-1.61471 5.19981,-4.83756 5.46965,-5.91274 0.30921,-1.23194 -0.48835,-2.71562 -1.90246,-3.53914 -1.1774,-0.68568 -1.19348,-0.68534 -4.58611,0.0961 -1.87251,0.43128 -5.19,1.13159 -7.37221,1.55625 -3.44661,0.67069 -3.87608,0.82929 -3.27029,1.20762 0.90664,0.5662 1.23095,1.92236 0.77347,3.23461 l -0.36421,1.04479 2.00325,0.39251 c 2.82698,0.55392 3.67693,0.93864 5.03964,2.28114 1.39615,1.37543 1.88055,1.33387 4.20927,-0.36111 z M 202.00269,184.5774 c -0.67977,-0.24526 -1.58032,-0.97325 -2.02847,-1.63978 -0.73124,-1.08756 -0.80597,-1.60271 -0.80597,-5.55625 v -4.35755 h 1.55873 1.55873 l 0.11696,4.42326 c 0.12413,4.69409 0.27349,5.08464 1.94905,5.09633 1.46064,0.0102 1.87209,-1.20764 1.87209,-5.54115 v -3.97844 h 1.5875 1.5875 v 4.06827 c 0,4.47898 -0.42638,6.08472 -1.86619,7.02812 -1.16522,0.76348 -4.02559,0.99996 -5.52993,0.45719 z m 9.86556,-5.73275 v -5.82083 h 1.5875 1.5875 v 4.57065 4.57066 l 2.55764,0.10365 2.55764,0.10365 0.11055,1.14652 0.11054,1.14653 h -4.25568 -4.25569 z m 16.22778,4.7625 c 0,-1.00171 0.0764,-1.05833 1.4287,-1.05833 h 1.42871 l -0.0587,-3.43959 c -0.0323,-1.89177 -0.11874,-3.54212 -0.1921,-3.66744 -0.0734,-0.12532 -0.68985,-0.10235 -1.36998,0.0511 -1.21835,0.27478 -1.2366,0.26187 -1.2366,-0.87458 0,-1.00967 0.13744,-1.18096 1.10243,-1.37396 0.60634,-0.12127 1.87634,-0.22048 2.82222,-0.22048 h 1.7198 v 4.7625 4.7625 h 1.41111 c 1.33271,0 1.41111,0.0588 1.41111,1.05833 v 1.05833 h -4.23334 -4.23333 z"
       id="path3780"
       inkscape:connector-curvature="0" />
  </g>
</svg>
