<?xml version="1.0" encoding="UTF-8" standalone="no"?>
<!-- Created with Inkscape (http://www.inkscape.org/) -->

<svg
   xmlns:dc="http://purl.org/dc/elements/1.1/"
   xmlns:cc="http://creativecommons.org/ns#"
   xmlns:rdf="http://www.w3.org/1999/02/22-rdf-syntax-ns#"
   xmlns:svg="http://www.w3.org/2000/svg"
   xmlns="http://www.w3.org/2000/svg"
   xmlns:sodipodi="http://sodipodi.sourceforge.net/DTD/sodipodi-0.dtd"
   xmlns:inkscape="http://www.inkscape.org/namespaces/inkscape"
   version="1.1"
   id="svg263"
   width="100%"
   viewBox="0 0 352.69874 113.46692"
   sodipodi:docname="ocularscales.svg"
   inkscape:version="0.92.5 (2060ec1f9f, 2020-04-08)"
   >
  <metadata
     id="metadata269">
    <rdf:RDF>
      <cc:Work
         rdf:about="">
        <dc:format>image/svg+xml</dc:format>
        <dc:type
           rdf:resource="http://purl.org/dc/dcmitype/StillImage" />
        <dc:title></dc:title>
      </cc:Work>
    </rdf:RDF>
  </metadata>
  <defs
     id="defs267" />
  <sodipodi:namedview
     pagecolor="#ffffff"
     bordercolor="#666666"
     borderopacity="1"
     objecttolerance="10"
     gridtolerance="10"
     guidetolerance="10"
     inkscape:pageopacity="0"
     inkscape:pageshadow="2"
     inkscape:window-width="1920"
     inkscape:window-height="1043"
     id="namedview265"
     showgrid="false"
     fit-margin-top="0"
     fit-margin-left="0"
     fit-margin-right="0"
     fit-margin-bottom="0"
     inkscape:zoom="1.0253165"
     inkscape:cx="618.62882"
     inkscape:cy="-146.68222"
     inkscape:window-x="0"
     inkscape:window-y="0"
     inkscape:window-maximized="1"
     inkscape:current-layer="svg263" />
  <path
     style="fill:#000000;stroke-width:0.38174808"
     d="m 131.32134,112.92063 c -6.62957,-0.92394 -11.36275,-2.81113 -14.56654,-5.80792 -1.65946,-1.55223 -2.0897,-1.75936 -3.86225,-1.85939 -1.09709,-0.0619 -4.82921,-0.29929 -8.29358,-0.5275 -9.913553,-0.65304 -24.703464,-1.1378 -37.887393,-1.2418 -6.665674,-0.0526 -12.1199,-0.22445 -12.120501,-0.38192 -8.59e-4,-0.15747 0.77194,-0.28631 1.716767,-0.28631 1.869989,0 2.276516,-0.61271 0.954369,-1.4384 -0.856826,-0.5351 -1.02727,-2.318165 -0.343685,-3.59545 0.492372,-0.920009 2.082944,-2.788478 3.302232,-3.879186 1.14762,-1.026597 1.086144,-1.28446 -0.381748,-1.601295 -1.708163,-0.368697 -3.762662,-1.453372 -4.676413,-2.468923 -0.419924,-0.466702 -1.510732,-1.36396 -2.424018,-1.993908 -1.661589,-1.146094 -2.725364,-2.926047 -2.734308,-4.575171 -0.0053,-0.977677 -1.795254,-2.31518 -4.264077,-3.18623 -0.829323,-0.292601 -1.968927,-0.855875 -2.532447,-1.251711 -0.56352,-0.395843 -1.711731,-0.957765 -2.551578,-1.248718 -1.438181,-0.498238 -5.611738,-4.193916 -5.978382,-5.293843 -0.214017,-0.642055 -5.442602,2.690537 -6.101512,3.888987 -0.264855,0.481715 -0.699979,2.078355 -0.966947,3.548084 l -0.485395,2.672238 0.191594,-2.576799 0.191596,-2.5768 -1.251313,-0.0023 c -2.081459,-0.0034 -4.091681,-0.744306 -5.572997,-2.05365 -0.772496,-0.682809 -2.032508,-1.620185 -2.800025,-2.083053 -0.76752,-0.462871 -2.058525,-1.481803 -2.868905,-2.264294 -0.810378,-0.782491 -1.850011,-1.670095 -2.310293,-1.972451 -0.460285,-0.302356 -1.028779,-1.01302 -1.263319,-1.579252 -0.533902,-1.288958 -1.354644,-1.12946 -3.1008751,0.602596 -2.8409531,2.817896 -3.8688041,4.377241 -4.9165165,7.45883 -0.7625323,2.242795 -0.7972905,2.690645 -0.3839718,4.947387 0.6511515,3.555336 1.0642669,4.461147 3.3519325,7.349556 2.7103638,3.42211 4.0565009,4.125187 11.4352699,5.972546 1.510884,0.378269 3.179759,0.971271 3.708613,1.317787 0.528851,0.346523 1.182327,0.630681 1.452167,0.631471 0.269837,8.59e-4 1.511373,0.509742 2.758968,1.131012 1.247592,0.621269 2.793672,1.244777 3.43573,1.385576 1.13752,0.249457 4.134822,1.681205 3.519528,1.681205 -0.695691,0 -5.919035,-1.924518 -7.696618,-2.835783 -1.049808,-0.538176 -2.166421,-0.979862 -2.481363,-0.981526 -0.314942,-0.0014 -1.100674,-0.325031 -1.746071,-0.718595 -1.040088,-0.634253 -3.654214,-1.403514 -7.797631,-2.29462 C 11.366326,92.584191 8.3990499,91.02237 7.7584231,90.183043 7.5033887,89.848907 6.5902825,88.684334 5.7292964,87.595103 L 4.1638649,85.614687 3.0199462,86.290415 c -1.60993,0.951008 -2.28615669,2.153853 -2.52794925,4.49661 -0.36680743,3.554014 -0.0170069,4.357472 3.38356125,7.771768 1.7044929,1.711537 3.2476494,3.111747 3.4292394,3.111747 0.1815899,0 0.3301624,0.18193 0.3301624,0.40428 0,0.22235 -0.1793395,0.29344 -0.3985364,0.15797 -0.219194,-0.13547 -0.8204473,0.0301 -1.3361164,0.36802 -0.515672,0.33788 -0.9375829,0.44711 -0.9375829,0.24274 0,-0.20437 0.2917338,-0.53484 0.648297,-0.73438 0.5531187,-0.30954 0.1888251,-0.82475 -2.4813635,-3.509325 L 0,95.453323 V 92.416218 C 0,88.907937 0.71012018,86.993564 2.3594294,86.055597 3.6177523,85.339989 3.6018448,85.48104 2.8370879,81.819642 2.0257138,77.935059 2.36724,75.218881 4.0100872,72.49066 5.9104369,69.334822 7.8934989,67.076927 9.3875274,66.367963 L 10.7245,65.733529 10.463461,62.516386 c -0.211429,-2.60576 -0.132564,-3.562001 0.415003,-5.031814 0.726036,-1.948882 1.940195,-3.53254 2.708325,-3.53254 0.260844,0 0.531528,-0.147147 0.601514,-0.32699 0.147149,-0.378125 5.196632,-3.87224 5.59593,-3.87224 0.146751,0 0.264731,-1.785925 0.26218,-3.968721 -0.0045,-3.834481 0.04525,-4.071066 1.470202,-6.994353 1.174434,-2.40934 1.83538,-3.274792 3.244861,-4.248874 0.973509,-0.672785 2.382809,-1.793524 3.131782,-2.490531 1.182138,-1.100122 1.340193,-1.452087 1.198212,-2.668245 -0.118261,-1.012998 0.137859,-2.007159 0.924862,-3.589989 0.598628,-1.20397 1.186413,-2.274925 1.306188,-2.379907 0.119776,-0.104978 1.01428,-1.316527 1.987778,-2.692323 0.973503,-1.375796 2.251536,-2.745563 2.840074,-3.043922 0.588535,-0.298362 1.479753,-0.847629 1.980482,-1.220593 l 0.910415,-0.678122 -0.910415,-0.0014 c -1.27224,-0.002 -3.321114,-1.334542 -3.855596,-2.507609 -0.395596,-0.868239 -0.604119,-0.954553 -1.775261,-0.734846 -0.729858,0.136922 -2.878903,1.008702 -4.775663,1.937289 -1.896759,0.928684 -3.611178,1.688439 -3.809821,1.688439 -0.389165,0 -3.726287,3.415279 -5.085617,5.204726 -0.457122,0.601766 -1.1455,1.437691 -1.529732,1.857615 -0.983332,1.074677 -1.647494,2.702939 -1.647494,4.039007 0,1.326729 1.481803,4.429986 2.596094,5.436854 0.423431,0.382614 0.985652,1.241548 1.249376,1.908741 0.263727,0.667197 0.723949,1.500932 1.022714,1.852742 0.298766,0.351808 0.485026,0.941794 0.413906,1.311078 -0.08114,0.421324 -0.575763,-0.243539 -1.327871,-1.784897 -0.659211,-1.350979 -1.560907,-2.783576 -2.003771,-3.183553 -0.44286,-0.399974 -0.805204,-0.8758 -0.805204,-1.057393 0,-0.181592 -0.429466,-1.010486 -0.954369,-1.841988 -1.120255,-1.774602 -1.145422,-2.082833 -0.35912,-4.398827 0.577999,-1.70246 1.059291,-2.454794 2.650425,-4.143038 0.420373,-0.446033 1.068533,-1.283375 1.440356,-1.86077 l 0.676044,-1.049808 -1.249485,-0.0014 c -1.293496,-0.0014 -3.556012,-1.159563 -4.380009,-2.241945 -0.806857,-1.059863 -0.592163,-3.407817 0.434709,-4.754111 L 15.986247,10.231741 14.196531,9.5383158 C 13.212185,9.1570324 12.020292,8.6906031 11.547879,8.501904 9.7860753,7.7981829 11.226758,5.0884662 13.362713,5.0884662 c 0.614367,0 1.853129,-0.2458611 2.752801,-0.5463588 0.899675,-0.3004978 2.752383,-0.7419494 4.117133,-0.981002 1.364751,-0.2390526 3.310455,-0.5944476 4.32379,-0.7897604 1.013335,-0.1953128 2.559415,-0.3556642 3.435733,-0.3563371 0.876318,-5.726e-4 3.139386,-0.2743461 5.02904,-0.6081676 1.889653,-0.3338187 4.294666,-0.6862447 5.344471,-0.7831639 4.753983,-0.43889487 16.983609,-0.78188693 22.714011,-0.63703358 3.464364,0.0875711 11.881909,0.23383025 18.705659,0.32502033 6.823746,0.0911901 15.155398,0.2618372 18.51478,0.37921335 3.359379,0.1173732 6.881009,0.2047468 7.825839,0.1941618 0.94482,-0.010593 2.92037,0.2283961 4.3901,0.5310727 1.46973,0.3026738 5.07725,0.6555235 8.01672,0.7841087 2.93944,0.128588 6.54696,0.2909207 8.01671,0.3607433 1.46972,0.069823 3.15581,0.3193944 3.7469,0.5546046 0.59106,0.2352103 1.87946,0.4286106 2.86311,0.4297845 0.98362,0.00115 2.38969,0.1659 3.12457,0.3660658 0.73485,0.2001658 2.6245,0.5444263 4.19921,0.7650175 1.57471,0.220597 3.80794,0.5721841 4.96274,0.7813057 1.15478,0.2091216 3.30212,0.53184 4.77184,0.7171548 1.46975,0.1853177 4.25521,0.6345455 6.18996,0.9982866 l 3.51773,0.6613557 2.01763,-1.3320165 c 14.5777,-9.6240833 34.57518,-9.2298215 74.54973,1.4697951 10.32942,2.7647742 11.64333,3.1904472 11.64333,3.7721252 0,0.293658 -0.12884,0.613175 -0.28631,0.710034 -0.15747,0.09686 -2.43365,-0.417115 -5.05817,-1.142169 C 217.27223,4.6622292 200.95127,1.6527333 188.2372,1.6527333 c -7.42869,0 -11.46793,0.5817498 -16.89261,2.432957 -3.88802,1.3268027 -9.59265,4.3346265 -9.25555,4.8800749 0.10943,0.1770605 1.16626,0.3219282 2.34849,0.3219282 2.26513,0 5.38062,0.4780192 8.87611,1.3618756 1.15477,0.291994 3.73157,0.711025 5.72622,0.931178 1.99464,0.220156 4.91498,0.7252 6.4897,1.122328 1.57471,0.397131 3.63615,0.889906 4.58097,1.095057 0.94483,0.20515 2.71403,0.64852 3.93157,0.985267 1.21751,0.336745 2.6655,0.612265 3.21773,0.612265 0.55227,0 1.53165,0.162728 2.17643,0.361617 8.13146,2.508196 10.38991,3.251411 10.69698,3.52018 0.19944,0.17459 0.6357,0.31743 0.96942,0.31743 0.33372,0 1.75993,0.601254 3.16932,1.33612 1.4094,0.734863 2.73573,1.336116 2.9474,1.336116 0.21167,0 1.24027,0.601253 2.28577,1.336119 1.04549,0.734866 2.045,1.33612 2.22111,1.33612 0.80067,0 3.97497,2.498802 4.52469,3.561804 0.33607,0.649895 1.27259,1.836618 2.08116,2.637152 0.80857,0.800531 2.17909,2.868362 3.04555,4.595181 1.57437,3.137548 1.57528,3.142003 1.37601,6.599719 -0.10968,1.903027 -0.47278,4.114285 -0.80688,4.913906 -0.3341,0.799624 -0.60884,1.733507 -0.6105,2.075297 -0.003,0.341795 -0.65416,1.952787 -1.44994,3.579988 -0.7958,1.6272 -1.35273,2.95725 -1.23763,2.955666 0.11509,-0.0014 5.5282,-0.510959 12.02913,-1.131945 9.14975,-0.874005 11.88649,-1.024269 12.11465,-0.665178 0.37693,0.593165 0.3852,1.028819 0.02,1.064479 -0.15747,0.01537 -5.95143,0.57369 -12.87552,1.24068 l -12.58922,1.212711 -1.15371,2.16517 c -0.63453,1.19084 -1.43053,2.479239 -1.76889,2.863111 -0.89106,1.010967 -3.39319,5.039513 -3.39319,5.463236 0,0.198205 -0.99249,1.440322 -2.20559,2.760262 -1.21307,1.319943 -2.68972,3.054209 -3.28144,3.85393 -1.24723,1.6857 -7.12417,7.517043 -7.57582,7.517043 -0.1679,0 -1.75981,1.109802 -3.53758,2.466229 -1.77776,1.356428 -4.31004,3.000102 -5.6273,3.652614 -1.31726,0.652506 -2.73859,1.486533 -3.1585,1.853392 -1.21038,1.057424 -2.53932,1.761454 -4.39012,2.325722 -0.94482,0.288063 -1.88106,0.665662 -2.08051,0.839115 -0.19947,0.173455 -0.71483,0.315509 -1.14524,0.315672 -0.43044,1.63e-4 -1.89922,0.538245 -3.26395,1.195738 -1.36476,0.657488 -3.08262,1.321486 -3.81747,1.475544 -0.73487,0.154058 -3.99882,0.828433 -7.25323,1.498601 -6.39636,1.317188 -6.37294,1.311107 -12.02507,3.122195 -3.78981,1.21437 -5.31799,1.58288 -9.3528,2.25537 -5.4307,0.90515 -7.82961,1.11727 -12.78858,1.13084 -2.93947,0.008 -5.94573,0.17351 -6.68058,0.3677 -1.49397,0.3948 -9.64857,0.88614 -13.16719,0.79337 l -2.28736,-0.0603 0.93781,0.99823 c 0.51579,0.54903 1.97454,1.5052 3.24173,2.12481 14.50598,7.0931 46.59838,3.17368 125.27351,-15.299554 4.43491,-1.041327 8.34305,-1.893323 8.68479,-1.893323 0.34409,0 0.62133,0.306965 0.62133,0.687948 0,0.753737 -2.27784,1.325383 -31.68511,7.951669 -48.90158,11.01893 -77.90741,15.04149 -93.14652,12.91767 z M 114.22,104.90169 c 0.11252,-0.11252 -0.19334,-1.18976 -0.6797,-2.39387 -0.50124,-1.24095 -0.93435,-3.218326 -0.99988,-4.564939 l -0.11562,-2.37566 -1.81329,-0.0023 -1.81331,-0.0023 -0.0334,2.385927 c -0.0184,1.312258 -0.18146,3.244852 -0.36237,4.294662 -0.24252,1.40729 -0.28301,0.7954 -0.15411,-2.329085 l 0.17483,-4.237827 -3.06055,-0.236012 c -1.6833,-0.129808 -3.37141,-0.402385 -3.75136,-0.605726 -0.70967,-0.379806 -10.904957,0.04457 -13.340694,0.5553 -1.123992,0.23568 -4.312973,-0.331473 -7.860946,-1.398062 -1.231538,-0.370223 -1.769451,-0.173479 -1.769451,0.647177 0,0.941007 3.741917,5.380695 4.960428,5.885425 0.631147,0.26142 1.147541,0.62186 1.147541,0.80095 0,0.56722 2.145217,1.46164 3.774026,1.57354 0.863134,0.0593 1.569581,0.21093 1.569887,0.33695 2.86e-4,0.21837 2.613107,0.38468 16.702329,1.06328 3.41203,0.16433 6.31809,0.41318 6.45789,0.553 0.30704,0.30703 0.69073,0.3267 0.96779,0.0496 z m 16.7196,-0.61161 c 1.78466,-0.2216 6.37463,-0.46265 10.19991,-0.53565 3.82529,-0.073 7.6046,-0.3131 8.39848,-0.53356 0.79386,-0.22045 1.94654,-0.40179 2.56151,-0.40295 0.615,-0.001 1.64572,-0.16832 2.29049,-0.37143 0.6448,-0.20311 2.20308,-0.64948 3.46285,-0.99193 2.61445,-0.71069 6.71004,-1.944092 8.39845,-2.529208 0.62988,-0.218287 1.91828,-0.524391 2.86311,-0.680232 2.04844,-0.33787 3.05399,-0.731797 3.05399,-1.1964 0,-0.187494 -0.66687,-1.007772 -1.48194,-1.82284 -1.03462,-1.034607 -1.63957,-1.382063 -2.00418,-1.151087 -0.28723,0.181965 -1.26364,0.333475 -2.16975,0.33669 -0.90615,0.0031 -1.98543,0.186683 -2.39843,0.407707 -0.41298,0.221029 -2.3343,0.551847 -4.26956,0.735164 -1.93529,0.18331 -5.92369,0.608439 -8.86316,0.944729 -2.93947,0.336289 -5.94573,0.590076 -6.68058,0.563973 -2.28199,-0.08107 -2.29049,-0.07467 -2.29049,1.721843 0,0.932435 -0.14963,1.787791 -0.33246,1.900801 -0.18284,0.113 -0.43623,0.72439 -0.56306,1.35864 -0.12687,0.63426 -0.39474,1.15319 -0.5953,1.15319 -0.22636,0 -0.21651,-0.47047 0.0261,-1.24068 0.38186,-1.21284 1.03341,-4.011647 1.06648,-4.580974 0.009,-0.157471 -1.40063,-0.286901 -3.13281,-0.287616 -1.73218,-8.59e-4 -5.03908,-0.171486 -7.34863,-0.379486 -2.30959,-0.207999 -5.65943,-0.457147 -7.44409,-0.553659 -1.78469,-0.09652 -4.66212,-0.293867 -6.3943,-0.43856 l -3.14942,-0.263083 v 1.90262 c 0,2.346672 0.77312,5.010108 1.92309,6.625058 l 0.86918,1.22066 5.3799,-0.2544 c 2.95894,-0.13992 6.84009,-0.43572 8.62475,-0.65733 z m -43.298071,-0.99051 c -2.692776,-0.39927 -9.379053,-6.405358 -9.385088,-8.430341 -0.0014,-0.568952 -0.582629,-0.645351 -5.058163,-0.665216 -3.587573,-0.01592 -5.683178,-0.209969 -7.214616,-0.668058 -3.600321,-1.076945 -4.117485,-0.885148 -7.25183,2.689455 -2.192579,2.500543 -2.328705,3.559605 -0.689239,5.36209 l 1.13975,1.25308 11.290425,0.1494 c 6.209738,0.0822 11.389403,0.24838 11.510375,0.36935 0.120966,0.12098 1.694446,0.19421 3.496617,0.16275 1.802168,-0.0315 2.774964,-0.13158 2.161769,-0.22251 z m 87.657501,-6.221177 c 3.39826,-0.660044 6.50493,-1.566193 8.59764,-2.507744 1.09651,-0.493357 2.4708,-1.001708 3.05396,-1.129669 0.58316,-0.127967 1.57566,-0.463913 2.20554,-0.74655 0.62989,-0.282635 2.12718,-0.887121 3.32731,-1.3433 1.20013,-0.456177 2.57442,-1.213089 3.05399,-1.682023 0.47955,-0.468941 1.43021,-1.094548 2.11261,-1.390241 1.36682,-0.592295 1.48389,-0.819405 0.74051,-1.43636 -0.36865,-0.305958 -1.23137,-0.167704 -3.28141,0.525882 -1.5297,0.517536 -3.11443,0.94097 -3.52163,0.94097 -0.40722,0 -1.12085,0.247396 -1.58587,0.549772 -1.20294,0.782184 -8.05708,3.092663 -10.77094,3.630793 -1.25977,0.249801 -2.89174,0.602227 -3.62662,0.783167 -0.73487,0.180946 -2.15108,0.445884 -3.14716,0.588747 l -1.81106,0.259759 0.95213,1.131524 c 0.52366,0.62234 0.9521,1.376025 0.9521,1.674863 0,0.648509 0.14387,0.656379 2.7489,0.15041 z m -33.08551,-1.229511 c -0.70352,-2.627757 -1.00423,-3.83506 -1.68771,-6.776027 -0.41475,-1.784671 -0.95056,-4.275578 -1.19066,-5.535346 -0.24013,-1.259769 -0.85306,-3.971965 -1.36209,-6.027098 -0.50901,-2.055138 -0.9255,-4.143124 -0.9255,-4.639971 0,-0.694073 -0.47436,-1.171081 -2.04747,-2.058892 -1.12612,-0.635533 -2.64033,-1.848138 -3.36493,-2.694674 -1.30105,-1.519979 -1.33618,-1.533719 -2.81982,-1.102904 -2.04944,0.595106 -2.83846,1.35042 -2.83846,2.717232 0,0.634926 -0.16002,1.681966 -0.3556,2.326759 -0.19555,0.644792 -0.56449,2.374856 -0.81985,3.844585 -0.44304,2.550044 -0.60237,3.087421 -1.69774,5.726221 -0.26146,0.629885 -0.94145,2.519538 -1.51109,4.19923 -0.56965,1.67969 -1.27795,3.598573 -1.57402,4.264186 -0.29608,0.665616 -0.64684,1.782229 -0.77946,2.481363 -0.13265,0.699138 -0.41326,1.490043 -0.62358,1.757572 -0.21033,0.267524 -0.26163,0.607192 -0.11401,0.754819 0.36327,0.363286 14.67665,1.493748 19.81244,1.564773 4.10785,0.0568 4.12832,0.0526 3.89955,-0.801828 z m 9.34047,0.110087 c 1.15478,-0.183537 4.07516,-0.529298 6.48973,-0.768353 2.41455,-0.23905 4.91765,-0.59673 5.56245,-0.794837 0.64478,-0.19811 1.70728,-0.3602 2.36107,-0.3602 0.65379,0 1.64843,-0.174778 2.21029,-0.388398 0.96029,-0.365101 1.00607,-0.49171 0.76333,-2.110364 -0.14831,-0.989053 -0.99673,-2.971099 -1.99332,-4.656796 -0.95433,-1.614161 -2.54926,-4.572648 -3.54428,-6.574409 -4.07658,-8.201203 -4.5814,-8.829828 -7.83911,-9.761467 -1.45323,-0.415589 -2.9569,-1.136534 -3.49706,-1.676698 -0.5212,-0.521189 -1.40123,-1.222001 -1.95567,-1.557363 -0.99207,-0.600074 -1.02672,-0.585308 -2.18318,0.930923 -1.74962,2.293902 -4.68597,3.638779 -7.96223,3.64679 l -2.61688,0.0064 0.17144,1.431555 c 0.0943,0.787356 0.5269,2.805849 0.96135,4.485538 0.43442,1.679693 0.99023,4.084706 1.23512,5.344475 0.24491,1.259768 0.93053,4.266035 1.52366,6.68059 0.59312,2.414556 1.18083,4.849941 1.306,5.41197 0.12518,0.562026 0.52811,1.109409 0.89541,1.216407 0.79887,0.232728 5.18676,-0.04085 8.11188,-0.50576 z m -38.9383,-2.088465 c 0,-2.448925 2.31399,-10.296817 5.1834,-17.579403 1.57325,-3.993014 3.21794,-8.170533 3.65485,-9.283379 0.43688,-1.112842 0.72445,-2.09324 0.63902,-2.178664 -0.0854,-0.08542 -1.0932,0.603802 -2.2395,1.53161 -1.1463,0.927805 -2.19297,1.693473 -2.32596,1.701481 -0.13299,0.008 -0.32777,-0.314221 -0.43285,-0.716064 -0.1404,-0.536951 0.25256,-1.049196 1.48246,-1.932457 0.92044,-0.661012 1.67355,-1.362952 1.67355,-1.559868 0,-0.196914 0.19704,-0.358026 0.43785,-0.358026 0.24082,0 1.17162,-0.601254 2.06843,-1.33612 0.89681,-0.734863 1.79895,-1.336116 2.00475,-1.336116 0.2058,0 0.48985,1.245453 0.6312,2.767672 0.3298,3.551548 0.52618,4.235812 1.09328,3.808979 0.24477,-0.184255 1.18928,-0.547997 2.09886,-0.808313 1.32116,-0.378106 1.59971,-0.6027 1.38495,-1.116642 -1.04129,-2.49176 -1.04891,-4.564555 -0.0304,-8.278304 0.165,-0.6017 -0.3038,-1.142212 -2.2123,-2.550628 l -2.4217,-1.787134 -0.71415,0.85197 c -0.77275,0.921896 -2.36553,3.71359 -3.5165,6.163433 -0.39597,0.84282 -1.0032,1.767496 -1.34941,2.054829 -0.4869,0.404085 -0.52962,0.64276 -0.18862,1.053625 0.55032,0.663096 0.14135,1.143523 -0.51765,0.608113 -0.26753,-0.217353 -1.25946,-0.48201 -2.20428,-0.588129 -7.47584,-0.839659 -12.28566,-1.474762 -13.74294,-1.814659 -0.94483,-0.220374 -3.349843,-0.551979 -5.344478,-0.736908 -12.810525,-1.187681 -19.175681,-2.5686 -23.709205,-5.143684 l -1.611628,-0.915425 -1.177952,1.783488 c -1.201585,1.819273 -3.448411,4.146632 -6.087189,6.305378 -4.247596,3.474891 -5.57007,5.682768 -5.58304,9.320908 -0.0046,1.283109 0.444776,2.409494 2.132056,5.344475 2.619881,4.557204 3.322488,5.511058 7.156923,9.716189 2.691167,2.951332 3.216422,3.352863 4.671429,3.571055 0.901631,0.135208 1.934014,0.571457 2.294188,0.969441 0.360173,0.397989 0.864879,0.723611 1.121572,0.723611 0.256695,0 0.680567,0.25768 0.941946,0.572622 0.261379,0.314942 0.359776,0.572622 0.218659,0.572622 -0.49058,0 -2.376729,-1.098335 -2.835559,-1.651193 -0.25393,-0.305963 -1.223047,-0.670469 -2.153595,-0.810011 -1.350839,-0.202571 -1.983245,-0.58191 -3.137122,-1.881754 -1.021,-1.150166 -2.033335,-1.81845 -3.448849,-2.276723 -1.102,-0.356778 -3.562291,-1.461263 -5.467313,-2.454413 -6.444212,-3.359574 -6.889105,-3.629099 -8.345988,-5.056093 -0.538986,-0.527929 -1.52294,-1.344691 -2.186563,-1.81502 -0.695725,-0.493077 -2.193552,-2.543694 -3.537648,-4.843253 -1.282087,-2.193463 -2.499931,-4.092482 -2.70633,-4.220042 -0.206405,-0.127563 -0.375274,-0.533226 -0.375274,-0.901476 0,-0.36825 -0.51296,-1.160989 -1.139907,-1.761643 -0.62695,-0.600655 -1.594655,-1.96414 -2.150457,-3.02997 -0.555801,-1.065825 -1.321231,-2.334824 -1.700954,-2.819996 -0.379723,-0.485171 -0.887756,-1.832757 -1.128959,-2.994636 -0.241205,-1.161873 -0.680684,-2.692 -0.976618,-3.40027 -0.614032,-1.469583 -0.7412,-8.053152 -0.19251,-9.966314 0.396065,-1.380996 0.109325,-1.911862 -2.508191,-4.643656 -0.910169,-0.9499 -1.654847,-1.9149 -1.654847,-2.144442 0,-0.229541 -0.512542,-1.039154 -1.138988,-1.799138 -0.626446,-0.759985 -1.319605,-1.856848 -1.540356,-2.437473 l -0.401374,-1.055686 -1.2788,1.396125 c -0.70334,0.767869 -1.431226,1.396127 -1.617523,1.396127 -0.913954,0 -3.29865,2.588979 -4.32992,4.700841 -1.706729,3.495091 -2.174174,6.20723 -1.572171,9.121842 0.633017,3.06476 0.981466,3.68347 4.215578,7.485203 1.485457,1.746174 2.700827,3.322995 2.700827,3.504052 0,0.386488 5.405622,3.819166 6.014245,3.819166 0.228144,0 0.534926,-0.558306 0.681741,-1.24068 0.276977,-1.287395 2.788615,-5.05364 3.137511,-4.704747 0.109133,0.109134 -0.262739,0.80304 -0.826382,1.542017 -1.870436,2.452266 -2.066765,3.366377 -1.842134,8.576912 0.199968,4.638331 0.24605,4.848137 1.388216,6.320741 1.591993,2.052573 1.988949,2.36939 4.42624,3.532649 1.154787,0.551152 2.86334,1.485774 3.796783,2.076935 0.933443,0.591158 1.973731,1.074838 2.311759,1.074838 0.338024,0 1.201241,0.432819 1.918255,0.961813 1.294238,0.954859 1.305796,0.956067 1.597647,0.167123 0.370498,-1.001554 1.40754,-2.058391 1.716584,-1.749347 0.128691,0.128692 -0.03096,0.535663 -0.354771,0.904383 -1.526484,1.738171 -1.09142,5.051068 0.865092,6.587494 0.668422,0.524902 2.13414,1.741389 3.257152,2.703306 1.480735,1.268321 2.596487,1.871672 4.060178,2.195579 1.110088,0.245649 3.564418,0.805018 5.454071,1.243037 4.326618,1.002896 11.160692,1.403829 12.744754,0.747687 0.954532,-0.395381 1.653624,-0.34246 4.39671,0.332822 3.087255,0.760007 3.682304,0.782024 11.125719,0.411644 4.325207,-0.215223 8.06615,-0.260119 8.3132,-0.09978 0.42955,0.27879 4.68124,0.658327 8.94308,0.798321 l 2.00418,0.06584 z m 5.56649,0.260511 c 0.22461,-0.577392 0.80946,-2.338205 1.29971,-3.912916 0.49022,-1.574711 1.10639,-3.37847 1.36928,-4.008355 2.72179,-6.521676 4.9541,-15.07905 3.93357,-15.07905 -0.18419,0 -0.33487,-0.8261 -0.33487,-1.835776 0,-1.009678 -0.23283,-2.154178 -0.51736,-2.543335 -0.4752,-0.649852 -0.57234,-0.554608 -1.19089,1.167717 -0.37043,1.031404 -1.66484,4.366183 -2.87648,7.410624 -3.57104,8.972803 -5.71268,16.012467 -5.71978,18.801091 -0.003,0.998465 0.0861,1.049809 1.81287,1.049809 1.6271,0 1.85793,-0.10897 2.22395,-1.049809 z m 57.61283,-1.422579 c 1.04979,-0.272817 2.93944,-0.706195 4.19921,-0.96307 2.62264,-0.534772 9.48044,-3.013653 9.67096,-3.49575 0.07,-0.1771 0.36046,-0.322005 0.64551,-0.322005 0.28505,0 0.61414,-0.155092 0.7313,-0.34465 0.27829,-0.450296 -2.43433,-5.743397 -3.73645,-7.290889 -0.55687,-0.661788 -1.01248,-1.371564 -1.01248,-1.577284 0,-0.434712 -3.09903,-4.786795 -4.77278,-6.702557 -1.33441,-1.527387 -1.02708,-1.482645 -12.5373,-1.825265 -4.16651,-0.124024 -7.68814,-0.242508 -7.82583,-0.263303 -0.13768,-0.02081 -0.78712,0.185936 -1.4432,0.459392 l -1.19289,0.497194 1.25513,1.747651 c 0.69035,0.961209 2.61754,4.414175 4.28264,7.673257 1.66513,3.259079 3.47576,6.63568 4.02362,7.503549 0.54785,0.867872 1.11105,2.444515 1.25158,3.503657 0.17267,1.301711 0.45681,1.981997 0.87685,2.099425 0.8027,0.224393 3.17067,-0.07217 5.58413,-0.699352 z m 18.96919,-5.783644 c 1.53475,-0.551544 2.87631,-1.109851 2.9813,-1.24068 0.10499,-0.130825 0.96393,-0.61778 1.90875,-1.082122 2.81816,-1.384998 6.50007,-3.501653 7.05308,-4.054663 0.28428,-0.284275 1.00389,-0.724745 1.59919,-0.978823 0.69278,-0.295708 1.68906,-1.450644 2.76834,-3.209203 l 1.68603,-2.747244 -0.0401,-4.53844 c -0.0221,-2.49614 -0.20466,-4.70294 -0.40573,-4.904002 -0.23292,-0.232925 -0.83011,-0.158244 -1.64589,0.205824 -0.70416,0.31426 -1.70977,0.677784 -2.23469,0.807826 -2.10441,0.521367 -7.32126,1.370216 -7.56548,1.231009 -0.14319,-0.08162 -2.83714,0.09358 -5.98657,0.389349 -7.70603,0.723674 -7.82906,0.741858 -8.31633,1.229133 -0.23412,0.234137 -0.80373,0.425702 -1.26581,0.425702 -0.46205,0 -1.69393,0.395576 -2.73748,0.879055 l -1.89732,0.879058 1.00051,1.162194 c 1.93102,2.243084 4.06293,5.129297 4.93523,6.681418 0.48441,0.861922 1.14851,1.834882 1.47576,2.162141 0.32725,0.327257 0.9202,1.353667 1.31766,2.280915 0.39749,0.927247 1.06474,2.120757 1.48281,2.652248 0.41807,0.531491 0.76012,1.372647 0.76012,1.869236 0,0.496589 0.0756,0.902888 0.16813,0.902888 0.0925,0 1.42379,-0.451269 2.95853,-1.002819 z m 7.27508,-1.176704 c 1.10279,-0.778812 2.68019,-1.981319 3.50534,-2.672236 0.82515,-0.690914 1.69433,-1.25621 1.93148,-1.25621 0.46918,0 4.23265,-3.666276 6.79723,-6.621673 0.88287,-1.017401 2.40163,-2.735268 3.375,-3.81748 0.9734,-1.082216 2.58891,-3.341955 3.59003,-5.021645 1.00109,-1.679692 2.20428,-3.483452 2.67371,-4.008355 1.01603,-1.136048 2.60088,-4.190142 2.32009,-4.470933 -0.20213,-0.202113 -12.87231,0.945296 -13.1147,1.187655 -0.28869,0.288716 -0.10725,9.330437 0.20454,10.192337 0.18241,0.504228 0.20517,1.346243 0.0506,1.871146 -0.15458,0.524905 -0.29819,1.410502 -0.31909,1.967999 -0.0621,1.654935 -3.26403,6.487565 -4.69782,7.090425 -0.67799,0.285074 -1.32413,0.662761 -1.43591,0.839298 -0.20861,0.329535 -1.41143,1.040426 -5.73853,3.391538 -1.36476,0.741534 -2.5488,1.40049 -2.6312,1.464355 -0.22602,0.175142 0.76665,1.279805 1.15008,1.279805 0.18376,0 1.23638,-0.637209 2.33916,-1.416026 z M 66.557759,85.159936 c -0.638783,-0.682374 -1.602858,-1.841933 -2.142389,-2.5768 -1.406528,-1.915756 -5.220169,-8.741546 -5.494355,-9.833998 -0.150299,-0.598836 -1.141797,-1.507339 -2.816714,-2.580934 -1.421623,-0.911236 -3.074016,-2.285532 -3.671977,-3.053991 -0.597963,-0.768459 -1.642552,-2.025825 -2.321307,-2.794147 -0.678752,-0.768327 -1.33453,-1.697581 -1.457283,-2.065013 -0.297835,-0.891538 -0.935224,-0.853444 -0.935224,0.05589 0,0.829858 -2.40584,3.093531 -3.287821,3.093531 -0.323956,0 0.154235,-0.566896 1.062649,-1.259766 1.834363,-1.399119 2.384264,-2.907752 1.628033,-4.466456 -0.604534,-1.246034 -1.202684,-3.930386 -1.857729,-8.337046 -0.349454,-2.350883 -0.775204,-3.846165 -1.249988,-4.390105 -0.396014,-0.4537 -0.900961,-1.254375 -1.122105,-1.779277 -0.221138,-0.524903 -0.869653,-1.970694 -1.441132,-3.212869 l -1.039058,-2.258493 -1.776514,1.776512 -1.776515,1.776511 -0.146302,3.952278 c -0.138119,3.731269 -0.06582,4.20116 1.292964,8.403256 0.791593,2.44804 1.5831,4.450981 1.758906,4.450981 0.175807,0 0.319649,0.168451 0.319649,0.374334 0,0.548893 2.456237,4.285656 3.337125,5.076891 0.415996,0.373656 1.076034,1.404373 1.466751,2.290489 0.390721,0.886112 0.811223,1.697005 0.934451,1.801987 0.224319,0.191104 1.898177,3.079917 2.933873,5.063403 0.302997,0.580278 0.986759,1.353318 1.519475,1.717866 0.532714,0.364552 1.678516,1.318597 2.546225,2.120108 0.867709,0.801508 1.849744,1.703388 2.1823,2.004178 0.332556,0.300787 0.867694,0.546888 1.189199,0.546888 0.321504,0 1.009928,0.334597 1.529826,0.74355 0.519898,0.408952 2.561556,1.505134 4.537022,2.435957 5.514956,2.598606 5.953636,2.692942 4.297965,0.924284 z M 28.249357,75.969087 c 0,-0.647773 1.335908,-1.879907 3.097119,-2.856531 3.143618,-1.743194 3.011222,-1.546818 3.006647,-4.459616 -0.0059,-3.741653 -0.350479,-5.538954 -1.062011,-5.538954 -0.638946,0 -3.784276,-1.747963 -4.591837,-2.551839 -0.277447,-0.276178 -0.635416,-0.502146 -0.795481,-0.502146 -0.160065,0 -0.923445,-0.90188 -1.696396,-2.004178 -0.772957,-1.102298 -2.261391,-2.949004 -3.307637,-4.103791 -1.046244,-1.15479 -1.902569,-2.279992 -1.902941,-2.500452 -2.86e-4,-0.220459 -0.19878,-0.59894 -0.440907,-0.841067 -0.53578,-0.53578 -1.180057,-0.228992 -4.140746,1.971727 -1.15479,0.858363 -2.443189,1.736937 -2.86311,1.952384 -0.419924,0.215443 -1.248769,1.332056 -1.841883,2.481363 -1.014566,1.965981 -1.063891,2.280056 -0.833488,5.307225 0.255887,3.361997 0.715886,4.667604 2.094339,5.944371 0.453368,0.419924 1.454927,1.422153 2.225688,2.227176 0.770758,0.805027 2.090314,1.778047 2.932347,2.162267 0.842029,0.384221 1.960432,1.164705 2.485334,1.734413 1.344909,1.459697 2.90107,2.051505 5.439911,2.068786 1.575896,0.01074 2.195052,-0.127809 2.195052,-0.491138 z m 31.3208,-7.397402 c 0.563981,-2.356134 0.769369,-2.598253 6.472262,-7.629889 1.364748,-1.20411 2.954278,-2.796985 3.532288,-3.539721 2.389773,-3.070847 2.265067,-2.752492 1.42747,-3.644076 -0.418292,-0.445251 -0.760531,-1.041056 -0.760531,-1.324011 0,-0.70156 -3.257601,-6.208988 -4.329404,-7.319471 -0.476201,-0.493383 -1.426722,-2.089375 -2.112269,-3.54665 -0.685549,-1.457272 -1.47445,-2.831565 -1.753117,-3.053983 -0.278666,-0.222418 -0.929142,-1.215556 -1.445504,-2.206966 -0.516365,-0.991412 -1.779538,-2.638482 -2.807051,-3.66016 -1.909094,-1.898243 -5.14164,-4.271848 -5.817712,-4.271848 -0.206914,0 -1.001118,-0.659466 -1.764899,-1.465484 l -1.38868,-1.465477 -2.323678,2.238689 c -2.172758,2.093298 -3.941227,4.449258 -4.674684,6.227619 -0.173187,0.419924 -0.51735,1.883185 -0.764797,3.251701 -0.390557,2.159956 -0.369923,2.572453 0.156409,3.126837 0.333475,0.351247 0.832226,1.292995 1.108342,2.092774 0.807285,2.338351 1.363427,3.553753 1.62612,3.553753 0.520354,0 1.420808,2.584576 1.662497,4.771849 0.363123,3.286267 1.638321,8.1349 2.608251,9.917217 0.864877,1.589282 3.468017,5.076848 4.945586,6.625871 1.102667,1.15599 5.276484,3.903191 5.613581,3.694856 0.142912,-0.08832 0.498193,-1.156367 0.78952,-2.37343 z m 100.340483,1.127453 c 0.65542,-0.543092 0.74793,-0.880532 0.49452,-1.803931 -0.2677,-0.975365 -0.81218,-1.360427 -3.85323,-2.725066 l -3.5415,-1.589193 1.8486,-1.249713 c 2.37048,-1.602552 2.27351,-1.505447 1.81232,-1.814806 -0.21774,-0.146056 -0.96816,-1.124487 -1.66759,-2.174295 -1.46265,-2.195373 -3.06282,-4.008355 -3.53786,-4.008355 -0.17984,0 -0.75415,0.39608 -1.27621,0.880178 -0.91883,0.851981 -0.93051,0.924956 -0.3651,2.278226 0.69837,1.671435 0.75967,5.138258 0.12812,7.246186 -0.4106,1.370417 -0.38205,1.572724 0.28631,2.030281 0.40828,0.279508 1.27873,0.979187 1.93432,1.554841 2.15186,1.88953 6.23992,2.616365 7.7373,1.375647 z m 20.27446,0.26505 c 0.27243,-0.302788 3.74486,-1.887477 4.13591,-1.887477 0.6809,0 1.6119,-1.474422 2.53099,-4.008381 0.5236,-1.443555 0.91267,-2.654928 0.8646,-2.691943 -0.0481,-0.03703 -5.06922,0.41664 -11.15812,1.008127 -6.08886,0.591488 -12.13031,1.083485 -13.42538,1.093328 -4.141,0.03145 -4.74747,0.892678 -1.57308,2.233825 1.82068,0.769209 1.93776,0.892071 1.38068,1.449149 -0.49978,0.499782 -0.7625,0.526357 -1.46843,0.148564 -0.81805,-0.437816 -0.84665,-0.407243 -0.59015,0.630795 0.14828,0.599996 0.38982,1.214672 0.53672,1.365944 0.14691,0.151275 3.84313,0.352326 8.21378,0.446783 4.37068,0.09445 8.01064,0.235682 8.08877,0.313837 0.22023,0.220216 2.24929,0.135754 2.46371,-0.102551 z m 12.20727,-3.399452 c 2.82323,-0.239651 6.28974,-0.502338 7.70338,-0.583754 3.2084,-0.184782 6.34723,-0.794112 9.72925,-1.888717 l 2.6178,-0.847268 0.11529,-2.191485 0.11527,-2.191486 -1.64228,0.224188 c -0.90322,0.123305 -6.26414,0.654057 -11.91312,1.179452 -11.00909,1.023923 -10.95555,1.008946 -11.54623,3.230068 -0.13961,0.524902 -0.56575,1.688067 -0.94698,2.584807 -0.64895,1.526451 -0.65084,1.607777 -0.0294,1.275175 0.3651,-0.19539 2.97374,-0.551335 5.79699,-0.79098 z m -33.39429,-2.305505 c -0.12975,-0.209964 -0.52644,-0.379119 -0.88146,-0.375904 -0.55631,0.005 -0.56638,0.05699 -0.0729,0.375904 0.74759,0.483138 1.25296,0.483138 0.95436,0 z m -39.69557,-2.5768 c 0.5082,-0.577395 0.92942,-1.291272 0.93607,-1.586398 0.007,-0.295121 0.40914,-1.068161 0.8944,-1.717867 0.4853,-0.6497 1.11395,-1.782529 1.397,-2.517395 0.28308,-0.734864 0.89719,-1.765583 1.36473,-2.290489 0.72239,-0.810993 0.87915,-1.52787 1.04349,-4.771849 0.18642,-3.679722 1.39253,-8.753309 2.14825,-9.036754 0.18361,-0.06886 0.75893,-1.011207 1.27849,-2.094102 l 0.94469,-1.968898 -0.86366,-0.894213 c -1.07985,-1.118039 -3.4272,-5.47405 -3.77329,-7.002179 -0.85229,-3.762972 -5.18321,-9.518019 -9.67108,-12.851138 -1.10229,-0.818672 -2.00417,-1.70613 -2.00417,-1.972122 0,-0.527067 -4.05495,-1.050126 -15.460796,-1.994328 C 85.456741,9.9846948 82.651823,9.6932186 81.314861,9.2989912 c -0.73348,-0.2162794 -1.890572,-0.393234 -2.571322,-0.393234 -0.680745,0 -1.970281,-0.1946027 -2.86563,-0.4324528 -1.451666,-0.3856295 -1.793224,-0.3389035 -3.154899,0.4316197 -0.839845,0.4752391 -2.901285,1.3367579 -4.580977,1.9144879 -1.679693,0.577732 -4.514173,1.563745 -6.298844,2.191144 -1.784671,0.627405 -3.932004,1.329119 -4.771852,1.55937 -2.004788,0.549631 -6.523818,4.972275 -7.06269,6.912044 -0.863586,3.108663 -0.05473,5.197863 2.49133,6.434833 0.939538,0.45646 1.708249,1.003948 1.708249,1.21664 0,0.212692 0.247888,0.386712 0.550863,0.386712 0.916951,0 5.094902,4.145372 5.995605,5.94886 0.463913,0.928893 1.116714,1.988897 1.450667,2.355558 0.333953,0.366664 1.270789,1.955061 2.081859,3.529772 0.811065,1.574711 1.871447,3.292577 2.356398,3.81748 0.993476,1.075318 3.895113,6.21035 4.203444,7.438834 0.144152,0.574346 1.201659,1.249713 3.71101,2.370023 6.690861,2.987143 6.810086,3.019494 14.38923,3.904023 1.574711,0.18378 3.292577,0.441621 3.817483,0.57298 0.524903,0.131365 2.758129,0.401443 4.962724,0.600183 2.204595,0.198737 4.867291,0.542765 5.917101,0.764507 1.0498,0.221737 3.71249,0.577914 5.91709,0.791502 2.20459,0.213588 4.52371,0.537102 5.15359,0.718921 2.26916,0.655 3.605,0.465608 4.58722,-0.650367 z m 57.0506,-0.909307 c 6.81578,-0.632421 12.53762,-1.239652 12.71519,-1.349401 0.17757,-0.109755 0.75403,-1.110148 1.28099,-2.223097 0.96318,-2.034303 4.08408,-5.330053 5.86923,-6.198065 1.66553,-0.809859 7.25489,-1.723538 9.48938,-1.55121 1.18467,0.09136 2.87462,0.519998 3.75546,0.952531 l 1.60151,0.786419 0.95963,-1.386808 c 1.59575,-2.306089 2.21504,-4.540807 2.17264,-7.83999 -0.0466,-3.628598 -0.55794,-5.731481 -1.78953,-7.359718 -0.50554,-0.668364 -0.92622,-1.355511 -0.93484,-1.526991 -0.009,-0.17148 -0.65278,-1.009897 -1.43155,-1.863144 -1.71334,-1.877281 -5.00389,-3.641016 -8.85998,-4.748982 -1.57471,-0.452455 -3.88084,-1.162701 -5.12468,-1.578319 -1.24388,-0.415617 -3.04764,-0.915096 -4.00836,-1.109947 -0.96075,-0.194855 -3.72233,-0.791648 -6.13688,-1.326205 -9.3752,-2.075572 -11.06019,-2.343092 -11.39466,-1.809116 -0.13677,0.21834 -1.45117,1.189814 -2.92089,2.158828 -1.46972,0.969014 -3.16391,2.14739 -3.76482,2.618615 -0.60091,0.471223 -1.91376,1.372129 -2.91742,2.002013 -1.00367,0.629885 -2.917,2.051543 -4.2519,3.159235 -1.33486,1.107695 -2.59884,2.143597 -2.80879,2.302001 -0.20995,0.158407 -1.06889,0.798195 -1.90875,1.421746 -0.83984,0.623552 -2.04235,1.615837 -2.67223,2.20508 -0.62988,0.589242 -1.63309,1.331721 -2.2293,1.64995 -1.05503,0.563097 -1.0656,0.599035 -0.39385,1.34131 0.55089,0.608712 0.74043,1.701481 0.93872,5.412388 0.13666,2.557324 0.16189,5.543159 0.056,6.635187 -0.17901,1.84675 -0.11215,2.053057 0.95633,2.952131 0.63183,0.531642 1.89014,2.086122 2.79626,3.454403 0.90612,1.368278 1.74598,2.48778 1.86638,2.48778 0.12036,0 1.13768,-0.618793 2.26074,-1.375098 1.83053,-1.232755 2.10221,-1.314795 2.6245,-0.792518 0.52226,0.522275 0.35863,0.725831 -1.58079,1.966454 -1.18982,0.761135 -2.08345,1.513125 -1.98582,1.671094 0.245,0.396421 3.42425,0.192745 17.77204,-1.138556 z m 33.89465,-3.193047 c 2.29794,-0.243751 2.38592,-0.292472 2.38592,-1.321199 0,-0.587465 -0.25768,-1.281973 -0.57262,-1.543352 -0.31494,-0.261379 -0.57262,-0.871396 -0.57262,-1.355594 0,-2.060234 -2.67572,-3.246653 -7.21398,-3.198676 -3.35113,0.03543 -5.9689,0.457316 -7.6742,1.236804 -1.50774,0.689185 -5.47458,4.963993 -6.14103,6.617826 l -0.60569,1.503018 9.00414,-0.842871 c 4.95229,-0.463578 10.07781,-0.95676 11.39008,-1.095956 z m -66.57273,-0.382428 c 0.59009,-1.5377 -4.72239,-2.500676 -7.18398,-1.302223 -2.13533,1.039604 -1.62455,1.453538 1.96135,1.589458 1.85186,0.07019 3.73516,0.162954 4.18509,0.206124 0.44997,0.04318 0.91686,-0.178835 1.03754,-0.493359 z m 77.3571,-0.600329 c 3.04446,-0.25155 5.88993,-0.675004 6.32332,-0.941004 0.83777,-0.514215 3.13579,-4.851725 3.61508,-6.82348 0.1577,-0.648804 0.56288,-2.203513 0.90039,-3.454904 1.01096,-3.748371 0.82546,-5.663643 -0.88762,-9.163773 -0.8257,-1.687071 -2.12916,-3.668653 -2.89656,-4.403516 -0.76739,-0.734866 -1.72436,-1.974573 -2.12657,-2.754908 -0.40221,-0.780336 -1.03135,-1.569432 -1.39812,-1.75355 -0.74984,-0.376433 -3.38462,-0.177135 -4.32721,0.327319 -0.34017,0.182051 -1.80305,0.430249 -3.25089,0.551556 -3.08059,0.258109 -6.68517,0.951902 -7.1747,1.380956 -0.19177,0.168088 0.18702,0.904414 0.85893,1.669689 0.6611,0.75295 1.20199,1.521629 1.20199,1.708175 0,0.186546 0.43637,0.857754 0.96968,1.491569 1.08715,1.291984 2.06711,5.198333 2.0777,8.282069 0.007,2.059258 -1.27714,5.852845 -2.61943,7.737926 -0.65785,0.923848 -0.72024,1.311087 -0.39889,2.474979 0.20953,0.758873 0.5464,1.482006 0.74859,1.606964 0.2022,0.124963 0.3676,0.837434 0.3676,1.583274 0,1.318305 0.0346,1.350252 1.2407,1.147045 0.68236,-0.114962 3.73158,-0.414836 6.77601,-0.666386 z m -89.06777,-2.291187 c 2.54989,-2.822423 6.45208,-4.164856 9.83819,-3.38454 2.41335,0.55615 4.79319,1.899227 6.08446,3.43384 l 0.9945,1.181869 1.12423,-0.888074 c 0.94978,-0.750232 1.13562,-1.184326 1.19755,-2.796812 0.16449,-4.28316 -0.13013,-10.364739 -0.54399,-11.229255 -0.24279,-0.507135 -1.08652,-1.25453 -1.87494,-1.660877 l -1.43353,-0.738811 -4.21083,3.142473 c -2.31597,1.728357 -4.28047,3.072854 -4.36556,2.987765 -0.0851,-0.08509 -0.32765,-1.845095 -0.53901,-3.911121 -0.21138,-2.066029 -0.43705,-3.809151 -0.5015,-3.873606 -0.0644,-0.06446 -1.89718,-0.173676 -4.07275,-0.242717 l -3.95553,-0.125522 -1.53084,2.863111 c -1.86781,3.493327 -2.96143,7.37255 -2.96143,10.504587 0,2.146085 0.10224,2.439746 1.18552,3.404969 1.15384,1.028066 3.74398,2.887359 4.02233,2.887359 0.0762,0 0.77064,-0.699587 1.54313,-1.554638 z M 39.017646,40.3225 c 1.22306,-1.19429 1.447651,-1.663176 1.447651,-3.022334 0,-2.195216 2.099557,-6.764094 3.838321,-8.352633 3.761701,-3.436705 4.941884,-4.833376 4.941884,-5.848397 0,-2.009939 0.842496,-3.560568 3.104903,-5.714629 1.231762,-1.172776 2.239571,-2.291477 2.239571,-2.486005 0,-0.194531 -0.67671,-0.946867 -1.503803,-1.671861 -0.82709,-0.724991 -1.557183,-1.646667 -1.622428,-2.048167 -0.113877,-0.700752 -0.195098,-0.693766 -2.027368,0.17437 -1.049808,0.497396 -2.595888,1.120661 -3.435733,1.385029 -0.839845,0.264369 -2.042351,0.859183 -2.672236,1.321807 -0.629884,0.462627 -1.402924,0.953604 -1.717866,1.091059 -0.314942,0.137455 -1.259769,0.676279 -2.099617,1.197376 -0.839845,0.521101 -2.095465,1.231478 -2.790267,1.578619 -0.738348,0.368895 -1.909177,1.600053 -2.817685,2.96287 -0.854925,1.282436 -1.746638,2.504856 -1.981582,2.71648 -0.867628,0.781514 -2.147064,3.855173 -2.143971,5.150574 0.0048,2.011945 0.728558,4.275606 1.708784,5.344474 0.481372,0.524903 1.142819,1.469729 1.469881,2.099613 0.327065,0.629885 1.087908,1.660605 1.690759,2.290489 0.602853,0.629884 1.405346,1.617658 1.783314,2.195053 0.377968,0.577392 0.789053,1.049805 0.913527,1.049805 0.124468,0 0.877752,-0.636117 1.673961,-1.413592 z M 145.15182,37.495527 c -0.15315,-0.140029 -0.6574,-0.36898 -1.12059,-0.50878 -0.72257,-0.218086 -0.98007,0.01798 -1.8133,1.662267 -0.53414,1.054049 -0.97113,2.018147 -0.97113,2.142435 0,0.124293 0.94127,-0.509159 2.0917,-1.407669 1.15045,-0.89851 1.96644,-1.748224 1.81332,-1.888253 z m -3.92103,-0.626723 c 0.009,-0.26462 -0.43038,-0.477184 -0.98608,-0.477184 -0.91875,0 -0.98225,0.09922 -0.76351,1.192961 0.13125,0.656131 0.2458,1.472117 0.25459,1.813306 0.0177,0.687244 1.46949,-1.768716 1.495,-2.529083 z m 11.85019,-1.049806 c 0.2908,-0.350381 1.31164,-1.172695 2.26853,-1.827369 0.9569,-0.654673 1.96684,-1.413214 2.24427,-1.68565 0.27747,-0.272434 0.62104,-0.499321 0.76351,-0.504194 0.14247,-0.0049 0.87703,-0.565914 1.63232,-1.246759 1.76968,-1.595216 3.17547,-2.681124 5.30732,-4.099632 0.94482,-0.628682 2.31912,-1.573225 3.05399,-2.098983 0.73485,-0.525759 1.65863,-1.168027 2.05279,-1.427264 3.89206,-2.559575 4.47135,-3.135934 4.31059,-4.288814 -0.0878,-0.629884 -0.37879,-1.746497 -0.64658,-2.481364 -0.26779,-0.734863 -0.63655,-1.76706 -0.81951,-2.293766 -0.18292,-0.526709 -0.83522,-1.495448 -1.44953,-2.152758 -0.98749,-1.056609 -1.48424,-1.242089 -4.28654,-1.600514 -7.19236,-0.9199285 -6.16502,-1.1517661 -9.57533,2.160879 -3.94505,3.83207 -6.9187,8.330432 -10.77053,16.292972 -1.72666,3.569346 -3.234,6.763928 -3.34967,7.099072 -0.16211,0.469688 0.4599,0.8729 2.71374,1.759184 l 2.92404,1.149828 1.54894,-1.058907 c 0.85192,-0.5824 1.78687,-1.345582 2.07765,-1.695961 z M 137.87995,35.15484 c 0.0671,-0.470272 0.42262,-0.912333 0.79005,-0.982365 0.49952,-0.09521 0.66805,0.126595 0.66805,0.879221 0,0.905636 0.1244,0.994556 1.2407,0.886926 1.2062,-0.1163 1.34675,-0.332502 5.05814,-7.780393 4.52801,-9.086588 6.58707,-12.263021 10.6863,-16.485264 l 3.05812,-3.1498883 -1.14599,-0.1737593 c -0.63028,-0.095568 -1.74724,-0.2685226 -2.48209,-0.384344 -0.73487,-0.1158185 -2.64359,-0.3669391 -4.24158,-0.5580403 -1.59802,-0.1910983 -3.57955,-0.5494138 -4.40341,-0.7962483 -2.73539,-0.8195454 -21.43075,0.2857184 -25.90322,1.5313863 -0.83984,0.2339105 -2.19346,0.5931936 -3.00801,0.7983985 -2.67655,0.6742941 -4.81782,2.2100924 -4.81782,3.4555224 0,0.383522 0.8819,1.337144 2.00418,2.167134 2.30795,1.706904 6.48664,6.221511 7.93709,8.575183 0.54571,0.885497 1.22143,2.468926 1.50164,3.518734 0.28022,1.049805 1.08415,2.905718 1.7865,4.124246 0.70235,1.218526 1.277,2.305408 1.277,2.415289 0,0.109883 0.49237,0.69216 1.09417,1.293943 1.12248,1.122477 1.68482,1.239002 6.99143,1.448734 1.58522,0.06265 1.80052,-0.02585 1.90875,-0.784415 z m 71.99123,-6.357091 c 1.0008,-0.514304 5.05024,-1.186337 7.14847,-1.186337 1.02227,0 2.38623,-0.165828 3.031,-0.368508 0.64481,-0.202679 1.68772,-0.482125 2.31761,-0.620991 l 1.14524,-0.252484 -0.95436,-0.429286 c -0.52492,-0.236109 -2.071,-1.052336 -3.43573,-1.813838 -4.74979,-2.650278 -6.921,-3.768105 -7.31906,-3.768105 -0.22032,0 -1.88467,-0.579723 -3.69854,-1.288274 -3.45311,-1.348872 -5.09241,-1.848894 -8.2607,-2.519652 -1.04979,-0.222258 -3.36891,-0.756987 -5.1536,-1.188286 -1.78466,-0.431299 -4.53325,-1.033697 -6.10796,-1.338661 -1.57471,-0.304964 -3.29258,-0.740363 -3.81747,-0.967551 -0.52492,-0.227191 -3.27348,-0.733672 -6.10796,-1.125509 -2.83448,-0.391842 -5.58307,-0.828638 -6.10799,-0.97066 l -0.95436,-0.258224 0.81123,0.915491 c 1.38552,1.563608 2.80164,5.142192 2.81123,7.104184 0.005,1.048941 0.3144,1.144503 9.54785,2.95033 1.78466,0.349036 4.08056,0.883505 5.102,1.187704 1.02142,0.3042 2.134,0.55309 2.47242,0.55309 0.54213,0 5.02727,1.332149 11.5144,3.419926 1.15558,0.371904 2.70166,1.042318 3.43573,1.489814 1.51029,0.920671 1.66089,0.948443 2.58055,0.475827 z M 22.191656,16.731592 c 0.813407,-0.734864 1.653659,-1.336117 1.867221,-1.336117 0.213562,0 1.802944,-0.678385 3.531953,-1.507524 1.729013,-0.829134 3.872905,-1.624131 4.764205,-1.766654 1.035347,-0.16556 1.620544,-0.457494 1.620544,-0.80844 0,-0.794813 1.850345,-3.100611 2.706129,-3.3722286 C 37.826403,7.5773197 37.547768,7.1620512 35.788881,6.6099919 34.896547,6.3299167 34.027874,5.9834689 33.858503,5.8401072 33.68913,5.6967455 32.314837,5.976752 30.80452,6.4623528 29.294198,6.9479507 27.027762,7.5588354 25.767994,7.819871 24.508225,8.0809065 22.618572,8.6250808 21.568767,9.0291487 20.518958,9.4332138 19.090458,9.8485424 18.394321,9.9520954 16.89197,10.175578 14.498174,12.456793 14.523645,13.640732 c 0.05153,2.395507 2.144249,4.350751 4.708365,4.399072 1.177984,0.02222 1.783094,-0.245268 2.959646,-1.308212 z m 18.712562,-1.813303 c 0.499369,-0.262453 1.420887,-0.84338 2.047811,-1.29095 0.62693,-0.447573 1.998807,-1.095292 3.048615,-1.439378 2.969355,-0.97324 5.489912,-2.2675946 5.721234,-2.9379576 0.115795,-0.3355738 0.654335,-0.812339 1.196754,-1.0594827 L 53.904857,7.7411698 52.954195,6.9933825 C 52.431334,6.5821024 51.895067,5.8134116 51.762494,5.2851905 51.499345,4.2367337 50.990662,4.1155898 49.396442,4.7217103 c -0.574203,0.2183093 -2.743788,0.7264313 -4.821304,1.1291622 -4.37063,0.8472431 -7.409516,2.161975 -9.054851,3.917457 -1.535844,1.6386555 -1.484445,2.7524345 0.200338,4.3413865 1.495712,1.410639 3.456175,1.716445 5.183593,0.808573 z m 16.795443,-1.086931 c 0.914191,-0.260334 1.825362,-0.616161 2.024826,-0.790728 0.199464,-0.174564 0.714824,-0.320282 1.145244,-0.323812 0.43042,-0.0034 2.242769,-0.601895 4.027444,-1.329697 1.784671,-0.727803 3.478181,-1.326167 3.763355,-1.329698 0.959314,-0.01188 4.253355,-1.7151002 4.253355,-2.1992407 0,-0.2636811 -0.198517,-0.4794165 -0.441154,-0.4794165 -0.242632,0 -1.015671,-0.4382105 -1.717867,-0.9737983 -1.00626,-0.7675113 -1.276712,-1.248594 -1.276712,-2.271008 V 2.836747 l -1.330745,0.556019 c -0.731906,0.3058088 -2.235039,0.7476756 -3.340294,0.9819238 -1.105253,0.2342483 -2.610808,0.7249941 -3.345671,1.0905446 -0.734866,0.3655448 -2.280946,0.8829891 -3.435733,1.1498711 -2.04587,0.4728141 -5.252526,2.0414265 -5.815814,2.8449471 -0.631677,0.9010664 -0.210356,2.0114894 1.327527,3.4988274 0.893846,0.864465 1.822027,1.520918 2.062625,1.45878 0.240596,-0.06213 1.185423,-0.32597 2.099614,-0.586302 z m 55.670289,-2.808711 c 0.54147,-1.011778 2.45331,-2.0718731 4.59022,-2.5452483 0.73485,-0.1627908 2.28093,-0.5744145 3.43573,-0.9147152 1.9667,-0.5795624 6.31754,-1.0147581 16.7969,-1.6801221 2.41458,-0.1533081 3.87476,-0.3078588 3.24488,-0.3434473 C 139.82895,5.4482218 132.30667,4.3768228 129.80973,3.8829448 128.66342,3.6562122 126.51609,3.4124556 125.0379,3.3412643 121.71551,3.1812565 111.87623,2.4765906 106.50772,2.0141753 104.30312,1.8242852 95.627896,1.567699 87.229436,1.4439839 L 71.959513,1.2190494 70.877758,2.3489674 c -1.384326,1.445954 -1.235481,2.6293148 0.475394,3.7795295 2.372442,1.5949874 5.996304,2.4156981 13.967545,3.1632878 2.099614,0.1969162 5.535346,0.5302596 7.63496,0.7407643 2.099616,0.210498 5.707136,0.564525 8.016713,0.786714 2.30957,0.222192 5.22995,0.547169 6.48972,0.722179 4.36942,0.606997 5.3515,0.520757 5.90786,-0.518795 z M 20.844666,8.6815871 c 1.448061,-0.5432151 4.093026,-1.3027354 5.8777,-1.6878181 4.920041,-1.0616185 6.059247,-1.4800192 6.532931,-2.3993784 0.238669,-0.4632284 0.798994,-1.2527111 1.24517,-1.7544054 l 0.811231,-0.9121756 -1.717866,0.277444 c -0.944827,0.1525952 -3.178053,0.4221771 -4.962728,0.5990744 -3.859083,0.3825116 -8.924797,1.2711009 -11.83419,2.0758641 -1.154787,0.3194258 -2.542081,0.5828091 -3.082877,0.5853 -1.135945,0.00524 -2.981618,1.7323967 -2.428327,2.2724023 0.593703,0.5794478 4.475368,1.862777 5.741476,1.898208 0.651552,0.018238 2.369419,-0.4113001 3.81748,-0.9545153 z M 44.09711,5.4865359 c 2.232883,-0.4309039 4.379326,-0.9544695 4.769868,-1.1634823 0.390546,-0.2090099 1.145448,-0.3800207 1.677563,-0.3800207 0.647295,0 0.903125,-0.1677267 0.773014,-0.5067906 -0.10696,-0.2787353 -0.01065,-0.9902469 0.213992,-1.5811386 L 51.940012,0.78075574 46.488965,1.0457138 C 38.536606,1.432248 36.306323,1.8401153 34.984633,3.149602 c -1.525591,1.5115048 -1.14456,2.3797546 1.375951,3.1353639 1.245617,0.3734183 2.321685,0.4844212 2.840916,0.2930623 0.459698,-0.1694189 2.662725,-0.6605912 4.89561,-1.0914923 z m 12.898867,0.8902814 c 1.511181,-0.341111 3.557873,-1.0282575 4.548212,-1.5269914 0.990335,-0.4987396 2.311541,-0.906793 2.936017,-0.906793 0.62447,0 1.241573,-0.1717866 1.371338,-0.38175 0.129765,-0.2099605 0.526423,-0.3833161 0.881463,-0.3852372 0.355043,-0.002 1.48387,-0.4094707 2.508509,-0.9056678 L 71.104502,1.3682003 65.805783,1.0742561 C 57.734296,0.62649133 53.705976,0.59498852 52.94927,0.97371222 51.337268,1.7805111 51.451045,4.8425479 53.148257,6.3289576 c 0.917816,0.8038155 0.520588,0.7988766 3.84772,0.04786 z M 24.778921,104.1519 c -0.153137,-0.84224 -0.05241,-2.41332 0.178698,-2.78725 0.333223,-0.53917 2.384934,-0.61657 2.702971,-0.10197 0.120886,0.19559 -0.138706,0.60672 -0.576871,0.91363 -0.581775,0.40749 -0.660726,0.614 -0.292696,0.76563 0.37812,0.15578 0.318922,0.35661 -0.23706,0.80423 -0.71381,0.5747 -1.703204,0.80085 -1.775042,0.40573 z m 1.458308,-0.80326 c -0.126856,-0.12685 -0.456111,-0.14041 -0.731685,-0.0301 -0.304535,0.12186 -0.214075,0.21232 0.230638,0.23064 0.402424,0.0166 0.627897,-0.0737 0.501047,-0.2005 z m 3.53912,0.69749 c 0,-0.3093 3.065481,-3.25484 3.22321,-3.09711 0.396042,0.39604 -0.289226,1.9024 -0.779791,1.71415 -0.280625,-0.10768 -0.612509,-0.0303 -0.737523,0.17199 -0.472795,0.765 0.963834,0.7762 1.782077,0.0139 0.889357,-0.82856 1.474754,-1.0209 1.474754,-0.48455 0,0.58441 2.758075,0.0977 3.320132,-0.58588 0.602768,-0.73311 0.596924,-0.67205 -0.12663,1.32348 -0.206035,0.56823 -0.157522,0.55934 0.32466,-0.0595 0.374208,-0.48023 0.845677,-0.6546 1.387097,-0.51302 0.451109,0.11797 0.902166,0.0819 1.002346,-0.0802 0.100178,-0.1621 0.624803,-0.2101 1.165836,-0.10667 0.707329,0.13521 0.9512,0.3932 0.868044,0.91829 -0.06361,0.40164 -0.287437,0.6805 -0.497397,0.6197 -0.209964,-0.0608 -0.348346,-0.21077 -0.307521,-0.33325 0.04083,-0.12248 -0.164363,-0.22269 -0.455976,-0.22269 -0.291614,0 -0.496804,0.18611 -0.455976,0.41357 0.101285,0.56431 -5.406484,0.36151 -6.113314,-0.22511 -0.417534,-0.34651 -0.510253,-0.32972 -0.419151,0.0759 0.08869,0.39492 -0.459939,0.52699 -2.26895,0.54621 -1.312261,0.0139 -2.385927,-0.0262 -2.385927,-0.0892 z m 14.317426,-0.0821 c -0.120236,-0.19454 -0.05355,-0.66133 0.1482,-1.0373 0.201752,-0.37597 0.459859,-0.98421 0.573579,-1.35165 0.218836,-0.70708 1.757712,-0.94599 1.757712,-0.27288 0,0.26596 0.230538,0.2718 0.705012,0.0179 0.472394,-0.25282 0.836745,-0.24558 1.104259,0.0219 0.277834,0.27784 0.637704,0.27163 1.183347,-0.0204 0.632991,-0.33877 0.859357,-0.29041 1.17462,0.25094 0.215818,0.37059 0.395716,0.45711 0.402129,0.1934 0.0064,-0.26245 0.475434,-0.47718 1.04233,-0.47718 0.801671,0 0.928919,0.1018 0.572622,0.45809 -0.251954,0.25196 -0.458098,0.76127 -0.458098,1.13182 0,0.37054 -0.300626,0.82423 -0.668061,1.00819 -0.743023,0.37201 -2.624144,0.34491 -3.012462,-0.0434 -0.137669,-0.13767 -0.611322,-0.17887 -1.052565,-0.0915 -2.414544,0.47786 -3.27586,0.53047 -3.472624,0.2121 z m 4.006482,-2.03146 c 0,-0.19555 -0.25768,-0.14168 -0.572622,0.1197 -0.314942,0.26138 -0.567159,0.75483 -0.560482,1.09655 0.01019,0.52197 0.101758,0.50283 0.572622,-0.11971 0.308265,-0.40756 0.560482,-0.90101 0.560482,-1.09654 z m 1.935586,0.45129 c 0.375197,-0.70107 0.340702,-0.7326 -0.3797,-0.34705 -0.435814,0.23324 -0.792388,0.68584 -0.792388,1.00579 0,0.72049 0.620613,0.37169 1.172088,-0.65874 z m 1.806297,0.63475 c 0.111567,-0.11156 -0.159218,-0.20284 -0.601746,-0.20284 -0.442522,0 -0.905207,0.1628 -1.028189,0.36179 -0.225269,0.36449 1.250401,0.22059 1.629935,-0.15895 z M 17.560412,102.7442 c -3.646873,-1.53486 -6.170826,-2.00161 -7.8417401,-1.45016 -0.754255,0.24893 -1.4743846,0.34958 -1.6002928,0.22367 -0.5434384,-0.54344 0.5358369,-0.79461 3.3146029,-0.7714 2.256782,0.0189 3.472375,0.24313 5.028989,0.92782 1.129044,0.49662 2.82585,1.0196 3.770676,1.16217 l 1.717867,0.25922 -1.717867,0.0252 c -0.944826,0.0139 -2.147333,-0.15559 -2.672235,-0.3765 z m 35.88432,-4.718329 c -0.944827,-0.490185 -2.010414,-0.901382 -2.367965,-0.913773 -0.357553,-0.0124 -1.130593,-0.21571 -1.717866,-0.451813 -0.587276,-0.236104 -1.411342,-0.565508 -1.831266,-0.732006 -0.419924,-0.166499 -1.708321,-0.73202 -2.86311,-1.256714 -1.154787,-0.524694 -2.786761,-1.166002 -3.626605,-1.425119 -0.839848,-0.25912 -2.643608,-0.861175 -4.008355,-1.337903 -1.364751,-0.476722 -2.839634,-0.968814 -3.277526,-1.093537 -0.437887,-0.12472 -2.036442,-1.383712 -3.552351,-2.79776 -2.227105,-2.077467 -2.79835,-2.845803 -2.975831,-4.002554 -0.1208,-0.787356 -0.06832,-1.43116 0.11662,-1.430685 0.18494,2.86e-4 0.355639,0.537394 0.379331,1.193144 0.03409,0.943352 0.580796,1.714373 2.618655,3.693035 2.500887,2.428241 2.721061,2.549033 7.591888,4.165107 2.758971,0.915386 5.703454,1.982916 6.543301,2.372288 2.849683,1.321185 6.347113,2.700234 6.8481,2.700234 0.705837,0 3.954117,1.474336 4.229313,1.91961 0.336748,0.544873 -0.182331,0.396624 -2.106333,-0.601554 z M 272.18638,95.674719 c -2.09771,-0.766833 -3.36247,-3.656799 -2.69124,-6.149544 0.96135,-3.570182 5.40332,-4.56296 7.648,-1.70932 0.98583,1.253272 1.07155,4.855074 0.14696,6.175109 -1.0075,1.438398 -3.51338,2.265107 -5.10372,1.683755 z m 3.08512,-1.969325 c 0.71649,-0.580181 0.8792,-1.084257 0.8792,-2.7238 0,-1.639544 -0.16271,-2.143617 -0.8792,-2.723798 -1.11896,-0.90606 -2.00349,-0.901035 -3.13826,0.01784 -0.73711,0.596867 -0.90122,1.089683 -0.90122,2.705969 0,1.616289 0.16411,2.109105 0.90122,2.705966 1.13477,0.91887 2.0193,0.923895 3.13826,0.01784 z m 5.40879,1.811834 c -0.88688,-0.256077 -1.24071,-0.584496 -1.24071,-1.151658 0,-0.599744 0.16309,-0.730242 0.66808,-0.5346 0.36743,0.142354 1.44682,0.35204 2.39863,0.465966 1.3067,0.156406 1.85478,0.05746 2.23775,-0.403994 0.78003,-0.939868 0.24193,-1.683234 -1.56274,-2.158917 -2.56209,-0.675325 -3.35995,-1.340632 -3.35995,-2.80168 0,-2.129132 1.79769,-3.148646 4.76685,-2.703395 1.34572,0.201804 1.72285,0.416732 1.72285,0.981844 0,0.648786 -0.20826,0.699008 -2.01726,0.486394 -1.58047,-0.18575 -2.1256,-0.106585 -2.51748,0.365576 -0.80095,0.965097 -0.31935,1.524008 1.85536,2.153263 2.58876,0.749058 3.80037,2.158665 3.12659,3.637484 -0.47862,1.050427 -2.52835,2.113199 -3.96612,2.056378 -0.47914,-0.01893 -1.42949,-0.195633 -2.11185,-0.392661 z m 17.46496,0.157491 c -2.09774,-0.766833 -3.36246,-3.656799 -2.69123,-6.149544 0.96134,-3.570182 5.40332,-4.56296 7.648,-1.70932 0.98582,1.253272 1.07151,4.855074 0.14693,6.175109 -1.0075,1.438398 -3.51338,2.265107 -5.1037,1.683755 z m 3.08509,-1.969325 c 0.7165,-0.580181 0.87921,-1.084257 0.87921,-2.7238 0,-1.639544 -0.16271,-2.143617 -0.87921,-2.723798 -1.11893,-0.90606 -2.00349,-0.901035 -3.13825,0.01784 -0.73708,0.596867 -0.90122,1.089683 -0.90122,2.705969 0,1.616289 0.16414,2.109105 0.90122,2.705966 1.13476,0.91887 2.01932,0.923895 3.13825,0.01784 z m 6.96461,1.699614 c -1.71398,-0.770589 -2.56157,-2.249649 -2.56157,-4.469951 0,-2.276322 0.96464,-3.73281 2.98035,-4.499997 1.88175,-0.716205 4.17728,-0.204882 4.34457,0.967751 0.10992,0.770566 0.0369,0.79027 -1.45397,0.392341 -1.26489,-0.337627 -1.76686,-0.30832 -2.58507,0.15094 -1.25482,0.704303 -1.85467,2.574661 -1.36894,4.268297 0.50711,1.768243 1.95227,2.487952 3.93371,1.959069 1.39116,-0.371317 1.5494,-0.343298 1.5494,0.274375 0,0.864282 -0.28425,1.036535 -2.13602,1.294432 -0.9034,0.125817 -1.96799,-0.007 -2.70246,-0.337257 z m 9.17669,0.09282 c -1.26664,-0.613315 -1.66598,-1.974693 -1.66598,-5.679441 0,-3.163271 0.0569,-3.41777 0.7635,-3.41777 0.70361,0 0.76348,0.254499 0.76348,3.244858 0,2.735863 0.11976,3.364625 0.76351,4.008355 0.41993,0.419921 1.10708,0.763495 1.52698,0.763495 0.41993,0 1.10708,-0.343574 1.52701,-0.763495 0.64371,-0.64373 0.76348,-1.272492 0.76348,-4.008355 0,-3.206684 0.0112,-3.244858 0.95439,-3.244858 h 0.95436 v 4.580975 4.580977 h -0.95436 c -0.52493,0 -0.95439,-0.176199 -0.95439,-0.391551 0,-0.224442 -0.48069,-0.142975 -1.12626,0.190875 -1.28594,0.664969 -2.14997,0.700392 -3.31572,0.135935 z m 15.13094,0.175663 c -1.27643,-0.469332 -1.90875,-1.401733 -1.90875,-2.814618 0,-2.04512 1.32144,-3.022526 4.08641,-3.022526 1.92793,0 2.06605,-0.0602 1.95267,-0.851251 -0.1709,-1.192738 -1.81616,-1.705189 -3.78627,-1.17933 -1.28161,0.342085 -1.58533,0.315799 -1.76513,-0.152767 -0.50047,-1.30417 3.27829,-2.056704 5.36212,-1.06786 1.70635,0.809722 2.16691,2.0808 2.16691,5.980411 0,2.942322 -0.0175,2.997019 -0.95436,2.997019 -0.52492,0 -0.95439,-0.16302 -0.95439,-0.362267 0,-0.199249 -0.59572,-0.113356 -1.32384,0.190875 -1.38529,0.578813 -1.9249,0.631792 -2.87537,0.282314 z m 3.43574,-2.019661 c 0.4199,-0.419924 0.76347,-1.192963 0.76347,-1.717866 0,-0.849565 -0.15836,-0.954372 -1.44203,-0.954372 -1.68706,0 -3.13894,0.8841 -3.13894,1.911418 0,1.517108 2.55249,2.025814 3.8175,0.76082 z m -75.96789,-4.390105 v -6.298841 h 3.08337 c 2.8989,0 3.15008,0.06675 4.19921,1.115881 0.87517,0.875152 1.1159,1.457956 1.1159,2.7016 0,1.243643 -0.24073,1.826447 -1.1159,2.701599 -0.93395,0.933973 -1.42514,1.115881 -3.01314,1.115881 -2.18,0 -2.36069,0.236123 -2.36069,3.085207 0,1.748184 -0.0657,1.877517 -0.95436,1.877517 h -0.95439 z m 6.09565,-1.431552 c 0.52544,-0.943006 0.52544,-1.156611 0,-2.099617 -0.48982,-0.879043 -0.87792,-1.068733 -2.38594,-1.166159 l -1.80096,-0.116354 v 2.332322 2.332318 l 1.80096,-0.116351 c 1.50802,-0.09743 1.89612,-0.287116 2.38594,-1.166159 z m 23.6807,6.966902 c -0.64372,-0.643731 -0.76348,-1.272493 -0.76348,-4.008355 0,-2.629822 -0.10854,-3.244858 -0.57262,-3.244858 -0.31494,0 -0.57262,-0.25768 -0.57262,-0.572622 0,-0.314943 0.25768,-0.572623 0.57262,-0.572623 0.41518,0 0.57262,-0.427116 0.57262,-1.553544 0,-1.392728 0.0889,-1.540914 0.85893,-1.431555 0.68993,0.09799 0.88224,0.403633 0.97741,1.553544 0.11521,1.391944 0.16011,1.431555 1.62244,1.431555 1.08234,0 1.50394,0.160524 1.50394,0.572623 0,0.413559 -0.42417,0.572622 -1.52699,0.572622 h -1.52701 v 3.22181 3.221818 l 1.42838,0.118478 c 0.99825,0.0828 1.46651,0.319658 1.55501,0.786543 0.19312,1.019052 -3.09001,0.943163 -4.12863,-0.09544 z m 36.64781,-5.726222 v -6.489719 h 0.95439 0.95436 v 6.489719 6.489716 h -0.95436 -0.95439 z m 15.26995,1.908739 v -4.580975 h 0.95436 c 0.52489,0 0.95436,0.15862 0.95436,0.352489 0,0.193867 0.51539,0.09539 1.1453,-0.218859 1.47674,-0.736698 2.44988,-0.537053 2.60274,0.533982 0.10788,0.755813 -0.005,0.825446 -1.01005,0.624396 -0.84545,-0.169096 -1.33449,-0.02325 -1.93472,0.576965 -0.69052,0.690517 -0.80327,1.258715 -0.80327,4.048121 0,3.206684 -0.0112,3.244858 -0.95436,3.244858 h -0.95436 z M 275.65787,59.194345 c -1.90342,-0.68865 -2.85483,-2.181244 -2.85483,-4.478819 0,-3.434559 2.72081,-5.570519 5.88727,-4.621816 1.70615,0.511168 2.48031,1.477007 2.86314,3.572011 l 0.2616,1.431555 h -3.69482 c -3.65115,0 -3.69186,0.01016 -3.44503,0.858934 0.46067,1.584182 1.71222,2.301419 3.61791,2.073304 0.94551,-0.113182 2.01972,-0.322257 2.38718,-0.464611 0.49981,-0.19365 0.66804,-0.06657 0.66804,0.504672 0,0.419921 -0.23572,0.853951 -0.5238,0.964504 -1.32339,0.507822 -3.97838,0.590179 -5.16666,0.160266 z m 4.16348,-5.814935 c 0,-0.898862 -1.42901,-2.099617 -2.49872,-2.099617 -0.96252,0 -2.84576,1.504307 -2.84576,2.273139 0,0.239625 1.0678,0.3991 2.67223,0.3991 2.12085,0 2.67225,-0.118161 2.67225,-0.572622 z m 6.4897,6.029242 c -2.09771,-0.766833 -3.36247,-3.6568 -2.69124,-6.149544 0.96138,-3.570185 5.40332,-4.562963 7.648,-1.709323 0.98582,1.253275 1.07154,4.855077 0.14696,6.175111 -1.0075,1.438398 -3.51338,2.265107 -5.10372,1.683756 z m 3.08511,-1.969325 c 0.71649,-0.580181 0.87921,-1.084258 0.87921,-2.723801 0,-1.639543 -0.16272,-2.143616 -0.87921,-2.723797 -1.11893,-0.90606 -2.00349,-0.901038 -3.13825,0.01784 -0.73708,0.596867 -0.90122,1.089686 -0.90122,2.705972 0,1.616289 0.16414,2.109105 0.90122,2.705966 1.13476,0.918869 2.01932,0.923894 3.13825,0.01784 z m 6.9646,1.699614 c -1.71397,-0.770589 -2.56156,-2.249649 -2.56156,-4.469952 0,-2.276322 0.96464,-3.732809 2.98035,-4.499997 1.88175,-0.716207 4.17725,-0.204881 4.34457,0.967749 0.10992,0.770566 0.0369,0.790273 -1.45397,0.392343 -1.26492,-0.337626 -1.76686,-0.308319 -2.58508,0.150938 -1.25481,0.704302 -1.85466,2.574664 -1.36894,4.2683 0.50712,1.768243 1.95225,2.487951 3.93372,1.959069 1.39116,-0.371317 1.54937,-0.343299 1.54937,0.274375 0,0.864281 -0.28422,1.036534 -2.13602,1.294432 -0.9034,0.125817 -1.96796,-0.007 -2.70244,-0.337257 z m 9.17667,0.09282 c -1.26664,-0.613316 -1.66595,-1.974693 -1.66595,-5.679441 0,-3.163271 0.0568,-3.417773 0.76347,-3.417773 0.70364,0 0.76351,0.254502 0.76351,3.244861 0,2.735863 0.11976,3.364625 0.7635,4.008355 0.41991,0.419921 1.10706,0.763494 1.52699,0.763494 0.41993,0 1.10708,-0.343573 1.52698,-0.763494 0.64374,-0.64373 0.76351,-1.272492 0.76351,-4.008355 0,-3.206684 0.0112,-3.244861 0.95436,-3.244861 h 0.95439 v 4.580977 4.580977 h -0.95439 c -0.5249,0 -0.95436,-0.176198 -0.95436,-0.39155 0,-0.224442 -0.48069,-0.142975 -1.12629,0.190875 -1.28591,0.664969 -2.14997,0.700391 -3.31572,0.135935 z m 15.13094,0.175663 c -1.27643,-0.469332 -1.90872,-1.401733 -1.90872,-2.814618 0,-2.04512 1.32141,-3.022526 4.08638,-3.022526 1.92796,0 2.06605,-0.0602 1.9527,-0.851251 -0.17093,-1.192738 -1.81616,-1.705189 -3.7863,-1.17933 -1.28161,0.342084 -1.5853,0.315795 -1.76513,-0.15277 -0.50045,-1.30417 3.27832,-2.056701 5.36215,-1.06786 1.70635,0.809722 2.16691,2.080803 2.16691,5.980414 0,2.942322 -0.0175,2.997018 -0.95439,2.997018 -0.52489,0 -0.95436,-0.163019 -0.95436,-0.362266 0,-0.19925 -0.59573,-0.113356 -1.32384,0.190875 -1.38532,0.578812 -1.92493,0.631791 -2.8754,0.282314 z m 3.43574,-2.019661 c 0.41993,-0.419924 0.7635,-1.192964 0.7635,-1.717867 0,-0.849565 -0.15836,-0.954372 -1.44203,-0.954372 -1.68709,0 -3.13895,0.8841 -3.13895,1.911419 0,1.517108 2.5525,2.025814 3.81748,0.76082 z M 256.5347,52.99766 v -6.298844 h 3.08337 c 2.8989,0 3.15008,0.06675 4.19921,1.11588 0.87517,0.875156 1.1159,1.457959 1.1159,2.701603 0,1.243644 -0.24073,1.826447 -1.1159,2.7016 -0.96656,0.966555 -1.40075,1.11588 -3.24485,1.11588 h -2.12898 v 2.481364 c 0,2.392289 -0.0342,2.48136 -0.95436,2.48136 h -0.95439 z m 6.09565,-1.431556 c 0.52544,-0.943005 0.52544,-1.156607 0,-2.099613 -0.48982,-0.879044 -0.87792,-1.068733 -2.38595,-1.166159 l -1.80095,-0.116354 v 2.332321 2.332319 l 1.80095,-0.116351 c 1.50803,-0.09743 1.89613,-0.287119 2.38595,-1.166163 z m 3.82981,3.149422 v -4.580977 h 0.95436 c 0.52492,0 0.95439,0.158622 0.95439,0.352492 0,0.193867 0.51536,0.09539 1.14527,-0.218859 1.47677,-0.736698 2.44988,-0.537057 2.60274,0.533982 0.10788,0.755809 -0.005,0.825446 -1.01005,0.624392 -0.84544,-0.169095 -1.33449,-0.02325 -1.93472,0.576969 -0.69049,0.690516 -0.80324,1.258715 -0.80324,4.048121 0,3.206684 -0.0112,3.244857 -0.95439,3.244857 h -0.95436 z m 48.10025,-1.908738 v -6.489719 h 0.95436 0.95439 v 6.489719 6.489715 h -0.95439 -0.95436 z m 15.26992,1.908738 v -4.580977 h 0.95439 c 0.52489,0 0.95436,0.158622 0.95436,0.352492 0,0.193867 0.51539,0.09539 1.1453,-0.218859 1.47673,-0.736698 2.44985,-0.537057 2.60274,0.533982 0.10785,0.755809 -0.005,0.825446 -1.01005,0.624392 -0.84548,-0.169095 -1.3345,-0.02325 -1.93472,0.576969 -0.69052,0.690516 -0.80327,1.258715 -0.80327,4.048121 0,3.206684 -0.0112,3.244857 -0.95436,3.244857 h -0.95439 z M 272.94989,15.968097 V 9.6692544 h 0.95436 c 0.52489,0 0.95436,0.1586192 0.95436,0.3524886 0,0.193867 0.51685,0.09465 1.14856,-0.220482 1.53452,-0.7655214 3.16763,-0.366023 4.37647,1.070591 0.79102,0.94008 0.96469,1.548262 0.96469,3.378379 0,1.830115 -0.17367,2.438297 -0.96469,3.378379 -1.20884,1.436612 -2.84195,1.836113 -4.37647,1.070589 l -1.14856,-0.572969 v 2.070353 c 0,1.953881 -0.0537,2.070355 -0.95436,2.070355 h -0.95436 z m 5.95335,0.914289 c 0.50207,-0.554791 0.72723,-1.369692 0.72723,-2.632155 0,-2.095313 -0.91668,-3.435732 -2.34964,-3.435732 -1.52083,0 -2.42222,1.278565 -2.42222,3.435732 0,1.399743 0.20359,2.112337 0.7635,2.672236 0.98927,0.989253 2.36482,0.972449 3.28113,-0.04008 z m -26.09059,1.885473 c -1.38918,-0.311106 -1.62241,-0.503163 -1.62241,-1.336079 0,-0.779554 0.13268,-0.91664 0.66805,-0.690228 3.49827,1.479393 6.01254,0.920983 6.01254,-1.335354 0,-1.159603 -0.15799,-1.370285 -1.33613,-1.781734 -0.73485,-0.25664 -1.82332,-0.571396 -2.41879,-0.699449 -2.77547,-0.596856 -3.8538,-3.7505233 -1.93758,-5.6667346 1.79526,-1.7952506 6.70458,-1.7326229 6.96624,0.088865 0.11747,0.8175928 0.0354,0.866887 -0.95436,0.5734582 -1.6097,-0.4771975 -3.78798,-0.3847162 -4.48074,0.1902394 -0.33579,0.2786608 -0.6105,0.9187694 -0.6105,1.4224621 0,0.9840369 0.60162,1.3557289 3.29045,2.0329489 2.52916,0.637002 3.58101,1.68888 3.58101,3.58111 0,2.043763 -0.79388,3.168593 -2.58805,3.666877 -1.64849,0.457835 -2.34996,0.450717 -4.56973,-0.04638 z m 11.11426,-0.0014 c -1.26664,-0.613184 -1.66599,-1.974561 -1.66599,-5.679308 0,-3.1632711 0.0569,-3.4177701 0.76351,-3.4177701 0.70361,0 0.7635,0.254499 0.7635,3.2448581 0,2.735862 0.11977,3.364624 0.76348,4.008354 0.41993,0.419924 1.10708,0.763497 1.52701,0.763497 0.4199,0 1.10705,-0.343573 1.52698,-0.763497 0.64374,-0.64373 0.76351,-1.272492 0.76351,-4.008354 0,-3.2066843 0.0112,-3.2448581 0.95436,-3.2448581 h 0.95436 v 4.5809771 4.580977 h -0.95436 c -0.52489,0 -0.95436,-0.176202 -0.95436,-0.391554 0,-0.224439 -0.48069,-0.142975 -1.12629,0.190875 -1.28591,0.664972 -2.14997,0.700394 -3.31571,0.135938 z m 28.49212,0.175795 c -1.27643,-0.469332 -1.90875,-1.401733 -1.90875,-2.814618 0,-2.045119 1.32144,-3.022522 4.08641,-3.022522 1.92793,0 2.06605,-0.06021 1.95267,-0.851255 -0.1709,-1.192737 -1.81616,-1.705188 -3.78627,-1.179329 -1.28161,0.342084 -1.58533,0.315798 -1.76513,-0.152767 -0.50047,-1.3041701 3.27829,-2.0567044 5.36212,-1.0678604 1.70635,0.8097224 2.16691,2.0808004 2.16691,5.9804104 0,2.942325 -0.0175,2.997022 -0.95436,2.997022 -0.52492,0 -0.95439,-0.163023 -0.95439,-0.36227 0,-0.199249 -0.59572,-0.113356 -1.32384,0.190875 -1.38529,0.578815 -1.9249,0.631794 -2.87537,0.282314 z m 3.43574,-2.019661 c 0.4199,-0.419924 0.76347,-1.192964 0.76347,-1.717866 0,-0.849565 -0.15836,-0.954369 -1.44203,-0.954369 -1.68706,0 -3.13894,0.884096 -3.13894,1.911415 0,1.517108 2.55249,2.025814 3.8175,0.76082 z m 7.63494,2.020887 c -2.09772,-0.766833 -3.36247,-3.6568 -2.69124,-6.149541 0.96138,-3.5701841 5.40332,-4.562962 7.648,-1.709323 0.98583,1.253276 1.07155,4.855074 0.14696,6.175111 -1.0075,1.438396 -3.51338,2.265105 -5.10372,1.683753 z m 3.08512,-1.969325 c 0.71649,-0.580181 0.8792,-1.084254 0.8792,-2.723797 0,-1.639543 -0.16271,-2.14362 -0.8792,-2.7238 -1.11894,-0.90606 -2.00349,-0.901036 -3.13826,0.01784 -0.73708,0.596867 -0.90122,1.089683 -0.90122,2.705972 0,1.616285 0.16414,2.109104 0.90122,2.705962 1.13477,0.918873 2.01932,0.923894 3.13826,0.01784 z m 7.34634,1.699617 c -1.71398,-0.770589 -2.56157,-2.249649 -2.56157,-4.469954 0,-2.276322 0.96464,-3.732809 2.98035,-4.4999968 1.88175,-0.7162042 4.17728,-0.2048813 4.34457,0.9677518 0.10992,0.770566 0.0369,0.79027 -1.45397,0.39234 -1.26489,-0.337626 -1.76685,-0.30832 -2.58507,0.150941 -1.25482,0.704302 -1.85467,2.574661 -1.36894,4.268296 0.50711,1.768243 1.95227,2.487951 3.93371,1.959072 1.39116,-0.37132 1.5494,-0.343298 1.5494,0.274372 0,0.864281 -0.28425,1.036535 -2.13602,1.294432 -0.9034,0.125817 -1.96799,-0.007 -2.70246,-0.337254 z m 8.79493,0.09282 c -1.26664,-0.613319 -1.66596,-1.974696 -1.66596,-5.679443 0,-3.1632711 0.0568,-3.4177701 0.76348,-3.4177701 0.70364,0 0.7635,0.254499 0.7635,3.2448581 0,2.735862 0.11977,3.364624 0.76351,4.008354 0.4199,0.419924 1.10705,0.763497 1.52698,0.763497 0.41993,0 1.10708,-0.343573 1.52698,-0.763497 0.64375,-0.64373 0.76351,-1.272492 0.76351,-4.008354 0,-3.2066843 0.0112,-3.2448581 0.95436,-3.2448581 h 0.95439 v 4.5809771 4.580977 h -0.95439 c -0.52489,0 -0.95436,-0.176202 -0.95436,-0.391554 0,-0.224439 -0.48069,-0.142975 -1.12629,0.190875 -1.28591,0.664972 -2.14997,0.700394 -3.31571,0.135938 z m 15.51271,0.17566 c -1.27644,-0.469332 -1.90875,-1.401733 -1.90875,-2.814618 0,-2.045119 1.32144,-3.022522 4.0864,-3.022522 1.92793,0 2.06605,-0.06021 1.95267,-0.851255 -0.17093,-1.192737 -1.81616,-1.705188 -3.78626,-1.179329 -1.28162,0.342084 -1.58534,0.315798 -1.76514,-0.152767 -0.50047,-1.3041701 3.27829,-2.0567044 5.36212,-1.0678604 1.70636,0.8097224 2.16692,2.0808004 2.16692,5.9804104 0,2.942325 -0.0175,2.997022 -0.95437,2.997022 -0.52492,0 -0.95438,-0.163023 -0.95438,-0.36227 0,-0.199249 -0.59573,-0.113356 -1.32385,0.190875 -1.38529,0.578815 -1.9249,0.631794 -2.87536,0.282314 z m 3.43573,-2.019661 c 0.4199,-0.419924 0.76348,-1.192964 0.76348,-1.717866 0,-0.849565 -0.15836,-0.954369 -1.44204,-0.954369 -1.68706,0 -3.13894,0.884096 -3.13894,1.911415 0,1.517108 2.55249,2.025814 3.8175,0.76082 z M 284.02056,14.250326 V 9.6693489 h 0.95439 c 0.5249,0 0.95436,0.1586192 0.95436,0.3524891 0,0.193867 0.51538,0.09538 1.1453,-0.2188592 1.47673,-0.7366984 2.44985,-0.5370537 2.60274,0.5339812 0.10785,0.755813 -0.005,0.825447 -1.01005,0.624396 -0.84548,-0.169095 -1.3345,-0.02325 -1.93472,0.576966 -0.69052,0.690516 -0.80327,1.258715 -0.80327,4.04812 0,3.206684 -0.0112,3.244861 -0.95436,3.244861 h -0.95439 z m 48.10026,-1.908741 V 5.851866 h 0.95439 0.95436 v 6.489719 6.489718 h -0.95436 -0.95439 z m 14.88817,1.908741 V 9.6693489 h 0.95439 c 0.5249,0 0.95436,0.1586192 0.95436,0.3524891 0,0.193867 0.51539,0.09538 1.1453,-0.2188592 1.47674,-0.7366984 2.44985,-0.5370537 2.60271,0.5339812 0.10789,0.755813 -0.005,0.825447 -1.01001,0.624396 -0.84548,-0.169095 -1.33453,-0.02325 -1.93472,0.576966 -0.69053,0.690516 -0.80328,1.258715 -0.80328,4.04812 0,3.206684 -0.0112,3.244861 -0.95436,3.244861 h -0.95439 z"
     id="path4045"
     inkscape:connector-curvature="0" />
</svg>
