<?xml version="1.0" encoding="UTF-8" standalone="no"?>
<!-- Created with Inkscape (http://www.inkscape.org/) -->

<svg
   xmlns:dc="http://purl.org/dc/elements/1.1/"
   xmlns:cc="http://creativecommons.org/ns#"
   xmlns:rdf="http://www.w3.org/1999/02/22-rdf-syntax-ns#"
   xmlns:svg="http://www.w3.org/2000/svg"
   xmlns="http://www.w3.org/2000/svg"
   xmlns:sodipodi="http://sodipodi.sourceforge.net/DTD/sodipodi-0.dtd"
   xmlns:inkscape="http://www.inkscape.org/namespaces/inkscape"
   version="1.1"
   id="svg263"
   width="100%"
   viewBox="0 0 1231.8726 396.30639"
   sodipodi:docname="slide2.svg"
   inkscape:version="0.92.5 (2060ec1f9f, 2020-04-08)">
  <metadata
     id="metadata269">
    <rdf:RDF>
      <cc:Work
         rdf:about="">
        <dc:format>image/svg+xml</dc:format>
        <dc:type
           rdf:resource="http://purl.org/dc/dcmitype/StillImage" />
        <dc:title></dc:title>
      </cc:Work>
    </rdf:RDF>
  </metadata>
  <defs
     id="defs267" />
  <sodipodi:namedview
     pagecolor="#ffffff"
     bordercolor="#666666"
     borderopacity="1"
     objecttolerance="10"
     gridtolerance="10"
     guidetolerance="10"
     inkscape:pageopacity="0"
     inkscape:pageshadow="2"
     inkscape:window-width="1920"
     inkscape:window-height="1043"
     id="namedview265"
     showgrid="false"
     fit-margin-top="0"
     fit-margin-left="0"
     fit-margin-right="0"
     fit-margin-bottom="0"
     inkscape:zoom="1.0253165"
     inkscape:cx="618.62882"
     inkscape:cy="136.15725"
     inkscape:window-x="0"
     inkscape:window-y="0"
     inkscape:window-maximized="1"
     inkscape:current-layer="svg263" />
  <path
     style="fill:#000000;stroke-width:1.33333325"
     d="m 458.66663,394.39842 c -23.1551,-3.22706 -39.6867,-9.81845 -50.8766,-20.28537 -5.796,-5.42147 -7.2987,-6.14491 -13.4897,-6.4943 -3.8318,-0.21625 -16.86701,-1.04533 -28.96701,-1.8424 -34.62513,-2.28088 -86.28192,-3.97398 -132.32949,-4.33725 -23.28123,-0.18367 -42.33123,-0.78393 -42.33333,-1.33393 -0.003,-0.55 2.69616,-1 5.99616,-1 6.53132,0 7.9512,-2.14 3.33333,-5.02391 -2.99264,-1.86893 -3.58795,-8.09665 -1.20039,-12.55783 1.71971,-3.21332 7.27511,-9.73933 11.53372,-13.54885 4.0083,-3.5856 3.79358,-4.48624 -1.33333,-5.59285 -5.96611,-1.28775 -13.14187,-5.0762 -16.33333,-8.62322 -1.46667,-1.63005 -5.27654,-4.76391 -8.46638,-6.96413 -5.80344,-4.00297 -9.51889,-10.21982 -9.55013,-15.97972 -0.0185,-3.41474 -6.27029,-8.08624 -14.89316,-11.12856 -2.89658,-1.02197 -6.87688,-2.98932 -8.84509,-4.37186 -1.96821,-1.38256 -5.97857,-3.34519 -8.91191,-4.3614 -5.02314,-1.7402 -19.60014,-14.64811 -20.88072,-18.48983 -0.7475,-2.24251 -19.0094,9.39725 -21.31078,13.58308 -0.92506,1.68249 -2.44482,7.25908 -3.37726,12.39241 l -1.69534,9.33334 0.66918,-9 0.66919,-9 -4.37047,-0.008 c -7.26992,-0.012 -14.29103,-2.59964 -19.46483,-7.17279 -2.6981,-2.38485 -7.09895,-5.65883 -9.77966,-7.27549 -2.68072,-1.61667 -7.18982,-5.1755 -10.02024,-7.90851 -2.83041,-2.73301 -6.46154,-5.83315 -8.06917,-6.88919 -1.60764,-1.05604 -3.59322,-3.53818 -4.4124,-5.51586 -1.86476,-4.50195 -4.73137,-3.94487 -10.83044,2.10469 -9.92261,9.84208 -13.51259,15.28841 -17.17194,26.05149 -2.6633,7.83342 -2.7847,9.39763 -1.3411,17.27976 2.27428,12.41774 3.71717,15.58147 11.70731,25.66983 9.4665,11.95242 14.16816,14.40806 39.94002,20.86034 5.27707,1.32118 11.10596,3.39236 12.95309,4.60264 1.84712,1.2103 4.12952,2.20278 5.07199,2.20554 0.94246,0.003 5.27878,1.78038 9.63626,3.95029 4.35747,2.16991 9.75747,4.34764 11.99999,4.83941 3.97302,0.87128 14.44171,5.87195 12.29267,5.87195 -2.42984,0 -20.67344,-6.72177 -26.88201,-9.90455 -3.66667,-1.87969 -7.56667,-3.42237 -8.66667,-3.42818 -1.1,-0.005 -3.84433,-1.13524 -6.09851,-2.50984 -3.63272,-2.21526 -12.76309,-4.90206 -27.23482,-8.01443 -5.63411,-1.21171 -15.99793,-6.66669 -18.23545,-9.59821 -0.89076,-1.16704 -4.07997,-5.23455 -7.08714,-9.03891 l -5.46759,-6.91701 -3.99537,2.36012 c -5.62301,3.32159 -7.98487,7.52277 -8.82938,15.70533 -1.28115,12.41312 -0.0594,15.21936 11.81778,27.14449 5.95329,5.97788 11.34308,10.86842 11.97732,10.86842 0.63424,0 1.15316,0.63541 1.15316,1.41202 0,0.77662 -0.62638,1.0249 -1.39197,0.55174 -0.76558,-0.47316 -2.86558,0.1052 -4.66666,1.28538 -1.80109,1.18011 -3.2747,1.56164 -3.2747,0.84784 0,-0.7138 1.01894,-1.86804 2.26431,-2.56498 1.93188,-1.08114 0.65951,-2.88062 -8.66667,-12.25704 L 0,333.39026 v -10.60771 c 0,-12.25339 2.48024,-18.93973 8.24079,-22.21577 4.39495,-2.49941 4.33939,-2.00676 1.66832,-14.79494 -2.83389,-13.5677 -1.64104,-23.05451 4.09694,-32.58338 6.63736,-11.02241 13.56361,-18.90857 18.78181,-21.38477 l 4.66965,-2.21589 -0.91173,-11.23653 c -0.73846,-9.10115 -0.46301,-12.44102 1.44948,-17.57464 2.53583,-6.80687 6.77653,-12.33812 9.45938,-12.33812 0.91105,0 1.85647,-0.51394 2.10091,-1.14208 0.51395,-1.32068 18.1503,-13.52459 19.54493,-13.52459 0.51256,0 0.92463,-6.23771 0.91572,-13.86157 -0.0156,-13.39271 0.15803,-14.21903 5.13498,-24.42921 4.10195,-8.41511 6.41044,-11.43788 11.33334,-14.84006 3.40018,-2.34984 8.32245,-6.26425 10.93839,-8.69869 4.12886,-3.8424 4.6809,-5.07171 4.185,-9.31939 -0.41305,-3.538103 0.4815,-7.010413 3.23027,-12.538773 2.09083,-4.20511 4.14379,-7.94564 4.56213,-8.31231 0.41834,-0.36666 3.54258,-4.59824 6.94272,-9.40349 3.40016,-4.80525 7.86395,-9.58944 9.91954,-10.63152 2.05558,-1.04209 5.16834,-2.96052 6.91724,-4.26317 l 3.17981,-2.36848 -3.17981,-0.005 c -4.44356,-0.007 -11.59967,-4.66116 -13.46646,-8.758338 -1.3817,-3.0325 -2.11001,-3.33397 -6.20046,-2.5666 -2.54918,0.47823 -10.05516,3.5231 -16.67998,6.766378 -6.62482,3.24362 -12.61278,5.89722 -13.30658,5.89722 -1.35924,0 -13.01482,11.92856 -17.76256,18.17857 -1.59659,2.10179 -4.00089,5.02143 -5.3429,6.4881 -3.43449,3.75353 -5.75421,9.44057 -5.75421,14.10706 0,4.63387 5.1755,15.472633 9.06739,18.989323 1.47892,1.33636 3.44259,4.33636 4.3637,6.66667 0.92112,2.33032 2.52854,5.24231 3.57204,6.47108 1.0435,1.22876 1.69405,3.28941 1.44565,4.57921 -0.28339,1.47156 -2.01097,-0.85061 -4.63786,-6.23412 -2.30243,-4.71857 -5.45179,-9.72221 -6.99858,-11.11921 -1.54678,-1.39699 -2.81234,-3.05891 -2.81234,-3.69316 0,-0.63425 -1.5,-3.52933 -3.33333,-6.43352 -3.91272,-6.198163 -4.00062,-7.274723 -1.2543,-15.363803 2.01878,-5.94619 3.69979,-8.57387 9.25715,-14.47041 1.46824,-1.55786 3.73207,-4.48245 5.03074,-6.49912 l 2.36122,-3.66667 -4.36408,-0.005 c -4.5178,-0.005 -12.4201,-4.05001 -15.29808,-7.83045 -2.81811,-3.70179 -2.06825,-11.902498 1.51831,-16.604708 l 3.25095,-4.26223 -6.25095,-2.42193 c -3.43803,-1.33171 -7.60096,-2.96081 -9.25096,-3.61988 -6.15346,-2.45789 -1.12158,-11.92213 6.33868,-11.92213 2.1458,0 6.47243,-0.85872 9.61472,-1.90827 3.1423,-1.04955 9.61326,-2.59141 14.37993,-3.42635 4.76667,-0.83494 11.56244,-2.07623 15.10172,-2.7583999 3.53928,-0.68217 8.93928,-1.24223 12,-1.24458 3.06072,-0.002 10.96495,-0.95821 17.56495,-2.12415 6.6,-1.16593 15,-2.39685 18.66666,-2.73536 16.60426,-1.53293 59.31873,-2.73089997 79.33333,-2.22497 12.1,0.30586 41.5,0.8167 65.33334,1.1352 23.83333,0.3185 52.93333,0.91452 64.66666,1.32448 11.73333,0.40995 24.03333,0.71512 27.33333,0.67815 3.3,-0.037 10.2,0.79772 15.33334,1.85488 5.13334,1.05715 17.73334,2.28955 28.00004,2.73866 10.2666,0.44912 22.8666,1.0160999 28,1.2599699 5.1333,0.24387 11.0223,1.11555 13.0868,1.93707 2.0644,0.82152 6.5644,1.49701 10,1.50111 3.4355,0.004 8.3465,0.57944 10.9132,1.27856 2.5666,0.69912 9.1666,1.90152 14.6666,2.67198 5.5,0.77048 13.3,1.99847 17.3334,2.72887 4.0333,0.7304 11.5333,1.85756 16.6666,2.50481 5.1334,0.64726 14.8622,2.21628 21.6197,3.48672 l 12.2864,2.30992 7.047,-4.65234 c 50.9156,-33.6140799 120.7609,-32.2370399 260.38019,5.13356 36.0776,9.65654 40.6667,11.14329 40.6667,13.17492 0,1.02566 -0.45,2.14164 -1,2.47994 -0.55,0.33831 -8.5,-1.45686 -17.6667,-3.98926 C 758.86773,16.283789 701.86343,5.7725091 657.45693,5.7725091 c -25.9462,0 -40.0541,2.03188 -59.0009,8.4975999 -13.5797,4.63413 -33.5043,15.13957 -32.3269,17.04466 0.3822,0.61842 4.0734,1.1244 8.2026,1.1244 7.9114,0 18.7929,1.66958 31.0016,4.75663 4.0333,1.01985 13.0333,2.4834 20,3.25233 6.9667,0.76894 17.1666,2.53291 22.6666,3.91996 5.5,1.38706 12.7,3.10818 16,3.82471 3.3,0.71653 9.4793,2.265088 13.7318,3.441248 4.2524,1.17615 9.3098,2.13846 11.2386,2.13846 1.9289,0 5.3496,0.56836 7.6016,1.26302 28.4008,8.76039 36.2889,11.35622 37.3614,12.29495 0.6966,0.60979 2.2203,1.10869 3.3859,1.10869 1.1656,0 6.1469,2.1 11.0695,4.66667 4.9226,2.56666 9.5551,4.66666 10.2944,4.66666 0.7393,0 4.3319,2.1 7.9835,4.66667 3.6516,2.56667 7.1426,4.66667 7.7577,4.66667 2.7965,0 13.88339,8.72758 15.80339,12.44033 1.1738,2.269893 4.4448,6.414763 7.2689,9.210793 2.8241,2.79602 7.6109,10.01834 10.6372,16.04961 5.4988,10.95853 5.502,10.97409 4.806,23.05087 -0.3831,6.64671 -1.6513,14.36998 -2.8182,17.16282 -1.1669,2.79285 -2.1265,6.05463 -2.1323,7.2484 -0.01,1.19379 -2.2848,6.82051 -5.0642,12.50384 -2.7795,5.68333 -4.7247,10.3288 -4.3227,10.32327 0.402,-0.005 19.3084,-1.78463 42.0142,-3.95355 31.9574,-3.05264 41.516,-3.57747 42.3129,-2.32327 1.3165,2.07175 1.3454,3.59336 0.07,3.71791 -0.55,0.0537 -20.7866,2.00373 -44.9704,4.33333 l -43.9704,4.23564 -4.0296,7.5623 c -2.2162,4.15925 -4.9964,8.65925 -6.1782,10 -3.11219,3.53101 -11.85139,17.60153 -11.85139,19.08147 0,0.69227 -3.4665,5.03062 -7.7035,9.64078 -4.2369,4.61017 -9.3944,10.66745 -11.4611,13.46064 -4.3562,5.88765 -24.8826,26.25481 -26.4601,26.25481 -0.5864,0 -6.1465,3.87621 -12.3557,8.61381 -6.2092,4.7376 -15.0537,10.47847 -19.6545,12.7575 -4.6008,2.27901 -9.5651,5.19202 -11.0317,6.47335 -4.2275,3.69327 -8.8691,6.15224 -15.3334,8.12306 -3.3,1.00612 -6.57,2.32496 -7.2666,2.93078 -0.6967,0.60583 -2.4967,1.10198 -4,1.10255 -1.5034,5.7e-4 -6.6334,1.87993 -11.4,4.17636 -4.7667,2.29641 -10.7667,4.61556 -13.3333,5.15364 -2.5667,0.53808 -13.9667,2.89347 -25.3334,5.23417 -22.3406,4.60055 -22.2588,4.57931 -42,10.90492 -13.2367,4.24143 -18.5742,5.52852 -32.6666,7.87734 -18.9678,3.1614 -27.3465,3.90229 -44.6667,3.94966 -10.2667,0.0281 -20.7667,0.60602 -23.3333,1.2843 -5.218,1.37892 -33.6996,3.09502 -45.9891,2.77098 l -7.9891,-0.21064 3.2755,3.48654 c 1.8015,1.9176 6.8965,5.2572 11.3224,7.42132 50.6651,24.77409 162.7544,11.08472 437.54339,-53.43682 15.4898,-3.63705 29.1398,-6.61282 30.3334,-6.61282 1.2018,0 2.1701,1.07214 2.1701,2.4028 0,2.63258 -7.9558,4.62917 -110.6667,27.77284 -170.79879,38.48585 -272.10759,52.53546 -325.33329,45.11761 z m -59.7299,-28.00781 c 0.393,-0.393 -0.6753,-4.15548 -2.374,-8.36106 -1.7507,-4.3343 -3.2634,-11.24068 -3.4923,-15.944 l -0.4038,-8.29748 -6.33331,-0.008 -6.33333,-0.008 -0.1168,8.33334 c -0.0643,4.58333 -0.63379,11.33333 -1.26567,15 -0.84704,4.91522 -0.98845,2.77808 -0.53825,-8.13482 l 0.61062,-14.80148 -10.68958,-0.82432 c -5.87927,-0.45338 -11.77535,-1.40541 -13.1024,-2.11562 -2.47867,-1.32655 -38.0878,0.15568 -46.59511,1.9395 -3.92577,0.82316 -15.06394,-1.15774 -27.45596,-4.88302 -4.3014,-1.29308 -6.18017,-0.60591 -6.18017,2.2604 0,3.28666 13.06941,18.79318 17.32531,20.55604 2.20441,0.91309 4.00802,2.17197 4.00802,2.7975 0,1.98111 7.49261,5.10508 13.18156,5.49592 3.01467,0.20711 5.48208,0.7367 5.48315,1.17686 10e-4,0.76269 9.12681,1.34358 58.3363,3.7137 11.91723,0.57398 22.06722,1.44314 22.55552,1.93147 1.0724,1.07236 2.4125,1.14107 3.3802,0.17331 z m 58.3966,-2.13616 c 6.2333,-0.774 22.2647,-1.6159 35.6253,-1.87087 13.3606,-0.25497 26.5606,-1.09357 29.3334,-1.86356 2.7727,-0.76999 6.7987,-1.40333 8.9466,-1.40741 2.148,-0.004 5.748,-0.58787 8,-1.29728 2.2521,-0.7094 7.6947,-2.26843 12.0947,-3.46451 9.1315,-2.48224 23.4362,-6.79015 29.3333,-8.83379 2.2,-0.76241 6.7,-1.83154 10,-2.37585 7.1546,-1.18008 10.6667,-2.55595 10.6667,-4.17867 0,-0.65486 -2.3292,-3.51985 -5.176,-6.36664 -3.6136,-3.61358 -5.7265,-4.82714 -7,-4.02041 -1.0032,0.63555 -4.4135,1.16473 -7.5783,1.17596 -3.1649,0.0107 -6.9345,0.65203 -8.377,1.424 -1.4424,0.77199 -8.153,1.92744 -14.9123,2.56771 -6.7594,0.64025 -20.6897,2.1251 -30.9564,3.29966 -10.2667,1.17456 -20.7667,2.06096 -23.3333,1.96979 -7.9703,-0.28316 -8,-0.2608 -8,6.01389 0,3.25672 -0.5226,6.24424 -1.1612,6.63892 -0.6386,0.3947 -1.5236,2.53011 -1.9666,4.74536 -0.4431,2.21527 -1.3787,4.02775 -2.0792,4.02775 -0.7906,0 -0.7562,-1.64323 0.091,-4.33333 1.3337,-4.23611 3.6094,-14.01151 3.7249,-16 0.032,-0.55 -4.892,-1.00206 -10.942,-1.00456 -6.05,-0.003 -17.6,-0.59895 -25.6666,-1.32543 -8.0667,-0.72648 -19.7667,-1.59668 -26,-1.93377 -6.2334,-0.3371 -16.2834,-1.02639 -22.3334,-1.53176 l -11,-0.91887 v 6.64529 c 0,8.19623 2.7003,17.49882 6.7168,23.13938 l 3.0358,4.26341 18.7904,-0.88856 c 10.3347,-0.48871 23.8904,-1.52184 30.1237,-2.29585 z m -151.22736,-3.45956 c -9.40507,-1.39455 -32.75826,-22.37203 -32.77934,-29.4447 -0.005,-1.98718 -2.03495,-2.25402 -17.66667,-2.3234 -12.53033,-0.0556 -19.84966,-0.73336 -25.19852,-2.33333 -12.57486,-3.76145 -14.38116,-3.09156 -25.3285,9.39347 -7.65803,8.73366 -8.13348,12.43265 -2.40731,18.7282 l 3.98081,4.37664 39.43412,0.52182 c 21.68878,0.287 39.77982,0.86752 40.20234,1.29003 0.4225,0.42252 5.9182,0.67832 12.21265,0.56844 6.29444,-0.10987 9.69213,-0.4596 7.55042,-0.77717 z m 306.16176,-21.72874 c 11.8691,-2.30534 22.7198,-5.47025 30.029,-8.75881 3.8298,-1.72315 8.6298,-3.49867 10.6666,-3.9456 2.0368,-0.44695 5.5033,-1.62031 7.7033,-2.60748 2.2,-0.98716 7.4296,-3.09845 11.6213,-4.69175 4.1917,-1.59329 8.9917,-4.23696 10.6667,-5.87481 1.6749,-1.63787 4.9953,-3.82293 7.3787,-4.8557 4.7739,-2.06871 5.1828,-2.86194 2.5864,-5.01678 -1.2876,-1.06862 -4.3008,-0.58574 -11.461,1.83675 -5.3428,1.8076 -10.8778,3.28653 -12.3,3.28653 -1.4223,0 -3.9148,0.86408 -5.539,1.92019 -4.2015,2.73194 -28.141,10.80176 -37.6197,12.68129 -4.4,0.87248 -10.1,2.1034 -12.6667,2.73537 -2.5667,0.63199 -7.5131,1.55734 -10.9921,2.05632 l -6.3255,0.90726 3.3255,3.95208 c 1.829,2.17365 3.3254,4.80605 3.3254,5.8498 0,2.26505 0.5025,2.29254 9.6011,0.52534 z m -115.5579,-4.29432 c -2.4572,-9.17798 -3.5075,-13.39473 -5.8947,-23.66666 -1.4486,-6.23333 -3.32,-14.93333 -4.1586,-19.33333 -0.8387,-4.4 -2.9795,-13.8729 -4.7574,-21.05087 -1.7778,-7.17799 -3.2325,-14.47071 -3.2325,-16.20605 0,-2.42419 -1.6568,-4.09024 -7.1512,-7.1911 -3.9332,-2.21973 -9.2219,-6.455 -11.7527,-9.4117 -4.5442,-5.30884 -4.6669,-5.35683 -9.8488,-3.85212 -7.1581,2.07853 -9.9139,4.71662 -9.9139,9.49049 0,2.21761 -0.5589,5.87461 -1.242,8.12668 -0.683,2.25207 -1.9716,8.29467 -2.8635,13.428 -1.5474,8.90655 -2.1039,10.78345 -5.9297,20 -0.9132,2.2 -3.2882,8.8 -5.2778,14.66667 -1.9896,5.86666 -4.4635,12.56875 -5.4976,14.89354 -1.0341,2.3248 -2.2592,6.2248 -2.7224,8.66667 -0.4633,2.44188 -1.4434,5.20428 -2.178,6.13868 -0.7346,0.93438 -0.9138,2.12074 -0.3982,2.63636 1.2688,1.26885 51.2612,5.21722 69.199,5.46529 14.3475,0.1984 14.419,0.18371 13.62,-2.80055 z m 32.6235,0.3845 c 4.0333,-0.64104 14.2333,-1.84868 22.6667,-2.68363 8.4333,-0.83493 17.1759,-2.0842 19.428,-2.77613 2.252,-0.69194 5.963,-1.25807 8.2465,-1.25807 2.2835,0 5.7575,-0.61045 7.7199,-1.35656 3.354,-1.27519 3.5139,-1.7174 2.6661,-7.37088 -0.518,-3.45447 -3.4813,-10.37717 -6.9621,-16.26481 -3.3332,-5.63779 -8.9038,-15.97091 -12.3791,-22.96247 -14.2383,-28.64438 -16.0015,-30.83998 -27.3797,-34.09392 -5.0757,-1.45153 -10.3276,-3.96958 -12.2142,-5.85621 -1.8204,-1.82036 -4.8941,-4.26809 -6.8306,-5.43941 -3.465,-2.09588 -3.586,-2.04431 -7.6252,3.25144 -6.1109,8.01192 -16.3667,12.70918 -27.8097,12.73716 l -9.14,0.0224 0.5988,5 c 0.3293,2.75 1.8403,9.8 3.3577,15.66666 1.5173,5.86667 3.4586,14.26667 4.3139,18.66667 0.8554,4.4 3.2501,14.9 5.3217,23.33333 2.0716,8.43333 4.1243,16.93941 4.5615,18.90241 0.4372,1.96299 1.8445,3.87484 3.1274,4.24855 2.7902,0.81285 18.1158,-0.14267 28.3324,-1.76647 z m -136,-7.29439 c 0,-8.55337 8.0821,-35.96374 18.1041,-61.39966 5.4949,-13.94642 11.2393,-28.53726 12.7653,-32.4241 1.5259,-3.88683 2.5303,-7.31107 2.2319,-7.60943 -0.2983,-0.29835 -3.8182,2.1089 -7.8219,5.34946 -4.0037,3.24055 -7.6594,5.9148 -8.1239,5.94277 -0.4645,0.028 -1.1448,-1.09748 -1.5118,-2.501 -0.4904,-1.87541 0.8821,-3.66453 5.1778,-6.7495 3.2148,-2.30872 5.8452,-4.76039 5.8452,-5.44816 0,-0.68776 0.6882,-1.25048 1.5293,-1.25048 0.8411,0 4.0921,-2.1 7.2244,-4.66667 3.1323,-2.56666 6.2832,-4.66666 7.002,-4.66666 0.7188,0 1.7109,4.35 2.2046,9.66666 1.1519,12.40451 1.8378,14.79444 3.8185,13.30364 0.8549,-0.64355 4.1538,-1.91399 7.3307,-2.8232 4.6144,-1.32061 5.5873,-2.10505 4.8372,-3.9001 -3.6369,-8.70298 -3.6635,-15.94264 -0.1063,-28.91367 0.5763,-2.10156 -1.0611,-3.98941 -7.7269,-8.90859 l -8.4583,-6.24193 -2.4943,2.97568 c -2.699,3.21991 -8.2621,12.97047 -12.2821,21.52705 -1.383,2.94372 -3.5039,6.17334 -4.7131,7.17691 -1.7006,1.41135 -1.8498,2.24497 -0.6588,3.68 1.9221,2.316 0.4937,3.99399 -1.808,2.12396 -0.9344,-0.75915 -4.3989,-1.68352 -7.6989,-2.05416 -26.1109,-2.93268 -42.91018,-5.15091 -48.00003,-6.33807 -3.3,-0.7697 -11.7,-1.9279 -18.66667,-2.5738 -44.74338,-4.14822 -66.97499,-8.97136 -82.80925,-17.96537 l -5.62894,-3.19731 -4.11424,6.2292 c -4.19678,6.35418 -12.04428,14.48296 -21.26075,22.02282 -14.8356,12.13677 -19.45461,19.84823 -19.49991,32.55518 -0.016,4.48152 1.55347,8.41565 7.44664,18.66667 9.15047,15.91697 11.60447,19.2485 24.99702,33.93578 9.39945,10.30813 11.23401,11.71056 16.31592,12.47264 3.14913,0.47224 6.75494,1.99593 8.01292,3.38597 1.25798,1.39006 3.02077,2.52736 3.91732,2.52736 0.89656,0 2.37702,0.9 3.28994,2 0.91292,1.1 1.25659,2 0.76371,2 -1.71345,0 -8.30121,-3.83616 -9.90377,-5.76713 -0.8869,-1.06864 -4.27174,-2.34175 -7.52187,-2.82913 -4.71808,-0.70752 -6.92689,-2.03244 -10.95704,-6.57241 -3.56605,-4.01719 -7.10184,-6.35131 -12.04581,-7.95192 -3.84896,-1.24612 -12.44203,-5.10376 -19.09571,-8.57254 -22.50773,-11.734 -24.06161,-12.67537 -29.15007,-17.65944 -1.88252,-1.8439 -5.31918,-4.69661 -7.63702,-6.33933 -2.42996,-1.72217 -7.66143,-8.88437 -12.35596,-16.91605 -4.47795,-7.66112 -8.73152,-14.29383 -9.45241,-14.73936 -0.72091,-0.44554 -1.31072,-1.8624 -1.31072,-3.14859 0,-1.28619 -1.79162,-4.05499 -3.98136,-6.1529 -2.18975,-2.09791 -5.56966,-6.86016 -7.51091,-10.58279 -1.94125,-3.72261 -4.61467,-8.15485 -5.94093,-9.84941 -1.32626,-1.69456 -3.10067,-6.40128 -3.94312,-10.45938 -0.84246,-4.05808 -2.37743,-9.40236 -3.41104,-11.87614 -2.14463,-5.13282 -2.58879,-28.12728 -0.67238,-34.80939 1.38334,-4.82341 0.38184,-6.67757 -8.76037,-16.21892 -3.17895,-3.31772 -5.77989,-6.68818 -5.77989,-7.4899 0,-0.80172 -1.79016,-3.62946 -3.97815,-6.28386 -2.18799,-2.6544 -4.60899,-6.48542 -5.38001,-8.51337 l -1.40188,-3.6872 -4.46647,4.87625 c -2.45656,2.68194 -4.99885,4.87626 -5.64953,4.87626 -3.19217,0 -11.52121,9.04254 -15.12313,16.41865 -5.9611,12.20732 -7.59375,21.68002 -5.49113,31.8599 2.21094,10.7043 3.42797,12.86527 14.72377,26.1436 5.18826,6.09887 9.43319,11.60624 9.43319,12.23862 0,1.34989 18.88024,13.33922 21.00598,13.33922 0.79684,0 1.86834,-1.95 2.38112,-4.33333 0.9674,-4.49649 9.73981,-17.65087 10.9584,-16.43229 0.38117,0.38117 -0.91767,2.80478 -2.88631,5.38581 -6.53288,8.56504 -7.2186,11.75776 -6.43403,29.95662 0.69843,16.20032 0.85938,16.93311 4.84863,22.07648 5.56036,7.16903 6.94681,8.27558 15.45955,12.3385 4.03333,1.92501 10.0008,5.18937 13.26104,7.25412 3.26024,2.06474 6.89366,3.75409 8.07429,3.75409 1.18062,0 4.19558,1.51171 6.6999,3.35933 4.52039,3.33504 4.56076,3.33926 5.58011,0.58371 1.29404,-3.49813 4.91612,-7.18935 5.99552,-6.10995 0.44948,0.44948 -0.10813,1.87091 -1.23911,3.15874 -5.33156,6.07092 -3.81201,17.64189 3.02151,23.00817 2.3346,1.83333 7.45392,6.08216 11.37627,9.44185 5.17177,4.42987 9.06876,6.5372 14.181,7.66851 3.87721,0.85798 12.44946,2.81169 19.04946,4.34156 15.1116,3.50282 38.981,4.90316 44.51366,2.61145 3.3339,-1.38095 5.77562,-1.19611 15.35641,1.16245 10.78287,2.65448 12.8612,2.73138 38.85885,1.43775 15.10667,-0.75171 28.17267,-0.90852 29.03555,-0.34849 1.50028,0.97373 16.3502,2.29934 31.23553,2.7883 l 7.00001,0.22995 z m 19.4421,0.90989 c 0.7845,-2.01666 2.8272,-8.16666 4.5395,-13.66666 1.7122,-5.5 3.8643,-11.8 4.7825,-14 9.5064,-22.77829 17.3032,-52.66667 13.7388,-52.66667 -0.6433,0 -1.1696,-2.88532 -1.1696,-6.41182 0,-3.52651 -0.8132,-7.52391 -1.807,-8.88312 -1.6597,-2.26974 -1.999,-1.93708 -4.1594,4.07849 -1.2938,3.60239 -5.8148,15.24979 -10.0467,25.88312 -12.4726,31.33935 -19.9527,55.92682 -19.9775,65.66666 -0.01,3.48734 0.3008,3.66667 6.3318,3.66667 5.683,0 6.4892,-0.3806 7.7676,-3.66667 z m 201.2246,-4.96865 c 3.6666,-0.95287 10.2666,-2.46653 14.6666,-3.36372 9.1601,-1.8678 33.1124,-10.5258 33.7778,-12.20962 0.2444,-0.61856 1.259,-1.12467 2.2546,-1.12467 0.9956,0 2.145,-0.54169 2.5542,-1.20376 0.972,-1.57275 -8.5024,-20.05999 -13.0503,-25.46492 -1.945,-2.31143 -3.5363,-4.79047 -3.5363,-5.50899 0,-1.51832 -10.824,-16.71886 -16.6699,-23.41005 -4.6607,-5.33471 -3.5873,-5.17844 -43.7891,-6.37511 -14.5524,-0.43318 -26.8524,-0.84701 -27.3333,-0.91964 -0.4809,-0.0727 -2.7492,0.64942 -5.0407,1.60452 l -4.1664,1.73655 4.3838,6.10403 c 2.4112,3.35722 9.1423,15.41741 14.958,26.80042 5.8158,11.383 12.1398,23.17647 14.0533,26.20768 1.9135,3.03122 3.8806,8.53797 4.3714,12.23724 0.6031,4.54649 1.5955,6.92253 3.0626,7.33267 2.8036,0.78374 11.0742,-0.25206 19.5037,-2.44263 z m 66.2538,-20.20056 c 5.3604,-1.92638 10.0461,-3.87638 10.4128,-4.33333 0.3667,-0.45693 3.3667,-2.15772 6.6667,-3.77953 9.843,-4.83739 22.7028,-12.23024 24.6343,-14.16174 0.9929,-0.99289 3.5063,-2.53132 5.5855,-3.41874 2.4197,-1.03282 5.8994,-5.06667 9.669,-11.2088 l 5.8888,-9.59531 -0.1402,-15.85143 c -0.077,-8.71828 -0.7148,-16.42598 -1.4171,-17.12823 -0.8135,-0.81354 -2.8993,-0.5527 -5.7486,0.71888 -2.4594,1.09762 -5.9717,2.3673 -7.8051,2.8215 -7.3501,1.82098 -25.571,4.78576 -26.424,4.29955 -0.5001,-0.28508 -9.9093,0.32685 -20.9093,1.35988 -26.9149,2.52758 -27.3446,2.59109 -29.0465,4.293 -0.8177,0.81777 -2.8072,1.48685 -4.4211,1.48685 -1.6138,0 -5.9164,1.38163 -9.5612,3.07028 l -6.6268,3.07029 3.4945,4.0592 c 6.7445,7.83443 14.1906,17.91512 17.2373,23.33622 1.6919,3.01044 4.0114,6.4087 5.1544,7.55172 1.143,1.14301 3.214,4.72796 4.6022,7.96656 1.3883,3.2386 3.7188,7.40718 5.179,9.26352 1.4602,1.85634 2.6549,4.79425 2.6549,6.52869 0,1.73444 0.2642,3.15352 0.5872,3.15352 0.3229,0 4.9729,-1.57615 10.3333,-3.50255 z m 25.4097,-4.10988 c 3.8517,-2.72016 9.3611,-6.92016 12.2431,-9.33333 2.882,-2.41316 5.9178,-4.38757 6.7461,-4.38757 1.6387,0 14.7834,-12.80522 23.7407,-23.12755 3.0836,-3.55348 8.3882,-9.55348 11.7879,-13.33333 3.3998,-3.77986 9.0423,-11.67246 12.5389,-17.53912 3.4965,-5.86667 7.6989,-12.16667 9.3385,-14 3.54869,-3.96788 9.08409,-14.63493 8.10339,-15.61565 -0.706,-0.70592 -44.95919,3.30164 -45.80579,4.14813 -1.0083,1.0084 -0.3746,32.58846 0.7144,35.59882 0.6371,1.76112 0.7166,4.70203 0.1767,6.53536 -0.5399,1.83334 -1.0415,4.92647 -1.1145,6.87364 -0.217,5.7802 -11.4003,22.65915 -16.4081,24.76476 -2.368,0.99568 -4.6248,2.31483 -5.0152,2.93142 -0.7286,1.15097 -4.9297,3.6339 -20.043,11.84564 -4.7667,2.58996 -8.9022,4.8915 -9.19,5.11456 -0.7894,0.61172 2.6777,4.46998 4.0169,4.46998 0.6418,0 4.3183,-2.22558 8.17,-4.94576 z M 232.46659,297.4385 c -2.23108,-2.38333 -5.59831,-6.43333 -7.48273,-9 -4.91259,-6.69117 -18.23251,-30.53164 -19.19016,-34.34725 -0.52495,-2.09156 -3.98796,-5.26469 -9.83795,-9.01444 -4.96531,-3.18268 -10.73663,-7.98269 -12.82513,-10.66669 -2.08851,-2.684 -5.73695,-7.07561 -8.10764,-9.75913 -2.37068,-2.68354 -4.66112,-5.92915 -5.08986,-7.21248 -1.04025,-3.11388 -3.26646,-2.98083 -3.26646,0.19521 0,2.89845 -8.40289,10.80479 -11.48339,10.80479 -1.13148,0 0.5387,-1.98 3.71152,-4.39999 6.40689,-4.88671 8.32753,-10.15592 5.68624,-15.60001 -2.11146,-4.35203 -4.20062,-13.72768 -6.4885,-29.11884 -1.22054,-8.21094 -2.70756,-13.43352 -4.36584,-15.33334 -1.38316,-1.58464 -3.14679,-4.38116 -3.91918,-6.21449 -0.77237,-1.83333 -3.03744,-6.88305 -5.03345,-11.2216 l -3.62912,-7.88825 -6.20484,6.20483 -6.20484,6.20483 -0.51099,13.80414 c -0.48241,13.03222 -0.22989,14.67341 4.51594,29.35009 2.7648,8.55028 5.5293,15.54596 6.14334,15.54596 0.61404,0 1.11644,0.58835 1.11644,1.30744 0,1.91712 8.57891,14.96853 11.65559,17.73208 1.45295,1.30507 3.75827,4.90506 5.12293,8 1.36467,3.09493 2.83336,5.92714 3.26376,6.29381 0.78348,0.66747 6.62977,10.75724 10.24715,17.68497 1.05828,2.02674 3.44646,4.72674 5.30708,6 1.86061,1.27327 5.86256,4.60547 8.89321,7.40491 3.03065,2.79943 6.46061,5.94943 7.62213,7 1.16152,1.05056 3.0306,1.91012 4.15352,1.91012 1.12292,0 3.52738,1.16865 5.34323,2.597 1.81585,1.42835 8.94676,5.25699 15.84648,8.50808 19.26211,9.07616 20.79429,9.40565 15.01152,3.22825 z M 98.66666,265.33758 c 0,-2.26248 4.66593,-6.56596 10.81732,-9.97702 10.97973,-6.08846 10.51731,-5.40258 10.50133,-15.57612 -0.0205,-13.06849 -1.22412,-19.34593 -3.70929,-19.34593 -2.23165,0 -13.21736,-6.10512 -16.03793,-8.91282 -0.96904,-0.96461 -2.21932,-1.75385 -2.77838,-1.75385 -0.55906,0 -3.22532,-3.15 -5.92501,-7 -2.69971,-3.85 -7.89837,-10.3 -11.5526,-14.33333 -3.65422,-4.03334 -6.64511,-7.96334 -6.64641,-8.73334 -0.001,-0.77 -0.69428,-2.09192 -1.53996,-2.9376 -1.87132,-1.87132 -4.12159,-0.7998 -14.4624,6.88666 -4.03334,2.99801 -8.53334,6.06661 -10,6.8191 -1.46667,0.75248 -4.36158,4.65248 -6.43315,8.66667 -3.54358,6.86659 -3.71586,7.96356 -2.91113,18.53657 0.89374,11.74246 2.50038,16.30256 7.31491,20.76193 1.58348,1.46667 5.08163,4.96716 7.77367,7.77887 2.69203,2.81172 7.30085,6.21019 10.24182,7.55216 2.94096,1.34197 6.84721,4.06797 8.68054,6.05779 4.69737,5.09829 10.13258,7.1653 19,7.22566 5.50414,0.0375 7.66667,-0.4464 7.66667,-1.7154 z m 109.3943,-25.83694 c 1.96982,-8.22928 2.68718,-9.07493 22.6057,-26.64895 4.76666,-4.2056 10.31842,-9.76904 12.33724,-12.3632 8.34677,-10.72556 7.91121,-9.61364 4.98573,-12.72768 -1.46097,-1.55513 -2.65631,-3.6361 -2.65631,-4.62438 0,-2.45034 -11.37784,-21.68616 -15.12133,-25.56475 -1.66323,-1.72324 -4.98312,-7.29757 -7.37753,-12.3874 -2.39442,-5.08982 -5.14982,-9.88982 -6.12312,-10.66666 -0.9733,-0.77684 -3.24522,-4.24558 -5.04872,-7.70828 -1.80351,-3.46271 -6.2154,-9.21544 -9.8042,-12.78386 -6.6679,-6.63 -17.95823,-14.920303 -20.31955,-14.920303 -0.72269,0 -3.49661,-2.30332 -6.16427,-5.1185 l -4.85025,-5.11848 -8.11592,7.81908 c -7.5888,7.311273 -13.76554,15.539943 -16.32729,21.751233 -0.60489,1.46667 -1.80695,6.57741 -2.67121,11.35723 -1.3641,7.54409 -1.29203,8.98482 0.54629,10.92112 1.16473,1.2268 2.90672,4.51605 3.87111,7.30944 2.81961,8.16717 4.76205,12.41221 5.67956,12.41221 1.81744,0 4.96246,9.02716 5.80661,16.66666 1.26828,11.47796 5.72217,28.4128 9.10985,34.63791 3.02076,5.55089 12.11276,17.73193 17.27347,23.14221 3.85129,4.03753 18.4292,13.63269 19.60658,12.90504 0.49915,-0.30849 1.74004,-4.03885 2.75756,-8.28969 z m 350.45967,3.93786 c 2.2892,-1.89686 2.6123,-3.07544 1.7272,-6.3006 -0.935,-3.40666 -2.8367,-4.75157 -13.4582,-9.51785 l -12.3694,-5.55058 6.4566,-4.36488 c 8.2794,-5.59724 7.9407,-5.25808 6.3299,-6.33858 -0.7605,-0.51013 -3.3815,-3.9275 -5.8244,-7.59417 -5.1086,-7.66779 -10.6975,-14 -12.3567,-14 -0.6281,0 -2.634,1.38339 -4.4574,3.0742 -3.2092,2.97572 -3.25,3.2306 -1.2752,7.95717 2.4392,5.83783 2.6533,17.94642 0.4475,25.30879 -1.4341,4.78646 -1.3344,5.49306 1,7.09117 1.426,0.97624 4.4662,3.42001 6.756,5.4306 7.5158,6.59957 21.7942,9.13819 27.0241,4.80473 z m 70.8127,0.92574 c 0.9515,-1.05755 13.0797,-6.5924 14.4455,-6.5924 2.3782,0 5.6299,-5.14972 8.84,-14.00009 1.8288,-5.04191 3.1877,-9.27288 3.0198,-9.40216 -0.1679,-0.12934 -17.7053,1.4552 -38.972,3.52109 -21.2666,2.06589 -42.3676,3.78429 -46.8909,3.81867 -14.4633,0.10986 -16.5815,3.11786 -5.4943,7.80209 6.3591,2.68662 6.768,3.11574 4.8223,5.06145 -1.7456,1.74559 -2.6632,1.83841 -5.1288,0.51889 -2.8572,-1.52916 -2.9571,-1.42238 -2.0612,2.20318 0.5179,2.09561 1.3615,4.24249 1.8746,4.77084 0.5131,0.52836 13.4229,1.23057 28.6883,1.56048 15.2655,0.3299 27.9788,0.82317 28.2517,1.09614 0.7692,0.76915 7.8561,0.47415 8.605,-0.35818 z m 42.6364,-11.87328 c 9.8607,-0.83703 21.9682,-1.75452 26.9056,-2.03888 11.206,-0.64539 22.169,-2.7736 33.9814,-6.59673 l 9.1432,-2.95926 0.4027,-7.65421 0.4026,-7.65421 -5.736,0.78302 c -3.1547,0.43067 -21.8788,2.28443 -41.609,4.11948 -38.4515,3.57626 -38.2645,3.52395 -40.3276,11.28167 -0.4876,1.83333 -1.976,5.89592 -3.3075,9.02797 -2.2666,5.33144 -2.2732,5.61549 -0.1026,4.45381 1.2752,-0.68244 10.3864,-1.92565 20.2472,-2.76266 z m -116.6364,-8.05245 c -0.4532,-0.73334 -1.8387,-1.32415 -3.0787,-1.31292 -1.943,0.0176 -1.9782,0.19905 -0.2546,1.31292 2.6111,1.68746 4.3762,1.68746 3.3333,0 z m -138.6449,-9 c 1.775,-2.01667 3.2462,-4.51003 3.2694,-5.54082 0.023,-1.03077 1.429,-3.73077 3.1239,-6 1.695,-2.26921 3.8907,-6.22585 4.8793,-8.79252 0.9887,-2.56666 3.1336,-6.16666 4.7666,-8 2.5231,-2.83256 3.0706,-5.3364 3.6446,-16.66666 0.6511,-12.85218 4.8637,-30.57272 7.5032,-31.56271 0.6413,-0.2405 2.6507,-3.53185 4.4654,-7.31408 l 3.2995,-6.87678 -3.0165,-3.12322 c -3.7716,-3.90498 -11.9702,-19.11924 -13.179,-24.456543 -2.9768,-13.14295 -18.1034,-33.24363 -33.7782,-44.88523 -3.85,-2.859378 -7,-5.959008 -7,-6.888038 0,-1.84089 -14.16274,-3.66778 -53.99998,-6.9656 -42.1915,-3.49272 -51.98825,-4.51076 -56.65786,-5.88768 -2.56183,-0.7554 -6.60321,-1.37345 -8.98087,-1.37345 -2.37764,0 -6.88161,-0.67969 -10.0088,-1.51043 -5.07024,-1.34689 -6.2632,-1.18369 -11.01913,1.50752 -2.93333,1.65987 -10.13333,4.6689 -16,6.68674 -5.86667,2.01785 -15.76667,5.4617 -22,7.65302 -6.23333,2.19134 -13.73333,4.64222 -16.66667,5.446418 -7.00213,1.9197 -22.78577,17.36669 -24.66789,24.14173 -3.01625,10.85764 -0.19115,18.1546 8.70148,22.47497 3.28153,1.59428 5.96641,3.506493 5.96641,4.249363 0,0.74287 0.8658,1.35067 1.924,1.35067 3.20264,0 17.79499,14.47856 20.94088,20.77761 1.62031,3.24435 3.90035,6.94663 5.06675,8.22727 1.1664,1.28065 4.43849,6.82845 7.27132,12.32845 2.83281,5.5 6.53641,11.5 8.2302,13.33333 3.46992,3.75577 13.60448,21.69092 14.68139,25.98165 0.50348,2.00602 4.19704,4.36488 12.96146,8.27779 23.3692,10.43321 23.78562,10.5462 50.25733,13.6356 5.5,0.64189 11.5,1.54245 13.33334,2.00125 1.83333,0.45882 9.63333,1.40212 17.33333,2.09626 7.7,0.69413 17,1.89572 20.66667,2.6702 3.66666,0.77446 12.96666,2.01848 20.66666,2.76448 7.69998,0.746 15.79998,1.87594 17.99998,2.51098 7.9255,2.28772 12.5912,1.62623 16.0218,-2.27154 z m 199.2609,-3.17594 c 23.8055,-2.20886 43.7902,-4.32974 44.4104,-4.71306 0.6202,-0.38334 2.6336,-3.87742 4.4741,-7.76462 3.3641,-7.10522 14.2645,-18.6163 20.4995,-21.64801 5.8172,-2.8286 25.3392,-6.01981 33.1436,-5.41792 4.1377,0.31909 10.0402,1.8162 13.1167,3.32691 l 5.5936,2.74673 3.3517,-4.84371 c 5.5735,-8.05449 7.7365,-15.8597 7.5884,-27.38277 -0.1628,-12.67362 -1.9487,-20.01837 -6.2503,-25.70532 -1.7657,-2.3344 -3.235,-4.7344 -3.2651,-5.33333 -0.03,-0.59893 -2.28,-3.52727 -5,-6.50741 -5.9842,-6.55679 -17.4771,-12.716993 -30.9453,-16.586793 -5.5,-1.58029 -13.5546,-4.06097 -17.899,-5.5126 -4.3445,-1.45163 -10.6445,-3.19616 -14,-3.87672 -3.3556,-0.68057 -13.001,-2.76499 -21.4343,-4.63204 -32.7448,-7.24936 -38.63,-8.18373 -39.7982,-6.31871 -0.4777,0.7626 -5.0685,4.15567 -10.2018,7.54015 -5.1333,3.38448 -11.0506,7.5002 -13.1494,9.14605 -2.0988,1.64584 -6.6842,4.79244 -10.1897,6.99244 -3.5055,2.2 -10.1882,7.165433 -14.8506,11.034273 -4.6623,3.86885 -9.077,7.48695 -9.8103,8.04021 -0.7333,0.55327 -3.7333,2.78786 -6.6667,4.96574 -2.9333,2.17788 -7.1333,5.64364 -9.3333,7.70169 -2.2,2.05805 -5.7039,4.65131 -7.7863,5.76279 -3.6849,1.96673 -3.7218,2.09225 -1.3756,4.6848 1.9241,2.12605 2.5861,5.94277 3.2787,18.90387 0.4773,8.93198 0.5654,19.36062 0.1957,23.17475 -0.6252,6.45015 -0.3917,7.17072 3.3402,10.31092 2.2068,1.85687 6.6017,7.28621 9.7665,12.06521 3.1648,4.77899 6.0982,8.68908 6.5187,8.68908 0.4204,0 3.9736,-2.16126 7.8961,-4.80281 6.3935,-4.30565 7.3424,-4.59219 9.1666,-2.76803 1.8241,1.82415 1.2526,2.53511 -5.5212,6.86824 -4.1557,2.65842 -7.2769,5.2849 -6.9359,5.83664 0.8557,1.38458 11.9599,0.6732 62.0725,-3.97664 z m 118.384,-11.15237 c 8.026,-0.85135 8.3333,-1.02152 8.3333,-4.61456 0,-2.05184 -0.9,-4.47755 -2,-5.39047 -1.1,-0.91292 -2,-3.04353 -2,-4.73469 0,-7.19579 -9.3455,-11.3396 -25.1963,-11.17203 -11.7045,0.12374 -20.8476,1.59727 -26.8037,4.31979 -5.2661,2.40712 -19.1211,17.33776 -21.4488,23.11411 l -2.1155,5.2496 31.4488,-2.9439 c 17.2969,-1.61914 35.1988,-3.34168 39.7822,-3.82785 z m -232.5189,-1.33571 c 2.061,-5.37073 -16.4939,-8.73412 -25.0915,-4.54828 -7.4581,3.63103 -5.6741,5.07678 6.8504,5.55151 6.468,0.24517 13.0458,0.56915 14.6173,0.71993 1.5716,0.1508 3.2023,-0.62462 3.6238,-1.72316 z m 270.1855,-2.09677 c 10.6334,-0.87859 20.57179,-2.35759 22.08549,-3.28665 2.9261,-1.796 10.9524,-16.94564 12.6264,-23.8324 0.5508,-2.26608 1.966,-7.69622 3.1448,-12.06696 3.531,-13.09195 2.8831,-19.78143 -3.1002,-32.00635 -2.8839,-5.89244 -7.4365,-12.81352 -10.1168,-15.38018 -2.6803,-2.56667 -6.0227,-6.8966 -7.4275,-9.62208 -1.4048,-2.725483 -3.6022,-5.481563 -4.8832,-6.124633 -2.61899,-1.31477 -11.82149,-0.61868 -15.11369,1.14323 -1.1881,0.63585 -6.2975,1.50273 -11.3544,1.92642 -10.7596,0.9015 -23.3493,3.324713 -25.0591,4.823273 -0.6698,0.58708 0.6532,3.15885 3,5.83173 2.309,2.62983 4.1982,5.3146 4.1982,5.96615 0,0.65155 1.5241,2.99588 3.3868,5.20961 3.7971,4.51252 7.2198,18.15624 7.2568,28.92682 0.025,7.19238 -4.4607,20.44226 -9.1489,27.02629 -2.2977,3.22673 -2.5156,4.57924 -1.3932,8.64437 0.7318,2.65052 1.9084,5.17621 2.6146,5.61265 0.7062,0.43646 1.2839,2.92491 1.2839,5.52991 0,4.60445 0.1207,4.71603 4.3334,4.00629 2.3833,-0.40153 13.0333,-1.4489 23.6666,-2.32749 z m -311.0874,-8.00244 c 8.906,-9.85789 22.5352,-14.54661 34.3619,-11.8212 8.4291,1.94247 16.7412,6.63344 21.2512,11.99339 l 3.4735,4.12792 3.9266,-3.10178 c 3.3173,-2.62034 3.9664,-4.1365 4.1827,-9.76844 0.5745,-14.95981 -0.4545,-36.20097 -1.9,-39.22047 -0.848,-1.77127 -3.7949,-4.3817 -6.5486,-5.80095 l -5.0069,-2.58045 -14.7072,10.97573 c -8.089,6.03664 -14.9504,10.73257 -15.2476,10.43538 -0.2972,-0.29718 -1.1444,-6.44437 -1.8826,-13.66039 -0.7383,-7.21603 -1.5265,-13.30424 -1.7516,-13.52936 -0.2251,-0.22514 -6.6263,-0.6066 -14.2249,-0.84774 l -13.8155,-0.43841 -5.3468,10 c -6.5237,12.20116 -10.3434,25.75014 -10.3434,36.68942 0,7.49564 0.3571,8.52131 4.1407,11.89255 4.03,3.59073 13.0766,10.08469 14.0488,10.08469 0.2663,0 2.6916,-2.44345 5.3897,-5.42989 z m -324.63542,-48.8407 c 4.27179,-4.1713 5.05622,-5.80898 5.05622,-10.55612 0,-7.66724 7.33313,-23.62498 13.40612,-29.17328 13.13851,-12.003393 17.26054,-16.881553 17.26054,-20.426723 0,-7.02012 2.94259,-12.43601 10.84451,-19.95951 4.30218,-4.09616 7.82216,-8.00345 7.82216,-8.68288 0,-0.67944 -2.36355,-3.307128 -5.25234,-5.839318 -2.88878,-2.53218 -5.43878,-5.75132 -5.66666,-7.15364 -0.39774,-2.44752 -0.68142,-2.42312 -7.081,0.60902 -3.66667,1.73726 -9.06667,3.91414 -12,4.8375 -2.93333,0.92336 -7.13333,3.00087 -9.33333,4.61668 -2.2,1.615818 -4.9,3.330658 -6,3.810748 -1.1,0.48009 -4.4,2.36204 -7.33334,4.18208 -2.93333,1.82005 -7.31884,4.30119 -9.74558,5.51365 -2.57883,1.28844 -6.66819,5.58851 -9.84134,10.34843 -2.986,4.47917 -6.10049,8.74872 -6.92108,9.48786 -3.03037,2.7296 -7.49906,13.46498 -7.48826,17.989433 0.0168,7.02713 2.54464,14.93343 5.96828,18.66667 1.68129,1.83333 3.99153,5.13333 5.13386,7.33333 1.14234,2.2 3.79974,5.8 5.90532,8 2.10559,2.2 4.90846,5.65 6.22859,7.66667 1.32013,2.01666 2.75593,3.66666 3.19068,3.66666 0.43473,0 3.06573,-2.22177 5.84665,-4.93726 z m 370.69532,-9.87378 c -0.5349,-0.48908 -2.2961,-1.28874 -3.9139,-1.77702 -2.5237,-0.76171 -3.4231,0.0628 -6.3333,5.80581 -1.8656,3.68148 -3.3919,7.04879 -3.3919,7.48289 0,0.43412 3.2876,-1.77834 7.3057,-4.91657 4.0182,-3.13823 6.8682,-6.10603 6.3334,-6.59511 z m -13.695,-2.18896 c 0.031,-0.92424 -1.5032,-1.66666 -3.4441,-1.66666 -3.2089,0 -3.4307,0.34656 -2.6667,4.16666 0.4584,2.29167 0.8585,5.14167 0.8892,6.33334 0.062,2.40034 5.1325,-6.1776 5.2216,-8.83334 z m 41.3892,-3.66666 c 1.0157,-1.22378 4.5812,-4.09588 7.9233,-6.38246 3.3422,-2.28658 6.8696,-4.93594 7.8386,-5.88748 0.9691,-0.95153 2.1691,-1.74398 2.6667,-1.761 0.4976,-0.0171 3.0632,-1.97657 5.7012,-4.35456 6.181,-5.57162 11.091,-9.364373 18.5369,-14.318803 3.3,-2.1958 8.1,-5.49481 10.6667,-7.33113 2.5666,-1.83632 5.7931,-4.07957 7.1698,-4.98501 13.5938,-8.93984 15.6171,-10.95289 15.0556,-14.97956 -0.3068,-2.2 -1.323,-6.1 -2.2583,-8.66667 -0.9353,-2.56666 -2.2233,-6.17182 -2.8623,-8.011448 -0.6389,-1.83964 -2.9172,-5.22316 -5.0628,-7.51895 -3.449,-3.69042 -5.184,-4.33825 -14.9716,-5.59012 -25.1208,-3.21304 -21.5326,-4.02278 -33.4438,7.54731 -13.7789,13.384288 -24.165,29.095738 -37.6183,56.906538 -6.0307,12.466673 -11.2954,23.624403 -11.6994,24.794963 -0.5662,1.64048 1.6063,3.04878 9.4783,6.14431 l 10.2128,4.01601 5.41,-3.69845 c 2.9755,-2.03415 6.241,-4.69972 7.2566,-5.92349 z m -53.0927,-2.31971 c 0.2343,-1.64252 1.4761,-3.18651 2.7594,-3.43111 1.7447,-0.33253 2.3333,0.44216 2.3333,3.07086 0,3.16312 0.4345,3.47369 4.3334,3.09777 4.2129,-0.4062 4.7038,-1.16133 17.6666,-27.174613 15.815,-31.73677 23.0067,-42.83111 37.3241,-57.578158 l 10.6811,-11.00163 -4.0026,-0.60689 c -2.2014,-0.33379 -6.1026,-0.93787 -8.6692,-1.3424 -2.5667,-0.40452 -9.2333,-1.28161 -14.8146,-1.94907 -5.5814,-0.66745 -12.5023,-1.91894 -15.3798,-2.78106 -9.5539,-2.86243 -74.8513,0.99793 -90.4723,5.34868 -2.9333,0.81698 -7.6611,2.07185 -10.5061,2.78857 -9.3484,2.35511 -16.8272,7.7192 -16.8272,12.06912 0,1.33953 3.0802,4.67025 7,7.569158 8.061,5.96171 22.6559,21.7299 27.7219,29.95058 1.906,3.09278 4.2661,8.62323 5.2448,12.2899 0.9787,3.66666 3.7866,10.148813 6.2397,14.404773 2.4531,4.25595 4.4602,8.05211 4.4602,8.43589 0,0.38379 1.7197,2.41751 3.8216,4.51936 3.9205,3.92048 5.8846,4.32747 24.419,5.06 5.5367,0.21883 6.2887,-0.0903 6.6667,-2.73973 z m 251.4441,-22.20344 c 3.4955,-1.796313 17.639,-4.143523 24.9675,-4.143523 3.5705,0 8.3344,-0.57919 10.5864,-1.28709 2.2521,-0.7079 5.8947,-1.68392 8.0947,-2.16894 l 4,-0.88185 -3.3333,-1.49937 c -1.8334,-0.82466 -7.2334,-3.6755 -12,-6.3352 -16.5896,-9.25664 -24.173,-13.16088 -25.5633,-13.16088 -0.7695,0 -6.5826,-2.0248 -12.9179,-4.49956 -12.0607,-4.71121 -17.7863,-6.45764 -28.8522,-8.8004 -3.6666,-0.77628 -11.7666,-2.64393 -18,-4.15033 -6.2333,-1.5064 -15.8333,-3.610398 -21.3333,-4.675548 -5.5,-1.06515 -11.5,-2.58587 -13.3333,-3.37937 -1.8334,-0.79351 -11.4333,-2.5625 -21.3333,-3.93107 -9.9,-1.36859 -19.5,-2.89419 -21.3334,-3.39023 l -3.3333,-0.9019 2.8334,3.19754 c 4.8392,5.46122 9.7853,17.960158 9.8188,24.812818 0.018,3.66364 1.0981,3.99741 33.3478,10.30463 6.2333,1.21908 14.2522,3.08582 17.8198,4.1483 3.5675,1.06248 7.4534,1.93178 8.6354,1.93178 1.8935,0 17.5588,4.6528 40.2164,11.94479 4.0361,1.29895 9.4361,3.64051 12,5.20348 5.275,3.215633 5.801,3.312633 9.0131,1.661923 z M 77.5089,58.438507 c 2.84099,-2.56666 5.77574,-4.66666 6.52165,-4.66666 0.74591,0 6.29715,-2.3694 12.33607,-5.265338 6.03893,-2.89592 13.52691,-5.67261 16.63996,-6.1704 3.61616,-0.57825 5.66008,-1.59789 5.66008,-2.82364 0,-2.77605 6.46271,-10.82952 9.45171,-11.7782 3.99808,-1.26893 3.02489,-2.71934 -3.11838,-4.64752 -3.11666,-0.97822 -6.15068,-2.18826 -6.74224,-2.68898 -0.59157,-0.50072 -5.39157,0.47726 -10.66666,2.17332 -5.27511,1.69605 -13.1911,3.82969 -17.5911,4.74141 -4.4,0.91172 -11,2.81236 -14.66666,4.22365 -3.66667,1.41128 -8.656,2.8619 -11.0874,3.22358 -5.24727,0.78056 -13.60809,8.74817 -13.51913,12.88332 0.17999,8.366798 7.48923,15.195888 16.44493,15.364658 4.11435,0.0776 6.22782,-0.85665 10.33717,-4.5692 z m 65.35745,-6.33333 c 1.74415,-0.91667 4.96274,-2.945678 7.1524,-4.508908 2.18968,-1.56324 6.98124,-3.82553 10.64791,-5.02732 10.37108,-3.39924 19.17464,-7.92004 19.98258,-10.26142 0.40444,-1.17206 2.2854,-2.83726 4.17991,-3.70046 l 3.44459,-1.56945 -3.32038,-2.6118 c -1.8262,-1.43648 -3.69922,-4.12129 -4.16226,-5.96621 -0.9191,-3.66195 -2.69578,-4.08507 -8.26392,-1.96807 -2.00552,0.76249 -9.58324,2.53721 -16.83939,3.94383 -15.26532,2.95917 -25.87925,7.55114 -31.62592,13.68252 -5.36425,5.72334 -5.18473,9.61344 0.69972,15.16318 5.22408,4.926948 12.0714,5.995038 18.10476,2.824108 z m 58.66152,-3.796328 c 3.193,-0.90927 6.37545,-2.15207 7.07212,-2.76178 0.69667,-0.6097 2.49667,-1.11865 4,-1.13098 1.50333,-0.012 7.83333,-2.10224 14.06667,-4.64424 6.23333,-2.542 12.14826,-4.63191 13.14429,-4.64424 3.3506,-0.0415 14.85571,-5.99034 14.85571,-7.6813 0,-0.92096 -0.69336,-1.67446 -1.54082,-1.67446 -0.84744,0 -3.54744,-1.53054 -6,-3.40119 -3.51457,-2.68069 -4.45918,-4.36097 -4.45918,-7.93196 V 9.9079191 l -4.6479,1.9420099 c -2.55633,1.0681 -7.80633,2.61141 -11.66666,3.42957 -3.86032,0.81816 -9.11878,2.53219 -11.68544,3.80895 -2.56667,1.27674 -7.96667,3.08402 -12,4.01616 -7.14562,1.6514 -18.34552,7.1301 -20.31292,9.93656 -2.20626,3.14716 -0.73471,7.02554 4.63666,12.22037 3.12194,3.01932 6.3638,5.312118 7.20414,5.095088 0.84033,-0.217008 4.14033,-1.138518 7.33333,-2.047778 z m 194.43986,-9.81 c 1.8912,-3.53384 8.5687,-7.23644 16.0323,-8.8898 2.5666,-0.56858 7.9666,-2.00626 12,-3.19483 6.8691,-2.02424 22.0653,-3.54425 58.6666,-5.86817 8.4334,-0.53546 13.5334,-1.07526 11.3334,-1.19956 -5.6188,-0.31746 -31.8919,-4.05954 -40.613,-5.78451 -4.0037,-0.79191 -11.5037,-1.64328 -16.6666,-1.89193 -11.6041,-0.55886 -45.9698,-3.0200499 -64.72044,-4.6351299 -7.7,-0.66323 -38,-1.55941 -67.33334,-1.99151 l -53.33333,-0.78563 -3.77825,3.94647 c -4.83504,5.0502899 -4.31517,9.1834199 1.66041,13.2007799 8.28624,5.57082 20.94332,8.43732 48.78451,11.04843 7.33333,0.68777 19.33333,1.85204 26.66666,2.58727 7.33334,0.73521 19.93334,1.97172 28,2.74776 8.06667,0.77605 18.26667,1.9111 22.66667,2.52236 15.26111,2.12006 18.69121,1.81885 20.63441,-1.812 z M 72.80426,30.322219 c 5.05765,-1.89729 14.29573,-4.55007 20.52907,-5.89505 17.18425,-3.70792 21.16316,-5.16927 22.8176,-8.38032 0.8336,-1.61792 2.79065,-4.37535 4.34901,-6.1276199 l 2.83339,-3.18596 -6,0.96903 c -3.3,0.53297 -11.1,1.47454 -17.33334,2.09239 -13.47864,1.3359999 -31.17168,4.4395799 -41.33333,7.2503799 -4.03333,1.11566 -8.87874,2.03558 -10.76758,2.04428 -3.96752,0.0183 -10.41391,6.05075 -8.48143,7.93683 2.07363,2.02384 15.63114,6.50613 20.05328,6.62988 2.27568,0.0637 8.27568,-1.43655 13.33333,-3.33384 z m 81.21392,-11.15937 c 7.7988,-1.50502 15.29569,-3.33368 16.65974,-4.0637 1.36406,-0.73001 4.00071,-1.3273 5.85923,-1.3273 2.26081,0 3.15435,-0.58582 2.69991,-1.77007 -0.37358,-0.97354 -0.0372,-3.4586399 0.74741,-5.5224499 l 1.42665,-3.75238 -19.0389,0.92542 c -27.77524,1.35005 -35.56496,2.77461 -40.18123,7.3482599 -5.32844,5.27924 -3.99761,8.31178 4.80579,10.9509 4.35057,1.30424 8.10896,1.69194 9.92248,1.02358 1.60559,-0.59173 9.30011,-2.30725 17.09892,-3.81226 z m 45.05193,3.10949 c 5.27811,-1.1914 12.4266,-3.5914 15.88556,-5.33333 3.45895,-1.74195 8.07353,-3.16716 10.25464,-3.16716 2.18109,0 4.33645,-0.6 4.78968,-1.33334 0.45323,-0.73333 1.83864,-1.33881 3.07869,-1.34552 1.24006,-0.007 5.18272,-1.4301599 8.76148,-3.1632299 l 6.50686,-3.15104 -18.50686,-1.02666 c -28.19132,-1.56391 -42.26105,-1.67394 -44.904,-0.35117 -5.63025,2.81791 -5.23286,13.5126999 0.695,18.7042899 3.20566,2.80749 1.81826,2.79024 13.43895,0.16716 z M 86.54545,363.77183 c -0.53486,-2.94169 -0.18305,-8.42901 0.62414,-9.73506 1.16385,-1.88316 8.32987,-2.1535 9.44068,-0.35616 0.42222,0.68316 -0.48446,2.11912 -2.01484,3.19104 -2.03197,1.42325 -2.30772,2.14454 -1.0223,2.67413 1.32066,0.54411 1.1139,1.24553 -0.82798,2.80896 -2.49313,2.00725 -5.94879,2.79712 -6.1997,1.41709 z m 5.09344,-2.80556 c -0.44307,-0.44305 -1.59306,-0.49041 -2.55556,-0.1052 -1.06365,0.42563 -0.7477,0.74158 0.80555,0.80555 1.40555,0.0579 2.19306,-0.25724 1.75001,-0.70029 z m 12.3611,2.43611 c 0,-1.08027 10.70682,-11.36817 11.25772,-10.81727 1.38326,1.38326 -1.01018,6.64452 -2.72358,5.98703 -0.98014,-0.37611 -2.13931,-0.10587 -2.57595,0.60068 -1.65133,2.67192 3.36639,2.71105 6.22427,0.0485 3.10626,-2.89392 5.15088,-3.5657 5.15088,-1.69238 0,2.04116 9.63314,0.34126 11.59624,-2.04632 2.10529,-2.56054 2.08488,-2.34726 -0.44228,4.62252 -0.71962,1.98465 -0.55018,1.95362 1.13394,-0.20766 1.307,-1.6773 2.9537,-2.28634 4.84472,-1.79184 1.57559,0.41203 3.151,0.28595 3.5009,-0.2802 0.34989,-0.56614 2.18225,-0.7338 4.07192,-0.37256 2.47049,0.47227 3.32226,1.37335 3.03182,3.20734 -0.22216,1.4028 -1.00393,2.37678 -1.73726,2.1644 -0.73334,-0.21239 -1.21667,-0.73615 -1.07408,-1.16392 0.1426,-0.42779 -0.57407,-0.77779 -1.59259,-0.77779 -1.01852,0 -1.73519,0.65 -1.59259,1.44445 0.35376,1.971 -18.88325,1.26267 -21.352,-0.78621 -1.45832,-1.21029 -1.78216,-1.15164 -1.46397,0.26517 0.30977,1.37935 -1.60643,1.84064 -7.92477,1.90776 -4.58334,0.0487 -8.33334,-0.0916 -8.33334,-0.31173 z m 50.00654,-0.28665 c -0.41995,-0.67948 -0.18702,-2.30983 0.51762,-3.62299 0.70466,-1.31317 1.60615,-3.43757 2.00334,-4.72091 0.76433,-2.46965 6.13917,-3.30408 6.13917,-0.95309 0,0.92892 0.8052,0.94932 2.4624,0.0624 1.64993,-0.88301 2.9225,-0.85775 3.85685,0.0765 0.97039,0.97039 2.22731,0.94872 4.13308,-0.0712 2.21085,-1.18321 3.00148,-1.0143 4.1026,0.87648 0.75379,1.29436 1.38212,1.59654 1.40452,0.67548 0.0223,-0.91666 1.66055,-1.66666 3.64055,-1.66666 2.8,0 3.24444,0.35556 2,1.6 -0.88,0.88 -1.6,2.65889 -1.6,3.95309 0,1.2942 -1.05,2.87879 -2.33334,3.52133 -2.59516,1.29932 -9.16536,1.20466 -10.52164,-0.15161 -0.48084,-0.48084 -2.13517,-0.62471 -3.6763,-0.31971 -8.43329,1.66904 -11.44161,1.85278 -12.12885,0.74079 z m 13.99346,-7.09532 c 0,-0.68298 -0.9,-0.49483 -2,0.41809 -1.1,0.91292 -1.98092,2.63639 -1.9576,3.82992 0.0356,1.82309 0.35541,1.75625 2,-0.41809 1.07668,-1.4235 1.9576,-3.14696 1.9576,-3.82992 z m 6.76043,1.57624 c 1.31045,-2.44863 1.18997,-2.55876 -1.32618,-1.21216 -1.52217,0.81464 -2.76758,2.39546 -2.76758,3.51294 0,2.51647 2.16762,1.29822 4.09376,-2.30078 z m 6.30886,2.217 c 0.38967,-0.38967 -0.5561,-0.70848 -2.10172,-0.70848 -1.5456,0 -3.16162,0.56864 -3.59116,1.26364 -0.7868,1.27305 4.36728,0.77044 5.69288,-0.55516 z M 61.33333,358.85513 c -12.73745,-5.3608 -21.55287,-6.99102 -27.38888,-5.06496 -2.63439,0.86942 -5.14959,1.22097 -5.58935,0.78121 -1.89807,-1.89807 1.87152,-2.77536 11.57693,-2.69427 7.88227,0.0659 12.12798,0.84916 17.56477,3.24059 3.94342,1.73456 9.86986,3.56116 13.16986,4.05912 l 6,0.90537 -6,0.0879 c -3.3,0.0484 -7.5,-0.5434 -9.33333,-1.31499 z m 125.33333,-16.47972 c -3.3,-1.71207 -7.02178,-3.14826 -8.2706,-3.19154 -1.24883,-0.0433 -3.94883,-0.75341 -6,-1.57805 -2.05118,-0.82464 -4.9294,-1.97515 -6.39607,-2.55668 -1.46667,-0.58153 -5.96666,-2.55673 -10,-4.38933 -4.03333,-1.8326 -9.73333,-4.0725 -12.66666,-4.97752 -2.93334,-0.90503 -9.23334,-3.00783 -14,-4.6729 -4.76667,-1.66505 -9.918,-3.38378 -11.44743,-3.8194 -1.52941,-0.43561 -7.11269,-4.8329 -12.40731,-9.77175 -7.77862,-7.25598 -9.77381,-9.93955 -10.3937,-13.97974 -0.42192,-2.75 -0.23864,-4.99862 0.40732,-4.99696 0.64594,0.001 1.24214,1.87696 1.32489,4.1673 0.11907,3.29485 2.02855,5.9878 9.14619,12.89868 8.73486,8.48113 9.50386,8.90302 26.51622,14.54749 9.63627,3.19717 19.92048,6.92574 22.85382,8.2857 9.9531,4.61451 22.16859,9.43112 23.91839,9.43112 2.46528,0 13.81056,5.14942 14.77174,6.70463 1.17616,1.90308 -0.63683,1.38529 -7.3568,-2.10105 z m 763.99996,-8.21188 c -7.3267,-2.67832 -11.7441,-12.77212 -9.3997,-21.47854 3.3577,-12.46959 18.8722,-15.93707 26.7122,-5.97015 3.4432,4.37731 3.7426,16.95734 0.5133,21.56783 -3.5189,5.0239 -12.2712,7.91135 -17.8258,5.88086 z m 10.7754,-6.87827 c 2.5025,-2.0264 3.0708,-3.78699 3.0708,-9.51343 0,-5.72644 -0.5683,-7.48702 -3.0708,-9.51342 -3.9082,-3.1646 -6.9976,-3.14705 -10.961,0.0623 -2.5745,2.08468 -3.1477,3.80594 -3.1477,9.45115 0,5.64522 0.5732,7.36648 3.1477,9.45114 3.9634,3.20934 7.0528,3.22689 10.961,0.0623 z m 18.8913,6.3282 c -3.0976,-0.8944 -4.3334,-2.04147 -4.3334,-4.0224 0,-2.09473 0.5696,-2.55052 2.3334,-1.8672 1.2833,0.4972 5.0533,1.22957 8.3777,1.62748 4.5639,0.54628 6.4782,0.20068 7.8158,-1.41103 2.7244,-3.28268 0.845,-5.87904 -5.4582,-7.54046 -8.9486,-2.35871 -11.7353,-4.68243 -11.7353,-9.78544 0,-7.43643 6.2788,-10.99729 16.6492,-9.44216 4.7002,0.70484 6.0174,1.45552 6.0174,3.42929 0,2.26602 -0.7274,2.44143 -7.0457,1.69883 -5.5201,-0.64877 -7.4241,-0.37227 -8.7928,1.27685 -2.7975,3.3708 -1.1154,5.32291 6.4802,7.52071 9.0418,2.61624 13.27358,7.53958 10.92028,12.70466 -1.67168,3.66883 -8.83078,7.38078 -13.85248,7.18232 -1.6735,-0.0661 -4.9928,-0.68329 -7.3761,-1.37145 z m 60.99998,0.55007 c -7.3268,-2.67832 -11.7441,-12.77212 -9.3997,-21.47854 3.3577,-12.46959 18.8722,-15.93707 26.7122,-5.97015 3.4432,4.37731 3.7425,16.95734 0.5132,21.56783 -3.5189,5.0239 -12.2712,7.91135 -17.8257,5.88086 z m 10.7753,-6.87827 c 2.5025,-2.0264 3.0708,-3.78699 3.0708,-9.51343 0,-5.72644 -0.5683,-7.48702 -3.0708,-9.51342 -3.9081,-3.1646 -6.9976,-3.14705 -10.961,0.0623 -2.5744,2.08468 -3.1477,3.80594 -3.1477,9.45115 0,5.64522 0.5733,7.36648 3.1477,9.45114 3.9634,3.20934 7.0529,3.22689 10.961,0.0623 z m 24.3253,5.93625 c -5.9864,-2.69144 -8.9468,-7.85736 -8.9468,-15.61222 0,-7.95052 3.3692,-13.0376 10.4095,-15.71716 6.5724,-2.50149 14.59,-0.71559 15.1743,3.38007 0.3839,2.69136 0.1289,2.76018 -5.0783,1.37033 -4.4179,-1.17923 -6.1711,-1.07687 -9.0289,0.52719 -4.3827,2.45992 -6.4778,8.99253 -4.7813,14.9079 1.7712,6.17595 6.8187,8.68968 13.7393,6.84245 4.8589,-1.2969 5.4116,-1.19904 5.4116,0.95831 0,3.01868 -0.9928,3.62031 -7.4605,4.52107 -3.1553,0.43944 -6.8736,-0.0245 -9.4389,-1.17794 z m 32.0515,0.3242 c -4.424,-2.14213 -5.8188,-6.89702 -5.8188,-19.83661 0,-11.04837 0.1986,-11.93726 2.6667,-11.93726 2.4575,0 2.6666,0.88889 2.6666,11.33333 0,9.55556 0.4183,11.75164 2.6667,14 1.4667,1.46666 3.8667,2.66666 5.3333,2.66666 1.4667,0 3.8667,-1.2 5.3334,-2.66666 2.2483,-2.24836 2.6666,-4.44444 2.6666,-14 0,-11.2 0.039,-11.33333 3.3334,-11.33333 h 3.3333 v 15.99999 16 h -3.3333 c -1.8334,0 -3.3334,-0.61541 -3.3334,-1.36757 0,-0.78391 -1.6789,-0.49937 -3.9337,0.66667 -4.4914,2.32254 -7.5092,2.44626 -11.5808,0.47478 z m 52.8479,0.61354 c -4.4582,-1.63924 -6.6667,-4.89584 -6.6667,-9.83063 0,-7.143 4.6154,-10.55679 14.2726,-10.55679 6.7337,0 7.2161,-0.21028 6.8201,-2.97317 -0.5969,-4.16588 -6.3433,-5.95572 -13.2243,-4.11905 -4.4763,1.1948 -5.5371,1.10299 -6.1651,-0.53357 -1.748,-4.55508 11.4501,-7.18346 18.7283,-3.72972 5.9598,2.82812 7.5684,7.26762 7.5684,20.88781 0,10.27666 -0.061,10.4677 -3.3333,10.4677 -1.8334,0 -3.3334,-0.56938 -3.3334,-1.26529 0,-0.69592 -2.0807,-0.39592 -4.6238,0.66667 -4.8384,2.02162 -6.7231,2.20666 -10.0428,0.98604 z m 12,-7.05408 c 1.4666,-1.46667 2.6666,-4.16667 2.6666,-6 0,-2.96728 -0.5531,-3.33334 -5.0366,-3.33334 -5.8924,0 -10.9634,3.0879 -10.9634,6.67602 0,5.29881 8.9151,7.07557 13.3334,2.65732 z M 907.99992,311.77183 v -21.99999 h 10.7693 c 10.125,0 11.0023,0.23313 14.6666,3.89744 3.0567,3.05665 3.8975,5.09221 3.8975,9.43589 0,4.34368 -0.8408,6.37924 -3.8975,9.43589 -3.262,3.26209 -4.9776,3.89744 -10.524,3.89744 -7.6141,0 -8.2452,0.82471 -8.2452,10.77572 0,6.10589 -0.2296,6.55761 -3.3333,6.55761 h -3.3334 z m 21.2903,-4.99999 c 1.8352,-3.29364 1.8352,-4.0397 0,-7.33334 -1.7108,-3.07024 -3.0663,-3.73277 -8.3334,-4.07305 l -6.2902,-0.40639 v 8.14611 8.1461 l 6.2902,-0.40638 c 5.2671,-0.34028 6.6226,-1.00281 8.3334,-4.07305 z m 82.70968,24.33333 c -2.2483,-2.24836 -2.6666,-4.44444 -2.6666,-14 0,-9.18519 -0.3791,-11.33333 -2,-11.33333 -1.1,0 -2,-0.9 -2,-2 0,-1.1 0.9,-2 2,-2 1.4501,0 2,-1.49179 2,-5.42607 0,-4.86439 0.3105,-5.38196 3,-5 2.4097,0.34224 3.0814,1.40977 3.4138,5.42607 0.4024,4.86165 0.5592,5 5.6667,5 3.7803,0 5.2528,0.56066 5.2528,2 0,1.44444 -1.4815,2 -5.3333,2 h -5.3334 v 11.25283 11.25286 l 4.9889,0.41381 c 3.4866,0.28921 5.1221,1.11647 5.4312,2.74716 0.6745,3.55925 -10.7925,3.29419 -14.4201,-0.33333 z m 128,-20 V 288.4385 h 3.3334 3.3333 v 22.66667 22.66666 h -3.3333 -3.3334 z m 53.3334,6.66666 v -15.99999 h 3.3333 c 1.8333,0 3.3333,0.55401 3.3333,1.23114 0,0.67712 1.8001,0.33315 4.0002,-0.76441 5.1578,-2.57307 8.5567,-1.87577 9.0906,1.86504 0.3768,2.63983 -0.017,2.88304 -3.5278,2.18083 -2.9529,-0.5906 -4.661,-0.0812 -6.7574,2.01517 -2.4118,2.41177 -2.8056,4.39632 -2.8056,14.13889 0,11.2 -0.039,11.33333 -3.3333,11.33333 h -3.3333 z M 962.79152,206.74836 c -6.6481,-2.40525 -9.9711,-7.61844 -9.9711,-15.64319 0,-11.9959 9.503,-19.45618 20.5625,-16.14264 5.9591,1.78536 8.663,5.15875 10.0001,12.47598 l 0.9137,5 h -12.9049 c -12.7524,0 -12.8946,0.0355 -12.0325,3 1.609,5.53308 5.9803,8.03818 12.6363,7.24144 3.3024,-0.39531 7.0543,-1.12555 8.3377,-1.62275 1.7457,-0.67636 2.3333,-0.23251 2.3333,1.76267 0,1.46666 -0.8233,2.9826 -1.8295,3.36873 -4.6222,1.77367 -13.8953,2.06132 -18.0456,0.55976 z m 14.5418,-20.30985 c 0,-3.13946 -4.9911,-7.33334 -8.7273,-7.33334 -3.3618,0 -9.9394,5.2541 -9.9394,7.9394 0,0.83694 3.7295,1.39394 9.3333,1.39394 7.4075,0 9.3334,-0.4127 9.3334,-2 z m 22.6666,21.05836 c -7.3267,-2.67832 -11.7441,-12.77212 -9.3997,-21.47854 3.3578,-12.4696 18.87218,-15.93708 26.71218,-5.97016 3.4432,4.37732 3.7426,16.95735 0.5133,21.56784 -3.5189,5.0239 -12.2712,7.91135 -17.82578,5.88086 z m 10.77538,-6.87827 c 2.5025,-2.0264 3.0708,-3.78699 3.0708,-9.51343 0,-5.72644 -0.5683,-7.48702 -3.0708,-9.51342 -3.9081,-3.1646 -6.9976,-3.14706 -10.96098,0.0623 -2.5744,2.08468 -3.1477,3.80595 -3.1477,9.45116 0,5.64522 0.5733,7.36648 3.1477,9.45114 3.96338,3.20934 7.05288,3.22689 10.96098,0.0623 z m 24.3253,5.93625 c -5.9864,-2.69144 -8.9468,-7.85736 -8.9468,-15.61222 0,-7.95052 3.3692,-13.0376 10.4095,-15.71716 6.5724,-2.5015 14.5899,-0.71559 15.1743,3.38006 0.3839,2.69136 0.1289,2.76019 -5.0783,1.37034 -4.418,-1.17923 -6.1711,-1.07687 -9.0289,0.52718 -4.3827,2.45992 -6.4778,8.99254 -4.7813,14.90791 1.7712,6.17595 6.8186,8.68968 13.7393,6.84245 4.8589,-1.2969 5.4115,-1.19904 5.4115,0.95831 0,3.01868 -0.9927,3.62031 -7.4605,4.52107 -3.1553,0.43944 -6.8735,-0.0245 -9.4388,-1.17794 z m 32.0514,0.3242 c -4.424,-2.14213 -5.8187,-6.89702 -5.8187,-19.83661 0,-11.04837 0.1985,-11.93727 2.6666,-11.93727 2.4576,0 2.6667,0.8889 2.6667,11.33334 0,9.55556 0.4183,11.75164 2.6667,14 1.4666,1.46666 3.8666,2.66666 5.3333,2.66666 1.4667,0 3.8667,-1.2 5.3333,-2.66666 2.2484,-2.24836 2.6667,-4.44444 2.6667,-14 0,-11.2 0.039,-11.33334 3.3333,-11.33334 h 3.3334 v 16 16 h -3.3334 c -1.8333,0 -3.3333,-0.61541 -3.3333,-1.36757 0,-0.78391 -1.6789,-0.49937 -3.9338,0.66667 -4.4913,2.32254 -7.5092,2.44626 -11.5808,0.47478 z m 52.8479,0.61354 c -4.4582,-1.63924 -6.6666,-4.89584 -6.6666,-9.83063 0,-7.143 4.6153,-10.55679 14.2725,-10.55679 6.7338,0 7.2161,-0.21028 6.8202,-2.97317 -0.597,-4.16588 -6.3433,-5.95572 -13.2244,-4.11905 -4.4763,1.1948 -5.537,1.10298 -6.1651,-0.53358 -1.7479,-4.55508 11.4502,-7.18345 18.7284,-3.72972 5.9598,2.82812 7.5684,7.26763 7.5684,20.88782 0,10.27666 -0.061,10.4677 -3.3334,10.4677 -1.8333,0 -3.3333,-0.56938 -3.3333,-1.26529 0,-0.69592 -2.0807,-0.39592 -4.6238,0.66667 -4.8385,2.02162 -6.7232,2.20666 -10.0429,0.98604 z m 12,-7.05408 c 1.4667,-1.46667 2.6667,-4.16667 2.6667,-6 0,-2.96728 -0.5531,-3.33334 -5.0366,-3.33334 -5.8925,0 -10.9634,3.0879 -10.9634,6.67602 0,5.29881 8.9151,7.07557 13.3333,2.65732 z M 895.99992,185.10517 v -22 h 10.7693 c 10.125,0 11.0023,0.23314 14.6666,3.89744 3.0567,3.05666 3.8975,5.09222 3.8975,9.4359 0,4.34368 -0.8408,6.37924 -3.8975,9.43589 -3.3759,3.37589 -4.8924,3.89744 -11.3333,3.89744 h -7.4359 v 8.66667 c 0,8.35556 -0.1196,8.66666 -3.3333,8.66666 h -3.3334 z m 21.2903,-5 c 1.8352,-3.29364 1.8352,-4.03969 0,-7.33333 -1.7108,-3.07024 -3.0663,-3.73277 -8.3334,-4.07305 l -6.2902,-0.40639 v 8.14611 8.1461 l 6.2902,-0.40638 c 5.2671,-0.34028 6.6226,-1.00282 8.3334,-4.07306 z m 13.3764,11 v -16 h 3.3333 c 1.8334,0 3.3334,0.55402 3.3334,1.23115 0,0.67712 1.8,0.33315 4.0001,-0.76441 5.1579,-2.57307 8.5567,-1.87578 9.0906,1.86504 0.3768,2.63982 -0.017,2.88304 -3.5278,2.18082 -2.9529,-0.5906 -4.661,-0.0812 -6.7574,2.01518 -2.4117,2.41177 -2.8055,4.39632 -2.8055,14.13889 0,11.2 -0.039,11.33333 -3.3334,11.33333 h -3.3333 z m 167.99998,-6.66666 v -22.66667 h 3.3333 3.3334 v 22.66667 22.66666 h -3.3334 -3.3333 z m 53.3333,6.66666 v -16 h 3.3334 c 1.8333,0 3.3333,0.55402 3.3333,1.23115 0,0.67712 1.8001,0.33315 4.0002,-0.76441 5.1578,-2.57307 8.5566,-1.87578 9.0906,1.86504 0.3767,2.63982 -0.017,2.88304 -3.5278,2.18082 -2.953,-0.5906 -4.661,-0.0812 -6.7574,2.01518 -2.4118,2.41177 -2.8056,4.39632 -2.8056,14.13889 0,11.2 -0.039,11.33333 -3.3333,11.33333 h -3.3334 z M 953.33332,55.771847 V 33.771849 h 3.3333 c 1.8333,0 3.3333,0.55401 3.3333,1.23114 0,0.67712 1.8052,0.33059 4.0116,-0.77008 5.3596,-2.67374 11.0636,-1.27841 15.2857,3.73926 2.7628,3.28342 3.3694,5.40762 3.3694,11.79968 0,6.392048 -0.6066,8.516248 -3.3694,11.799678 -4.2221,5.01766 -9.9261,6.413 -15.2857,3.73925 l -4.0116,-2.00121 v 7.23113 c 0,6.82433 -0.1875,7.23114 -3.3333,7.23114 h -3.3333 z m 20.7933,3.19334 c 1.7536,-1.93772 2.54,-4.78393 2.54,-9.193338 0,-7.31831 -3.2017,-12 -8.2066,-12 -5.3118,0 -8.4601,4.46565 -8.4601,12 0,4.888888 0.7111,7.377768 2.6667,9.333328 3.4552,3.45517 8.2596,3.39648 11.46,-0.13999 z m -91.1267,6.5854 c -4.852,-1.0866 -5.6666,-1.7574 -5.6666,-4.66653 0,-2.72275 0.4634,-3.20155 2.3333,-2.41076 12.2184,5.16708 21,3.21672 21,-4.664 0,-4.050148 -0.5518,-4.785998 -4.6667,-6.223068 -2.5666,-0.89637 -6.3683,-1.99572 -8.4481,-2.44297 -9.6939,-2.08464 -13.4602,-13.09947 -6.7674,-19.79223 6.2703,-6.27028 23.4171,-6.05154 24.331,0.31038 0.4103,2.85561 0.1238,3.02778 -3.3333,2.00292 -5.6222,-1.66671 -13.2303,-1.3437 -15.6499,0.66445 -1.1728,0.97328 -2.1323,3.20899 -2.1323,4.96824 0,3.43695 2.1013,4.73516 11.4926,7.10049 8.8336,2.22486 12.5074,5.89876 12.5074,12.507758 0,7.13826 -2.7728,11.06696 -9.0393,12.80732 -5.7577,1.59908 -8.2077,1.57422 -15.9607,-0.162 z m 38.8188,-0.005 c -4.424,-2.14167 -5.8188,-6.89656 -5.8188,-19.836148 0,-11.04837 0.1986,-11.93726 2.6667,-11.93726 2.4575,0 2.6667,0.88889 2.6667,11.33333 0,9.555558 0.4183,11.751638 2.6666,13.999998 1.4667,1.46667 3.8667,2.66667 5.3334,2.66667 1.4666,0 3.8666,-1.2 5.3333,-2.66667 2.2484,-2.24836 2.6667,-4.44444 2.6667,-13.999998 0,-11.2 0.039,-11.33333 3.3333,-11.33333 h 3.3333 v 16 15.999998 h -3.3333 c -1.8333,0 -3.3333,-0.61542 -3.3333,-1.36758 0,-0.7839 -1.6789,-0.49937 -3.9338,0.66667 -4.4913,2.32255 -7.5092,2.44627 -11.5808,0.47479 z m 99.51458,0.614 c -4.4582,-1.63924 -6.6667,-4.89584 -6.6667,-9.83063 0,-7.142998 4.6154,-10.556778 14.2726,-10.556778 6.7337,0 7.2161,-0.21028 6.8201,-2.97318 -0.5969,-4.16588 -6.3433,-5.95572 -13.2243,-4.11905 -4.4763,1.1948 -5.5371,1.10299 -6.1651,-0.53357 -1.748,-4.55508 11.4501,-7.18346 18.7283,-3.72972 5.9598,2.82812 7.5684,7.26762 7.5684,20.887808 0,10.27667 -0.061,10.46771 -3.3333,10.46771 -1.8334,0 -3.3334,-0.56939 -3.3334,-1.2653 0,-0.69592 -2.0807,-0.39592 -4.6238,0.66667 -4.8384,2.02163 -6.7231,2.20667 -10.0428,0.98604 z m 12,-7.05408 c 1.4666,-1.46667 2.6666,-4.16667 2.6666,-6 0,-2.967278 -0.5531,-3.333328 -5.0366,-3.333328 -5.8924,0 -10.9634,3.087888 -10.9634,6.676008 0,5.29881 8.9151,7.07557 13.3334,2.65732 z m 26.6666,7.05836 c -7.3267,-2.67832 -11.7441,-12.77212 -9.3997,-21.478528 3.3578,-12.4696 18.8722,-15.93708 26.7122,-5.97016 3.4432,4.37732 3.7426,16.957338 0.5133,21.567838 -3.5189,5.02389 -12.2712,7.91134 -17.8258,5.88085 z m 10.7754,-6.87827 c 2.5025,-2.0264 3.0708,-3.78698 3.0708,-9.513418 0,-5.72644 -0.5683,-7.48703 -3.0708,-9.51343 -3.9081,-3.1646 -6.9976,-3.14705 -10.961,0.0623 -2.5744,2.08468 -3.1477,3.80594 -3.1477,9.45116 0,5.645208 0.5733,7.366478 3.1477,9.451128 3.9634,3.20935 7.0529,3.22689 10.961,0.0623 z m 25.6586,5.93626 c -5.9864,-2.69144 -8.9468,-7.85736 -8.9468,-15.612228 0,-7.95052 3.3692,-13.0376 10.4095,-15.71716 6.5724,-2.50149 14.59,-0.71559 15.1743,3.38007 0.3839,2.69136 0.1289,2.76018 -5.0783,1.37033 -4.4179,-1.17923 -6.1711,-1.07687 -9.0289,0.52719 -4.3827,2.45992 -6.4778,8.99253 -4.7813,14.907898 1.7712,6.17595 6.8187,8.68968 13.7393,6.84246 4.8589,-1.29691 5.4116,-1.19904 5.4116,0.9583 0,3.01868 -0.9928,3.62031 -7.4605,4.52107 -3.1553,0.43944 -6.8736,-0.0245 -9.4389,-1.17793 z m 30.7181,0.3242 c -4.424,-2.14214 -5.8187,-6.89703 -5.8187,-19.836618 0,-11.04837 0.1985,-11.93726 2.6666,-11.93726 2.4576,0 2.6667,0.88889 2.6667,11.33333 0,9.555558 0.4183,11.751638 2.6667,13.999998 1.4666,1.46667 3.8666,2.66667 5.3333,2.66667 1.4667,0 3.8667,-1.2 5.3333,-2.66667 2.2484,-2.24836 2.6667,-4.44444 2.6667,-13.999998 0,-11.2 0.039,-11.33333 3.3333,-11.33333 h 3.3334 v 16 15.999998 h -3.3334 c -1.8333,0 -3.3333,-0.61542 -3.3333,-1.36758 0,-0.7839 -1.6789,-0.49937 -3.9338,0.66667 -4.4913,2.32255 -7.5092,2.44627 -11.5808,0.47479 z m 54.1813,0.61353 c -4.4582,-1.63924 -6.6667,-4.89584 -6.6667,-9.83063 0,-7.142998 4.6154,-10.556778 14.2726,-10.556778 6.7337,0 7.2161,-0.21028 6.8201,-2.97318 -0.597,-4.16588 -6.3433,-5.95572 -13.2243,-4.11905 -4.4763,1.1948 -5.5371,1.10299 -6.1651,-0.53357 -1.748,-4.55508 11.4501,-7.18346 18.7283,-3.72972 5.9598,2.82812 7.5684,7.26762 7.5684,20.887808 0,10.27667 -0.061,10.46771 -3.3333,10.46771 -1.8334,0 -3.3334,-0.56939 -3.3334,-1.2653 0,-0.69592 -2.0807,-0.39592 -4.6238,0.66667 -4.8384,2.02163 -6.7231,2.20667 -10.0428,0.98604 z m 12,-7.05408 c 1.4666,-1.46667 2.6666,-4.16667 2.6666,-6 0,-2.967278 -0.5531,-3.333328 -5.0366,-3.333328 -5.8924,0 -10.9634,3.087888 -10.9634,6.676008 0,5.29881 8.9151,7.07557 13.3334,2.65732 z M 991.99992,49.772179 v -16 h 3.3334 c 1.8333,0 3.3333,0.55401 3.3333,1.23114 0,0.67712 1.80008,0.33315 4.00018,-0.76441 5.1578,-2.57307 8.5566,-1.87577 9.0906,1.86504 0.3767,2.63983 -0.017,2.88304 -3.5278,2.18083 -2.953,-0.5906 -4.661,-0.0812 -6.7574,2.01517 -2.41178,2.41177 -2.80558,4.39632 -2.80558,14.138888 0,11.2 -0.039,11.33334 -3.3333,11.33334 h -3.3334 z m 167.99998,-6.66667 v -22.66667 h 3.3334 3.3333 v 22.66667 22.666668 h -3.3333 -3.3334 z m 52,6.66667 v -16 h 3.3334 c 1.8333,0 3.3333,0.55401 3.3333,1.23114 0,0.67712 1.8001,0.33315 4.0002,-0.76441 5.1578,-2.57307 8.5566,-1.87577 9.0905,1.86504 0.3768,2.63983 -0.017,2.88304 -3.5277,2.18083 -2.953,-0.5906 -4.6611,-0.0812 -6.7574,2.01517 -2.4118,2.41177 -2.8056,4.39632 -2.8056,14.138888 0,11.2 -0.039,11.33334 -3.3333,11.33334 h -3.3334 z"
     id="path4045"
     inkscape:connector-curvature="0" />
</svg>
