<?xml version="1.0" encoding="UTF-8" standalone="no"?>
<!-- Created with Inkscape (http://www.inkscape.org/) -->

<svg
   xmlns:dc="http://purl.org/dc/elements/1.1/"
   xmlns:cc="http://creativecommons.org/ns#"
   xmlns:rdf="http://www.w3.org/1999/02/22-rdf-syntax-ns#"
   xmlns:svg="http://www.w3.org/2000/svg"
   xmlns="http://www.w3.org/2000/svg"
   xmlns:sodipodi="http://sodipodi.sourceforge.net/DTD/sodipodi-0.dtd"
   xmlns:inkscape="http://www.inkscape.org/namespaces/inkscape"
   version="1.1"
   id="svg263"
   width="100%"
   viewBox="0 0 1008 456.30718"
   sodipodi:docname="slide3.svg"
   inkscape:version="0.92.5 (2060ec1f9f, 2020-04-08)">
  <metadata
     id="metadata269">
    <rdf:RDF>
      <cc:Work
         rdf:about="">
        <dc:format>image/svg+xml</dc:format>
        <dc:type
           rdf:resource="http://purl.org/dc/dcmitype/StillImage" />
        <dc:title></dc:title>
      </cc:Work>
    </rdf:RDF>
  </metadata>
  <defs
     id="defs267" />
  <sodipodi:namedview
     pagecolor="#ffffff"
     bordercolor="#666666"
     borderopacity="1"
     objecttolerance="10"
     gridtolerance="10"
     guidetolerance="10"
     inkscape:pageopacity="0"
     inkscape:pageshadow="2"
     inkscape:window-width="1920"
     inkscape:window-height="1043"
     id="namedview265"
     showgrid="false"
     fit-margin-top="0"
     fit-margin-left="0"
     fit-margin-right="0"
     fit-margin-bottom="0"
     inkscape:zoom="0.72500826"
     inkscape:cx="289.53578"
     inkscape:cy="55.717471"
     inkscape:window-x="0"
     inkscape:window-y="0"
     inkscape:window-maximized="1"
     inkscape:current-layer="svg263" />
  <path
     style="fill:#000000;stroke-width:1.33333337"
     d="M 522.65039,456.09656 C 522.29267,455.75818 511.2,455.1026 498,454.63974 c -32.02365,-1.12292 -71.20304,-3.34422 -75.33333,-4.27104 -5.62159,-1.26148 -77.80259,-3.17054 -132.9974,-3.51754 -28.78189,-0.18094 -52.33189,-0.779 -52.33333,-1.329 -0.001,-0.55 3.57857,-1 7.95556,-1 7.0283,0 7.85448,-0.27262 7.07088,-2.33333 -0.488,-1.28333 -2.33626,-3.47965 -4.10723,-4.88071 -2.80308,-2.21756 -3.14024,-3.37701 -2.60423,-8.95546 0.50727,-5.27923 1.76622,-7.76658 7.14634,-14.11931 3.59182,-4.24115 7.88754,-8.80923 9.54604,-10.15128 1.65849,-1.34207 2.7384,-2.88839 2.39977,-3.43628 -0.33861,-0.54791 -4.34599,-2.12563 -8.90525,-3.50607 -6.16044,-1.86522 -10.20074,-4.25721 -15.73038,-9.31286 -4.09242,-3.74164 -9.72141,-8.18374 -12.50886,-9.87134 -6.50628,-3.93906 -8.46583,-7.14824 -9.58795,-15.7023 -0.85099,-6.48714 -1.33176,-7.20638 -7.43527,-11.12298 -3.589,-2.30305 -9.17778,-4.98561 -12.41954,-5.96124 -3.24175,-0.97561 -8.443,-3.62028 -11.55834,-5.87701 -3.11533,-2.25673 -6.49813,-4.10316 -7.51732,-4.10316 -6.0019,0 -21.07622,-12.53411 -27.74682,-23.07115 -1.16159,-1.83485 -2.403,-1.45032 -9.63732,2.98527 -14.71343,9.02127 -17.83411,12.52457 -19.889,22.32767 -2.01184,9.59766 -2.12616,23.29214 -0.2373,28.42488 0.67468,1.83333 5.84271,7.65429 11.48454,12.93546 8.81848,8.25478 11.66252,10.06544 20.26846,12.90395 5.50584,1.816 11.81062,3.91539 14.01062,4.66529 2.2,0.74992 8.2,2.67319 13.33333,4.27394 5.13333,1.60073 9.63333,3.2804 10,3.73256 1.43879,1.77429 21.15187,9.81501 29.66897,12.10161 4.95128,1.32927 10.48016,3.38517 12.28643,4.56869 1.80627,1.18351 4.16981,2.15183 5.25233,2.15183 1.08252,0 2.36371,0.63992 2.8471,1.42204 1.73601,2.80892 -0.6946,2.85723 -5.3568,0.10653 -2.61206,-1.54114 -8.45168,-3.7615 -12.97696,-4.93412 -4.52528,-1.17261 -10.36378,-3.20092 -12.97443,-4.50734 -2.61065,-1.30642 -6.44649,-2.78439 -8.52409,-3.28439 -2.07759,-0.49999 -6.06323,-2.35201 -8.85696,-4.11563 -2.79374,-1.7636 -8.63635,-4.12822 -12.98359,-5.2547 -4.34724,-1.12648 -10.8616,-3.20555 -14.47636,-4.62015 -3.61477,-1.41459 -9.41697,-3.30252 -12.89379,-4.19537 -3.47681,-0.89287 -7.67681,-2.91814 -9.33333,-4.50059 -1.65652,-1.58247 -7.10303,-6.4154 -12.10336,-10.73987 -12.31155,-10.64749 -13.13993,-12.53685 -12.45764,-28.41289 0.30641,-7.12989 0.99452,-14.01345 1.52912,-15.29679 0.84028,-2.01714 0.17241,-2.33333 -4.92865,-2.33333 -9.3066,0 -19.481178,-3.64035 -24.889798,-8.90527 -2.65551,-2.58496 -7.1271,-5.87589 -9.93688,-7.31321 -2.80978,-1.43731 -7.90978,-5.47928 -11.33334,-8.98217 -3.42354,-3.50288 -8.24457,-7.75638 -10.71335,-9.4522 -2.46879,-1.69584 -5.506996,-5.35778 -6.751586,-8.13764 l -2.26287,-5.05431 -6.89421,3.93745 c -3.79181,2.16559 -7.93602,5.58067 -9.20935,7.58907 -1.27333,2.00839 -3.95426,5.75161 -5.95762,8.31828 -2.00337,2.56667 -5.56929,8.26667 -7.92427,12.66667 -8.96241,16.74516 -5.76069,42.85917 7.02937,57.33333 1.94403,2.2 5.54264,6.65289 7.99692,9.89532 2.45428,3.24243 6.19671,6.47056 8.31653,7.17363 2.11981,0.70306 4.92974,2.19921 6.2443,3.32477 2.29217,1.96261 10.575806,4.51305 29.234836,9.00107 4.76666,1.14652 11.66666,3.50956 15.33333,5.25118 3.66667,1.74164 9.518068,4.10214 13.003108,5.24556 3.48504,1.14342 8.72312,3.58559 11.64017,5.42704 2.91705,1.84146 6.69784,3.3481 8.40176,3.3481 3.51851,0 17.48237,6.58369 16.355,7.71106 -0.40556,0.40558 -2.08649,0.0875 -3.73539,-0.70696 -1.64889,-0.7944 -6.29798,-2.46732 -10.33132,-3.71761 -4.03333,-1.25029 -8.23333,-2.80267 -9.33333,-3.44972 -1.1,-0.64707 -3.34177,-1.75707 -4.98172,-2.46667 -1.63993,-0.70961 -5.50264,-2.50817 -8.58377,-3.99682 -3.08112,-1.48871 -6.316858,-2.70668 -7.190498,-2.70668 -0.87364,0 -4.99457,-1.55939 -9.15762,-3.4653 -6.96074,-3.18673 -25.56915,-8.48181 -29.938,-8.51896 -1.01839,-0.009 -6.718386,-2.3634 -12.666666,-5.23274 -9.21014,-4.44282 -11.66041,-6.37198 -16.5116,-13 -9.34732,-12.77094 -10.488,-13.8833 -13.18636,-12.85898 -4.73647,1.79802 -10.31899,8.29356 -12.02231,13.98856 -2.130099,7.12198 -2.276329,21.59894 -0.25765,25.5084 0.82709,1.60179 7.72709,9.01766 15.33333,16.47968 12.3386,12.10468 16.4899,16.90091 12.4871,14.42704 -0.73834,-0.45632 -3.13834,0.44914 -5.33334,2.01211 -3.46887,2.47005 -3.9909,2.55196 -3.9909,0.62615 0,-1.21859 1.2,-2.52942 2.66667,-2.91296 1.46666,-0.38355 2.66666,-0.9412 2.66666,-1.23926 0,-0.29804 -5.74392,-6.30452 -12.76426,-13.34773 C 8.215386,419.27831 1.915387,412.05308 1.235733,410.26546 0.55608,408.47783 0,402.66188 0,397.34112 c 0,-12.08556 4.781376,-22.80613 11.636386,-26.09057 5.14018,-2.46281 5.22626,-3.48495 1.56192,-18.54616 -3.42944,-14.09575 -2.87113,-21.77639 2.51476,-34.59519 5.02555,-11.96116 17.85722,-27.77452 26.15884,-32.23734 4.33229,-2.32898 5.9332,-3.91756 5.37468,-5.33334 -0.43749,-1.109 -1.12362,-7.41636 -1.52473,-14.01636 -0.63563,-10.45912 -0.35113,-12.85604 2.21558,-18.66666 4.55271,-10.30659 4.6188,-10.39802 10.855396,-15.01667 3.23061,-2.39251 6.67065,-5.00988 7.64453,-5.81641 4.23858,-3.51019 19.69931,-13.1618 21.08758,-13.16424 1.11169,-0.001 1.16805,-1.53831 0.20798,-5.66935 -4.42702,-19.04887 5.52776,-49.41728 19.484578,-59.44029 3.23681,-2.32451 6.2351,-4.22638 6.66288,-4.22638 0.42777,0 3.62968,-2.96573 7.11536,-6.5905 6.21804,-6.46619 6.33873,-6.75464 6.39797,-15.29019 0.048,-6.90976 0.63367,-9.32579 2.84676,-11.74283 1.53251,-1.67373 3.23328,-4.54314 3.77951,-6.37648 0.54621,-1.83333 3.77581,-6.933332 7.17688,-11.333332 3.40106,-4.4 7.21002,-9.60892 8.46436,-11.57536 1.25434,-1.96645 6.31216,-5.98983 11.23961,-8.94084 5.26228,-3.15152 8.16267,-5.59997 7.02908,-5.9338 -1.06144,-0.31259 -4.30847,-1.08921 -7.21561,-1.72584 -4.00646,-0.87736 -6.26531,-2.50923 -9.33334,-6.74269 -2.60804,-3.59875 -5.11272,-5.61416 -7.04232,-5.66667 -4.13817,-0.11253 -18.88256,5.07497 -23.3769,8.22475 -2.03772,1.42809 -5.65843,3.13592 -8.04603,3.79517 -6.20373,1.71293 -16.915708,8.80704 -16.915708,11.20259 0,1.11614 -1.12721,2.02936 -2.5049,2.02936 -1.53851,0 -3.15864,1.57825 -4.19939,4.09084 -0.93196,2.24996 -5.16933,7.76526 -9.41639,12.25624 -6.28124,6.641972 -8.13273,9.683092 -9.92388,16.300122 l -2.20197,8.13472 4.13596,8.5382 c 2.27477,4.696 4.58367,8.87006 5.13085,9.2757 3.82622,2.83636 14.97972,23.00292 14.97972,27.0847 0,2.51269 -7.04116,-8.9667 -8.31346,-13.55366 -0.69258,-2.49689 -2.73474,-6.09689 -4.53814,-8 -1.8034,-1.9031 -5.38961,-6.7602 -7.96936,-10.79353 -4.35172,-6.80373 -4.65757,-7.96968 -4.23514,-16.14488 0.47054,-9.10648 3.19193,-14.31808 13.0561,-25.003152 3.48778,-3.77802 8,-10.24841 8,-11.47173 0,-0.39247 -2.4683,-0.71357 -5.48513,-0.71357 -7.24764,0 -14.84047,-4.41402 -18.35768,-10.67206 -4.14,-7.36609 -3.66493,-12.5194 1.76496,-19.14586 l 4.58881,-5.60004 -3.58881,-1.53302 c -1.97385,-0.84316 -6.28882,-2.23278 -9.58882,-3.08805 -7.603676,-1.97066 -9.343716,-3.42977 -9.290936,-7.7909 0.0817,-6.75102 4.59418,-9.97428 15.957606,-11.39855 4.03334,-0.50553 11.83334,-2.04399 17.33334,-3.41879 14.58724,-3.64629 33.545528,-6.6748396 42.333918,-6.7627496 4.21634,-0.0422 14.56608,-1.2758 22.99941,-2.74137 C 155.1,4.2385384 164.7,2.7669684 168,2.4339484 182.49955,0.97073843 240.39316,-0.40260157 266,0.10920843 317.30086,1.1345784 399.09947,2.1040884 418,1.9107784 c 11.8626,-0.12133 22.41302,0.53553 28.94462,1.80206 5.65286,1.09614 12.3805,1.65178 14.9503,1.23476 2.5698,-0.41702 10.24472,0.18675 17.05539,1.3417 10.78649,1.82919 30.91836,3.04872 67.71636,4.1020796 5.5,0.15744 13,1.24119 16.66667,2.40833 3.66666,1.16714 13.56666,2.80593 22,3.64174 8.43333,0.83582 20.13333,2.41104 26,3.50049 18.45885,3.42785 24.92565,4.48789 40,6.55686 8.06666,1.10716 17.66666,2.87384 21.33333,3.92595 3.66667,1.05211 10.18933,2.30669 14.49481,2.78796 4.30547,0.48126 10.23091,1.72277 13.16763,2.7589 2.93672,1.03614 8.41407,1.88723 12.17187,1.89132 3.7578,0.004 9.13168,0.64591 11.94196,1.42627 2.81028,0.78036 9.11028,1.91033 14,2.51104 4.88972,0.60072 14.5904,2.31257 21.55706,3.80411 6.96667,1.49153 19.26667,3.64933 27.33334,4.79511 8.06666,1.14576 19.16666,3.32798 24.66666,4.84938 5.5,1.5214 12.7,3.2717 16,3.88955 3.3,0.61785 12.6,2.70067 20.66667,4.62849 8.06667,1.92782 17.96667,4.12138 22,4.87456 4.03333,0.75319 10.63333,2.58292 14.66667,4.06607 4.03333,1.48316 9.13333,3.16357 11.33333,3.73427 2.2,0.57068 7.73194,2.62224 12.29314,4.559 4.5612,1.93676 9.0966,3.52138 10.0785,3.52138 0.9819,0 5.1394,2.01975 9.2389,4.48834 4.0995,2.46858 9.1642,4.9153 11.2549,5.43714 2.0907,0.52184 5.6012,2.29627 7.8012,3.94315 2.2,1.646892 4.9,3.436732 6,3.977412 17.0461,8.37867 20.8328,11.14143 26.2044,19.11851 3.0457,4.52311 7.6214,10.05333 10.1682,12.28941 2.657,2.33288 7.5421,9.72508 11.46229,17.34491 L 1008,164.40034 v 14.6387 c 0,12.64652 -0.5606,16.41998 -4.1196,27.72759 -4.38959,13.94687 -11.65639,29.3654 -16.72309,35.48283 -1.698,2.05001 -3.6912,5.95001 -4.4294,8.66666 -0.7382,2.71666 -3.4177,7.93938 -5.9543,11.60604 -2.5367,3.66667 -6.2646,9.36667 -8.2841,12.66667 -2.0196,3.3 -5.3559,8.08671 -7.4141,10.63712 -2.0581,2.55043 -3.7421,5.446 -3.7421,6.43461 0,1.90458 -11.1713,17.05308 -13.1368,17.81376 -1.3446,0.52042 -15.5402,17.13588 -16.3305,19.11451 -0.293,0.73333 -0.9656,1.18904 -1.4946,1.01268 -0.5291,-0.17635 -4.0654,3.42365 -7.8586,8 -3.7931,4.57636 -9.7817,10.42065 -13.308,12.98732 -9.57538,6.96953 -16.65605,12.10277 -24.32129,17.63207 -3.78593,2.73096 -7.56316,5.53889 -8.39381,6.23982 -0.83067,0.70095 -6.23067,3.68563 -12,6.63264 -5.76935,2.94702 -11.80095,6.78339 -13.40357,8.52527 -2.48771,2.70389 -24.42206,11.76027 -36.41947,15.03709 -1.83333,0.50074 -7.53333,2.87252 -12.66667,5.27064 -10.20532,4.76759 -27.49369,9.36272 -39.94641,10.61748 -4.37053,0.44039 -10.67053,1.65543 -14,2.70008 -3.32948,1.04466 -11.75359,3.1859 -18.72025,4.75832 -6.96667,1.57243 -16.09859,4.29767 -20.29316,6.05611 -4.19456,1.75843 -8.99456,3.19745 -10.66667,3.19781 -1.67209,3.8e-4 -6.09019,1.15994 -9.81799,2.57682 -13.53164,5.14316 -62.80566,11.09272 -81.88885,9.88764 -9.03189,-0.57036 -15.72752,-0.193 -23.33333,1.31506 -5.86667,1.16324 -19.36667,2.4266 -30,2.80748 -10.63334,0.3809 -20.84067,1.04715 -22.68295,1.48059 -1.84229,0.43344 -3.64229,0.5112 -4,0.17281 z M 564,451.1437 c 4.76667,-0.76874 24.26667,-1.89259 43.33334,-2.49743 19.06666,-0.60485 37.06666,-1.74272 40,-2.5286 2.93333,-0.78589 8.03333,-1.70667 11.33333,-2.04616 3.3,-0.33951 7.68905,-1.277 9.75347,-2.08332 2.0644,-0.80631 5.3028,-1.46603 7.19644,-1.46603 1.89364,0 6.80457,-1.1537 10.9132,-2.56378 4.10862,-1.4101 11.97022,-3.91682 17.47022,-5.5705 5.5,-1.65368 14.30579,-4.39997 19.56843,-6.10288 5.26263,-1.70289 11.36356,-3.09617 13.55761,-3.09617 9.92102,0 10.68015,-3.68452 2.4278,-11.78359 l -5.77949,-5.67214 -11.22051,1.97745 c -6.17128,1.0876 -13.9205,2.589 -17.2205,3.33647 -3.3,0.74745 -9.3625,1.38514 -13.47222,1.41708 -4.10972,0.0319 -15.50972,1.29021 -25.33333,2.79617 -9.82361,1.50596 -24.76112,2.97216 -33.19445,3.25823 -8.43334,0.28606 -15.7306,0.55392 -16.21614,0.59522 -0.48554,0.0413 -1.26605,2.62511 -1.73448,5.74178 -1.47333,9.80297 -5.15254,21 -6.90036,21 -1.63701,0 -0.89288,-2.71342 3.47374,-12.66667 0.64345,-1.46667 1.52364,-5.21667 1.956,-8.33333 l 0.78609,-5.66667 -14.34909,-0.0509 c -11.85971,-0.0421 -41.89195,-1.97839 -72.3491,-4.66467 -3.3,-0.29107 -17.25,-0.92243 -31,-1.40304 l -25,-0.87384 -0.11653,7.16289 c -0.0641,3.93959 -0.94197,12.2629 -1.95077,18.49623 -1.77767,10.98425 -1.81716,11.06639 -1.2821,2.66667 0.30364,-4.76667 0.96051,-12.92122 1.45971,-18.12123 l 0.90763,-9.45455 -13.49024,-0.82186 c -7.41963,-0.45202 -14.61664,-1.4247 -15.99336,-2.1615 -1.67956,-0.89886 -11.00794,-0.87973 -28.35204,0.0581 -37.64183,2.03549 -43.28623,1.91294 -53.8489,-1.16911 -17.01441,-4.9646 -16.66666,-4.95937 -16.66666,-0.25051 0,3.0762 2.06344,6.65544 8.08565,14.0254 4.44711,5.44236 8.59033,9.89519 9.20717,9.89519 0.61684,0 3.62123,2.08843 6.6764,4.64096 5.57666,4.65916 13.24623,7.57477 20.69744,7.86819 2.2,0.0867 4.3103,0.56688 4.68954,1.0672 0.37924,0.50032 15.37924,1.56897 33.33333,2.37478 35.44831,1.59099 65.40148,3.69543 66.36899,4.66295 1.13512,1.13512 63.5511,-0.58563 72.27481,-1.99255 z M 380.26487,446.21919 C 367.29676,444.61986 340,419.24003 340,408.78195 c 0,-2.33219 -0.67008,-2.67693 -4.33333,-2.22941 -13.06061,1.59553 -18.96772,1.57929 -31.66667,-0.0871 -7.7,-1.01041 -16.4,-2.41592 -19.33333,-3.12336 -11.02471,-2.65885 -14.57623,-2.31333 -19.52307,1.89935 -9.28274,7.90509 -16.08372,17.4621 -16.76046,23.55253 -0.54391,4.89491 -0.1332,6.19839 2.82352,8.96059 1.903,1.77784 3.46001,3.99669 3.46001,4.93078 0,1.27516 3.57169,1.67876 14.33333,1.61968 28.13122,-0.15444 85.7599,1.19923 86.59472,2.03407 0.46735,0.46735 7.19972,0.75369 14.96084,0.63633 7.76111,-0.11733 12.1303,-0.45766 9.70931,-0.75625 z M 768,417.18248 c 4.76667,-1.07112 10.8576,-2.27397 13.5354,-2.67302 2.67779,-0.39904 7.77779,-2.28842 11.33334,-4.1986 3.55553,-1.91018 10.6646,-4.85347 15.79793,-6.54066 24.99099,-8.21384 33.68287,-12.04209 39.33333,-17.324 1.83334,-1.71374 5.58334,-4.05578 8.33334,-5.20453 4.81637,-2.01192 6.4474,-5.00092 3.66666,-6.71951 -0.73333,-0.45322 -1.33333,-1.49322 -1.33333,-2.3111 0,-0.81788 1.46427,-0.11147 3.25393,1.56984 l 3.25392,3.0569 5.07942,-3.05817 c 2.79366,-1.682 8.78181,-6.26197 13.30697,-10.17772 4.52516,-3.91575 9.92516,-7.86672 12,-8.77995 4.98376,-2.19357 14.9911,-9.33664 15.0552,-10.74614 0.028,-0.61216 4.8783,-6.06824 10.7788,-12.12463 5.9006,-6.05639 11.6873,-12.45553 12.8595,-14.22032 1.1721,-1.76479 5.2657,-6.50871 9.097,-10.54204 3.8313,-4.03333 11.087,-14.22467 16.1238,-22.64741 5.0368,-8.42276 10.7806,-17.16239 12.7641,-19.42142 1.9834,-2.25902 4.8721,-7.31866 6.4191,-11.24365 1.5471,-3.92497 3.9123,-8.68533 5.2559,-10.57859 12.8157,-18.05788 21.02789,-41.19388 22.39349,-63.089 l 0.7265,-11.64673 -6.3695,-13.01993 c -4.37649,-8.94612 -8.75529,-15.52968 -13.99479,-21.04112 -4.194,-4.41166 -8.0815,-9.51166 -8.6388,-11.33334 -1.8401,-6.01473 -4.6484,-7.97881 -11.4084,-7.97881 -3.4634,0 -8.3743,0.86789 -10.9131,1.92867 -2.5387,1.06076 -10.562,2.58837 -17.8295,3.39469 -17.2903,1.91835 -28.9192,4.46044 -29.5885,6.46805 -0.2957,0.88723 1.6177,3.99884 4.252,6.91471 2.6343,2.91585 4.7896,5.81733 4.7896,6.44772 0,0.63037 1.8644,3.47865 4.1431,6.32949 5.5822,6.98396 6.4215,9.5301 8.6093,26.11671 1.7642,13.37527 1.7226,14.74991 -0.666,22 -5.0347,15.28165 -6.9735,19.65072 -10.1139,22.79107 -3.834,3.83404 -3.3606,8.53601 1.7514,17.3978 3.2422,5.62038 3.3112,6.2608 2.3677,22 -1.1093,18.50336 -1.0331,27.75544 0.3144,38.21109 1.6569,12.85621 -0.042,24.0988 -4.6508,30.77443 -2.2373,3.24073 -5.6728,8.74224 -7.6344,12.22557 -2.3995,4.26104 -4.4405,6.33333 -6.2376,6.33333 -1.46907,0 -4.11051,1.43946 -5.86985,3.1988 -1.75934,1.75934 -4.88206,4.05664 -6.93939,5.10514 -12.53884,6.39021 -18.49279,9.68196 -19.11572,10.56845 -0.38965,0.55451 -4.12817,2.5738 -8.30784,4.48731 -4.17967,1.91352 -7.93481,4.02184 -8.34477,4.68518 -1.00668,1.62884 -21.26187,7.95512 -25.47034,7.95512 -1.84822,0 -5.86725,1.44134 -8.93117,3.20296 -11.97937,6.88767 -41.54361,15.52776 -69.23724,20.23447 l -14.33313,2.43601 3.9998,4.12676 c 2.19989,2.26971 3.99981,5.51632 3.99981,7.21467 0,2.91389 0.35693,3.04016 6.33333,2.24041 3.48334,-0.46612 10.23334,-1.72385 15,-2.79496 z M 615.21291,410.8555 c -0.26241,-3.11667 -2.05505,-10.76667 -3.98364,-17 -1.9286,-6.23334 -3.95923,-14.93334 -4.51252,-19.33334 -0.94317,-7.50057 -4.6754,-24.56958 -10.78696,-49.33333 -1.44785,-5.86667 -2.62437,-11.63759 -2.61447,-12.82427 0.0107,-1.26106 -3.65948,-4.3082 -8.8324,-7.33333 -7.14149,-4.17636 -13.453,-10.13928 -18.8033,-17.7648 -0.45904,-0.65425 -7.74666,1.65092 -15.20762,4.81039 -4.83888,2.0491 -4.86434,2.10264 -5.51276,11.58532 -0.97896,14.31693 -3.2918,25.38725 -8.24797,39.47872 -10.85089,30.85141 -14.01845,39.74385 -15.45281,43.3813 -0.57836,1.46667 -2.33342,6.86667 -3.90014,12 -1.5667,5.13334 -3.14629,10.03242 -3.51017,10.88686 -0.89325,2.09746 3.68184,3.38698 14.12324,3.9807 23.51125,1.33692 55.75364,2.64512 70.87363,2.87563 l 16.845,0.25681 z m 50.12043,2.84854 c 4.76666,-0.67726 15.9836,-2.12253 24.92653,-3.2117 8.94292,-1.08918 17.83199,-2.57803 19.75347,-3.30858 1.92148,-0.73054 6.065,-1.32826 9.20784,-1.32826 3.14282,0 7.67392,-0.68315 10.0691,-1.51812 4.24604,-1.48018 4.33427,-1.66842 3.53047,-7.53275 -0.87791,-6.40497 -1.60489,-8.06764 -9.45145,-21.6158 -2.76067,-4.76667 -10.788,-19.97208 -17.83852,-33.78981 -16.04782,-31.4508 -18.40916,-34.35219 -30.44554,-37.40863 -12.09068,-3.07023 -17.7519,-5.65764 -17.7519,-8.11332 0,-1.11187 -0.55396,-2.02157 -1.23103,-2.02157 -0.67708,0 -3.18033,-1.64023 -5.5628,-3.64494 -3.29379,-2.77154 -4.48196,-3.19436 -4.95857,-1.76452 -1.44099,4.32296 -11.74648,13.61719 -19.26422,17.37384 -7.05902,3.52744 -9.48156,4.03562 -19.2382,4.03562 -8.43644,0 -11.34044,0.46446 -11.89209,1.90202 -0.40143,1.04612 0.55495,6.29612 2.12529,11.66667 3.58158,12.24896 6.01088,22.17355 7.93843,32.43131 0.82681,4.4 2.07132,11 2.76557,14.66666 1.67658,8.85483 4.9115,22.43603 7.3045,30.66667 1.06606,3.66667 2.25553,8.27275 2.64328,10.23575 0.38774,1.96298 1.75458,3.86232 3.03741,4.22073 3.21667,0.89872 33.75624,-0.43857 44.33243,-1.94127 z M 514.01162,401.18883 c 1.51813,-5.13333 3.804,-11.69832 5.0797,-14.58887 1.27571,-2.89053 2.6702,-6.79053 3.09886,-8.66666 0.80693,-3.53175 7.2736,-21.35228 12.89917,-35.54696 1.7734,-4.47471 3.66205,-12.22302 4.19703,-17.21846 0.53496,-4.99544 1.80789,-11.83432 2.82872,-15.1975 3.44208,-11.34019 2.69922,-14.5286 -5.62064,-24.1247 -4.16351,-4.80217 -9.20996,-9.18801 -11.33334,-9.84973 -3.69953,-1.15291 -5.30753,-3.47379 -2.4068,-3.47379 3.16746,0 7.61687,3.33574 14.57902,10.92996 l 7.33333,7.9991 L 554,288.46996 c 5.13334,-1.63969 9.52415,-3.13954 9.75738,-3.33301 0.23322,-0.19347 -0.51678,-3.51984 -1.66667,-7.39195 -2.81045,-9.46384 -2.63433,-19.76354 0.47804,-27.95462 2.37627,-6.25382 2.40124,-6.82402 0.33333,-7.60946 -1.22948,-0.46698 -6.10057,-4.12208 -10.82465,-8.12244 l -8.58923,-7.27337 -3.7441,4.48483 c -2.05926,2.46665 -3.7441,4.88368 -3.7441,5.37114 0,1.13034 -15.63153,29.16388 -17.55234,31.47831 -1.04324,1.25704 -0.97543,2.29689 0.24576,3.76833 2.30386,2.776 0.6217,4.06178 -3.02876,2.31504 -4.75162,-2.27362 -25.7249,-5.57965 -40.99799,-6.46252 -7.97211,-0.46084 -19.74085,-2.26965 -27.33333,-4.20104 -8.09799,-2.05997 -19.61575,-3.77473 -29.33334,-4.36714 -8.8,-0.53648 -18.4,-1.32172 -21.33333,-1.745 -2.93333,-0.42327 -9.83333,-1.34507 -15.33333,-2.04844 -5.5,-0.70338 -12.4,-1.91951 -15.33334,-2.70251 -2.93333,-0.78301 -7.08226,-1.43797 -9.21986,-1.45547 -5.60832,-0.0459 -27.57474,-8.60761 -39.42707,-15.36725 -3.23916,-1.84736 -3.43149,-1.70383 -8.56136,6.38948 -5.09972,8.04572 -13.88179,17.24833 -26.09475,27.34435 -13.76224,11.37674 -19.89576,18.82002 -22.55485,27.37121 -3.0594,9.83849 -3.71116,6.41157 -0.73057,-3.84128 2.00456,-6.89544 11.03756,-18.45408 16.76644,-21.45436 4.25173,-2.22667 25.89054,-23.908 30.23929,-30.29868 4.34404,-6.38379 4.3762,-6.53851 1.9396,-9.33333 -1.36271,-1.56307 -3.27427,-5.24195 -4.24791,-8.17528 -0.97362,-2.93334 -2.52805,-6.23334 -3.45426,-7.33334 -0.92622,-1.1 -3.18758,-5 -5.02524,-8.66666 -1.83768,-3.66667 -4.60608,-7.80966 -6.152,-9.20666 -1.54594,-1.39698 -2.81079,-3.34698 -2.81079,-4.33333 0,-0.98633 -0.61087,-1.79335 -1.35748,-1.79335 -0.74661,0 -3.42447,-4.35 -5.95077,-9.66666 -9.5067,-20.00698 -28.66172,-46.1895 -38.02508,-51.97551 -2.56667,-1.58605 -4.96667,-3.2154 -5.33334,-3.62077 -1.6197,-1.79072 -9.01704,-6.35948 -12.72186,-7.85732 -2.25812,-0.91296 -5.1578,-3.68692 -6.5433,-6.25962 -1.36845,-2.54106 -3.05196,-4.62012 -3.74112,-4.62012 -0.68916,0 -3.82614,2.86194 -6.97108,6.35986 -3.14493,3.49793 -7.22054,7.16397 -9.05692,8.14677 -1.83637,0.98279 -4.14534,3.37085 -5.13105,5.3068 -0.98569,1.93595 -3.67697,6.32853 -5.9806,9.76131 -4.61645,6.87924 -9.08017,22.61977 -8.11064,28.60073 0.34099,2.10349 1.54797,5.62453 2.68219,7.82453 1.1342,2.2 4.65244,9.36942 7.81829,15.93204 3.16585,6.56262 6.77728,13.76262 8.02539,16 1.4815,2.65579 2.29152,7.17611 2.33333,13.02136 0.0352,4.92438 0.90164,11.52438 1.92539,14.66667 1.02374,3.14229 2.61828,9.00791 3.54342,13.03468 1.60399,6.98149 6.55848,16.56881 12.51102,24.20973 1.51298,1.94214 5.31833,7.12263 8.45632,11.5122 3.13798,4.38959 8.23798,9.64742 11.33333,11.68407 3.09535,2.03665 8.29183,5.52525 11.54773,7.75247 3.25592,2.2272 6.93516,3.97297 8.1761,3.87949 1.79793,-0.13543 2.37857,1.30533 2.85852,7.09296 0.36778,4.43492 1.42088,7.90241 2.70458,8.90529 1.15626,0.90331 4.91588,7.03166 8.35472,13.61856 3.43886,6.5869 7.89906,14.0869 9.91158,16.66667 2.01252,2.57976 4.20262,5.65956 4.8669,6.84399 0.66427,1.18444 7.11812,8.46321 14.3419,16.17505 12.15252,12.97359 13.5711,14.07079 18.98077,14.68053 3.21564,0.36246 7.43944,1.78368 9.38621,3.1583 1.94678,1.3746 4.50543,3.07524 5.68591,3.77918 1.18047,0.70395 3.64631,2.23792 5.47964,3.40883 1.83333,1.17091 6.63333,2.83357 10.66667,3.69481 22.86577,4.88252 26.95112,5.61646 31.26321,5.61646 2.60523,0 4.73679,-0.50959 4.73679,-1.1324 0,-1.67279 53.08161,-2.89752 57.22637,-1.32038 5.31301,2.02168 26.70765,3.46286 48.73265,3.2827 l 19.95902,-0.16326 z M 303,302.30579 c -0.91666,-0.36988 -1.66666,-1.51104 -1.66666,-2.53589 0,-1.44055 1.3573,-1.67735 5.98141,-1.04355 7.07893,0.97028 10.01859,-0.85015 10.01859,-6.20419 0,-5.15593 -2.96723,-7.1563 -9.3461,-6.30072 l -5.32057,0.71364 v -7.20646 -7.20646 h 8.66667 c 6.81481,0 8.66666,0.42735 8.66666,2 0,1.48148 -1.55556,2 -6,2 -5.1111,0 -6,0.39507 -6,2.66667 0,2.08292 0.8889,2.66667 4.0606,2.66667 5.41907,0 10.60607,5.21664 10.60607,10.66666 0,6.27463 -5.13385,10.69262 -12.27273,10.5614 -3.15,-0.0579 -6.47727,-0.40789 -7.39394,-0.77777 z M 221.33334,213.18883 V 197.8555 h 7.79334 c 9.01623,0 12.6511,2.70481 12.6511,9.41402 0,5.32696 -2.84904,7.95907 -9.59434,8.8638 -5.51194,0.73931 -5.51677,0.74506 -5.51677,6.5644 0,4.93555 -0.40697,5.82444 -2.66667,5.82444 -2.51208,0 -2.66666,-0.88889 -2.66666,-15.33333 z m 13.90476,-2.76191 c 4.05857,-4.05857 1.5113,-8.57142 -4.8381,-8.57142 -3.46666,0 -3.73333,0.38094 -3.73333,5.33333 0,4.75817 0.3492,5.33333 3.23809,5.33333 1.78096,0 4.18096,-0.94285 5.33334,-2.09524 z m 11.42857,2.76191 V 197.8555 h 7.79335 c 9.01622,0 12.65109,2.70481 12.65109,9.41402 0,5.32696 -2.84904,7.95907 -9.59433,8.8638 -5.51195,0.73931 -5.51678,0.74506 -5.51678,6.5644 0,4.93555 -0.40697,5.82444 -2.66666,5.82444 -2.51208,0 -2.66667,-0.88889 -2.66667,-15.33333 z m 13.90476,-2.76191 c 4.05857,-4.05857 1.51131,-8.57142 -4.83809,-8.57142 -3.46667,0 -3.73334,0.38094 -3.73334,5.33333 0,4.75817 0.3492,5.33333 3.2381,5.33333 1.78096,0 4.18096,-0.94285 5.33333,-2.09524 z m 77.23667,194.2678 c 2.06497,-0.81217 1.58121,-1.37628 -2.92147,-3.4067 -2.96792,-1.33835 -5.67833,-3.16852 -6.02313,-4.06706 -0.3448,-0.89853 -4.65083,-2.77334 -9.56896,-4.16625 -7.65575,-2.16824 -9.86432,-3.53949 -15.35343,-9.53255 -3.52625,-3.85 -7.20556,-7.00586 -8.17624,-7.01302 -0.97068,-0.007 -4.97444,-1.50716 -8.89727,-3.33334 -3.92281,-1.82617 -8.14304,-3.3203 -9.37829,-3.3203 -1.23524,0 -5.50543,-2.1 -9.48931,-4.66667 -3.98388,-2.56667 -8.03793,-4.66667 -9.00902,-4.66667 -1.70104,0 -8.32846,-4.21653 -12.05023,-7.66666 -0.98884,-0.91667 -2.959,-1.66667 -4.37813,-1.66667 -1.41914,0 -3.88448,-1.5 -5.47855,-3.33333 -1.59407,-1.83334 -3.718,-3.33334 -4.71987,-3.33334 -1.00185,0 -2.84365,-1.78744 -4.09288,-3.97209 -1.24922,-2.18464 -3.92408,-4.65859 -5.94412,-5.49763 -3.99577,-1.65969 -11.62752,-9.63582 -11.71472,-12.24334 -0.0299,-0.89115 -1.8298,-3.6976 -4,-6.23658 -2.1702,-2.53896 -3.94581,-5.28334 -3.94581,-6.09862 0,-0.8153 -2.10229,-4.43796 -4.67176,-8.05038 -2.56947,-3.61241 -5.33823,-8.66802 -6.1528,-11.23469 -0.81457,-2.56667 -4.02283,-7.36667 -7.12947,-10.66667 -6.00553,-6.37934 -14.65552,-20.84116 -18.17332,-30.3838 l -2.12734,-5.77078 -3.99094,4.54542 c -6.14438,6.99807 -10.38578,16.7416 -10.27716,23.60916 0.0523,3.3 0.3929,12.6 0.7571,20.66667 0.61706,13.66719 0.94236,15.07555 4.77345,20.66667 5.91184,8.6278 12.12036,14.1256 18.99224,16.8181 3.3,1.29299 10.39957,4.93787 15.77684,8.09972 5.37725,3.16187 10.53508,5.74884 11.46181,5.74884 2.21459,0 10.28155,4.03252 12.53551,6.26627 2.15911,2.13975 4.22584,1.09396 4.22584,-2.13831 0,-2.58844 4.86443,-7.70797 6.12559,-6.44682 0.42674,0.42674 -0.48378,2.4797 -2.02339,4.56213 -3.92616,5.31043 -4.39928,9.34759 -2.04635,17.46179 1.79596,6.19348 3.03551,7.76642 10.3259,13.10308 4.5567,3.33557 8.80532,7.17058 9.44136,8.52225 2.16792,4.60707 17.24942,10.73168 31.27176,12.69949 7.1629,1.00522 14.79685,2.55786 16.9643,3.45034 2.16746,0.89246 6.94083,2.04004 10.6075,2.55016 9.01026,1.25354 35.40112,1.35108 38.47476,0.14218 z m 415.21972,-2.84418 c 5.30248,-1.46939 13.86612,-3.27087 19.03029,-4.00328 5.16419,-0.73242 12.81372,-2.5644 16.99899,-4.0711 4.18526,-1.50669 10.00957,-3.26882 12.9429,-3.91585 6.9248,-1.52744 24.55495,-10.16224 25.43584,-12.45783 0.72894,-1.89956 -9.41533,-22.45574 -14.91012,-30.21365 -1.81792,-2.56667 -6.2938,-9.16667 -9.94638,-14.66667 -9.83988,-14.81672 -13.90906,-20.24978 -18.28023,-24.40734 -4.58255,-4.35862 -5.03348,-4.40602 -52.96577,-5.5681 -16.86667,-0.40892 -31.71667,-1.07216 -33,-1.47386 C 697.05,300.67114 696,300.9233 696,301.63319 c 0,0.70991 -2.14429,1.80033 -4.7651,2.42319 l -4.76511,1.13245 4.4002,6 c 6.08059,8.29136 10.58496,16.54157 30.21037,55.33333 1.11303,2.2 3.63204,6.4 5.59782,9.33334 4.32776,6.45789 7.98849,16.91125 7.98849,22.81145 0,4.28579 0.63588,4.77596 7.36013,5.67364 0.74807,0.0999 5.69854,-1.02065 11.00102,-2.49005 z m 89.41144,-26.03758 c 4.89174,-1.85673 10.69408,-4.35324 12.89408,-5.5478 2.2,-1.19454 7,-3.77293 10.66666,-5.72973 15.68984,-8.37327 25.66864,-14.13136 30.53339,-17.6188 2.86003,-2.05029 5.73512,-3.7278 6.38908,-3.7278 3.16234,0 10.48694,-10.58565 16.58854,-23.97385 2.369,-5.19827 2.8316,-18.03979 1.1897,-33.02615 -1.2579,-11.48167 -0.8485,-11.34825 -17.62484,-5.74399 -9.1936,3.07118 -15.07092,4.08658 -27.07587,4.67772 -8.43333,0.41528 -18.93333,1.3466 -23.33333,2.0696 -4.4,0.72302 -11.60023,1.31803 -16.00049,1.32228 -10.8918,0.0107 -36.3718,5.64736 -44.32379,9.8056 -6.78341,3.54716 -11.00905,4.92868 -11.00905,3.59928 0,-1.58946 13.76314,-8.06382 17.14202,-8.06382 3.30783,0 6.85042,-5.71551 11.33602,-18.28922 1.88804,-5.2924 4.96292,-12.04641 6.83306,-15.0089 1.87015,-2.96251 5.56091,-9.57462 8.20168,-14.69358 4.83828,-9.37864 19.93398,-25.34164 23.96476,-25.34164 1.02068,0 1.85579,-0.51037 1.85579,-1.13417 0,-2.47749 20.78691,-6.09323 35.33333,-6.14597 13.4506,-0.0488 15.24103,0.24873 21.59381,3.58824 l 6.9272,3.64142 2.5679,-3.64142 c 9.4883,-13.45526 12.1657,-25.28483 10.2308,-45.20234 -1.4008,-14.42005 -1.6052,-15.06632 -7.5786,-23.96274 -3.3764,-5.02866 -7.6101,-10.72756 -9.4082,-12.66423 -1.7981,-1.93667 -3.6156,-4.42371 -4.0389,-5.52675 -1.1165,-2.90952 -17.6529,-11.42136 -26.86733,-13.82949 -4.34865,-1.13651 -8.84865,-2.5442 -10,-3.12824 -1.15134,-0.58403 -5.69334,-2.07332 -10.09334,-3.30953 -4.4,-1.23622 -9.8,-2.848 -12,-3.58176 -4.14851,-1.38362 -12.76296,-3.43054 -46.66667,-11.088632 -31.68833,-7.15769 -40.23267,-8.50661 -43.1702,-6.81543 -5.94067,3.42016 -33.50189,22.397802 -34.22313,23.564792 -0.43318,0.70089 -3.20654,2.50841 -6.16302,4.01669 -2.95648,1.50828 -7.86577,5.00031 -10.90953,7.76004 -3.04377,2.75974 -9.73412,8.15675 -14.86745,11.99336 C 686.2,138.8926 680.2,143.47742 678,145.24446 c -2.2,1.76704 -7.98161,6.40881 -12.84804,10.31506 -4.86642,3.90624 -10.26642,8.04947 -12,9.20716 -2.91474,1.94651 -2.99366,2.29246 -1.04865,4.59687 4.05029,4.79869 5.32677,13.52556 5.48187,37.47768 l 0.15333,23.68093 4.87544,4.66667 c 2.68148,2.56667 7.48287,8.86667 10.66973,14 3.18687,5.13333 7.70015,11.14721 10.02951,13.36417 2.32937,2.21696 5.34617,7.01696 6.70401,10.66667 1.35784,3.64971 3.25946,7.81933 4.2258,9.26584 0.96635,1.44649 1.757,4.25744 1.757,6.24653 0,7.04044 2.13092,10.13483 7.58379,11.01271 4.73547,0.76239 61.19073,2.56815 70.68349,2.26087 4.05727,-0.13134 13.73272,4.37673 13.73272,6.39846 0,0.52352 2.6554,3.91426 5.90088,7.53496 3.24548,3.62072 7.85239,9.88312 10.23756,13.91646 2.38516,4.03333 6.61819,10.44225 9.40672,14.24204 2.78852,3.7998 6.07292,9.4998 7.29866,12.66666 1.22573,3.16688 3.26233,6.95796 4.52577,8.42463 3.29832,3.82884 5.29708,8.07221 5.29708,11.24568 0,3.51876 1.0042,3.46575 11.77259,-0.62155 z m -552.55036,-7.4019 c -7.39343,-7.81591 -8.4104,-9.08959 -14.47024,-18.12267 -3.34692,-4.98911 -6.08532,-9.80085 -6.08532,-10.69279 0,-0.89192 -1.55623,-3.89833 -3.45827,-6.68089 C 260.89975,325.63618 256,315.67403 256,312.8368 c 0,-1.5172 -2.79337,-4.18257 -7.38264,-7.04433 -9.0212,-5.62541 -20.78254,-15.20921 -22.47506,-18.31392 -0.68652,-1.25935 -2.64939,-3.61107 -4.36192,-5.22605 -1.71255,-1.61499 -3.11371,-3.47199 -3.11371,-4.12668 0,-0.6547 -1.26229,-2.33272 -2.80511,-3.72895 -1.54281,-1.39621 -3.8518,-4.5788 -5.13109,-7.07239 l -2.32597,-4.5338 -0.84042,5.25566 c -0.68649,4.29306 -1.95168,6.03894 -6.90789,9.5324 -6.14573,4.33192 -8.65619,5.23248 -8.65619,3.10518 0,-0.64436 1.82034,-1.92558 4.04519,-2.84714 5.00763,-2.07423 9.28815,-7.33527 9.28815,-11.41574 0,-1.69116 0.64512,-3.47354 1.43361,-3.96085 0.92571,-0.57212 0.45683,-1.92575 -1.32351,-3.82081 -1.6518,-1.75828 -3.07642,-5.57715 -3.55364,-9.52602 -0.4381,-3.62516 -1.58932,-9.2912 -2.55825,-12.5912 -0.96893,-3.3 -2.11155,-10.26865 -2.53913,-15.4859 -0.84395,-10.29758 -3.38859,-17.77694 -7.41948,-21.80783 -1.41108,-1.41108 -3.22312,-5.00743 -4.02675,-7.99188 -0.80364,-2.98445 -3.22009,-8.63131 -5.36989,-12.54855 -2.14982,-3.91725 -3.47395,-7.6221 -2.94252,-8.23302 0.53142,-0.61092 -0.83378,0.34365 -3.03378,2.12126 -2.2,1.77762 -5.94337,5.40827 -8.31862,8.06812 -3.94594,4.41875 -4.44471,5.99516 -5.77979,18.26739 -1.51053,13.88504 -0.3682,24.72879 3.40024,32.27708 0.91528,1.83333 1.987,5.86317 2.3816,8.9552 1.05773,8.28808 13.62717,31.87096 21.46992,40.28201 1.75876,1.8862 5.7118,7.92946 8.78453,13.42946 14.63702,26.19937 21.20154,35.72038 26.79647,38.8649 2.74507,1.54282 5.63239,4.21278 6.41629,5.93326 0.78391,1.72048 3.5457,4.0141 6.13732,5.09694 2.59163,1.08286 4.71204,2.59944 4.71204,3.37019 0,0.77076 1.2,1.40137 2.66667,1.40137 1.46667,0 3.84699,1.18032 5.28961,2.62295 2.29958,2.29957 15.42362,9.24624 34.71039,18.37251 3.3,1.56152 7.15,2.87634 8.55556,2.92184 2.21149,0.0716 2.03199,-0.47078 -1.33333,-4.0284 z m -56.55556,-37.81922 c 0,-2.98996 -0.57823,-3.29745 -6.8952,-3.66666 -3.79236,-0.22166 -7.10847,-1.05135 -7.36914,-1.84376 -0.26066,-0.79242 2.53006,-6.04242 6.20162,-11.66667 5.40178,-8.27472 7.31672,-10.22592 10.0358,-10.22592 3.29276,0 3.36025,0.20085 3.36025,10 0,8 0.4,10 2,10 1.1,0 2,0.9 2,2 0,1.1 -0.9,2 -2,2 -1.24444,0 -2,1.25925 -2,3.33333 0,2.44444 -0.71111,3.33334 -2.66667,3.33334 -1.94037,0 -2.66666,-0.8889 -2.66666,-3.26366 z m -0.009,-15.06968 -0.009,-7.66666 -2.72108,4 c -1.4966,2.2 -3.60805,5.65 -4.69212,7.66666 l -1.97104,3.66667 h 4.70091 4.7009 l -0.009,-7.66667 z m -62.324,-79.88304 c -0.91666,-0.36988 -1.66666,-1.5497 -1.66666,-2.62182 0,-1.50495 1.0618,-1.75011 4.6579,-1.07548 2.56184,0.48061 6.09567,0.51297 7.85294,0.0719 6.78884,-1.70389 5.19554,-9.68898 -2.0766,-10.40724 -5.72428,-0.56537 -6.43522,-3.45386 -0.98298,-3.99382 5.138,-0.50884 8.28496,-4.44276 5.2154,-6.51963 -1.1,-0.74427 -4.58046,-1.09745 -7.73436,-0.78487 -4.7623,0.472 -5.66426,0.19928 -5.32084,-1.60884 0.53644,-2.8244 12.69192,-3.76734 15.92056,-1.23502 3.63822,2.85354 4.2498,7.27601 1.40028,10.12553 -2.46414,2.46415 -2.4661,2.58199 -0.0683,4.07951 2.49208,1.55633 3.32742,7.5064 1.44882,10.31986 -2.52428,3.78046 -13.16218,5.86276 -18.64625,3.6499 z m -47.30521,91.02046 c 1.45853,-3.20114 7.41205,-8.34812 13.64728,-11.79846 11.79747,-6.52826 11.96432,-6.70648 12.17665,-13.00562 0.43798,-12.99274 -1.18394,-29.33334 -2.91154,-29.33334 -2.43063,0 -15.39106,-6.76914 -19.1479,-10.00082 -2.13073,-1.83288 -4.35376,-3.33251 -4.94008,-3.33251 -0.5863,0 -4.70181,-4.65 -9.14554,-10.33333 -4.44375,-5.68334 -10.82002,-13.63334 -14.169478,-17.66667 -3.34947,-4.03333 -6.69935,-8.98333 -7.44416,-11 -0.74482,-2.01667 -2.34552,-3.66228 -3.55712,-3.65691 -1.21159,0.005 -7.65095,3.75536 -14.30967,8.33334 -6.65872,4.57796 -13.25873,8.96617 -14.66668,9.75158 -1.40794,0.7854 -4.83012,5.5854 -7.604836,10.66667 -4.99152,9.14083 -5.03685,9.35865 -4.28097,20.57199 0.93673,13.89621 3.51591,22.25026 8.330726,26.98366 2.01402,1.97996 6.96187,6.8896 10.9952,10.91032 4.03333,4.02072 9.73333,8.29202 12.66667,9.49175 2.93333,1.19975 7.73333,4.49435 10.66666,7.32135 7.88719,7.60129 11.995538,9.27533 22.785978,9.2847 8.68438,0.008 9.571,-0.25153 10.90881,-3.1877 z m 563.7476,-23.47075 c 4.81331,0 8.77129,-4.56868 7.81456,-9.02031 -2.30996,-10.74816 -9.97896,-26.81214 -15.59028,-32.6564 -2.75,-2.86416 -5,-5.71574 -5,-6.33685 0,-0.62112 -0.76975,-1.92216 -1.71055,-2.8912 -0.9408,-0.96905 -3.13733,-3.86191 -4.88118,-6.42857 -4.39951,-6.47539 -9.63523,-12.00688 -11.32439,-11.96414 -0.77947,0.0197 -3.37271,1.66974 -5.76277,3.66667 l -4.34555,3.6308 2.80112,7.33333 c 3.36448,8.80818 3.21355,25.99303 -0.28855,32.85311 l -2.13718,4.18643 5.15606,2.89788 c 2.83584,1.59382 5.75359,4.01434 6.4839,5.37893 1.47788,2.76144 20.9963,10.94307 23.78481,9.96997 0.97664,-0.3408 3.22664,-0.61965 5,-0.61965 z m 145.75251,-15.93695 c 12.02385,-0.81394 22.38969,-1.8063 23.03518,-2.20525 0.6455,-0.39893 6.7078,-0.98585 13.47178,-1.30427 11.92574,-0.5614 33.41586,-4.91328 44.29811,-8.97064 5.1104,-1.90538 5.3696,-2.28648 6.2015,-9.11902 1.7225,-14.14835 1.2464,-23.9281 -1.4437,-29.65116 -1.4165,-3.01366 -2.9012,-6.97938 -3.2993,-8.81271 -0.9304,-4.28393 -7.5981,-8.60959 -16.39676,-10.63736 -5.33792,-1.23019 -10.87369,-1.24509 -24,-0.0647 -19.80605,1.78114 -24.56012,3.64598 -35.39865,13.8855 -7.49363,7.07949 -9.82844,10.27322 -15.70548,21.48318 -1.92232,3.66667 -4.68,8.76667 -6.12819,11.33334 -1.44819,2.56666 -3.89703,7.96666 -5.44184,12 -1.54483,4.03333 -3.78304,9.60964 -4.97381,12.3918 l -2.16504,5.05846 3.04232,-1.95365 c 2.05073,-1.31691 10.16762,-2.436 24.90388,-3.43356 z M 156.06679,250.63002 c 2.2512,-3.33566 4.92628,-6.5311 5.94461,-7.10099 1.47254,-0.82407 1.56902,-2.12483 0.47131,-6.35484 -4.79811,-18.48953 -5.20835,-21.64869 -4.41313,-33.98536 0.44905,-6.96667 1.30996,-14.9462 1.91313,-17.73229 1.01691,-4.69727 0.70392,-5.5214 -4.30416,-11.33334 -2.97045,-3.44724 -6.76688,-7.54602 -8.43651,-9.10841 -1.66962,-1.5624 -4.59222,-5.9124 -6.49465,-9.66667 -1.90244,-3.75428 -3.97845,-6.82596 -4.61339,-6.82596 -0.63492,0 -2.8034,-3.37044 -4.81884,-7.48985 l -3.66444,-7.48985 -5.26244,6.15652 c -2.89433,3.38608 -6.00148,6.15652 -6.90476,6.15652 -0.90328,0 -4.73646,2.85 -8.51818,6.33333 -5.38164,4.95701 -8.044598,8.97937 -12.253938,18.50944 -5.16462,11.69285 -5.3769,12.72475 -5.34878,26 0.0236,11.12973 0.55006,14.86332 2.70144,19.15723 4.39876,8.77944 5.65049,10.56664 13.720038,19.58914 4.25292,4.75518 9.35898,11.10246 11.3468,14.10507 4.03757,6.0988 6.6323,8.26144 18.20244,15.17121 11.6828,6.97707 11.57268,6.98492 14.274,-1.0167 1.30149,-3.85516 4.20825,-9.73856 6.45945,-13.0742 z m 358.59988,18.85596 c 0,-0.93658 1.8,-3.6736 4,-6.0823 2.2,-2.40869 4,-5.4242 4,-6.70114 0,-1.27694 1.7216,-4.68991 3.82577,-7.58438 2.10418,-2.89446 4.63328,-7.53636 5.62023,-10.31532 0.98695,-2.77896 3.61535,-7.03008 5.84089,-9.44692 3.99952,-4.3433 4.03224,-4.4986 2.82239,-13.39 -1.31365,-9.65425 -0.66549,-13.64201 5.43581,-33.44376 1.80763,-5.86666 4.46755,-11.92457 5.91091,-13.46201 1.44337,-1.53744 3.78397,-5.96807 5.20135,-9.84584 l 2.57705,-7.05049 -4.51905,-5.2795 c -5.7785,-6.75086 -16.71535,-28.71521 -16.71535,-33.56921 0,-2.04304 -1.12165,-5.30725 -2.49256,-7.25379 -1.37089,-1.94653 -3.72892,-5.93916 -5.24003,-8.872492 -2.85021,-5.53276 -26.21962,-30.0282 -36.007,-37.74195 -3.07656,-2.42474 -5.59374,-5.27474 -5.59374,-6.33333 0,-1.28807 -1.43338,-1.91589 -4.33334,-1.89801 -3.89222,0.024 -16.39013,-1.00682 -66.33333,-5.47102 -8.43333,-0.75381 -21.33333,-2.21554 -28.66667,-3.24829 -7.33333,-1.03275 -21.63198,-2.54619 -31.77478,-3.3632 -10.1428,-0.81702 -21.2428,-2.29605 -24.66667,-3.28674 -8.80963,-2.54906 -12.90748,-2.85331 -15.03984,-1.11665 -3.40032,2.76932 -11.12765,6.68412 -16.51871,8.36866 -2.93333,0.91659 -12.53333,4.26129 -21.33333,7.43268 -8.8,3.17137 -18.7,6.48517 -22,7.36397 -3.3,0.87881 -7.2,2.09173 -8.66667,2.69539 -1.46666,0.60365 -3.86666,1.43212 -5.33333,1.84102 -4.02411,1.12194 -24.72661,21.90862 -26.82739,26.93647 -1.98654,4.75447 -2.5481,20.487672 -0.73125,20.487672 0.60941,0 1.87545,1.43396 2.81343,3.18657 0.93797,1.75261 3.28936,3.97217 5.2253,4.93236 1.93595,0.96017 5.31991,3.03729 7.51991,4.6158 2.2,1.57852 5.99465,3.89745 8.43256,5.1532 5.99513,3.08804 18.41723,16.53425 22.52733,24.38457 1.84126,3.51679 4.8209,7.97124 6.62144,9.89878 1.80055,1.92753 3.40911,4.32753 3.57459,5.33333 0.16548,1.0058 1.9498,4.40911 3.96516,7.56291 2.01536,3.1538 4.35656,7.3538 5.20269,9.33333 0.84612,1.97953 4.59002,7.79915 8.31975,12.93248 C 298.364,206.89715 308,224.45186 308,227.59402 c 0,1.98949 0.16058,2.07809 19.33334,10.66778 20.80505,9.32099 34.95452,13.26279 56.66666,15.78639 5.5,0.63927 11.5,1.34807 13.33334,1.57511 1.83333,0.22705 10.53333,0.88498 19.33333,1.46208 8.8,0.57709 20.2,2.16004 25.33333,3.51766 5.13334,1.35762 15.63334,3.08179 23.33334,3.8315 15.77673,1.5361 29.78472,3.43502 38.66666,5.24168 8.65939,1.76137 10.66667,1.72557 10.66667,-0.19024 z m -232,-117.63048 c 0,-1.24444 1.25925,-2 3.33333,-2 3.29335,0 3.33334,-0.13556 3.33334,-11.3 v -11.3 l -4,0.8 c -3.03011,0.60602 -4,0.31234 -4,-1.21116 0,-2.17187 3.81741,-3.60826 9.66666,-3.63731 l 3.66667,-0.0182 v 13.33333 13.33334 H 298 c 2.07408,0 3.33334,0.75556 3.33334,2 0,1.5873 -1.92592,2 -9.33334,2 -7.40741,0 -9.33333,-0.4127 -9.33333,-2 z m 337.89095,97.19068 c 1.15998,-0.44512 2.10905,-2.17234 2.10905,-3.83824 0,-4.26963 -6.54439,-6.69142 -18,-6.66099 -9.99205,0.0265 -17.00889,2.48016 -17.72488,6.19797 -0.37321,1.93794 1.14611,2.17738 12.65036,1.99368 8.27364,-0.13213 14.05371,0.38692 15.74119,1.41352 3.22453,1.96167 2.68344,1.86907 5.22428,0.89406 z m -39.8415,-23.22471 c 17.15636,-11.80388 40.78511,-9.74307 56.64498,4.94039 8.54306,7.90936 9.53513,7.99038 15.80142,1.29046 3.07918,-3.29224 3.15878,-3.96621 3.02027,-25.57137 -0.0783,-12.20451 -0.735,-24.38799 -1.45945,-27.0744 -1.56926,-5.81909 -8.24482,-13.55105 -11.69959,-13.55105 -1.35295,0 -4.83677,-1.25112 -7.74183,-2.78027 -8.91837,-4.69441 -12.48821,-5.35047 -36.61525,-6.72904 -40.19309,-2.29656 -36.37644,-2.616 -38.29373,3.20499 -0.91104,2.76596 -2.85158,6.31184 -4.31231,7.87973 -3.60407,3.86852 -10.72729,21.296 -10.72729,26.24509 0,2.20324 -0.6459,5.69496 -1.43532,7.75936 -0.88311,2.30935 -1.09402,7.64094 -0.54819,13.85754 l 0.88713,10.10408 8.88152,6.71481 c 4.88484,3.69315 9.78152,7.02984 10.88152,7.41488 1.22648,0.42932 3.72776,-1.31639 6.46723,-4.51361 2.45697,-2.86754 7.06897,-7.00375 10.24889,-9.19159 z M 169.74839,173.36419 c 5.75137,-5.58971 6.02225,-6.20453 6.71561,-15.24256 0.44184,-5.75939 1.84894,-11.65447 3.62219,-15.17536 3.82995,-7.60459 11.64189,-18.58925 14.99907,-21.09077 1.47626,-1.1 6.1851,-5.6 10.46409,-10 5.94773,-6.11594 7.78519,-8.94203 7.80207,-12.000002 0.0491,-8.90012 6.41224,-19.88226 16.51562,-28.50442 5.484,-4.68 7.4663,-6.89137 7.4663,-8.3291 0,-0.8251 -3,-4.22166 -6.66667,-7.54791 C 226.19396,51.416598 224,48.371898 224,46.222268 v -3.20407 l -5,2.75398 c -2.75,1.51469 -9.943,4.51721 -15.98445,6.67226 -6.04144,2.15506 -12.94144,5.37826 -15.33333,7.16267 -4.70574,3.5106 -14.14128,8.99701 -23.68222,13.77032 -9.53368,4.76967 -15.08573,11.28705 -28.21336,33.118752 -4.56473,7.59132 -5.60286,10.54126 -5.63062,16 -0.0487,9.57058 2.42454,19.20382 5.77938,22.5108 1.58936,1.56669 5.1041,6.25837 7.81051,10.42598 2.70641,4.1676 6.44268,9.26866 8.3028,11.33567 1.86012,2.06703 4.82295,5.70716 6.58408,8.08921 1.76112,2.38204 3.63413,4.33099 4.16225,4.33099 0.52812,0 3.65712,-2.62109 6.95335,-5.82464 z m -8.41505,-46.39545 c 0,-0.85439 3.6,-5.30246 8,-9.8846 4.4,-4.58214 8,-9.20963 8,-10.28331 0,-3.7046 -3.6607,-5.299 -9.9879,-4.35017 -3.80685,0.57086 -6.0121,0.39973 -6.0121,-0.46655 0,-4.477042 14.46892,-5.023452 18.52684,-0.69967 1.7267,1.83984 1.7537,2.0773 0.13982,1.22994 -1.6249,-0.85315 -1.68741,-0.71334 -0.33333,0.74552 3.14129,3.3843 1.71777,7.31229 -5.06607,13.97905 l -6.73273,6.61655 6.96255,0.66666 c 3.86268,0.36986 7.2065,1.4087 7.5105,2.33334 0.40804,1.24106 -2.20422,1.66666 -10.22981,1.66666 -7.31431,0 -10.77777,-0.4992 -10.77777,-1.55342 z m 490.84478,35.88676 c 2.23859,-1.65 6.29462,-5.1 9.01339,-7.66667 2.71877,-2.56667 10.76291,-8.77912 17.87587,-13.80544 C 686.18032,136.35706 692,131.83643 692,131.33754 c 0,-0.4989 1.65,-1.908 3.66667,-3.13134 2.01667,-1.22333 5.51628,-3.98929 7.77692,-6.14657 2.26064,-2.15728 6.59396,-5.18941 9.6296,-6.73808 3.03563,-1.54867 7.70521,-4.73499 10.37685,-7.08071 2.67163,-2.34573 9.43831,-7.13406 15.03707,-10.640742 5.59876,-3.50667 12.18599,-8.25288 14.63829,-10.54714 3.8412,-3.59364 4.37228,-4.84257 3.83452,-9.01774 -1.14722,-8.907 -7.12006,-22.629 -12.3945,-28.47514 -4.76127,-5.27733 -5.99876,-5.87328 -16.52275,-7.95702 -6.2568,-1.23883 -15.14527,-2.28883 -19.75216,-2.33333 -4.60688,-0.0445 -10.60688,-1.01791 -13.33333,-2.16314 -4.90232,-2.05921 -12.21491,-3.39919 -32.95718,-6.03917 -5.86666,-0.74669 -14.56666,-2.28701 -19.33333,-3.42294 -16.74249,-3.98985 -23.86339,-3.86328 -87.22753,1.5504 -15.1425,1.29374 -26.8631,3.0096 -32,4.6847 -4.45819,1.45378 -11.55076,3.58419 -15.76126,4.73426 -8.3883,2.2912 -15.67788,8.27252 -15.67788,12.86418 0,1.53372 2.17872,4.58537 4.92439,6.89744 7.86663,6.62428 28.77035,27.65701 33.27468,33.48004 4.70735,6.08548 9.17757,15.415402 12.09463,25.243042 2.65973,8.96069 11.35549,24.63844 16.96466,30.58589 l 4.50484,4.77653 24.45174,0.79747 c 26.27222,0.85685 35.68681,2.45568 50.0641,8.50213 4.97987,2.09432 9.22859,3.87244 9.44162,3.95139 0.21302,0.0789 2.21889,-1.20645 4.45746,-2.85645 z m 256.34929,-39.44138 c 0.9206,-1.48945 16.4015,-4.01352 29.1636,-4.75494 5.6967,-0.33095 12.8967,-1.50555 16,-2.61023 3.1033,-1.10468 7.3724,-2.38167 9.487,-2.83773 3.6754,-0.79271 3.3817,-1.09366 -6.6666,-6.8315 -19.6667,-11.230102 -42.2594,-21.904572 -52.5114,-24.810242 -2.56667,-0.72745 -7.18917,-2.46316 -10.27221,-3.85712 -3.08305,-1.39397 -9.71404,-3.39873 -14.73554,-4.45504 -5.0215,-1.0563 -11.799,-2.78505 -15.06112,-3.84168 -3.26212,-1.05661 -9.83114,-2.6154 -14.5978,-3.46396 -8.84932,-1.57537 -35.36892,-7.65605 -53.33334,-12.22878 -5.5,-1.4 -17.98453,-3.44026 -27.74341,-4.53392 -9.75888,-1.09367 -18.96027,-2.63972 -20.44753,-3.43567 -4.39811,-2.3538 -4.09658,-0.70349 0.88993,4.87056 2.57409,2.87739 5.29919,7.63163 6.05579,10.56496 0.75658,2.93333 1.94628,7.07287 2.64376,9.19896 0.69746,2.12611 1.26813,6.09253 1.26813,8.81428 v 4.94865 l 6.98344,0.82708 c 3.84089,0.4549 14.49089,2.6016 23.66667,4.77047 9.17577,2.16885 19.68322,4.49616 23.34989,5.17179 24.16681,4.45306 72.30457,19.225052 83.98255,25.771652 6.81864,3.82249 10.65489,4.70175 11.87819,2.72241 z M 93.666902,73.067618 c 2.55457,-3.2476 20.629648,-12.54546 24.388448,-12.54546 0.94733,0 1.92243,-0.47465 2.16688,-1.05477 0.97047,-2.30315 14.66832,-8.27856 18.97752,-8.27856 6.3538,0 8.80025,-1.17639 8.80025,-4.23161 0,-3.60898 6.26755,-11.49351 11.13879,-14.01253 3.45419,-1.78623 3.73883,-2.30326 1.97533,-3.58807 -1.13321,-0.82562 -5.45197,-2.6501 -9.59725,-4.05442 -5.86839,-1.98805 -8.19876,-2.2305 -10.52685,-1.0952 -5.22751,2.5492 -16.03059,5.51751 -25.38211,6.97411 -4.98232,0.77605 -12.78232,2.82851 -17.333328,4.56102 -11.58767,4.41128 -17.33792,6.11337 -20.65307,6.11337 -1.61161,0 -5.20101,2.44062 -8.23867,5.60193 -4.60401,4.7914 -5.38284,6.44075 -5.38284,11.39941 0,4.75091 0.78227,6.59039 4.33334,10.1897 6.07866,6.16125 8.74356,7.38876 16.14144,7.43508 5.40525,0.0339 6.92362,-0.53008 9.19212,-3.414 z m 82.809288,-9.21212 c 1.1,-1.1 2.4212,-2 2.936,-2 0.5148,0 3.78476,-2.04664 7.26659,-4.54808 3.48182,-2.50144 10.02525,-5.4946 14.54094,-6.65147 4.51571,-1.15687 10.42788,-3.61024 13.13818,-5.45192 2.71029,-1.8417 5.92346,-3.34853 7.14041,-3.34853 1.22356,0 2.57163,-1.43046 3.01577,-3.2001 0.5133,-2.0451 2.35327,-3.74046 5.09794,-4.69726 l 4.29476,-1.49716 -3.51958,-3.26352 c -1.93576,-1.79494 -4.28532,-5.38118 -5.22122,-7.96941 -1.86148,-5.14781 -5.18256,-6.12201 -9.8693,-2.89504 -1.4465,0.99597 -6.83001,2.55083 -11.96334,3.45526 -16.96414,2.98888 -29.5487,6.43072 -37.18567,10.17018 -7.92319,3.8796 -16.84993,13.17247 -16.76708,17.45478 0.12507,6.46385 8.12956,13.84044 16.51083,15.2156 8.33713,1.36792 8.4519,1.35953 10.58477,-0.77333 z m 84.85715,-8.97583 c 6.96666,-2.25775 17.46666,-6.11668 23.33333,-8.57541 5.86667,-2.45875 12.10031,-4.46557 13.85253,-4.45961 1.75223,0.006 6.11124,-1.78915 9.6867,-3.98915 3.57546,-2.2 7.09182,-4 7.81413,-4 3.02524,0 0.94747,-2.42664 -3.98051,-4.64885 -7.3932,-3.33387 -9.90358,-6.55938 -9.97704,-12.81916 -0.0551,-4.69856 -0.37669,-5.22946 -2.72914,-4.50571 -6.12626,1.88477 -12.3228,3.54989 -17.33334,4.65777 -2.93333,0.64859 -10.57465,3.31001 -16.9807,5.91426 -6.40606,2.60426 -12.70606,4.76136 -14,4.79354 -4.05978,0.10099 -11.68512,3.31835 -18.81608,7.93905 -5.94256,3.85065 -6.86988,5.03494 -6.86988,8.7736 0,3.55228 1.24674,5.40594 7,10.40755 8.164,7.09741 8.65321,7.10605 29,0.51212 z M 492.9913,44.554218 c 5.30785,-5.41483 11.20754,-7.93734 29.67537,-12.68819 14.87979,-3.82783 19.86371,-4.43457 49.33333,-6.00577 15.76667,-0.84061 31.06667,-1.98224 34,-2.53695 5.31436,-1.00498 5.3025,-1.01215 -3.33333,-2.01614 -4.76667,-0.55416 -12.05328,-1.85749 -16.19245,-2.89629 -4.13919,-1.03879 -10.25014,-1.88872 -13.57987,-1.88872 -3.32975,0 -7.72449,-0.63509 -9.76612,-1.41131 -2.04161,-0.77622 -11.23068,-1.65413 -20.42013,-1.95092 -9.18946,-0.29678 -20.3081,-1.15821 -24.7081,-1.91429 -4.4,-0.75609 -13.40396,-1.3781696 -20.0088,-1.3824196 -6.60484,-0.004 -14.10484,-0.65041 -16.66666,-1.43592 -7.28699,-2.23433 -25.85274,-2.90083 -125.02247,-4.48828 l -43.03127,-0.68881 -5.30206,5.46342 c -2.91614,3.0048796 -5.30207,6.2450296 -5.30207,7.2003396 0,2.17912 6.43855,9.94153 8.24603,9.94153 0.73828,0 2.93494,1.09686 4.88148,2.43747 1.94653,1.34061 6.83916,3.11227 10.87249,3.93702 10.862,2.2211 43.74072,6.5885 62,8.23569 8.8,0.79385 22,2.03473 29.33333,2.7575 7.33334,0.72278 16.63334,1.32504 20.66667,1.33837 4.03333,0.0133 9.73333,0.63837 12.66667,1.389 5.75713,1.47321 21.9103,3.41723 30.89736,3.71845 4.84149,0.16228 6.23885,-0.50193 10.7606,-5.11478 z M 92.000002,35.838538 C 103.49638,31.676498 111.00768,29.630188 126,26.575898 c 13.43944,-2.73793 17.67674,-4.58425 18.55542,-8.08515 0.38325,-1.52701 2.78894,-4.8685 5.34598,-7.42555 l 4.64918,-4.6491596 -14.94196,1.76876 C 131.39055,9.1576184 119.86667,10.834278 114,11.910708 c -5.86666,1.07643 -13.18569,1.95437 -16.264498,1.95097 -3.07882,-0.003 -10.57882,1.57 -16.66667,3.49644 -6.08785,1.92645 -14.06883,3.57645 -17.73549,3.66667 -5.59308,0.13762 -7.25705,0.8082 -10.332676,4.16404 -4.78841,5.22466 -4.175,7.68447 2.344516,9.40155 2.92681,0.77084 7.42149,2.39746 9.98816,3.61469 6.11992,2.90236 14.05908,2.19779 26.66666,-2.36653 z m 91.476658,-11.89653 c 7.98784,-1.91199 19.18901,-4.66364 24.8915,-6.11477 5.7025,-1.45112 11.53366,-2.63841 12.95815,-2.63841 1.68017,0 2.33673,-0.65999 1.86904,-1.87879 -0.39653,-1.03334 -0.102,-4.1204996 0.65452,-6.8603596 l 1.37548,-4.98157 -22.75208,0.94637 c -12.51365,0.5205 -24.22841,1.50766 -26.03281,2.19369 -1.80439,0.68603 -6.39166,1.2567 -10.19392,1.26815 -6.08175,0.0183 -7.60584,0.62766 -12.67227,5.0663796 -4.93808,4.32627 -5.63073,5.55689 -4.85881,8.63246 0.70857,2.82318 2.07676,3.884 6.42573,4.98216 3.03901,0.76738 6.72548,1.93313 8.19215,2.59054 1.46666,0.65742 3.33116,0.98722 4.14332,0.7329 0.81214,-0.25432 8.01214,-2.02676 16,-3.93875 z m 64.84372,1.85962 c 4.20954,-0.68131 10.93118,-2.98771 14.93698,-5.12532 4.0058,-2.13762 10.46164,-4.31396 14.3463,-4.83632 3.88465,-0.52236 7.66301,-1.41524 8.39634,-1.98417 0.73334,-0.56893 4.78334,-2.11132 9,-3.42753 4.21667,-1.3162196 7.66667,-2.8835496 7.66667,-3.4829596 0,-0.59941 0.9,-1.08983 2,-1.08983 1.1,0 2,-0.52732 2,-1.17181 0,-1.20222 -29.5372,-2.94809 -58,-3.42823 -12.30891,-0.20764 -16.72013,0.19179 -19.1216,1.73142 -4.93007,3.16078 -5.95709,7.6066996 -3.47996,15.0646496 2.50023,7.52747 6.44829,10.95914 11.26823,9.79437 1.83333,-0.44304 6.7775,-1.36296 10.98704,-2.04427 z m -113.99572,424.415392 -5.00868,-0.52354 6.92653,-7.17577 c 3.8096,-3.94668 7.41131,-6.87617 8.00379,-6.50999 1.50762,0.93176 -2.64319,8.56718 -4.44216,8.17138 -0.80895,-0.17799 -1.7458,0.4264 -2.08191,1.34306 -0.83705,2.28287 4.52268,2.15642 5.87819,-0.13869 1.5048,-2.54789 7.06625,-5.34149 7.06625,-3.54948 0,0.83356 1.35663,1.06516 3.33333,0.56903 1.96899,-0.49418 3.33334,-0.26407 3.33334,0.5622 0,1.72077 6.60245,-1.51511 8.12805,-3.98358 2.23291,-3.61293 2.62311,0.17854 0.45452,4.41662 l -2.28072,4.45724 2.73805,-2.43951 c 2.82402,-2.51611 14.735,-4.44383 18.50907,-2.99557 1.77853,0.68248 1.81788,1.12896 0.26785,3.04013 -1.53762,1.89591 -1.53412,2.06987 0.0228,1.13196 1.2721,-0.76631 1.64936,-0.53676 1.22286,0.74405 -0.33924,1.01875 -1.70463,2.06312 -3.03419,2.32083 -1.82604,0.35395 -2.19925,-0.0999 -1.52567,-1.85525 0.78327,-2.04114 0.61972,-2.09814 -1.34432,-0.46856 -1.54524,1.28209 -6.08502,1.87312 -14.69477,1.91306 -10.87619,0.0505 -12.55592,-0.24836 -13.2238,-2.35269 -0.42079,-1.32577 -1.38593,-2.0268 -2.14476,-1.55781 -0.88992,0.55 -0.75079,1.24137 0.39196,1.94764 2.39528,1.48036 -1.81157,3.14652 -5.50555,2.18052 -1.45497,-0.38048 -2.98141,-0.14812 -3.39209,0.51637 -0.41068,0.66449 -1.16128,1.10729 -1.668,0.98403 -0.50672,-0.12334 -3.17521,-0.45974 -5.92999,-0.74768 z m -26.43576,-1.02819 c -0.89371,-5.36223 0.0359,-10.6474 2.14372,-12.18873 2.85454,-2.08728 7.10148,-2.31814 9.91437,-0.53892 1.6796,1.0624 1.63383,1.57754 -0.33333,3.75124 -1.25418,1.38585 -2.28032,3.75828 -2.28032,5.27208 0,1.5138 -0.94907,3.11656 -2.10906,3.56168 -2.54869,0.97802 -7.18114,1.06812 -7.33538,0.14265 z m 6.77777,-3.33333 c 0,-0.73334 -0.9,-1.33334 -2,-1.33334 -1.1,0 -2,0.6 -2,1.33334 0,0.73333 0.9,1.33333 2,1.33333 1.1,0 2,-0.6 2,-1.33333 z m 2.66667,-6.66667 c 0,-0.73333 -0.6,-1.33333 -1.33334,-1.33333 -0.73333,0 -1.33333,0.6 -1.33333,1.33333 0,0.73333 0.6,1.33333 1.33333,1.33333 0.73334,0 1.33334,-0.6 1.33334,-1.33333 z m 2,9.33333 c 0.45322,-0.73333 1.42404,-1.33333 2.15737,-1.33333 0.73333,0 0.96252,0.6 0.50929,1.33333 -0.45322,0.73334 -1.42404,1.33334 -2.15737,1.33334 -0.73333,0 -0.96252,-0.6 -0.50929,-1.33334 z M 192,447.26752 c 0,-1.42338 0.60979,-2.96485 1.35508,-3.42546 0.7453,-0.46062 0.99364,-1.42231 0.55188,-2.1371 -1.25102,-2.02421 2.08779,-5.1828 5.47852,-5.1828 1.68243,0 3.28622,0.68175 3.56396,1.51499 0.36016,1.08047 1.33852,0.99444 3.41116,-0.29995 2.18668,-1.3656 3.285,-1.4361 4.43635,-0.28476 1.13547,1.13547 2.37243,1.14642 4.79543,0.0424 2.587,-1.17872 3.51085,-1.09038 4.44758,0.4253 0.94163,1.52356 1.51938,1.576 2.83786,0.25752 2.29733,-2.29734 6.45552,-2.07546 6.45552,0.34448 0,1.1 -0.54383,2 -1.20851,2 -0.66468,0 -0.89387,1.2032 -0.50931,2.67377 0.92771,3.54755 -1.82462,6.65956 -5.88989,6.65956 -3.26431,0 -3.81855,-3.15671 -0.61452,-3.5 4.27987,-0.45856 4.6748,-0.77535 2.22223,-1.78249 -1.99214,-0.81807 -3.43916,-0.28847 -5.72063,2.09372 -3.34064,3.48812 -6.4074,4.12889 -7.28477,1.5221 -0.43823,-1.30204 -1.04222,-1.2694 -2.76079,0.14918 -2.83185,2.33752 -6.23381,1.02842 -6.23381,-2.39879 0,-1.88532 -0.61876,-2.42923 -2.1118,-1.85629 -1.55008,0.59482 -1.68198,1.07601 -0.49584,1.80908 2.41165,1.49048 0.24589,3.96352 -3.47106,3.96352 -2.33276,0 -3.25464,-0.73304 -3.25464,-2.58798 z m 17.33334,-6.492 c 0,-1.64 -0.47999,-1.56561 -2.66667,0.41331 C 205.2,442.51615 204,444.50214 204,445.60214 c 0,1.64 0.47999,1.56561 2.66667,-0.41331 1.46667,-1.32732 2.66667,-3.31331 2.66667,-4.41331 z m 7.48321,3.03836 c 1.21624,-1.85621 1.8904,-3.69588 1.49813,-4.08814 -0.8157,-0.81571 -6.31468,4.74118 -6.31468,6.38117 0,2.23764 2.68571,0.95904 4.81655,-2.29303 z m -140.149878,0.1784 c -2.2,-0.84978 -6.1,-2.67912 -8.66667,-4.0652 -3.7646,-2.033 -7.50174,-2.52245 -19.333336,-2.53213 -13.6817,-0.0107 -14.3085,-0.1236 -9.33333,-1.67325 2.93333,-0.9137 6.9461,-1.70738 8.91726,-1.76374 4.61494,-0.132 19.219596,3.25514 25.686366,5.95712 2.76223,1.15414 9.00642,2.89286 13.87598,3.8638 l 8.85373,1.76538 -8,-0.004 c -4.4,-10e-4 -9.8,-0.69875 -12,-1.54852 z"
     id="path4156"
     inkscape:connector-curvature="0" />
</svg>
