<?xml version="1.0" encoding="UTF-8" standalone="no"?>
<!-- Created with Inkscape (http://www.inkscape.org/) -->

<svg
   xmlns:dc="http://purl.org/dc/elements/1.1/"
   xmlns:cc="http://creativecommons.org/ns#"
   xmlns:rdf="http://www.w3.org/1999/02/22-rdf-syntax-ns#"
   xmlns:svg="http://www.w3.org/2000/svg"
   xmlns="http://www.w3.org/2000/svg"
   xmlns:sodipodi="http://sodipodi.sourceforge.net/DTD/sodipodi-0.dtd"
   xmlns:inkscape="http://www.inkscape.org/namespaces/inkscape"
   version="1.1"
   id="svg263"
   width="100%"
   viewBox="0 0 520.49365 235.62004"
   sodipodi:docname="paraparietalscales.svg"
   inkscape:version="0.92.5 (2060ec1f9f, 2020-04-08)"
   >
  <metadata
     id="metadata269">
    <rdf:RDF>
      <cc:Work
         rdf:about="">
        <dc:format>image/svg+xml</dc:format>
        <dc:type
           rdf:resource="http://purl.org/dc/dcmitype/StillImage" />
        <dc:title></dc:title>
      </cc:Work>
    </rdf:RDF>
  </metadata>
  <defs
     id="defs267" />
  <sodipodi:namedview
     pagecolor="#ffffff"
     bordercolor="#666666"
     borderopacity="1"
     objecttolerance="10"
     gridtolerance="10"
     guidetolerance="10"
     inkscape:pageopacity="0"
     inkscape:pageshadow="2"
     inkscape:window-width="1920"
     inkscape:window-height="1043"
     id="namedview265"
     showgrid="false"
     fit-margin-top="0"
     fit-margin-left="0"
     fit-margin-right="0"
     fit-margin-bottom="0"
     inkscape:zoom="0.72500826"
     inkscape:cx="289.53578"
     inkscape:cy="-164.96968"
     inkscape:window-x="0"
     inkscape:window-y="0"
     inkscape:window-maximized="1"
     inkscape:current-layer="svg263" />
  <path
     style="fill:#000000;stroke-width:0.68848372"
     d="m 269.87721,235.51129 c -0.18472,-0.17473 -5.91256,-0.51325 -12.72855,-0.75225 -16.53582,-0.57984 -36.7666,-1.72683 -38.89933,-2.20541 -2.90278,-0.65138 -40.17436,-1.63715 -68.6749,-1.81632 -14.8619,-0.0934 -27.02224,-0.40225 -27.02299,-0.68625 -5.1e-4,-0.284 1.84784,-0.51636 4.10796,-0.51636 3.62915,0 4.05576,-0.14077 3.65114,-1.20485 -0.25199,-0.66266 -1.20636,-1.79676 -2.12082,-2.52022 -1.44741,-1.14506 -1.6215,-1.74376 -1.34473,-4.62426 0.26194,-2.726 0.91201,-4.01037 3.6901,-7.29069 1.85469,-2.18997 4.07284,-4.54876 4.92922,-5.24174 0.85639,-0.693 1.41401,-1.49146 1.23916,-1.77437 -0.17485,-0.28292 -2.24411,-1.09759 -4.59834,-1.8104 -3.18103,-0.96313 -5.26729,-2.19827 -8.12259,-4.80882 -2.11317,-1.93204 -5.01977,-4.22578 -6.45911,-5.09719 -3.3596,-2.03398 -4.37144,-3.69108 -4.95086,-8.10808 -0.43942,-3.34972 -0.68767,-3.72111 -3.83929,-5.74349 -1.85323,-1.18921 -4.73907,-2.57439 -6.41299,-3.07817 -1.67392,-0.50377 -4.359652,-1.86938 -5.968297,-3.03467 -1.608641,-1.16529 -3.355393,-2.11872 -3.881665,-2.11872 -3.099157,0 -10.882975,-6.47214 -14.327425,-11.91308 -0.599801,-0.94745 -1.240819,-0.74889 -4.976353,1.54148 -7.597467,4.65825 -9.20887,6.46723 -10.269939,11.52918 -1.038839,4.95588 -1.09787,12.0272 -0.122533,14.67755 0.34838,0.94666 3.016958,3.95239 5.930189,6.67939 4.553535,4.26246 6.022091,5.19742 10.465878,6.66312 2.843011,0.93772 6.098565,2.02176 7.234563,2.40898 1.135998,0.38723 4.234175,1.38034 6.884835,2.20691 2.650661,0.82655 4.974293,1.69387 5.163628,1.92735 0.742937,0.91618 10.922039,5.06811 15.319949,6.24882 2.55666,0.68639 5.41157,1.74798 6.34426,2.3591 0.93269,0.61112 2.15313,1.11113 2.71211,1.11113 0.55897,0 1.22053,0.33043 1.47013,0.73429 0.89641,1.45042 -0.35866,1.47536 -2.76605,0.055 -1.34877,-0.79579 -4.36413,-1.9423 -6.70082,-2.5478 -2.33669,-0.60549 -5.35147,-1.65284 -6.69951,-2.32742 -1.34804,-0.67459 -3.32873,-1.43776 -4.40152,-1.69594 -1.0728,-0.25818 -3.13083,-1.21449 -4.573409,-2.12516 -1.442584,-0.91066 -4.45949,-2.13166 -6.704243,-2.71333 -2.244753,-0.58167 -5.608526,-1.65523 -7.475053,-2.38567 -1.866533,-0.73044 -4.862573,-1.7053 -6.657873,-2.16634 -1.795296,-0.46104 -3.964019,-1.50681 -4.819385,-2.32393 -0.855365,-0.81713 -3.66774,-3.31268 -6.249724,-5.54567 -6.357226,-5.49797 -6.784971,-6.47356 -6.432662,-14.67136 0.158219,-3.68161 0.513533,-7.23602 0.789581,-7.89869 0.433889,-1.04158 0.08903,-1.20485 -2.544972,-1.20485 -4.805581,0 -10.059355,-1.87974 -12.852165,-4.59835 -1.371206,-1.33478 -3.680169,-3.03409 -5.131035,-3.77627 -1.450865,-0.74217 -4.084316,-2.82929 -5.852115,-4.63806 -1.767788,-1.80875 -4.257189,-4.0051 -5.531975,-4.88076 -1.274791,-0.87567 -2.843607,-2.76656 -3.486267,-4.20197 l -1.168462,-2.60986 -3.559914,2.03315 c -1.957949,1.11823 -4.097865,2.88165 -4.755365,3.91871 -0.6575,1.03706 -2.041833,2.96992 -3.076293,4.29525 -1.034466,1.32534 -2.875774,4.2686 -4.0917984,6.5406 -4.6278549,8.64658 -2.9746058,22.13088 3.6297054,29.6048 1.003824,1.136 2.862013,3.4353 4.129311,5.10957 1.267299,1.67427 3.199751,3.34116 4.294347,3.7042 1.094591,0.36303 2.545534,1.13559 3.224324,1.71679 1.183591,1.01341 5.460953,2.33037 15.095781,4.64781 2.461326,0.59202 6.024229,1.81221 7.917561,2.71152 1.893332,0.89932 4.914776,2.11819 6.714321,2.70861 1.799545,0.59042 4.504294,1.85146 6.01055,2.80232 1.506256,0.95086 3.458516,1.72883 4.338356,1.72883 1.816828,0 9.027246,3.39958 8.445114,3.98171 -0.209416,0.20943 -1.077386,0.0452 -1.928817,-0.36505 -0.851425,-0.4102 -3.252042,-1.27403 -5.334709,-1.91963 -2.082661,-0.64561 -4.251385,-1.4472 -4.819384,-1.78131 -0.567999,-0.33412 -1.725566,-0.90729 -2.572375,-1.2737 -0.846799,-0.36641 -2.841358,-1.29512 -4.432339,-2.06381 -1.590976,-0.76871 -3.26179,-1.39763 -3.712906,-1.39763 -0.451115,0 -2.57901,-0.80521 -4.728654,-1.78935 -3.594267,-1.64551 -13.202957,-4.37969 -15.458868,-4.39887 -0.525859,-0.005 -3.469125,-1.22037 -6.540595,-2.70199 -4.755774,-2.29411 -6.021002,-3.29026 -8.525976,-6.71272 -4.826608,-6.59444 -5.4156126,-7.16882 -6.8089452,-6.6399 -2.4457368,0.92843 -5.3283423,4.28249 -6.2078734,7.22317 -1.0999038,3.67753 -1.1754115,11.15289 -0.1330408,13.17159 0.4270784,0.82711 3.9899816,4.65639 7.9175604,8.5095 6.371194,6.2504 8.514771,8.727 6.447874,7.44958 -0.381251,-0.23563 -1.620522,0.23192 -2.753938,1.03898 -1.791196,1.27544 -2.060752,1.31774 -2.060752,0.32332 0,-0.62923 0.619635,-1.3061 1.376969,-1.50414 0.757328,-0.19805 1.376964,-0.486 1.376964,-0.63991 0,-0.1539 -2.965947,-3.25542 -6.5909891,-6.89227 C 4.2421195,216.49971 0.98903455,212.76887 0.63808652,211.84581 0.28713901,210.92275 0,207.91961 0,205.17216 c 0,-6.24053 2.4689246,-11.77623 6.0085966,-13.4722 2.6541976,-1.2717 2.6986461,-1.79949 0.8065173,-9.57654 -1.7708351,-7.27852 -1.4825446,-11.24452 1.2985285,-17.86367 2.5950066,-6.1763 9.2208036,-14.34173 13.5074516,-16.64616 2.237033,-1.2026 3.063683,-2.02289 2.775284,-2.75394 -0.225903,-0.57265 -0.580195,-3.82953 -0.787314,-7.23753 -0.328215,-5.4007 -0.18131,-6.63838 1.144043,-9.63877 2.35085,-5.32194 2.384977,-5.36915 5.605323,-7.75405 1.668167,-1.2354 3.444475,-2.58691 3.947351,-3.00337 2.188645,-1.81253 10.17199,-6.79627 10.888841,-6.79753 0.574035,-5.1e-4 0.603137,-0.79432 0.107393,-2.92744 -2.285948,-9.836125 2.85433,-25.517242 10.061111,-30.692751 1.671368,-1.200291 3.219573,-2.182345 3.440463,-2.182345 0.220885,0 1.874232,-1.531393 3.674107,-3.403089 3.210764,-3.3389 3.273084,-3.487845 3.303674,-7.895285 0.02479,-3.567943 0.327203,-4.815491 1.469961,-6.06356 0.791331,-0.864252 1.669545,-2.345909 1.951598,-3.292577 0.282042,-0.946664 1.949688,-3.580115 3.705873,-5.852111 1.756181,-2.271996 3.722986,-4.961689 4.370681,-5.977085 0.647694,-1.015402 3.259364,-3.092925 5.803716,-4.616717 2.717246,-1.627328 4.214899,-2.891616 3.629555,-3.063994 -0.548088,-0.161409 -2.224733,-0.562427 -3.725872,-0.891159 -2.068787,-0.453036 -3.235173,-1.295673 -4.819389,-3.481674 -1.346695,-1.858261 -2.640019,-2.898943 -3.636392,-2.926058 -2.136797,-0.05811 -9.750251,2.620526 -12.070961,4.246955 -1.052203,0.737413 -2.921803,1.619272 -4.154671,1.959685 -3.203375,0.884493 -8.734642,4.547627 -8.734642,5.7846 0,0.576333 -0.582049,1.047886 -1.293437,1.047886 -0.794429,0 -1.631004,0.81495 -2.168408,2.112357 -0.48123,1.161796 -2.66925,4.009692 -4.862274,6.328667 -3.243398,3.429667 -4.199439,4.999988 -5.124322,8.416776 l -1.137015,4.200466 2.135656,4.408809 c 1.174606,2.42484 2.366836,4.580169 2.64938,4.789626 1.975717,1.464591 7.734969,11.877852 7.734969,13.985531 0,1.29746 -3.635793,-4.63007 -4.292761,-6.998605 -0.357622,-1.289301 -1.412118,-3.148207 -2.343326,-4.130903 -0.931209,-0.98269 -2.782994,-3.490715 -4.115081,-5.573377 -2.247067,-3.513193 -2.404996,-4.115246 -2.186869,-8.336615 0.242969,-4.702247 1.648194,-7.393323 6.741684,-12.910697 1.80096,-1.950829 4.130902,-5.291897 4.130902,-5.923574 0,-0.202657 -1.274538,-0.368461 -2.832317,-0.368461 -3.742411,0 -7.663066,-2.279236 -9.479222,-5.510655 -2.137742,-3.803574 -1.892434,-6.464552 0.911359,-9.886209 l 2.369491,-2.891652 -1.853128,-0.791595 c -1.019223,-0.435376 -3.247312,-1.152924 -4.95131,-1.594554 -3.926255,-1.017575 -4.824747,-1.771005 -4.797493,-4.02293 0.04219,-3.485976 2.372263,-5.150347 8.239914,-5.8857873 C 35.129885,9.3572618 39.157515,8.5628584 41.99751,7.8529628 49.529818,5.9701544 59.319172,4.4063241 63.85717,4.3609307 66.034331,4.3391402 71.378551,3.702155 75.733209,2.9453892 80.087866,2.1886234 85.044949,1.4287595 86.748946,1.2568003 94.235974,0.50125319 124.13008,-0.20788846 137.3525,0.05639117 c 26.48985,0.52946288 68.72761,1.03008173 78.48714,0.93026367 6.12541,-0.0626503 11.57325,0.27652776 14.94592,0.93051666 2.91893,0.5660059 6.39283,0.8529177 7.71978,0.6375841 1.32695,-0.2153336 5.28999,0.096431 8.80677,0.692804 5.56974,0.9445256 15.96509,1.5742455 34.96621,2.1181612 2.83999,0.081296 6.71271,0.6409043 8.60605,1.2435719 1.89332,0.6026677 7.00531,1.4488778 11.35998,1.880459 4.35466,0.4315863 10.3961,1.2449713 13.42543,1.8075223 9.53146,1.770015 12.87068,2.31738 20.65451,3.385719 4.16532,0.571696 9.12241,1.483944 11.01574,2.027214 1.89333,0.543271 5.26139,1.191089 7.48458,1.439599 2.22318,0.248505 5.28286,0.889574 6.79927,1.424593 1.51642,0.535024 4.34472,0.974496 6.2851,0.976608 1.94039,0.0021 4.71526,0.333523 6.16639,0.736472 1.45112,0.402949 4.70421,0.986424 7.22908,1.296608 2.52487,0.310189 7.53394,1.194125 11.13126,1.964301 3.59733,0.77017 9.94859,1.884378 14.11392,2.476016 4.16532,0.591628 9.89695,1.718445 12.73694,2.504039 2.84,0.785595 6.55781,1.689384 8.26181,2.008419 1.70399,0.319035 6.50617,1.394526 10.6715,2.38998 4.16532,0.995455 9.27732,2.128127 11.35998,2.517041 2.08266,0.38892 5.49065,1.333724 7.57332,2.099568 2.08266,0.765848 4.71611,1.633549 5.85211,1.928238 1.136,0.294678 3.99249,1.354027 6.34772,2.354098 2.35523,1.00007 4.69715,1.818309 5.20416,1.818309 0.50702,0 2.6538,1.042924 4.77063,2.317612 2.11683,1.274683 4.73205,2.538078 5.81161,2.807536 1.07956,0.269459 2.89225,1.185709 4.02825,2.036096 1.13599,0.850394 2.53017,1.774601 3.09817,2.053788 8.80198,4.326433 10.75729,5.75302 13.53098,9.872087 1.57269,2.335565 3.93541,5.191165 5.25048,6.345794 1.37198,1.204612 3.89446,5.021669 5.9187,8.956265 l 3.52769,6.856942 v 7.55888 c 0,6.530192 -0.28948,8.478664 -2.12721,14.317494 -2.26662,7.20165 -6.01893,15.1632 -8.63518,18.32201 -0.87679,1.05855 -1.906,3.07237 -2.28718,4.47514 -0.38118,1.40279 -1.76477,4.0996 -3.07458,5.99293 -1.30986,1.89333 -3.2348,4.8366 -4.2776,6.5406 -1.04285,1.704 -2.76559,4.17567 -3.82836,5.49261 -1.06273,1.31695 -1.93229,2.81211 -1.93229,3.32259 0,0.98346 -5.76844,8.80558 -6.78335,9.19837 -0.6943,0.26872 -8.02438,8.84833 -8.43246,9.87002 -0.1513,0.37866 -0.4986,0.61397 -0.77176,0.52291 -0.27321,-0.0911 -2.09922,1.76784 -4.05789,4.1309 -1.95861,2.36306 -5.0509,5.38084 -6.87175,6.70617 -4.94437,3.5988 -8.60057,6.24942 -12.55861,9.10454 -1.95491,1.41017 -3.90534,2.86008 -4.33425,3.22201 -0.42893,0.36195 -3.21729,1.90313 -6.19636,3.42485 -2.97907,1.52173 -6.09357,3.50269 -6.9211,4.40213 -1.28456,1.39619 -12.61064,6.07257 -18.80566,7.7646 -0.94666,0.25856 -3.88993,1.48326 -6.5406,2.72156 -5.26964,2.46181 -14.19671,4.83456 -20.62683,5.48247 -2.25678,0.2274 -5.50987,0.8548 -7.22908,1.39422 -1.71922,0.53943 -6.06912,1.64508 -9.66644,2.45702 -3.59733,0.81195 -8.31272,2.21916 -10.47864,3.12715 -2.16591,0.90799 -4.64445,1.65105 -5.50787,1.65123 -0.8634,2e-4 -3.14474,0.59895 -5.06964,1.33058 -6.98724,2.65573 -32.43051,5.72786 -42.28436,5.10561 -4.66373,-0.29452 -8.1211,-0.0997 -12.04846,0.67904 -3.02933,0.60066 -10.00023,1.25301 -15.49088,1.44968 -5.49066,0.19668 -10.76135,0.54071 -11.71263,0.76452 -0.95129,0.22382 -1.88075,0.26397 -2.06545,0.0892 z m 21.3514,-2.55748 c 2.46133,-0.39695 12.5304,-0.97726 22.37572,-1.28958 9.84531,-0.31232 19.13984,-0.89987 20.65451,-1.30567 1.51466,-0.40581 4.14811,-0.88126 5.85211,-1.05656 1.704,-0.17531 3.97034,-0.6594 5.03633,-1.07575 1.06598,-0.41635 2.73817,-0.757 3.71597,-0.757 0.97781,0 3.51363,-0.59573 5.63517,-1.32385 2.12154,-0.72812 6.18098,-2.0225 9.02097,-2.87639 2.84,-0.8539 7.38698,-2.27199 10.10441,-3.1513 2.71743,-0.87931 5.86772,-1.59875 7.00065,-1.59875 5.12284,0 5.51483,-1.90255 1.25362,-6.08461 l -2.98431,-2.92888 -5.79385,1.02108 c -3.18662,0.5616 -7.18803,1.33686 -8.89203,1.72283 -1.704,0.38596 -4.83445,0.71523 -6.95655,0.73173 -2.12211,0.0165 -8.00864,0.66621 -13.08119,1.44384 -5.07255,0.77762 -12.78572,1.53471 -17.14038,1.68242 -4.35466,0.14771 -8.1227,0.28603 -8.37341,0.30735 -0.25071,0.0213 -0.65374,1.35551 -0.89562,2.96484 -0.76077,5.06189 -2.66058,10.84362 -3.56309,10.84362 -0.84529,0 -0.46105,-1.40111 1.79371,-6.54059 0.33225,-0.75734 0.78675,-2.6937 1.01001,-4.30303 l 0.4059,-2.92605 -7.40933,-0.0263 c -6.12392,-0.0217 -21.63145,-1.02156 -37.35838,-2.40866 -1.704,-0.15029 -8.90726,-0.47631 -16.00725,-0.72447 l -12.90907,-0.45122 -0.0602,3.69865 c -0.0331,2.03425 -0.4864,6.3321 -1.00731,9.55076 -0.91792,5.67186 -0.93831,5.71427 -0.66203,1.37697 0.15679,-2.46133 0.49598,-6.67204 0.75374,-9.35713 l 0.46867,-4.88198 -6.96586,-0.42437 c -3.83122,-0.23341 -7.54749,-0.73567 -8.25837,-1.11612 -0.86727,-0.46414 -5.68409,-0.45426 -14.63994,0.03 -19.43684,1.05105 -22.3514,0.98777 -27.80557,-0.60369 -8.78561,-2.56353 -8.60604,-2.56083 -8.60604,-0.12935 0,1.58843 1.06548,3.43662 4.17513,7.24219 2.29632,2.81024 4.43572,5.10951 4.75424,5.10951 0.31851,0 1.86987,1.07839 3.44744,2.39642 2.87958,2.40582 6.83986,3.91133 10.68739,4.06284 1.136,0.0448 2.22568,0.29272 2.4215,0.55106 0.19583,0.25835 7.94127,0.81016 17.21209,1.22625 18.30419,0.82153 33.77089,1.90818 34.27048,2.40778 0.58613,0.58613 32.81542,-0.3024 37.32002,-1.02888 z m -94.87399,-2.54283 c -6.69625,-0.82584 -20.79128,-13.93103 -20.79128,-19.3312 0,-1.20425 -0.346,-1.38226 -2.23757,-1.15118 -6.74401,0.82387 -9.79422,0.81548 -16.35149,-0.045 -3.97599,-0.52174 -8.46835,-1.24749 -9.98301,-1.61278 -5.69275,-1.37294 -7.52662,-1.19452 -10.08098,0.98075 -4.79327,4.08189 -8.30504,9.01678 -8.65448,12.16165 -0.28086,2.52755 -0.0688,3.20062 1.45796,4.62691 0.98264,0.91801 1.78662,2.06375 1.78662,2.54608 0,0.65844 1.84429,0.86684 7.4012,0.83634 14.52591,-0.0798 44.28322,0.61924 44.71429,1.05032 0.24132,0.24132 3.71766,0.38917 7.72522,0.32857 4.00755,-0.0606 6.26363,-0.23632 5.01352,-0.3905 z M 396.56661,215.4175 c 2.46133,-0.55308 5.60646,-1.17419 6.98918,-1.38024 1.38271,-0.20605 4.01616,-1.18166 5.85211,-2.16801 1.83595,-0.98634 5.50681,-2.50615 8.15747,-3.37735 12.90441,-4.24132 17.39258,-6.21809 20.31026,-8.94547 0.94667,-0.88491 2.88303,-2.09425 4.30303,-2.68742 2.48699,-1.03888 3.3292,-2.58229 1.89333,-3.46971 -0.37867,-0.23402 -0.68849,-0.77104 -0.68849,-1.19336 0,-0.42233 0.7561,-0.0576 1.68021,0.8106 l 1.68021,1.57847 2.62282,-1.57912 c 1.44254,-0.86853 4.5346,-3.23345 6.87122,-5.2554 2.33663,-2.02195 5.12499,-4.06208 6.19636,-4.53364 2.57342,-1.13268 7.74084,-4.82109 7.77394,-5.5489 0.0145,-0.3161 2.51897,-3.13342 5.56577,-6.26071 3.04685,-3.1273 6.03489,-6.43157 6.64017,-7.34285 0.60523,-0.91127 2.71901,-3.36085 4.69735,-5.44351 1.97834,-2.08266 5.72492,-7.34509 8.32573,-11.69428 2.60082,-4.3492 5.5667,-8.86202 6.59091,-10.0285 1.02415,-1.16647 2.51577,-3.77908 3.31458,-5.8058 0.79887,-2.02671 2.02017,-4.48478 2.71395,-5.46239 6.61755,-9.32442 10.85802,-21.27099 11.56317,-32.576815 l 0.37514,-6.013937 -3.28898,-6.723008 c -2.25985,-4.619443 -4.5209,-8.018948 -7.22639,-10.864851 -2.16562,-2.278017 -4.17298,-4.911467 -4.46075,-5.852115 -0.95016,-3.105782 -2.40026,-4.11996 -5.89087,-4.11996 -1.78837,0 -4.32418,0.448146 -5.63512,0.995893 -1.31089,0.547737 -5.45383,1.336538 -9.20649,1.752892 -8.92807,0.990564 -14.9328,2.303205 -15.2784,3.33986 -0.15269,0.458133 0.83532,2.064852 2.19557,3.570499 1.36026,1.505636 2.47317,3.003853 2.47317,3.329363 0,0.325499 0.96271,1.796245 2.13935,3.268313 2.88244,3.606257 3.31582,4.920988 4.44552,13.485696 0.91097,6.906492 0.88948,7.616305 -0.3439,11.35998 -2.59973,7.89088 -3.60086,10.1469 -5.22244,11.76846 -1.97974,1.97976 -1.73529,4.40768 0.90436,8.98358 1.67415,2.90215 1.70978,3.23284 1.22259,11.35998 -0.5728,9.55445 -0.53346,14.33187 0.16234,19.73078 0.85557,6.63847 -0.0217,12.44373 -2.4015,15.89077 -1.15525,1.6734 -2.92922,4.51417 -3.94212,6.31283 -1.23901,2.20025 -2.29291,3.2703 -3.22086,3.2703 -0.75857,0 -2.12252,0.74328 -3.03097,1.65174 -0.90846,0.90846 -2.52092,2.0947 -3.58325,2.6361 -6.47459,3.29967 -9.54898,4.99941 -9.87064,5.45716 -0.2012,0.28633 -2.13164,1.32901 -4.28986,2.31708 -2.15823,0.98807 -4.09724,2.07673 -4.30893,2.41925 -0.51981,0.84107 -10.97884,4.10773 -13.15194,4.10773 -0.95435,0 -3.02962,0.74425 -4.61172,1.65389 -6.1857,3.55653 -21.45157,8.01796 -35.75153,10.44832 l -7.4011,1.25787 2.06535,2.13091 c 1.13594,1.17199 2.06535,2.84842 2.06535,3.72538 0,1.50463 0.18431,1.56983 3.2703,1.15687 1.79867,-0.24069 5.28412,-0.89014 7.74544,-1.44322 z m -78.89356,-3.26701 c -0.1355,-1.60934 -1.06116,-5.55951 -2.05701,-8.77817 -0.99586,-3.21867 -2.0444,-7.71102 -2.3301,-9.98302 -0.48701,-3.87301 -2.4142,-12.68681 -5.56998,-25.47389 -0.74762,-3.02933 -1.35513,-6.00922 -1.35001,-6.62198 0.006,-0.65116 -1.88962,-2.22459 -4.56073,-3.78666 -3.6876,-2.15651 -6.94663,-5.23554 -9.70932,-9.17308 -0.23703,-0.33783 -4.00009,0.85247 -7.85265,2.48391 -2.49862,1.05808 -2.51176,1.08572 -2.84658,5.98223 -0.5055,7.39273 -1.69977,13.10903 -4.25895,20.38534 -5.60299,15.93052 -7.2386,20.52224 -7.97926,22.40049 -0.29864,0.75733 -1.20489,3.54569 -2.01388,6.19635 -0.80899,2.65066 -1.62463,5.18037 -1.81252,5.62157 -0.46124,1.08305 1.90116,1.74891 7.29271,2.05548 12.14034,0.69034 28.78911,1.36584 36.59651,1.48487 l 8.69813,0.13261 z m 25.88032,1.47088 c 2.46133,-0.34972 8.25334,-1.096 12.87113,-1.65841 4.61779,-0.56241 9.20778,-1.33119 10.19996,-1.70842 0.99218,-0.37723 3.13174,-0.68587 4.75458,-0.68587 1.62284,0 3.96253,-0.35275 5.19931,-0.7839 2.1925,-0.76431 2.23806,-0.86151 1.82301,-3.88963 -0.45332,-3.30729 -0.82871,-4.16583 -4.88038,-11.16159 -1.42551,-2.46134 -5.57052,-10.31284 -9.21115,-17.4478 -8.2865,-16.24003 -9.5058,-17.7382 -15.72094,-19.31643 -6.24318,-1.58535 -9.16642,-2.92139 -9.16642,-4.18942 0,-0.57412 -0.28605,-1.04386 -0.63566,-1.04386 -0.34962,0 -1.6422,-0.84695 -2.87242,-1.88211 -1.70079,-1.43112 -2.31432,-1.64945 -2.56042,-0.91113 -0.74408,2.23221 -6.06545,7.03141 -9.94733,8.9712 -3.64502,1.82144 -4.89593,2.08385 -9.93389,2.08385 -4.35626,0 -5.85578,0.23983 -6.14063,0.98213 -0.20729,0.54018 0.28655,3.25108 1.09742,6.02423 1.84939,6.32491 3.10379,11.4496 4.09911,16.74632 0.42693,2.272 1.06955,5.67999 1.42803,7.57332 0.86573,4.57231 2.53612,11.58513 3.77178,15.83513 0.55047,1.89333 1.16467,4.27174 1.36489,5.28536 0.20021,1.01361 0.906,1.99436 1.5684,2.17943 1.66097,0.46406 17.43047,-0.22647 22.89162,-1.0024 z m -78.1369,-6.46239 c 0.7839,-2.65066 1.96424,-6.04058 2.62296,-7.53315 0.65873,-1.49256 1.3788,-3.50638 1.60014,-4.47514 0.41667,-1.82367 3.75582,-11.02552 6.66065,-18.35513 0.91572,-2.31057 1.89095,-6.31151 2.16719,-8.89097 0.27624,-2.57946 0.93353,-6.1108 1.46065,-7.84742 1.77736,-5.85566 1.39377,-7.50203 -2.90229,-12.4571 -2.14988,-2.47966 -4.75568,-4.74435 -5.85212,-5.08604 -1.9103,-0.59532 -2.74061,-1.79373 -1.24278,-1.79373 1.63556,0 3.93307,1.72245 7.52806,5.64382 l 3.78666,4.13044 4.81939,-1.53941 c 2.65066,-0.84668 4.91791,-1.62114 5.03835,-1.72104 0.12042,-0.0999 -0.26685,-1.81752 -0.86061,-3.81693 -1.45121,-4.88678 -1.36027,-10.20516 0.24684,-14.43473 1.22702,-3.22924 1.23991,-3.52367 0.17212,-3.92924 -0.63486,-0.24113 -3.15011,-2.12849 -5.58945,-4.19412 l -4.43515,-3.7557 -1.93332,2.3158 c -1.06332,1.27368 -1.93331,2.52175 -1.93331,2.77345 0,0.58367 -8.07154,15.05915 -9.06338,16.25423 -0.53869,0.64909 -0.50367,1.18603 0.1269,1.94583 1.18963,1.43342 0.32103,2.09735 -1.56394,1.1954 -2.45355,-1.17401 -13.28338,-2.88113 -21.16983,-3.33701 -4.1165,-0.23796 -10.19344,-1.17196 -14.11392,-2.16926 -4.1815,-1.06369 -10.12884,-1.94913 -15.14664,-2.25503 -4.54399,-0.27701 -9.50108,-0.68248 -11.01574,-0.90105 -1.51466,-0.21856 -5.07756,-0.69454 -7.91756,-1.05774 -2.83999,-0.3632 -6.4029,-0.99116 -7.91756,-1.39547 -1.51467,-0.40432 -3.65702,-0.74252 -4.7608,-0.75155 -2.89592,-0.0237 -14.23857,-4.44465 -20.35867,-7.93508 -1.67258,-0.95391 -1.77189,-0.87979 -4.42077,3.29929 -2.6333,4.15451 -7.16804,8.9064 -13.47435,14.11961 -7.10631,5.87452 -10.27343,9.71795 -11.64649,14.13347 -1.57976,5.08023 -1.9163,3.3107 -0.37724,-1.98349 1.03508,-3.56055 5.69939,-9.529 8.65757,-11.07824 2.19543,-1.14977 13.36891,-12.3452 15.61444,-15.64511 2.2431,-3.29635 2.25971,-3.37624 1.00154,-4.81938 -0.70365,-0.80711 -1.69071,-2.70675 -2.19346,-4.22141 -0.50274,-1.51467 -1.30539,-3.21867 -1.78365,-3.78667 -0.47827,-0.568 -1.64595,-2.58181 -2.59485,-4.47514 -0.94891,-1.89333 -2.37841,-4.03261 -3.17667,-4.75397 -0.79826,-0.72135 -1.45138,-1.72826 -1.45138,-2.23757 0,-0.509308 -0.31543,-0.926023 -0.70095,-0.926023 -0.38553,0 -1.76827,-2.246178 -3.07276,-4.991504 -4.90891,-10.330859 -14.79985,-23.850538 -19.63474,-26.838218 -1.32533,-0.818977 -2.5646,-1.660313 -2.75394,-1.869631 -0.83635,-0.924661 -4.65606,-3.283799 -6.56909,-4.057228 -1.16601,-0.471418 -2.6633,-1.903788 -3.37872,-3.232234 -0.70661,-1.312109 -1.57592,-2.385658 -1.93177,-2.385658 -0.35586,0 -1.97568,1.477799 -3.59961,3.283995 -1.62392,1.8062 -3.72842,3.699207 -4.67665,4.206688 -0.94824,0.507477 -2.140503,1.740582 -2.649487,2.740234 -0.508974,0.999653 -1.898651,3.267818 -3.08816,5.040378 -2.383763,3.552183 -4.688661,11.680007 -4.188032,14.768352 0.176074,1.086164 0.799314,2.904298 1.384983,4.040296 0.585659,1.135998 2.402347,4.83802 4.037074,8.226712 1.634727,3.388691 3.499532,7.106501 4.144012,8.261801 0.76499,1.37135 1.18326,3.70548 1.20485,6.72375 0.0182,2.54277 0.46557,5.95076 0.99419,7.57332 0.52863,1.62256 1.35199,4.65135 1.8297,6.73063 0.82824,3.60498 3.38655,8.55551 6.46022,12.501 0.78125,1.00285 2.74619,3.67786 4.36653,5.94447 1.62034,2.26662 4.25379,4.98157 5.85211,6.03322 1.59832,1.05165 4.28159,2.85303 5.96282,4.00309 1.68123,1.15004 3.58106,2.05149 4.22183,2.00322 0.92838,-0.0699 1.22821,0.67402 1.47603,3.66254 0.18991,2.29003 0.73369,4.08051 1.39655,4.59836 0.59705,0.46644 2.53838,3.63089 4.31406,7.03212 1.7757,3.40123 4.07878,7.27395 5.11798,8.60605 1.03919,1.33209 2.17007,2.92238 2.51308,3.53398 0.34301,0.6116 3.67553,4.37008 7.40562,8.35219 6.27511,6.69908 7.00762,7.26563 9.80097,7.58048 1.66043,0.18716 3.84145,0.92103 4.84669,1.63083 1.00524,0.70979 2.32643,1.58794 2.93599,1.95143 0.60955,0.36349 1.88282,1.15558 2.82948,1.76019 0.94666,0.60461 3.42521,1.46315 5.50787,1.90786 11.80704,2.52115 13.91656,2.90013 16.14316,2.90013 1.34524,0 2.4459,-0.26313 2.4459,-0.58473 0,-0.86376 27.40937,-1.49617 29.54957,-0.68179 2.74344,1.04392 13.79084,1.78809 25.16373,1.69506 l 10.30609,-0.0843 z M 156.45792,156.09946 c -0.47333,-0.191 -0.8606,-0.78025 -0.8606,-1.30944 0,-0.74385 0.70086,-0.86612 3.08858,-0.53885 3.65529,0.50101 5.17322,-0.43899 5.17322,-3.20362 0,-2.66233 -1.53216,-3.69524 -4.82597,-3.25345 l -2.74735,0.36849 v -3.72114 -3.72115 h 4.47515 c 3.51891,0 4.47514,0.22067 4.47514,1.03272 0,0.76499 -0.80324,1.03273 -3.09818,1.03273 -2.63918,0 -3.09818,0.204 -3.09818,1.37697 0,1.07554 0.459,1.37697 2.09675,1.37697 2.7982,0 5.47658,2.69368 5.47658,5.50786 0,3.23999 -2.65093,5.52128 -6.33718,5.45352 -1.62655,-0.0299 -3.34462,-0.21062 -3.81796,-0.40161 z M 114.2883,110.08278 v -7.91756 h 4.02419 c 4.65564,0 6.53256,1.39666 6.53256,4.86104 0,2.75065 -1.47114,4.10977 -4.95416,4.57694 -2.84617,0.38175 -2.84866,0.38472 -2.84866,3.38961 0,2.54854 -0.21014,3.00753 -1.37697,3.00753 -1.29714,0 -1.37696,-0.45899 -1.37696,-7.91756 z m 7.1799,-1.42615 c 2.09569,-2.0957 0.78038,-4.42596 -2.49822,-4.42596 -1.79005,0 -1.92775,0.1967 -1.92775,2.75393 0,2.45694 0.18031,2.75393 1.67203,2.75393 0.91962,0 2.15889,-0.48685 2.75394,-1.0819 z m 5.90129,1.42615 v -7.91756 h 4.02419 c 4.65564,0 6.53255,1.39666 6.53255,4.86104 0,2.75065 -1.47113,4.10977 -4.95415,4.57694 -2.84617,0.38175 -2.84866,0.38472 -2.84866,3.38961 0,2.54854 -0.21014,3.00753 -1.37696,3.00753 -1.29715,0 -1.37697,-0.45899 -1.37697,-7.91756 z m 7.1799,-1.42615 c 2.09569,-2.0957 0.78038,-4.42596 -2.49821,-4.42596 -1.79006,0 -1.92776,0.1967 -1.92776,2.75393 0,2.45694 0.18031,2.75393 1.67203,2.75393 0.91963,0 2.1589,-0.48685 2.75394,-1.0819 z m 39.88214,100.31266 c 1.06627,-0.41938 0.81648,-0.71066 -1.50854,-1.75909 -1.53252,-0.69108 -2.93208,-1.63611 -3.11012,-2.10008 -0.17804,-0.46397 -2.40152,-1.43205 -4.94106,-2.1513 -3.95314,-1.1196 -5.09356,-1.82766 -7.92793,-4.92225 -1.82083,-1.988 -3.72069,-3.61757 -4.22191,-3.62127 -0.50122,-0.004 -2.56862,-0.77824 -4.59422,-1.72121 -2.02559,-0.94296 -4.20476,-1.71448 -4.8426,-1.71448 -0.63783,0 -2.8428,-1.08436 -4.89993,-2.40969 -2.05712,-1.32534 -4.15048,-2.4097 -4.65192,-2.4097 -0.87835,0 -4.30051,-2.17726 -6.22229,-3.95877 -0.5106,-0.47334 -1.52792,-0.86061 -2.2607,-0.86061 -0.73279,0 -2.0058,-0.77455 -2.82892,-1.72121 -0.82312,-0.94667 -1.91984,-1.72121 -2.43717,-1.72121 -0.51731,0 -1.46835,-0.92297 -2.11341,-2.05104 -0.64505,-1.12807 -2.02625,-2.40552 -3.06932,-2.83877 -2.06327,-0.857 -6.00402,-4.97558 -6.04905,-6.32201 -0.0154,-0.46015 -0.94484,-1.9093 -2.06545,-3.22034 -1.12061,-1.31102 -2.03747,-2.72812 -2.03747,-3.1491 0,-0.42099 -1.08554,-2.29159 -2.41232,-4.15691 -1.32678,-1.86532 -2.756462,-4.47584 -3.177076,-5.80118 -0.420613,-1.32533 -2.077239,-3.80387 -3.681393,-5.50787 -3.101032,-3.29405 -7.567565,-10.7616 -9.384026,-15.68906 l -1.098479,-2.97982 -2.060773,2.34709 c -3.172729,3.61354 -5.36283,8.64474 -5.306742,12.19089 0.02701,1.704 0.202878,6.50617 0.390938,10.6715 0.318627,7.05723 0.486599,7.78445 2.464832,10.6715 3.052654,4.45507 6.258502,7.29393 9.806885,8.68424 1.703998,0.66765 5.369951,2.54973 8.146573,4.18239 2.776611,1.63267 5.439921,2.96849 5.918451,2.96849 1.14353,0 5.30901,2.08224 6.47287,3.23567 1.11489,1.10488 2.18207,0.56488 2.18207,-1.10415 0,-1.33657 2.51181,-3.98011 3.16303,-3.32889 0.22035,0.22035 -0.24981,1.28042 -1.04481,2.35571 -2.02732,2.74211 -2.27162,4.82675 -1.05666,9.01662 0.92737,3.19808 1.56743,4.01029 5.33191,6.76594 2.35291,1.72237 4.54674,3.70262 4.87517,4.40057 1.11943,2.37892 8.90696,5.54144 16.14757,6.55755 3.69866,0.51906 7.64055,1.32078 8.75974,1.78162 1.11919,0.46084 3.58398,1.05341 5.47731,1.31681 4.65257,0.64728 18.27982,0.69765 19.86694,0.0734 z m 214.404,-1.46863 c 2.73801,-0.75874 7.15995,-1.68896 9.82654,-2.06714 2.66659,-0.3782 6.61653,-1.32417 8.77764,-2.10217 2.16112,-0.778 5.16857,-1.6879 6.68324,-2.022 3.5757,-0.78871 12.67926,-5.2474 13.13412,-6.43276 0.37639,-0.98086 -4.86173,-11.59531 -7.69903,-15.6012 -0.93871,-1.32534 -3.24989,-4.73333 -5.13594,-7.57332 -5.08095,-7.65081 -7.18213,-10.45624 -9.43924,-12.60305 -2.36625,-2.25063 -2.5991,-2.2751 -27.34955,-2.87516 -8.70932,-0.21115 -16.3773,-0.55362 -17.03997,-0.76104 -0.66267,-0.20744 -1.20485,-0.0772 -1.20485,0.28933 0,0.36657 -1.10723,0.92962 -2.46052,1.25125 l -2.46052,0.58475 2.2721,3.09818 c 3.13979,4.28135 5.46567,8.54145 15.59951,28.57207 0.57472,1.136 1.87545,3.30472 2.8905,4.81939 2.2347,3.33461 4.12496,8.73234 4.12496,11.77898 0,2.21303 0.32835,2.46613 3.8005,2.92966 0.38627,0.0516 2.94251,-0.52703 5.68051,-1.28577 z m 46.16874,-13.44484 c 2.52592,-0.95874 5.52203,-2.24785 6.65803,-2.86467 1.136,-0.61682 3.61454,-1.94821 5.50786,-2.95862 8.10165,-4.32365 13.25433,-7.29691 15.76631,-9.0977 1.47681,-1.05869 2.9614,-1.92489 3.29908,-1.92489 1.63292,0 5.41507,-5.46604 8.56571,-12.37921 1.22326,-2.68419 1.46213,-9.31507 0.61431,-17.05347 -0.64953,-5.92871 -0.43813,-5.85982 -9.10081,-2.96598 -4.74723,1.58584 -7.78206,2.11015 -13.98097,2.4154 -4.35466,0.21443 -9.77647,0.69533 -12.04846,1.06866 -2.272,0.37334 -5.98993,0.68058 -8.26206,0.68278 -5.62412,0.006 -18.78104,2.91608 -22.88715,5.06324 -3.50271,1.83163 -5.68467,2.54499 -5.68467,1.85854 0,-0.82074 7.10677,-4.16386 8.8515,-4.16386 1.70804,0 3.5373,-2.95128 5.8535,-9.44387 0.97492,-2.7328 2.56267,-6.22032 3.52834,-7.75004 0.96568,-1.52973 2.87145,-4.94398 4.23504,-7.58722 2.49831,-4.84278 10.29317,-13.08548 12.37451,-13.08548 0.52704,0 0.95826,-0.26353 0.95826,-0.58564 0,-1.27928 10.73359,-3.14632 18.24482,-3.17355 6.94539,-0.0252 7.8699,0.12844 11.15024,1.85283 l 3.57695,1.8803 1.32596,-1.8803 c 4.89941,-6.94779 6.28192,-13.05614 5.28281,-23.340801 -0.72332,-7.445977 -0.82887,-7.779687 -3.91331,-12.373467 -1.74345,-2.596613 -3.92957,-5.539313 -4.85804,-6.539337 -0.92847,-1.000024 -1.86696,-2.284239 -2.08554,-2.853808 -0.57652,-1.502368 -9.1153,-5.897565 -13.87329,-7.141034 -2.24548,-0.586851 -4.56911,-1.31373 -5.16363,-1.615306 -0.59451,-0.301572 -2.93983,-1.070586 -5.21182,-1.708918 -2.272,-0.638338 -5.06036,-1.470602 -6.19636,-1.849488 -2.14213,-0.71445 -6.59031,-1.771403 -24.09693,-5.725757 -16.36267,-3.695964 -20.77465,-4.392496 -22.29148,-3.519234 -3.06754,1.766043 -17.29913,11.565391 -17.67155,12.167981 -0.22368,0.361914 -1.65574,1.29525 -3.18236,2.07407 -1.52661,0.778819 -4.06159,2.581973 -5.63327,4.006995 -1.57169,1.425027 -5.02634,4.211842 -7.677,6.192925 -2.65066,1.981077 -5.74884,4.348508 -6.88484,5.260941 -1.136,0.912434 -4.1214,3.309271 -6.63425,5.326313 -2.51284,2.017037 -5.3012,4.156447 -6.19635,4.754235 -1.50506,1.005105 -1.54582,1.183741 -0.54149,2.373653 2.09142,2.477865 2.75055,6.984095 2.83064,19.352077 l 0.0792,12.22795 2.5175,2.4097 c 1.38461,1.32533 3.86387,4.57842 5.50945,7.22908 1.64558,2.65066 3.97607,5.756 5.17887,6.90076 1.2028,1.14475 2.76056,3.62329 3.4617,5.50787 0.70113,1.88457 1.68306,4.03761 2.18204,4.78453 0.49899,0.74692 0.90725,2.19839 0.90725,3.22548 0,3.63542 1.10033,5.23325 3.91599,5.68655 2.44522,0.39367 31.59661,1.3261 36.49832,1.16743 2.09502,-0.0678 7.09107,2.25998 7.09107,3.30393 0,0.27032 1.37115,2.02117 3.04699,3.89077 1.67585,1.8696 4.05468,5.10327 5.2863,7.18594 1.2316,2.08266 3.41738,5.39199 4.85728,7.35406 1.43988,1.96208 3.13583,4.90534 3.76875,6.54059 0.63292,1.63526 1.68455,3.59283 2.33694,4.35017 1.70313,1.97707 2.73522,4.16819 2.73522,5.80685 0,1.81695 0.51853,1.78958 6.07892,-0.32095 z m -285.31643,-3.82206 c -3.8177,-4.03585 -4.34282,-4.69353 -7.4719,-9.35787 -1.72822,-2.5762 -3.14223,-5.0608 -3.14223,-5.52136 0,-0.46056 -0.80358,-2.01296 -1.78572,-3.44977 -2.56907,-3.75836 -5.09912,-8.90244 -5.09912,-10.36748 0,-0.78343 -1.44239,-2.15973 -3.81212,-3.63743 -4.65821,-2.90475 -10.73133,-7.85347 -11.60528,-9.45663 -0.3545,-0.65028 -1.36805,-1.86462 -2.25234,-2.69854 -0.88429,-0.83392 -1.6078,-1.7928 -1.6078,-2.13086 0,-0.33806 -0.6518,-1.20453 -1.44846,-1.92549 -0.79665,-0.72095 -1.98892,-2.36432 -2.6495,-3.65192 l -1.20104,-2.34109 -0.43397,2.71383 c -0.35447,2.21678 -1.00777,3.11829 -3.56697,4.92218 -3.17343,2.23684 -4.469737,2.70186 -4.469737,1.6034 0,-0.33273 0.939957,-0.9943 2.088787,-1.47016 2.58575,-1.07105 4.79605,-3.78766 4.79605,-5.89466 0,-0.87325 0.33312,-1.79361 0.74027,-2.04524 0.478,-0.29542 0.23589,-0.99438 -0.68342,-1.97292 -0.85292,-0.90791 -1.58854,-2.87983 -1.83496,-4.91888 -0.22622,-1.8719 -0.82067,-4.79763 -1.32099,-6.50163 -0.50032,-1.704 -1.09032,-5.30235 -1.31111,-7.99634 -0.43578,-5.31729 -1.749742,-9.17935 -3.831143,-11.26076 -0.728629,-0.72862 -1.664299,-2.58565 -2.079264,-4.126704 -0.41497,-1.541059 -1.662735,-4.456888 -2.772811,-6.479604 -1.110087,-2.022723 -1.793819,-3.935769 -1.519408,-4.251225 0.274405,-0.315457 -0.430533,0.177448 -1.566531,1.095339 -1.135998,0.917897 -3.068935,2.79263 -4.295426,4.166077 -2.037536,2.281678 -2.295083,3.095677 -2.984468,9.432597 -0.779982,7.16972 -0.190125,12.76903 1.755757,16.66669 0.472617,0.94666 1.026013,3.02752 1.22977,4.62413 0.546172,4.27965 7.036563,16.45698 11.086267,20.80013 0.908158,0.97396 2.949361,4.09448 4.536007,6.93447 7.55801,13.52838 10.94768,18.44468 13.8367,20.06839 1.41745,0.79665 2.90835,2.17532 3.31313,3.06371 0.40478,0.8884 1.83087,2.07274 3.16908,2.63187 1.33823,0.55915 2.43313,1.34226 2.43313,1.74024 0,0.398 0.61963,0.72362 1.37697,0.72362 0.75733,0 1.98644,0.60947 2.73135,1.35439 1.18742,1.18742 7.96419,4.77442 17.92316,9.48688 1.70399,0.80631 3.69199,1.48524 4.41777,1.50873 1.14193,0.037 1.04924,-0.24309 -0.68848,-2.08011 z m -29.20319,-19.52844 c 0,-1.5439 -0.29858,-1.70268 -3.56042,-1.89333 -1.95824,-0.11445 -3.67055,-0.54287 -3.80515,-0.95205 -0.1346,-0.40917 1.30643,-3.12008 3.20228,-6.02423 2.78928,-4.27276 3.77808,-5.28028 5.18212,-5.28028 1.70025,0 1.7351,0.10371 1.7351,5.16362 0,4.13091 0.20655,5.16363 1.03273,5.16363 0.568,0 1.03273,0.46473 1.03273,1.03273 0,0.568 -0.46473,1.03272 -1.03273,1.03272 -0.64258,0 -1.03273,0.65023 -1.03273,1.72121 0,1.26222 -0.36719,1.72121 -1.37697,1.72121 -1.00193,0 -1.37696,-0.45899 -1.37696,-1.68523 z m -0.005,-7.78142 -0.005,-3.95878 -1.40507,2.06545 c -0.77279,1.136 -1.86306,2.91745 -2.42283,3.95878 l -1.01778,1.89333 h 2.42738 2.42737 l -0.005,-3.95878 z M 88.29821,121.67527 c -0.473329,-0.19099 -0.860601,-0.80021 -0.860601,-1.35381 0,-0.7771 0.548274,-0.90369 2.405166,-0.55534 1.322839,0.24817 3.147577,0.26488 4.054966,0.0371 3.505504,-0.87983 2.682783,-5.00303 -1.072279,-5.37391 -2.955805,-0.29194 -3.322908,-1.78345 -0.507574,-2.06226 2.653072,-0.26275 4.278045,-2.29408 2.693038,-3.3665 -0.567999,-0.38431 -2.365179,-0.56668 -3.993735,-0.40527 -2.459075,0.24372 -2.924813,0.1029 -2.747484,-0.83075 0.276998,-1.45841 6.553635,-1.94531 8.220784,-0.63772 1.878642,1.47346 2.194439,3.75706 0.723053,5.22845 -1.27239,1.27239 -1.273402,1.33324 -0.03527,2.10651 1.286818,0.80363 1.718156,3.87602 0.748117,5.32879 -1.303444,1.95209 -6.79646,3.02731 -9.628229,1.88467 z m -24.426649,46.99958 c 0.75313,-1.65295 3.827306,-4.31066 7.046947,-6.09229 6.091774,-3.37095 6.177929,-3.46297 6.287569,-6.71562 0.226156,-6.70896 -0.611343,-15.14664 -1.503411,-15.14664 -1.255087,0 -7.947371,-3.49533 -9.887263,-5.16405 -1.10023,-0.94643 -2.248119,-1.72079 -2.550873,-1.72079 -0.302744,0 -2.42784,-2.40108 -4.722417,-5.33574 -2.294587,-2.93467 -5.587055,-7.03975 -7.316591,-9.12241 -1.729541,-2.08267 -3.459295,-4.63866 -3.843887,-5.67999 -0.384597,-1.04134 -1.211139,-1.89107 -1.836764,-1.8883 -0.62562,0.003 -3.950666,1.93913 -7.388981,4.30303 -3.438315,2.36389 -6.846315,4.6298 -7.573328,5.03535 -0.727007,0.40555 -2.494094,2.8841 -3.926854,5.50787 -2.577435,4.71999 -2.600842,4.83246 -2.210533,10.62261 0.483692,7.17549 1.815485,11.48921 4.301676,13.93336 1.039965,1.02238 3.594851,3.55753 5.677512,5.63368 2.082662,2.07615 5.02593,4.28169 6.540597,4.90119 1.514663,0.61951 3.993204,2.32072 5.507866,3.78047 4.072652,3.92503 6.19405,4.78944 11.765831,4.79428 4.484291,0.004 4.942108,-0.12988 5.632904,-1.64601 z M 354.96984,156.55543 c 2.48541,0 4.52916,-2.3591 4.03514,-4.65776 -1.19277,-5.54995 -5.15276,-13.84479 -8.05024,-16.86255 -1.41999,-1.47894 -2.58181,-2.95139 -2.58181,-3.27211 0,-0.32072 -0.39747,-0.99253 -0.88326,-1.49291 -0.4858,-0.50038 -1.62001,-1.99414 -2.52046,-3.31947 -2.27175,-3.34365 -4.97528,-6.19991 -5.8475,-6.17784 -0.40249,0.0102 -1.74154,0.86219 -2.97568,1.89333 l -2.24388,1.87481 1.4464,3.78666 c 1.73729,4.54822 1.65935,13.42184 -0.149,16.96413 l -1.10356,2.16171 2.6624,1.49636 c 1.46432,0.82299 2.97094,2.07285 3.34804,2.77748 0.76312,1.4259 10.84171,5.65059 12.28159,5.14812 0.5043,-0.17598 1.66612,-0.31996 2.58182,-0.31996 z m 75.26117,-8.22925 c 6.20866,-0.42029 11.5612,-0.93271 11.89451,-1.13871 0.33331,-0.20599 3.46365,-0.50906 6.95632,-0.67348 6.15801,-0.28988 17.25471,-2.53703 22.8739,-4.6321 2.63882,-0.98387 2.77266,-1.18066 3.20222,-4.70872 0.88944,-7.30569 0.64359,-12.35558 -0.74547,-15.31076 -0.73143,-1.55614 -1.49807,-3.60389 -1.70364,-4.55056 -0.48042,-2.21206 -3.92337,-4.44567 -8.46667,-5.49273 -2.75631,-0.63523 -5.61477,-0.64292 -12.39271,-0.0334 -10.22711,0.91971 -12.68193,1.88265 -18.27855,7.16995 -3.86943,3.65559 -5.07504,5.30471 -8.10972,11.09312 -0.99262,1.89333 -2.41658,4.52678 -3.16437,5.85211 -0.74779,1.32533 -2.01228,4.11369 -2.80996,6.19636 -0.7977,2.08266 -1.95343,4.96206 -2.5683,6.39866 l -1.11794,2.612 1.57094,-1.00879 c 1.05892,-0.68 5.25018,-1.25786 12.85944,-1.77296 z M 80.587081,129.41601 c 1.162436,-1.72241 2.543747,-3.37241 3.069575,-3.66668 0.760365,-0.42552 0.810184,-1.09719 0.243367,-3.28141 -2.477565,-9.5473 -2.689398,-11.17857 -2.278776,-17.54877 0.231873,-3.59733 0.676415,-7.717663 0.987869,-9.156296 0.525095,-2.425496 0.363478,-2.851046 -2.222508,-5.852115 -1.53383,-1.780027 -3.494165,-3.896484 -4.3563,-4.703244 -0.862129,-0.806765 -2.371251,-3.052943 -3.353595,-4.991509 -0.982349,-1.93857 -2.054324,-3.524671 -2.382183,-3.524671 -0.327849,0 -1.447571,-1.74037 -2.48827,-3.86748 l -1.89218,-3.86748 -2.717328,3.178998 c -1.494524,1.748446 -3.098941,3.178998 -3.565361,3.178998 -0.46642,0 -2.445732,1.471634 -4.398471,3.270296 -2.778879,2.559615 -4.153931,4.636612 -6.327478,9.557585 -2.666817,6.037753 -2.776431,6.570588 -2.761911,13.425428 0.01219,5.74698 0.284031,7.67487 1.394924,9.89208 2.271355,4.53338 2.917702,5.45622 7.084516,10.11511 2.19605,2.4554 4.832629,5.73289 5.859066,7.28333 2.08485,3.14919 3.424672,4.2659 9.399062,7.83385 6.032563,3.6027 5.975701,3.60675 7.370562,-0.52499 0.672041,-1.99066 2.172984,-5.02863 3.33542,-6.75103 z m 185.167629,9.73652 c 0,-0.48362 0.92945,-1.89691 2.06545,-3.14067 1.136,-1.24376 2.06545,-2.80086 2.06545,-3.46022 0,-0.65937 0.88897,-2.4217 1.97549,-3.9163 1.08652,-1.49459 2.39245,-3.89149 2.90207,-5.32644 0.50963,-1.43495 1.86684,-3.63007 3.01602,-4.87804 2.06521,-2.24272 2.0821,-2.32291 1.45738,-6.9141 -0.67832,-4.98509 -0.34363,-7.04422 2.80685,-17.269111 0.93339,-3.029325 2.30688,-6.157404 3.05217,-6.951281 0.74531,-0.793877 1.95391,-3.081689 2.68579,-5.084025 l 1.33069,-3.640611 -2.33347,-2.726137 c -2.9838,-3.485893 -8.63118,-14.827465 -8.63118,-17.33389 0,-1.05495 -0.57918,-2.740467 -1.28707,-3.745587 -0.70788,-1.005116 -1.92547,-3.066762 -2.70576,-4.581425 -1.47174,-2.856911 -13.53883,-15.505445 -18.59267,-19.488538 -1.58862,-1.252046 -2.8884,-2.723679 -2.8884,-3.270296 0,-0.665111 -0.74014,-0.989294 -2.23757,-0.980062 -2.0098,0.01239 -8.46326,-0.519884 -34.25207,-2.825031 -4.35465,-0.389239 -11.01573,-1.144022 -14.8024,-1.677296 -3.78666,-0.533273 -11.16995,-1.314758 -16.40731,-1.736631 -5.23737,-0.421879 -10.96899,-1.185595 -12.73695,-1.69715 -4.54897,-1.31624 -6.66494,-1.473343 -7.76601,-0.576597 -1.7558,1.429974 -5.74591,3.451431 -8.52965,4.321265 -1.51466,0.473293 -6.47175,2.200371 -11.01574,3.837959 -4.54399,1.637577 -9.65598,3.3487 -11.35998,3.80248 -1.704,0.453785 -3.71781,1.080092 -4.47515,1.391799 -0.75732,0.311702 -1.9966,0.739494 -2.75393,0.950634 -2.0779,0.579328 -12.7679,11.312796 -13.85266,13.908991 -1.02578,2.455031 -1.31575,10.579071 -0.3776,10.579071 0.31468,0 0.96842,0.740443 1.45276,1.645426 0.48433,0.904983 1.6985,2.051081 2.69815,2.546887 0.99965,0.495796 2.747,1.568344 3.883,2.383427 1.136,0.815089 3.09541,2.012498 4.35426,2.660921 3.09566,1.594549 9.50997,8.537671 11.63227,12.591284 0.95076,1.81594 2.48934,4.116052 3.41907,5.111362 0.92973,0.995304 1.76033,2.234575 1.84578,2.753933 0.0855,0.519358 1.00681,2.2767 2.04746,3.905205 1.04066,1.628505 2.24957,3.797229 2.68648,4.819384 0.4369,1.022156 2.37011,4.027191 4.29601,6.67785 3.64232,5.01302 8.61799,14.07762 8.61799,15.70011 0,1.0273 0.0829,1.07305 9.98302,5.50844 10.74296,4.81302 18.04921,6.84842 29.26056,8.15151 2.83999,0.33009 5.93817,0.69609 6.88484,0.81333 0.94666,0.11724 5.43902,0.45697 9.98301,0.75496 4.54399,0.29799 10.43053,1.11536 13.08119,1.81639 2.65066,0.70102 8.07247,1.59132 12.04846,1.97844 8.14652,0.79319 15.37973,1.77372 19.96603,2.70661 4.47139,0.90951 5.50787,0.89102 5.50787,-0.0982 z M 145.95855,78.412527 c 0,-0.642582 0.65023,-1.032725 1.7212,-1.032725 1.70057,0 1.72122,-0.07 1.72122,-5.8349 v -5.834899 l -2.06545,0.41309 c -1.56464,0.312927 -2.06546,0.161281 -2.06546,-0.625398 0,-1.121472 1.97117,-1.863171 4.99151,-1.878171 l 1.89333,-0.0094 v 6.884835 6.884841 h 1.72121 c 1.07097,0 1.72121,0.390143 1.72121,1.032725 0,0.819623 -0.99447,1.032726 -4.81939,1.032726 -3.82491,0 -4.81938,-0.213103 -4.81938,-1.032726 z m 174.4743,50.185653 c 0.59898,-0.22985 1.08904,-1.12172 1.08904,-1.98193 0,-2.20468 -3.37928,-3.4552 -9.29453,-3.43948 -5.15952,0.0137 -8.78276,1.28066 -9.15247,3.2004 -0.19271,1.00068 0.59181,1.12431 6.53218,1.02946 4.2722,-0.0682 7.25681,0.19979 8.12816,0.72989 1.66503,1.01293 1.38563,0.96512 2.69762,0.46166 z M 299.86019,116.6058 c 8.8589,-6.09508 21.05991,-5.03096 29.24936,2.55103 4.41131,4.0841 4.92358,4.12594 8.15926,0.66635 1.58998,-1.69999 1.63108,-2.048 1.55956,-13.2041 -0.0404,-6.30196 -0.37953,-12.593054 -0.75361,-13.980216 -0.81031,-3.004761 -4.25732,-6.997258 -6.04123,-6.997258 -0.69862,0 -2.49753,-0.646032 -3.99759,-1.435628 -4.60512,-2.424018 -6.44845,-2.762783 -18.90676,-3.474625 -20.75421,-1.185859 -18.78344,-1.350805 -19.77345,1.654937 -0.47043,1.428239 -1.47245,3.259199 -2.22672,4.068799 -1.86101,1.99756 -5.53917,10.996462 -5.53917,13.551991 0,1.13767 -0.33352,2.94066 -0.74115,4.00664 -0.456,1.19246 -0.56491,3.9455 -0.28306,7.15552 l 0.45808,5.21737 4.58608,3.46728 c 2.52235,1.907 5.05082,3.62995 5.61882,3.82877 0.6333,0.22168 1.92487,-0.67974 3.33943,-2.33066 1.26869,-1.4807 3.65015,-3.61648 5.29215,-4.7462 z M 87.65175,89.518814 c 2.969793,-2.886318 3.109665,-3.203788 3.467691,-7.87069 0.228149,-2.973935 0.954724,-6.017935 1.870364,-7.835991 1.977643,-3.926728 6.011438,-9.598797 7.744965,-10.890489 0.76228,-0.567999 3.19375,-2.891631 5.40326,-5.163628 3.07119,-3.158043 4.01999,-4.617331 4.0287,-6.196354 0.0254,-4.595691 3.31104,-10.266459 8.52805,-14.718621 2.83174,-2.416578 3.85532,-3.558447 3.85532,-4.300838 0,-0.42605 -1.54909,-2.179908 -3.44242,-3.897459 -2.30954,-2.095127 -3.44242,-3.667297 -3.44242,-4.777285 v -1.654463 l -2.58181,1.422053 c -1.42,0.782129 -5.1342,2.332519 -8.25378,3.445307 -3.11957,1.112792 -6.682475,2.777133 -7.917558,3.698536 -2.429869,1.812743 -7.302031,4.645721 -12.228617,7.11048 -4.922837,2.46288 -7.789709,5.828213 -14.568329,17.101291 -2.357056,3.919875 -2.893108,5.443114 -2.907442,8.261804 -0.02515,4.941892 1.251942,9.916138 2.984256,11.62374 0.820687,0.80898 2.635568,3.231589 4.033057,5.383588 1.397489,2.151993 3.32676,4.785991 4.287257,5.853318 0.960497,1.067337 2.490392,2.946965 3.399774,4.176967 0.909376,1.229996 1.876529,2.236362 2.149231,2.236362 0.272701,0 1.8884,-1.353434 3.590451,-3.007628 z M 83.306531,65.561931 c 0,-0.441175 1.858906,-2.737993 4.130902,-5.10404 2.271997,-2.366046 4.130903,-4.75551 4.130903,-5.309918 0,-1.912918 -1.89025,-2.736206 -5.15738,-2.246266 -1.965716,0.294771 -3.104425,0.206406 -3.104425,-0.240909 0,-2.311778 7.471212,-2.593924 9.566571,-0.361283 0.891603,0.950024 0.905545,1.07264 0.0722,0.635095 -0.839038,-0.440535 -0.871316,-0.368342 -0.17212,0.384959 1.622046,1.747526 0.886993,3.775794 -2.61593,7.218261 l -3.476531,3.41654 3.595202,0.344238 c 1.994544,0.190982 3.721168,0.7274 3.878142,1.20485 0.210697,0.640837 -1.138177,0.860601 -5.282293,0.860601 -3.776837,0 -5.565239,-0.257768 -5.565239,-0.802128 z M 336.7605,84.092518 c 1.15593,-0.851999 3.25031,-2.63345 4.65418,-3.958783 1.40387,-1.325333 5.55757,-4.533211 9.23044,-7.128615 3.67285,-2.59541 6.67792,-4.929695 6.67792,-5.187303 0,-0.257614 0.852,-0.985221 1.89333,-1.616908 1.04134,-0.631682 2.8484,-2.059921 4.01571,-3.17386 1.16731,-1.113939 3.40488,-2.679618 4.97237,-3.479293 1.56749,-0.799676 3.97868,-2.444973 5.35822,-3.656215 1.37953,-1.211248 4.87359,-3.683763 7.76458,-5.494484 2.89099,-1.810713 6.2924,-4.26148 7.55867,-5.44615 1.98345,-1.855622 2.25768,-2.500523 1.98,-4.656425 -0.59238,-4.599244 -3.67653,-11.684774 -6.40005,-14.703503 -2.45855,-2.725016 -3.09754,-3.032743 -8.53174,-4.108709 -3.23078,-0.639685 -7.82045,-1.181866 -10.19928,-1.204844 -2.37882,-0.02298 -5.47699,-0.525611 -6.88483,-1.116965 -2.53138,-1.0633 -6.30733,-1.755215 -17.01786,-3.118403 -3.02933,-0.385563 -7.52168,-1.180927 -9.98301,-1.767479 -8.6452,-2.06021 -12.32217,-1.994854 -45.04105,0.800569 -7.81903,0.668039 -13.87111,1.554046 -16.52361,2.419005 -2.30205,0.750678 -5.96439,1.850742 -8.13853,2.444596 -4.33141,1.18309 -8.09547,4.271621 -8.09547,6.642583 0,0.791956 1.12501,2.367715 2.54277,3.561581 4.06203,3.420532 14.85593,14.281051 17.1818,17.287847 2.4307,3.142315 4.73896,7.95994 6.24522,13.034567 1.37339,4.626967 5.86355,12.722373 8.75992,15.793415 l 2.32613,2.466422 12.62597,0.411784 c 13.566,0.442446 18.42734,1.268022 25.85124,4.390184 2.57142,1.081429 4.7653,1.999584 4.8753,2.04035 0.10999,0.04074 1.14575,-0.622966 2.30166,-1.474964 z M 469.12973,63.726457 c 0.47537,-0.769096 8.46913,-2.072432 15.059,-2.455274 2.94157,-0.17089 6.65938,-0.77741 8.26181,-1.347825 1.60243,-0.570416 3.80683,-1.229806 4.89873,-1.465298 1.89784,-0.409326 1.74618,-0.564726 -3.44238,-3.527533 -10.15516,-5.798806 -21.82118,-11.310705 -27.11494,-12.811085 -1.32533,-0.375628 -3.71222,-1.271884 -5.30418,-1.991673 -1.59198,-0.719794 -5.01597,-1.754978 -7.60889,-2.300417 -2.59291,-0.545434 -6.09256,-1.438096 -7.777,-1.983701 -1.68444,-0.545594 -5.07643,-1.350495 -7.53776,-1.78866 -4.56946,-0.813462 -18.26319,-3.953299 -27.53935,-6.314486 -2.84,-0.722908 -9.28654,-1.776423 -14.32567,-2.341148 -5.03912,-0.56473 -9.79037,-1.363053 -10.55834,-1.774052 -2.27102,-1.215415 -2.11532,-0.363256 0.45953,2.514976 1.32916,1.485777 2.7363,3.94069 3.12698,5.455352 0.39067,1.514662 1.00499,3.652167 1.36514,4.750001 0.36014,1.097844 0.65482,3.145955 0.65482,4.551366 v 2.555298 l 3.60599,0.427074 c 1.98329,0.234893 7.48255,1.343369 12.22058,2.463293 4.73803,1.119913 10.16369,2.321649 12.05702,2.67052 12.47884,2.299394 37.33539,9.927101 43.36546,13.307521 3.52089,1.973792 5.50179,2.427809 6.13345,1.405751 z M 48.366101,37.729398 c 1.319085,-1.67694 10.652383,-6.478009 12.593287,-6.478009 0.489166,0 0.992671,-0.245091 1.118896,-0.544644 0.501115,-1.18926 7.574175,-4.27474 9.799285,-4.27474 3.280866,0 4.544122,-0.607444 4.544122,-2.185046 0,-1.863543 3.236329,-5.93482 5.751656,-7.235548 1.783615,-0.922343 1.930593,-1.189318 1.019987,-1.852746 -0.585147,-0.42632 -2.815194,-1.368413 -4.955663,-2.093552 -3.030218,-1.026555 -4.233534,-1.151747 -5.435673,-0.56552 -2.699292,1.316312 -8.2776,2.849036 -13.106377,3.60117 -2.572684,0.400724 -6.600314,1.460538 -8.950285,2.355141 -5.983442,2.277821 -8.952657,3.156717 -10.664477,3.156717 -0.832175,0 -2.685608,1.260245 -4.254142,2.892628 -2.37734,2.474101 -2.779498,3.325764 -2.779498,5.886231 0,2.453193 0.403935,3.403032 2.237575,5.261582 3.138794,3.18144 4.514849,3.815281 8.334839,3.839199 2.79107,0.0175 3.575099,-0.273714 4.746468,-1.762863 z m 42.759634,-4.756796 c 0.567999,-0.567999 1.250218,-1.032725 1.516041,-1.032725 0.265824,0 1.954309,-1.056809 3.752197,-2.34846 1.797882,-1.29165 5.176667,-2.837207 7.508397,-3.434571 2.33175,-0.597365 5.38457,-1.864194 6.78407,-2.815169 1.39949,-0.950985 3.05865,-1.729056 3.68704,-1.729056 0.6318,0 1.3279,-0.738636 1.55723,-1.652412 0.26505,-1.056014 1.21514,-1.931435 2.63239,-2.425491 l 2.21765,-0.773077 -1.81738,-1.685161 c -0.99955,-0.92684 -2.21278,-2.778641 -2.69604,-4.115106 -0.9612,-2.6581377 -2.67608,-3.1611783 -5.09614,-1.4948911 -0.74692,0.5142818 -3.52676,1.3171541 -6.17742,1.7841681 -8.759653,1.543346 -15.257851,3.320584 -19.201298,5.251502 -4.09124,2.003281 -8.700677,6.801773 -8.657896,9.012999 0.06458,3.337691 4.197802,7.146688 8.525578,7.856769 4.304984,0.706343 4.364247,0.702011 5.465581,-0.399319 z m 43.817075,-4.634784 c 3.59732,-1.165818 9.01913,-3.158426 12.04846,-4.428023 3.02933,-1.269607 6.24815,-2.305854 7.15293,-2.302776 0.90479,0.0031 3.15562,-0.923851 5.00185,-2.059849 1.84624,-1.135998 3.66196,-2.065451 4.03493,-2.065451 1.56212,0 0.48924,-1.253027 -2.05539,-2.400493 -3.81757,-1.721487 -5.11384,-3.38702 -5.15177,-6.6193372 -0.0284,-2.4261615 -0.19451,-2.7002985 -1.40923,-2.3265809 -3.16337,0.973225 -6.36303,1.833031 -8.95029,2.405099 -1.51466,0.3349077 -5.46035,1.7091661 -8.7682,3.0539041 -3.30785,1.344743 -6.56094,2.458589 -7.22908,2.475205 -2.09632,0.05215 -6.03376,1.713473 -9.71592,4.09943 -3.06852,1.988332 -3.54735,2.599856 -3.54735,4.530361 0,1.834265 0.64377,2.791426 3.61454,5.374071 4.21558,3.664838 4.46819,3.6693 14.97452,0.26444 z M 254.56236,23.00614 c 2.74077,-2.796017 5.78715,-4.098547 15.32325,-6.551709 7.68337,-1.976549 10.25688,-2.289847 25.4739,-3.101156 8.14132,-0.43406 16.04167,-1.023555 17.55633,-1.309987 2.74414,-0.518934 2.73802,-0.522637 -1.72121,-1.04106 -2.46133,-0.286147 -6.22386,-0.959138 -8.36117,-1.4955359 -2.13733,-0.5363925 -5.29279,-0.9752647 -7.01214,-0.9752647 -1.71936,0 -3.98864,-0.3279369 -5.04286,-0.728748 -1.05422,-0.4008111 -5.79911,-0.8541312 -10.5442,-1.0073825 -4.74509,-0.1532461 -10.48635,-0.5980565 -12.75834,-0.9884681 -2.272,-0.3904167 -6.92131,-0.7116354 -10.3318,-0.71383 -3.4105,-0.00207 -7.28322,-0.3358475 -8.60604,-0.7414556 -3.76274,-1.1537249 -13.3494,-1.4978806 -64.55695,-2.3175807 l -22.21975,-0.3556759 -2.73779,2.8211067 c -1.50578,1.551608 -2.73779,3.2247009 -2.73779,3.7179874 0,1.1252164 3.32463,5.1334363 4.25794,5.1334363 0.38122,0 1.5155,0.566377 2.52062,1.258618 1.00511,0.692242 3.53149,1.607061 5.61415,2.032931 5.60873,1.146893 22.58608,3.402056 32.01449,4.252604 4.54399,0.409914 11.35998,1.050659 15.14664,1.42387 3.78666,0.373217 8.58884,0.684201 10.6715,0.691085 2.08266,0.0069 5.02593,0.32963 6.5406,0.717227 2.97276,0.760711 11.31366,1.764531 15.95424,1.92007 2.49997,0.0838 3.22151,-0.259178 5.55638,-2.641082 z M 47.505376,18.505687 c 5.936302,-2.149123 9.814858,-3.205761 17.556334,-4.782883 6.939626,-1.413765 9.12761,-2.367136 9.581328,-4.1748701 0.197896,-0.7884911 1.440105,-2.5139121 2.760465,-3.8342776 l 2.400663,-2.4006529 -7.715472,0.9133218 c -4.243505,0.502328 -10.194008,1.3680927 -13.223338,1.923921 -3.029324,0.5558284 -6.808599,1.009164 -8.398381,1.0074083 -1.589788,-0.00155 -5.462509,0.8106896 -8.606048,1.8054315 -3.143539,0.994747 -7.26462,1.846746 -9.157947,1.893332 -2.888058,0.07106 -3.74727,0.417324 -5.335409,2.150155 -2.472557,2.69782 -2.155815,3.967974 1.210621,4.854611 1.511295,0.398033 3.832181,1.237959 5.157514,1.866491 3.160099,1.498671 7.259585,1.134857 13.76967,-1.221988 z m 47.235141,-6.142925 c 4.124624,-0.987281 9.908493,-2.4081304 12.853043,-3.1574399 2.94456,-0.7493044 5.95555,-1.3623767 6.69111,-1.3623767 0.86757,0 1.2066,-0.3407943 0.9651,-0.9701372 -0.20475,-0.5335784 -0.0527,-2.1276727 0.33797,-3.5424344 L 116.29799,0.75807653 104.54966,1.2467468 C 98.088077,1.5155136 92.039011,2.0252463 91.107286,2.3794866 90.175566,2.733727 87.80687,3.0283997 85.843525,3.0343121 c -3.14039,0.00945 -3.927373,0.3241002 -6.543489,2.6160898 -2.54984,2.2339248 -2.907499,2.8693711 -2.508908,4.4574811 0.365879,1.457785 1.072361,2.005553 3.318007,2.572602 1.569232,0.396246 3.472788,0.998196 4.230122,1.337658 0.757328,0.339468 1.720087,0.509764 2.139456,0.378443 0.419359,-0.131322 4.137171,-1.046544 8.261804,-2.033824 z M 128.2234,13.323 c 2.17365,-0.351803 5.64445,-1.542742 7.7129,-2.646524 2.06845,-1.1037876 5.402,-2.2275686 7.4079,-2.4972958 2.00588,-0.2697273 3.95689,-0.7307773 4.33555,-1.0245516 0.37867,-0.2937742 2.46994,-1.090207 4.64727,-1.7698489 2.17733,-0.6796468 3.95878,-1.4889576 3.95878,-1.7984707 0,-0.309513 0.46473,-0.5627476 1.03273,-0.5627476 0.568,0 1.03272,-0.2722884 1.03272,-0.6050791 0,-0.6207816 -15.25191,-1.52228389 -29.94904,-1.77021032 -6.35586,-0.10721756 -8.63365,0.0990332 -9.87368,0.89404082 -2.54571,1.6321092 -3.07602,3.9278165 -1.79692,7.7788243 1.29102,3.8869049 3.32965,5.6588919 5.81849,5.0574479 0.94667,-0.228769 3.49965,-0.703782 5.6733,-1.055585 z m -58.863146,219.15231 -2.586296,-0.27034 3.576603,-3.7053 c 1.967135,-2.03792 3.826924,-3.5506 4.132859,-3.36151 0.778479,0.48112 -1.364845,4.42377 -2.293766,4.21939 -0.417712,-0.0919 -0.901466,0.22018 -1.075021,0.69351 -0.432222,1.17879 2.335343,1.11349 3.035278,-0.0716 0.777023,-1.31563 3.648749,-2.75814 3.648749,-1.83281 0,0.43041 0.700513,0.55 1.721207,0.29382 1.016714,-0.25518 1.721213,-0.13635 1.721213,0.2903 0,0.88854 3.409259,-0.78235 4.197023,-2.05697 1.152991,-1.86558 1.354476,0.0922 0.234697,2.28058 l -1.177679,2.30155 1.413827,-1.25967 c 1.458219,-1.29923 7.608605,-2.29463 9.557395,-1.5468 0.918366,0.3524 0.938685,0.58295 0.138307,1.56981 -0.793969,0.97897 -0.792162,1.0688 0.01177,0.5845 0.656866,-0.3957 0.851669,-0.27717 0.63144,0.3842 -0.175171,0.52604 -0.880208,1.06532 -1.566743,1.19839 -0.942899,0.18276 -1.135611,-0.0516 -0.787799,-0.95798 0.404451,-1.05397 0.32,-1.08341 -0.694157,-0.24195 -0.797904,0.66202 -3.142078,0.96721 -7.587832,0.98783 -5.61606,0.0261 -6.48341,-0.12824 -6.828278,-1.21484 -0.21728,-0.68458 -0.715643,-1.04656 -1.107474,-0.80439 -0.459522,0.28399 -0.38768,0.64099 0.202393,1.00568 1.236834,0.76441 -0.935427,1.62475 -2.842861,1.12594 -0.751292,-0.19646 -1.539489,-0.0765 -1.751549,0.26664 -0.21206,0.34312 -0.599642,0.57176 -0.861293,0.50811 -0.261651,-0.0637 -1.63956,-0.23739 -3.062026,-0.38607 z m -13.650442,-0.53092 c -0.461479,-2.76886 0.01854,-5.49792 1.106937,-6.29381 1.473978,-1.07779 3.66694,-1.197 5.119412,-0.27827 0.867283,0.54858 0.843649,0.81458 -0.17212,1.937 -0.647611,0.7156 -1.177472,1.94063 -1.177472,2.7223 0,0.78167 -0.490064,1.60928 -1.08904,1.83912 -1.316049,0.50501 -3.708073,0.55154 -3.787717,0.0737 z m 3.499788,-1.72121 c 0,-0.37867 -0.464727,-0.68848 -1.032726,-0.68848 -0.567999,0 -1.032725,0.30981 -1.032725,0.68848 0,0.37867 0.464726,0.68849 1.032725,0.68849 0.567999,0 1.032726,-0.30982 1.032726,-0.68849 z m 1.376969,-3.44242 c 0,-0.37866 -0.309818,-0.68848 -0.688487,-0.68848 -0.378664,0 -0.688482,0.30982 -0.688482,0.68848 0,0.37867 0.309818,0.68849 0.688482,0.68849 0.378669,0 0.688487,-0.30982 0.688487,-0.68849 z m 1.032726,4.81939 c 0.234026,-0.37867 0.735321,-0.68848 1.113985,-0.68848 0.378664,0 0.49701,0.30981 0.262979,0.68848 -0.234026,0.37867 -0.735322,0.68848 -1.113986,0.68848 -0.378664,0 -0.497009,-0.30981 -0.262978,-0.68848 z m 37.522358,-0.64785 c 0,-0.73498 0.314873,-1.53094 0.699713,-1.76878 0.384844,-0.23785 0.513074,-0.73443 0.284974,-1.10352 -0.645984,-1.04523 1.07805,-2.67621 2.8289,-2.67621 0.86874,0 1.69688,0.35203 1.8403,0.78229 0.18597,0.55791 0.69116,0.51349 1.76139,-0.15488 1.12912,-0.70515 1.69625,-0.74155 2.29077,-0.14704 0.58631,0.58631 1.22503,0.59196 2.47618,0.0219 1.33583,-0.60865 1.81287,-0.56303 2.29656,0.21961 0.48623,0.78671 0.78456,0.81379 1.46537,0.13297 1.18626,-1.18626 3.33339,-1.07169 3.33339,0.17788 0,0.568 -0.28081,1.03272 -0.62403,1.03272 -0.34322,0 -0.46156,0.62129 -0.26299,1.38064 0.47904,1.83182 -0.94216,3.43875 -3.04132,3.43875 -1.68557,0 -1.97176,-1.63001 -0.31731,-1.80727 2.20996,-0.23678 2.41389,-0.40036 1.14747,-0.92041 -1.02866,-0.42242 -1.77585,-0.14896 -2.95392,1.08112 -1.72498,1.80113 -3.30854,2.132 -3.76158,0.78595 -0.22629,-0.67232 -0.53816,-0.65547 -1.42557,0.077 -1.46226,1.20701 -3.21891,0.53104 -3.21891,-1.23864 0,-0.97351 -0.3195,-1.25437 -1.09045,-0.95852 -0.80041,0.30714 -0.86851,0.55561 -0.25604,0.93414 1.24529,0.76963 0.12697,2.04661 -1.79232,2.04661 -1.204553,0 -1.680577,-0.37851 -1.680577,-1.33633 z m 8.950287,-3.35223 c 0,-0.84683 -0.24784,-0.80842 -1.37696,0.21342 -0.75734,0.68538 -1.37697,1.71087 -1.37697,2.27887 0,0.84683 0.24785,0.80842 1.37697,-0.21342 0.75733,-0.68538 1.37696,-1.71087 1.37696,-2.27887 z m 3.86406,1.5689 c 0.62802,-0.95848 0.97613,-1.90842 0.77357,-2.11097 -0.42119,-0.4212 -3.26066,2.44817 -3.26066,3.295 0,1.15544 1.3868,0.49521 2.48709,-1.18403 z m -72.368184,0.0921 c -1.135999,-0.4388 -3.149813,-1.3834 -4.475146,-2.09912 -1.9439,-1.04977 -3.87362,-1.3025 -9.983015,-1.3075 -7.064721,-0.006 -7.388377,-0.0638 -4.819384,-0.864 1.514662,-0.4718 3.586707,-0.88163 4.604541,-0.91073 2.382983,-0.0682 9.924284,1.68083 13.263483,3.07603 1.426313,0.59596 4.65058,1.49377 7.165039,1.99512 l 4.571737,0.91158 -4.130902,-0.002 c -2.271996,-5.2e-4 -5.060355,-0.36081 -6.196353,-0.7996 z"
     id="path4156"
     inkscape:connector-curvature="0" />
</svg>
