<?xml version="1.0" encoding="UTF-8" standalone="no"?>
<!-- Created with Inkscape (http://www.inkscape.org/) -->

<svg
   xmlns:dc="http://purl.org/dc/elements/1.1/"
   xmlns:cc="http://creativecommons.org/ns#"
   xmlns:rdf="http://www.w3.org/1999/02/22-rdf-syntax-ns#"
   xmlns:svg="http://www.w3.org/2000/svg"
   xmlns="http://www.w3.org/2000/svg"
   xmlns:sodipodi="http://sodipodi.sourceforge.net/DTD/sodipodi-0.dtd"
   xmlns:inkscape="http://www.inkscape.org/namespaces/inkscape"
   width="24mm"
   height="24mm"
   viewBox="0 0 24 24"
   version="1.1"
   id="svg173"
   inkscape:version="0.92.5 (2060ec1f9f, 2020-04-08)"
   sodipodi:docname="copyright.svg">
  <defs
     id="defs167" />
  <sodipodi:namedview
     id="base"
     pagecolor="#ffffff"
     bordercolor="#666666"
     borderopacity="1.0"
     inkscape:pageopacity="0.0"
     inkscape:pageshadow="2"
     inkscape:zoom="2.8"
     inkscape:cx="90.313505"
     inkscape:cy="18.306136"
     inkscape:document-units="mm"
     inkscape:current-layer="layer1"
     showgrid="false"
     inkscape:window-width="1920"
     inkscape:window-height="1043"
     inkscape:window-x="0"
     inkscape:window-y="0"
     inkscape:window-maximized="1" />
  <metadata
     id="metadata170">
    <rdf:RDF>
      <cc:Work
         rdf:about="">
        <dc:format>image/svg+xml</dc:format>
        <dc:type
           rdf:resource="http://purl.org/dc/dcmitype/StillImage" />
        <dc:title></dc:title>
      </cc:Work>
    </rdf:RDF>
  </metadata>
  <g
     inkscape:label="Layer 1"
     inkscape:groupmode="layer"
     id="layer1"
     transform="translate(0,-273)">
    <path
       style="fill:#000000;stroke-width:0.02367152"
       d="m 11.260393,296.84499 c -3.2111463,-0.19346 -6.2399556,-1.72526 -8.3071113,-4.20129 -1.7210494,-2.06146 -2.6635641,-4.56426 -2.73632785,-7.2662 -0.0638463,-2.37057 0.60508749,-4.72885 1.90354135,-6.71089 0.4792566,-0.73154 0.9139064,-1.2651 1.5434304,-1.89463 0.6277313,-0.62773 1.1486271,-1.05333 1.864221,-1.52315 1.6044297,-1.05337 3.3227571,-1.66193 5.2973284,-1.87605 0.532425,-0.0578 1.790205,-0.0576 2.319812,3.6e-4 1.459413,0.15951 2.708236,0.51118 3.95314,1.11321 1.701915,0.82302 3.192216,2.05241 4.324371,3.56729 2.796501,3.74184 3.10655,8.80851 0.787879,12.87486 -1.367041,2.39743 -3.613495,4.29571 -6.177464,5.22 -1.55416,0.56027 -3.155477,0.79396 -4.77282,0.69651 z m 1.873055,-2.447 c 0.877769,-0.12339 1.555856,-0.29852 2.319577,-0.59906 2.057677,-0.80974 3.813886,-2.39948 4.852115,-4.39218 0.50568,-0.97057 0.820979,-1.98465 0.984148,-3.16524 0.0512,-0.37038 0.07288,-1.50149 0.03682,-1.9181 -0.136827,-1.5794 -0.632347,-3.0264 -1.485459,-4.33776 -0.869252,-1.33618 -2.101249,-2.46291 -3.479804,-3.18245 -1.258532,-0.65692 -2.541255,-1.00511 -3.940146,-1.06956 -0.732854,-0.0337 -1.518366,0.0208 -2.207852,0.15338 -3.7224082,0.71577 -6.6646762,3.62784 -7.4109755,7.33493 -0.1542864,0.76638 -0.2081735,1.4739 -0.17516,2.29967 0.075081,1.87789 0.7337557,3.70494 1.8833389,5.22405 0.6078723,0.80327 1.4345406,1.58324 2.2676218,2.13951 1.2428866,0.82993 2.7110856,1.36603 4.1661878,1.52127 0.130193,0.0139 0.273997,0.0295 0.319565,0.0347 0.220814,0.0253 1.611289,-0.007 1.870049,-0.0432 z m -1.605359,-2.71486 c -1.277435,-0.0863 -2.5347119,-0.56361 -3.5800305,-1.3591 -0.3564221,-0.27124 -0.9606021,-0.88253 -1.2330431,-1.24755 -0.7165539,-0.96007 -1.1665759,-2.08814 -1.3009235,-3.26106 -0.036767,-0.32112 -0.036602,-1.12532 3.551e-4,-1.44396 0.2818496,-2.43176 1.8424613,-4.4907 4.0972823,-5.40557 1.1115177,-0.451 2.3615277,-0.58881 3.5507257,-0.39146 1.742389,0.28915 3.27471,1.24866 4.315907,2.70254 0.421038,0.58791 0.767167,1.31607 0.973043,2.04702 l 0.05501,0.19529 -1.589004,-5.3e-4 -1.589004,-5.5e-4 -0.106525,-0.19396 c -0.232825,-0.42394 -0.636673,-0.87683 -1.03555,-1.1613 -1.344064,-0.95859 -3.159604,-0.8865 -4.4248673,0.17569 -0.629057,0.5281 -1.0795935,1.30763 -1.2297957,2.12782 -0.062815,0.34304 -0.057864,0.95153 0.010573,1.2955 0.1963604,0.9872 0.7543929,1.81384 1.590287,2.35574 1.330132,0.86234 3.031322,0.75447 4.273399,-0.27096 0.352584,-0.29109 0.707558,-0.74236 0.913322,-1.16108 l 0.07851,-0.15978 h 1.57067 c 1.484773,0 1.570004,0.002 1.558406,0.0414 -0.0068,0.0228 -0.03446,0.12979 -0.06156,0.23781 -0.02711,0.108 -0.09551,0.32638 -0.152005,0.48527 -0.341937,0.96169 -0.841788,1.75139 -1.56191,2.46764 -0.545747,0.54282 -1.036441,0.89992 -1.684718,1.22606 -0.828703,0.41692 -1.647696,0.63972 -2.578805,0.70155 -0.393918,0.0262 -0.441933,0.0261 -0.859709,-0.002 z"
       id="path242"
       inkscape:connector-curvature="0" />
  </g>
</svg>
