<?xml version="1.0" encoding="UTF-8" standalone="no"?>
<!-- Created with Inkscape (http://www.inkscape.org/) -->

<svg
   xmlns:dc="http://purl.org/dc/elements/1.1/"
   xmlns:cc="http://creativecommons.org/ns#"
   xmlns:rdf="http://www.w3.org/1999/02/22-rdf-syntax-ns#"
   xmlns:svg="http://www.w3.org/2000/svg"
   xmlns="http://www.w3.org/2000/svg"
   xmlns:sodipodi="http://sodipodi.sourceforge.net/DTD/sodipodi-0.dtd"
   xmlns:inkscape="http://www.inkscape.org/namespaces/inkscape"
   width="24"
   height="24"
   viewBox="0 0 24 24"
   version="1.1"
   id="svg173"
   inkscape:version="0.92.5 (2060ec1f9f, 2020-04-08)"
   sodipodi:docname="copyright.svg">
  <defs
     id="defs167" />
  <sodipodi:namedview
     id="base"
     pagecolor="#ffffff"
     bordercolor="#666666"
     borderopacity="1.0"
     inkscape:pageopacity="0.0"
     inkscape:pageshadow="2"
     inkscape:zoom="2.8"
     inkscape:cx="24.599219"
     inkscape:cy="18.306136"
     inkscape:document-units="mm"
     inkscape:current-layer="layer1"
     showgrid="false"
     inkscape:window-width="1920"
     inkscape:window-height="1043"
     inkscape:window-x="0"
     inkscape:window-y="0"
     inkscape:window-maximized="1" />
  <metadata
     id="metadata170">
    <rdf:RDF>
      <cc:Work
         rdf:about="">
        <dc:format>image/svg+xml</dc:format>
        <dc:type
           rdf:resource="http://purl.org/dc/dcmitype/StillImage" />
        <dc:title></dc:title>
      </cc:Work>
    </rdf:RDF>
  </metadata>
  <g
     inkscape:label="Layer 1"
     inkscape:groupmode="layer"
     id="layer1"
     transform="translate(0,-273)">
    <g
       aria-label="©"
       style="font-style:normal;font-weight:normal;font-size:32.24531555px;line-height:1.25;font-family:sans-serif;letter-spacing:0px;word-spacing:0px;fill:#000000;fill-opacity:1;stroke:none;stroke-width:0.80613285"
       id="text4918">
      <path
         d="m 12.100583,273.35407 q 2.393207,0 4.455773,0.86597 2.078312,0.86596 3.794493,2.58214 1.716181,1.71618 2.5664,3.77875 0.850218,2.06257 0.850218,4.48726 0,2.39321 -0.850218,4.45578 -0.850219,2.04682 -2.5664,3.763 -1.716181,1.71618 -3.794493,2.58214 -2.062566,0.86597 -4.455773,0.86597 -2.3932074,0 -4.4715188,-0.86597 -2.0625665,-0.86596 -3.7787479,-2.58214 -1.7161813,-1.71618 -2.5663996,-3.763 -0.85021829,-2.06257 -0.85021829,-4.45578 0,-2.42469 0.85021829,-4.48726 0.8502183,-2.06257 2.5663996,-3.77875 1.7161814,-1.71618 3.7787479,-2.58214 2.0783114,-0.86597 4.4715188,-0.86597 z m 0,1.62172 q -2.062567,0 -3.8417274,0.74 -1.7791605,0.74001 -3.2591701,2.22002 -1.4800096,1.48001 -2.2357592,3.29066 -0.7557496,1.7949 -0.7557496,3.84172 0,2.03108 0.7557496,3.82598 0.7557496,1.77917 2.2357592,3.25918 1.4800096,1.48 3.2591701,2.23575 1.7791604,0.74001 3.8417274,0.74001 2.078311,0 3.857471,-0.74001 1.794906,-0.75575 3.274915,-2.23575 1.464265,-1.46427 2.188525,-3.24343 0.740005,-1.77916 0.740005,-3.84173 0,-2.09405 -0.740005,-3.87321 -0.740005,-1.79491 -2.188525,-3.25917 -1.480009,-1.48001 -3.274915,-2.22002 -1.77916,-0.74 -3.857471,-0.74 z m 4.70769,3.85747 v 2.03108 q -1.039156,-0.51958 -2.062567,-0.7715 -1.023411,-0.25192 -2.062566,-0.25192 -2.345973,0 -3.6685349,1.38555 -1.306817,1.36979 -1.306817,3.84172 0,2.50342 1.3383066,3.87322 1.3540513,1.3698 3.7944923,1.3698 1.007667,0 1.968098,-0.23618 0.960432,-0.25191 1.999588,-0.78724 v 1.99959 q -1.054901,0.4566 -2.141291,0.67703 -1.070645,0.22042 -2.17278,0.22042 -3.400873,0 -5.3847156,-1.92086 -1.9680979,-1.92086 -1.9680979,-5.19578 0,-3.29066 1.9680979,-5.19578 1.9838426,-1.90511 5.3847156,-1.90511 1.149369,0 2.220015,0.22042 1.070645,0.22043 2.094056,0.64554 z"
         style="font-style:normal;font-variant:normal;font-weight:normal;font-stretch:normal;font-size:32.24531555px;font-family:Ani;-inkscape-font-specification:'Ani, Normal';font-variant-ligatures:normal;font-variant-caps:normal;font-variant-numeric:normal;font-feature-settings:normal;text-align:start;writing-mode:lr-tb;text-anchor:start;stroke-width:0.80613285"
         id="path4920" />
    </g>
  </g>
</svg>
