<?xml version="1.0" encoding="UTF-8" standalone="no"?>
<!-- Created with Inkscape (http://www.inkscape.org/) -->

<svg
   xmlns:dc="http://purl.org/dc/elements/1.1/"
   xmlns:cc="http://creativecommons.org/ns#"
   xmlns:rdf="http://www.w3.org/1999/02/22-rdf-syntax-ns#"
   xmlns:svg="http://www.w3.org/2000/svg"
   xmlns="http://www.w3.org/2000/svg"
   xmlns:sodipodi="http://sodipodi.sourceforge.net/DTD/sodipodi-0.dtd"
   xmlns:inkscape="http://www.inkscape.org/namespaces/inkscape"
   width="346.37781"
   height="143.69232"
   viewBox="0 0 346.37781 143.69232"
   version="1.1"
   id="svg8"
   inkscape:version="0.92.5 (2060ec1f9f, 2020-04-08)"
   sodipodi:docname="mental.svg">
  <defs
     id="defs2" />
  <sodipodi:namedview
     id="base"
     pagecolor="#ffffff"
     bordercolor="#666666"
     borderopacity="1.0"
     inkscape:pageopacity="0.0"
     inkscape:pageshadow="2"
     inkscape:zoom="2.8"
     inkscape:cx="127.53203"
     inkscape:cy="38.780353"
     inkscape:document-units="mm"
     inkscape:current-layer="layer1"
     showgrid="false"
     inkscape:window-width="1920"
     inkscape:window-height="1043"
     inkscape:window-x="0"
     inkscape:window-y="0"
     inkscape:window-maximized="1"
     inkscape:object-nodes="false"
     inkscape:snap-nodes="false"
     inkscape:snap-others="false"
     fit-margin-top="0"
     fit-margin-left="0"
     fit-margin-right="0"
     fit-margin-bottom="0" />
  <metadata
     id="metadata5">
    <rdf:RDF>
      <cc:Work
         rdf:about="">
        <dc:format>image/svg+xml</dc:format>
        <dc:type
           rdf:resource="http://purl.org/dc/dcmitype/StillImage" />
        <dc:title />
      </cc:Work>
    </rdf:RDF>
  </metadata>
  <g
     inkscape:label="Layer 1"
     inkscape:groupmode="layer"
     id="layer1"
     transform="translate(-13.251793,44.966974)">
    <g
       id="g928"
       transform="matrix(1.1568901,0,0,1.1568901,-73.822263,-243.98473)">
      <path
         style="fill:#fc6f71;stroke-width:0.26458332"
         d="m 313.93164,172.54883 c -9.71235,-0.0686 -20.20118,1.55396 -28.01562,7.60937 -1.30995,1.89701 -2.7653,4.02882 -1.67969,6.31836 0.6995,2.72239 2.03095,5.97361 3.64258,7.8418 3.17656,-2.48586 7.44563,-3.03496 11.30664,-2.71484 1.53549,-2.8166 4.32918,-4.32263 7.38281,-4.96875 5.34645,-1.56238 11.83682,-1.24342 15.78902,3.15101 1.40297,1.10816 2.63689,2.96571 4.5977,2.11656 2.93042,-0.17213 5.56669,1.5643 7.60547,3.50391 2.3339,-3.2996 4.65896,-6.83629 6.375,-10.37305 -3.56057,-6.73541 -11.60108,-9.33115 -18.41898,-11.47463 -2.818,-0.71087 -5.70008,-1.07093 -8.58493,-1.00974 z m -32.56641,13.01562 c -4.6207,5.49696 -10.78443,10.34678 -12.76757,17.48438 0.58692,3.10005 4.11852,4.3816 6.37695,5.86328 1.5316,-2.02115 2.88803,-4.48185 4.875,-5.95313 0.29994,-1.76768 -0.0527,-4.00458 1.71261,-4.02957 1.05073,1.66224 -2.05631,2.54123 -2.76418,3.91054 -1.1938,1.28025 -0.95725,4.24048 1.12497,5.47651 2.77457,3.33714 6.76609,7.27321 9.009,10.32305 2.43401,0.71229 5.59628,3.56796 8.41943,3.20678 4.14149,0.48838 9.25763,2.11782 13.35364,1.04583 2.09722,-2.09137 0.86551,-7.11491 0.65876,-9.58762 -1.0509,-0.83035 -3.69008,-1.65535 -5.00325,-1.42448 -2.24978,-1.37697 -4.09222,-2.33955 -6.40291,-3.74321 -2.18001,-1.5549 -3.08959,-4.32233 -5.3802,-5.47963 -0.77313,-1.42528 -1.53888,-3.13961 -3.28535,-3.48354 -3.52999,-2.39359 -3.50611,-2.41892 -3.72405,-2.90857 -3.14967,-0.91449 -2.54505,1.56115 -2.28292,-0.007 -0.89676,-3.71253 -3.71104,-6.76872 -3.91993,-10.69336 z m 60.83204,2.81055 c -1.90341,3.60549 -2.66834,9.32738 -6.61896,8.64035 -1.87266,-0.32581 -2.719,0.87742 -2.72061,1.59858 -1.37616,0.61166 -1.47726,1.46303 -2.42607,1.59583 -2.75414,1.91625 -7.02047,3.41967 -8.25492,6.60646 -2.88574,1.89075 -0.86332,1.02 -3.3564,3.73456 -1.56355,1.33791 -4.92861,1.67245 -6.79325,2.40077 0.18315,2.08915 1.24331,4.41747 0.57121,6.28822 0.71341,1.0092 0.849,3.59942 2.65328,3.35575 8.57906,0.89267 17.39636,-5.14192 23.52882,-10.52614 2.33604,-1.40865 6.24425,-5.00339 9.21959,-4.57654 1.10137,0.48601 -1.28334,1.65 -0.27344,1.56185 2.38318,-1.84007 5.2802,-3.96603 6.00196,-6.99024 -2.22176,-4.51766 -6.6714,-7.56184 -9.59661,-11.64561 -0.6301,-0.46958 -1.5027,-2.58259 -1.93464,-2.04384 z m -29.82227,0.0234 c -2.04589,0.0455 -5.61211,0.66349 -6.72656,1.18945 4.54067,-1.927 9.35728,-0.57959 13.74218,1.02149 -2.01194,-1.46974 -4.48257,-2.49006 -7.01562,-2.21094 z m 25.02148,9.74023 c 2.24104,1.46032 4.35192,3.30875 5.88672,5.5293 -1.03674,2.37913 3.36478,-5.05026 2.39203,-5.94066 -1.46687,-1.19405 -6.33577,0.96487 -9.02679,-0.0105 l 0.46092,0.25994 z m 17.80274,7.21094 c -1.40966,2.61256 -4.01303,4.21989 -6.20703,6.09375 5.36615,9.54993 7.89451,20.34774 11.82422,30.45312 0.15694,1.24768 0.16689,3.81665 2.08984,2.49219 2.09948,-0.29059 3.72402,-2.07751 3.58203,-4.08594 1.69507,-1.99076 -0.2781,-4.95417 -0.3301,-7.20392 -2.44838,-9.70355 -6.39137,-19.0053 -10.84373,-27.98553 z m -89.26563,2.18945 c -3.06971,2.87769 -2.43599,7.62955 -4.61889,11.06534 -1.85013,4.64004 -4.15762,9.2607 -5.51001,13.9913 2.92401,0.4253 5.07688,2.71587 7.83008,3.59766 1.95459,-8.65004 6.96358,-16.31855 9.6875,-24.58203 -1.59671,-1.94044 -4.17047,-2.89533 -5.88477,-4.83789 -0.70034,-0.66471 -0.98518,0.43055 -1.50391,0.76562 z m 45.09766,5.03906 c 0.87604,1.61103 1.20653,-1.45596 0,0 z m 1.11914,8.57422 c 0.24603,1.57256 2.13373,0.90281 0.10742,-0.13672 z m 0.82617,0.5 c -0.0224,0.0395 -0.0136,-0.0131 0,0 z m -57.04687,15.19922 c -2.26711,7.87253 -5.45047,15.7098 -6.03321,23.85742 1.55287,2.03202 1.34516,4.98061 3.53516,6.68164 2.10956,-9.81848 6.37802,-19.06521 9.35547,-28.65234 -2.15895,-1.08045 -4.38174,-2.04625 -6.4375,-3.32031 -0.13997,0.47786 -0.27995,0.95573 -0.41992,1.43359 z m 22.98828,4.27735 c -0.99476,1.24727 1.1386,0.22904 0,0 z m 89.01953,3.30078 c -1.4603,1.82788 -3.89122,2.27581 -6.00195,2.92969 1.23008,7.26712 3.94965,14.23103 4.89453,21.58984 2.40577,-0.66206 5.13369,-2.02768 6.43554,-4.01367 -0.46796,-7.0495 -3.05158,-13.89021 -5.32812,-20.50586 z M 248.48828,264.5918 c -3.42071,6.71679 -3.33216,14.54875 -4.01873,21.92354 -0.0685,2.52817 -0.0555,5.05757 -0.0945,7.58622 2.24864,-0.34179 4.84689,0.9687 6.85352,-0.37304 0.66733,-7.62697 1.11529,-15.2675 1.48242,-22.9043 -1.5136,-1.8935 -3.22322,-4.43536 -4.22266,-6.23242 z m 125.34375,3.70117 c -1.90292,1.8407 -4.48263,2.81079 -7.05859,3.23242 1.57797,7.43138 1.51678,15.07947 2.09179,22.60938 1.66025,-0.32349 4.40977,0.908 5.19689,-0.62674 0.16701,-8.40333 0.046,-16.82313 -0.23009,-25.21506 z m -29.21289,7.42969 c -0.55948,1.43257 1.74272,-0.1125 0,0 z m -0.81836,1.16406 c 0.47777,1.92104 1.54877,-1.12646 0,0 z m 0.0742,4.4668 c -0.34438,2.17597 1.99835,-0.3777 0,0 z"
         id="path934"
         inkscape:connector-curvature="0"
         sodipodi:nodetypes="ccccccccccccccccccccccccccccccccccccccccccccccccccccccccccccccccccccccccccccccccccccccccccccccccccccccccccccc" />
      <path
         style="fill:#7c7c7c;stroke-width:0.26458332"
         d="m 310.52148,172.11328 c -8.76021,0.0867 -17.78478,2.4067 -24.93164,7.43555 -0.68686,2.0198 -3.02766,3.35904 -2.11132,5.71679 0.49621,3.61486 2.28849,6.88074 4.09375,9.99024 3.19008,-2.82442 7.66911,-3.57442 11.7207,-3.03711 1.35385,-1.11656 1.98716,-3.28714 3.99023,-3.84961 4.3714,-1.93286 9.6,-2.75589 14.21289,-1.30859 3.06014,1.23344 5.30003,4.26074 7.84556,5.71597 3.51135,-1.27174 6.86354,1.04654 9.26577,3.38754 2.7324,-3.38252 4.70473,-7.28954 7.03516,-10.90429 -1.71898,-4.06606 -6.04858,-7.20359 -10.24791,-8.91132 -6.46161,-3.5588 -13.58951,-4.65572 -20.87319,-4.23517 z m -168.24023,-0.008 c -8.88079,-0.0678 -18.04848,2.47563 -25.35352,7.55469 -0.81195,1.98116 -2.94682,3.56951 -1.94921,5.98632 0.61605,3.44594 2.32729,6.76951 4.16992,9.62696 3.18088,-3.01831 7.79393,-3.47342 11.90429,-3.14844 1.24963,-2.20496 3.20912,-4.07885 5.84338,-4.57676 5.29873,-1.74025 11.89788,-2.18671 16.1259,2.1609 1.80455,1.15781 2.83655,4.01041 5.30416,2.85531 3.01408,-0.53103 5.74169,1.45531 7.72461,3.49414 2.8338,-3.31687 4.9879,-7.49046 7.10742,-11.05664 -3.70066,-6.77662 -11.60737,-9.47905 -18.50586,-11.8789 -3.94711,-1.16338 -8.25751,-0.95585 -12.37109,-1.01758 z m 136.83008,15.1543 c -4.20904,4.68039 -9.21574,9.36473 -11.07227,15.5332 0.25491,3.58611 4.46729,4.99467 6.97461,6.87305 3.17806,-4.20974 6.08292,-8.61262 10.06652,-12.24705 2.45407,-1.51657 -0.78539,-3.89771 -1.22081,-5.88186 -1.02266,-2.22663 -2.00804,-4.56978 -2.06641,-7.05664 -0.89388,0.92643 -1.78776,1.85286 -2.68164,2.7793 z m -168.53321,0.002 c -4.19778,4.4811 -8.67731,9.14681 -10.988276,14.91406 -0.391805,3.94308 4.345156,5.56781 6.880856,7.54297 3.38972,-4.7358 6.9644,-9.36998 11.25196,-13.33789 -1.77259,-3.81517 -4.28017,-7.56975 -4.46875,-11.89844 -0.89193,0.92643 -1.78386,1.85287 -2.67579,2.7793 z m 62.59766,0.89453 c -1.47611,3.18278 -3.64902,5.96743 -5.79883,8.71484 3.54198,3.50482 7.72989,6.56344 10.5625,10.6875 0.35477,1.54278 1.18223,3.13355 2.48317,1.18462 2.26234,-1.50254 4.03848,-3.63906 5.31176,-5.9854 0.27127,-2.09791 -2.47844,-4.30137 -3.8086,-5.98047 -2.85297,-3.15937 -5.8753,-6.22991 -8.21289,-9.80468 -0.17904,0.39453 -0.35807,0.78906 -0.53711,1.18359 z m 169.00586,-0.93945 c -1.49965,3.57339 -4.38232,6.77524 -6.11719,9.91797 3.34661,3.52962 7.76353,6.33385 10.26563,10.55078 0.24821,2.04972 1.56354,2.79147 2.90625,0.84961 2.17772,-1.4868 3.86225,-3.53672 5.02929,-5.82227 0.30504,-1.92376 -2.28623,-4.11221 -3.55756,-5.67622 -3.01022,-3.03837 -5.88007,-6.73019 -8.52642,-9.81987 z m -29.30078,0.96289 c -2.99878,0.14325 -6.20838,0.34566 -8.81836,1.98633 4.24487,-1.96937 9.10072,-2.08496 13.38548,-0.16741 1.49897,0.50825 5.65203,2.50893 2.386,0.30022 -1.95586,-1.60951 -4.43488,-2.3197 -6.95312,-2.11914 z m -169.0957,0.1289 c -3.00102,0.14168 -6.03555,0.7672 -8.71485,2.16211 4.19715,-1.92425 8.88065,-2.01645 13.25586,-0.64258 2.89166,0.98122 2.63953,0.46974 0.13867,-0.72265 -1.44347,-0.72511 -3.09056,-0.84437 -4.67968,-0.79688 z m 42.86718,15.57618 c -0.97365,3.37455 -4.28539,5.20979 -6.82812,7.29296 5.5636,9.2948 7.96168,19.96421 11.8678,29.96478 0.66081,1.16945 0.29396,3.37088 1.349,4.07819 2.45652,-0.39507 5.48835,-1.52335 5.27929,-4.51367 1.10742,-0.99613 0.84471,-2.16061 0.60742,-3.79492 -1.71077,-10.27165 -6.20654,-19.8707 -10.27353,-29.40598 -0.60624,-1.21414 -1.25883,-2.6165 -2.00186,-3.62136 z m 168.58789,0.0351 c -1.10694,3.37752 -4.53236,5.2531 -6.91992,7.4082 5.32729,9.20281 7.70881,19.66667 11.55873,29.44227 0.83664,1.18958 0.24144,4.49707 1.77526,4.46594 2.43269,-0.4937 5.52291,-1.5004 5.20898,-4.56055 0.92884,-0.84957 1.03094,-1.5464 0.6836,-3.04687 -1.37169,-9.72256 -5.53222,-18.78169 -9.28099,-27.77223 -0.94658,-1.99934 -1.90326,-4.06086 -3.02566,-5.93676 z m -89.6875,3.25196 c -2.93743,2.40425 -2.30258,6.64298 -4.14175,9.73549 -2.03278,5.38828 -4.80413,10.65928 -6.29379,16.15904 3.19399,0.0814 5.75146,3.06736 8.91797,3.7832 1.69429,-8.33392 6.45019,-15.51356 9.15234,-23.49414 1.81239,-2.17535 -0.30019,-3.13044 -2.09375,-4.28516 -1.58108,-0.76547 -3.06318,-3.17982 -4.40356,-3.0713 -0.37915,0.39095 -0.7583,0.78191 -1.13746,1.17287 z M 97.316406,206.84961 c -3.203364,2.40664 -2.588315,6.81053 -4.419065,10.06245 -2.034979,5.35937 -4.886526,10.72917 -6.313357,16.15239 2.515001,-0.13648 4.685431,2.01932 7.107422,2.89649 1.669831,1.52253 2.371053,0.15563 2.574219,-1.51172 1.241888,-7.00056 5.835215,-12.86026 7.848995,-19.62909 0.43392,-1.83296 2.72534,-4.08254 -0.23443,-4.85369 -1.89516,-1.28065 -3.7468,-2.65669 -5.311831,-4.33558 -0.417317,0.40625 -0.834635,0.8125 -1.251953,1.21875 z m 191.960934,11.99414 c 0.41064,1.39133 1.32299,1.19251 0.21548,0.16951 -0.0875,-0.0811 -0.3538,-0.32997 -0.21548,-0.16951 z m 23.30664,2.57813 c 0.0533,0.0123 -0.0107,-0.0962 0,0 z m 0.36329,0.60937 c 0.33682,0.0809 -0.16684,-0.35343 0,0 z M 87.466797,234.64453 c -2.38494,8.67367 -5.917746,17.31029 -6.742188,26.21289 1.543546,1.0282 0.971034,3.76331 2.490235,5.06446 1.192734,2.1951 2.249742,2.99545 2.394531,0.0586 2.615141,-9.30595 6.497483,-18.59636 9.292969,-27.60547 -2.414543,-1.18413 -5.293758,-2.77118 -7.435547,-3.73047 z m 168.421873,0.46485 c -2.33807,8.43702 -6.03227,17.24971 -6.52734,25.74218 1.44058,1.52623 1.13287,4.17708 2.76758,5.72461 1.26499,2.31185 1.84832,1.63905 2.05859,-0.67969 2.58472,-9.29593 6.28723,-18.26593 9.24609,-27.42968 -2.48572,-1.25242 -5.0703,-2.34774 -7.41211,-3.87696 l -0.13106,0.51268 z m 23.23047,6.27929 c -0.99576,-0.24628 0.30747,0.61745 0,0 z m -79.61328,1.8418 c -1.10211,2.48795 -4.15671,2.93273 -6.45313,3.72656 1.21371,7.55791 4.0605,14.82695 5.05079,22.42383 3.0158,-0.15895 5.2216,-2.25362 7.33593,-4.02344 -0.6916,-7.65352 -3.5063,-15.00506 -5.87304,-22.3125 z m 168.53125,0.0234 c -1.16566,2.54942 -4.33437,2.94278 -6.70313,3.73828 1.22466,7.61427 4.17719,15.01232 5.04493,22.5957 2.90482,-0.55056 5.35608,-2.14659 7.43359,-4.11328 -0.0484,-2.98493 -0.9291,-6.9733 -1.75939,-10.23236 -1.06234,-4.14391 -2.80471,-8.07211 -3.94959,-12.18756 z m -119.34375,19.97461 c -3.83124,5.85884 -3.60794,13.178 -4.60842,19.82714 -0.24522,3.88037 -0.17816,7.77162 -0.24705,11.65723 2.39688,-0.53383 6.63946,1.04854 7.9043,-0.7832 0.67676,-7.72205 1.1484,-15.59541 1.50781,-23.26758 -1.67241,-2.31541 -3.83086,-4.76595 -4.55664,-7.43359 z m -168.615235,0.1875 c -3.47479,5.36679 -3.562935,12.15673 -4.401411,18.36423 -0.242546,4.45135 -0.281668,8.97708 -0.411089,13.46389 2.415347,-0.83035 7.758492,1.5985 7.955559,-1.70233 0.806976,-7.60145 0.876999,-15.26063 1.614754,-22.86798 -1.789904,-2.30682 -3.888648,-4.57606 -4.650391,-7.47266 z m 125.726565,3.43164 c -1.78843,2.62287 -4.93364,3.61777 -7.87696,4.27734 1.59747,7.86186 1.59655,15.98918 2.21289,23.99414 1.90616,-0.0836 4.01419,0.31936 5.82813,-0.041 0.11194,-9.37926 0.44919,-18.94856 -0.16406,-28.23046 z m 168.41992,0.21679 c -1.9129,2.45216 -5.08662,3.62541 -8.08203,4.01953 1.72275,7.74768 1.60274,15.74404 2.23633,23.62891 1.93223,-0.27496 4.57701,0.48444 6.19726,-0.31836 0.20485,-9.15285 0.0533,-18.38297 -0.25586,-27.49219 z m -29.39453,9.08203 c 0.60206,-0.0828 -0.34982,-0.71046 0,0 z m -0.5918,0.92774 c 0.066,0.0847 0.0863,-0.15071 0,0 z m -31.1582,0.79687 c -0.29959,1.91127 0.38901,1.28827 0,0 z m 31.09765,3.87891 c 0.20064,-0.0242 -0.0877,-0.13134 0,0 z"
         id="path932"
         inkscape:connector-curvature="0" />
      <path
         style="fill:#080808;stroke-width:0.26458332"
         d="m 311.53516,186.76562 c -3.74427,0.5323 -8.53152,0.86654 -10.78907,4.36329 -1.24667,1.57585 0.95661,1.93211 2.13495,1.14189 3.96772,-1.32157 8.17467,-3.04047 12.30994,-1.20082 2.88012,0.36713 5.53532,2.2985 8.37347,2.41049 0.90487,-1.77219 -2.1364,-2.89432 -3.125,-3.98242 -2.56899,-2.19043 -5.53951,-3.01106 -8.90429,-2.73243 z m -168.9961,0.16993 c -3.6343,0.74207 -8.72531,0.98838 -10.4375,4.87109 0.75929,1.71749 3.49626,-0.52788 4.96152,-0.58569 5.83996,-2.84388 11.78346,0.54104 17.47989,1.98608 1.52006,-0.95811 -1.33451,-2.41877 -2.03711,-3.16406 -2.73238,-2.59898 -6.26166,-3.49637 -9.9668,-3.10742 z m -23.68554,9.31836 c -0.19024,1.6987 2.84016,2.4692 3.9746,3.65234 3.3138,2.01165 4.82969,5.83785 7.88672,8.15039 -1.00942,5.35322 -6.08972,8.34746 -10.41992,10.61914 -4.1257,-2.99173 -8.71821,-6.19866 -10.03906,-11.43359 -1.09029,-1.55046 -1.60488,0.94517 -0.82617,1.80664 1.4298,5.23904 6.85497,7.83584 10.1914,11.45312 -1.26449,7.37984 -6.77214,12.98529 -9.77148,19.625 -3.29723,0.17812 -7.83842,-1.41887 -10.34961,-4.31836 -0.441565,-0.99128 -3.105541,-2.8845 -2.429688,-0.70703 2.714109,4.46156 8.045758,5.99259 12.730468,6.95703 -1.54517,9.92722 0.46982,19.97478 -0.93306,29.90924 -0.0926,1.87115 -0.0948,2.29341 -0.0843,5.37025 -0.12272,2.59348 0.6568,4.31627 -1.36622,3.55778 -6.75833,-2.37835 -14.216276,-4.43679 -18.872258,-10.2943 -0.737546,-0.86664 -3.961717,-3.86734 -2.71875,-1.04492 4.577881,6.94043 12.598413,10.07422 20.193908,12.45822 3.77254,0.78246 1.80745,3.56163 1.6223,6.19121 -0.47681,2.67896 -1.38176,5.61255 -0.67949,7.97362 1.97806,0.51034 1.07473,-2.72388 1.56644,-3.74348 0.85845,-5.61469 1.35899,-11.32945 2.00778,-16.96746 10.42967,2.02807 20.94128,4.91781 31.64453,4.57227 1.45297,-0.86137 1.54076,-0.52008 1.21289,1.26757 -0.19038,4.88898 -1.21878,9.88813 -0.75391,14.73438 1.74128,0.79328 1.11142,-2.60786 1.39271,-3.68343 0.2039,-4.14487 0.57731,-8.30083 0.94128,-12.45134 7.16502,1.72453 14.84494,1.66824 22.04883,0.15625 2.75322,-0.69857 5.44304,-1.63508 8.03515,-2.79492 -0.29668,6.26245 -1.45195,12.48833 -1.57812,18.72852 1.71519,1.00899 1.34003,-2.21758 1.59961,-3.14649 0.52518,-3.46089 0.35253,-7.22383 1.27344,-10.51172 7.57637,-2.9385 15.95723,-5.56098 21.27929,-12.09179 -0.38325,-1.83662 -2.37492,0.6281 -3.16457,1.18359 -5.10296,4.7185 -11.79432,7.00284 -18.21629,9.28516 -0.32896,-3.60799 2.10539,-6.7225 1.25586,-10.38672 -1.69418,-9.4575 -0.66053,-18.84493 -0.0656,-28.35508 4.05862,-0.79632 9.23465,-2.05725 11.51679,-5.51992 -1.13049,-1.58953 -2.84612,1.47559 -4.09179,1.88086 -2.59739,1.81592 -6.14908,1.55127 -8.8711,2.71875 -3.94221,-7.39585 -8.65197,-14.81885 -9.29297,-23.34571 3.1121,-3.25678 6.98966,-5.71675 10.26954,-8.72656 -0.38558,-1.91616 -2.53404,0.43116 -3.37768,0.94215 -3.43723,2.10637 -5.88543,6.02374 -9.71217,7.26488 -4.64702,-1.16862 -7.79404,-5.29522 -11.38867,-8.17968 3.02129,-5.67853 9.25503,-7.9261 13.99414,-11.76758 0.53275,-2.07451 -2.25305,0.10502 -3.15093,0.60487 -4.22455,2.66628 -8.88331,5.00522 -11.47407,9.49864 -3.95541,4.51495 -11.28475,5.64483 -16.25976,2.11914 -4.6344,-1.99963 -7.15315,-6.47563 -10.64657,-9.79834 -1.85347,-1.31174 -3.70573,-3.09062 -5.94523,-3.59814 z m 168.5039,0.0488 c -0.25828,1.77091 3.02864,2.28581 4.04638,3.60071 4.12874,3.22263 6.58574,8.30996 11.5044,10.62195 2.47412,1.30021 5.13986,2.5953 7.98047,2.69531 0.11895,2.72231 1.43395,5.80565 0.44336,8.39844 -3.11728,2.85887 -7.77641,0.63179 -11.51367,0.43164 -3.86624,-0.53467 -7.80979,-1.45275 -10.55859,-4.42578 -4.33038,-2.96089 -7.12648,-7.95651 -11.00782,-11.46875 -1.678,0.85178 1.01496,2.78651 1.57422,3.8457 2.80051,3.57386 6.21323,6.68467 9.33203,9.89063 -1.74388,7.29951 -5.88283,13.80056 -9.60937,20.27734 -1.72454,0.89297 -4.19785,-0.63108 -6.11719,-0.89844 -3.14521,-0.55409 -5.01744,-3.42792 -7.38086,-5.28125 -1.71395,0.76338 0.92901,2.59765 1.57617,3.47071 2.67436,3.19419 7.18549,3.344 10.69922,4.77344 1.13096,8.7965 -0.71752,17.74269 -1.12695,26.58593 -0.50841,4.15542 0.34725,8.30013 -0.20117,12.42969 -7.15594,-2.37684 -14.92067,-4.54565 -19.91797,-10.66211 -0.53308,-0.75896 -3.14778,-3.12305 -2.67969,-0.95117 4.20327,6.25268 11.22645,9.53081 18.20377,11.67531 1.19605,0.9953 4.97661,0.41448 4.09896,2.77977 -0.17315,3.78856 -1.51756,7.61674 -1.21093,11.375 1.66593,1.10929 1.35971,-2.16586 1.58268,-3.0283 0.83774,-5.59144 1.39851,-11.28308 1.92122,-16.87209 10.09424,3.05914 20.6181,5.24887 31.19532,5.26757 1.05867,0.0379 2.20509,-1.8193 1.76496,0.0377 -0.10439,4.86579 -1.22073,9.84844 -0.71223,14.66736 1.7922,0.72623 1.01766,-2.79764 1.36133,-3.90429 0.23192,-3.65558 0.47164,-7.58382 0.91015,-11.04297 3.78316,1.83262 8.31535,0.74832 12.38477,0.97656 5.93145,-0.48888 12.45984,0.0328 17.6543,-3.39844 -0.35044,5.74865 -1.38617,11.5691 -1.51367,17.25977 1.74427,1.29167 1.55769,-2.31312 1.61718,-3.15625 0.34446,-3.33367 0.65952,-6.63945 1.08594,-9.9668 7.6895,-2.79549 16.13341,-5.54554 21.44336,-12.12695 -0.66309,-1.81112 -2.65711,1.08635 -3.625,1.63867 -4.97906,4.55673 -11.6194,6.5904 -17.78516,8.90039 0.36664,-1.60047 0.33956,-3.01295 0.49126,-4.65475 -0.0197,-1.46993 -0.0467,-0.43565 0.0302,-2.00345 -0.17084,-10.65103 -0.36931,-21.44494 0.80078,-31.98828 4.14401,-0.72502 9.04756,-1.81532 11.41016,-5.65235 -1.23613,-1.55058 -2.89085,1.60659 -4.28321,1.92969 -2.4486,1.53728 -5.78722,2.18959 -8.46875,2.18945 -5.05703,-6.83118 -8.58219,-15.02158 -10.04101,-23.46679 3.59774,-3.18895 7.58607,-6.05734 11.06054,-9.3125 -0.41724,-1.99559 -2.63174,0.75295 -3.51562,1.18359 -6.79808,5.46318 -13.20535,12.06231 -22.19559,13.35776 -2.1395,0.12149 -5.09718,0.40298 -6.58761,-1.31284 -0.48209,-2.5593 -0.74982,-5.32171 -1.14258,-7.8789 4.34017,-0.93176 8.62923,-2.9887 10.90731,-6.99415 3.00297,-4.13537 8.56624,-5.55632 11.90128,-9.17968 -0.39029,-1.64112 -2.84383,0.9601 -3.91992,1.30078 -3.9138,2.46085 -8.18223,4.67991 -10.57813,8.82812 -3.93871,4.78202 -11.58797,6.04933 -16.6754,2.27897 -3.82729,-1.83165 -6.61235,-4.95724 -9.03749,-8.32584 -2.16816,-1.95198 -4.54064,-4.16134 -7.40625,-4.91602 z m -155.3125,12.72071 c 2.99399,2.1183 6.48299,3.69073 10.05274,4.30859 0.5359,21.17973 1.13045,42.39535 1.21289,63.58985 -0.66689,2.71462 -4.49847,1.74233 -6.58201,1.68472 -8.92671,-0.85235 -17.59469,-3.04343 -26.4219,-4.54605 1.02444,-11.57466 -0.68005,-23.41634 1.43044,-34.79005 3.87287,-6.10071 8.10611,-12.1622 9.7219,-19.33691 4.21027,-2.76239 9.37237,-5.58352 10.48047,-10.97461 z m 21.07227,2.5039 c 3.41722,2.71004 6.70246,6.82753 11.30664,7.25391 0.89898,-0.38704 1.11225,-0.50338 1,0.66016 0.98473,7.94584 5.40577,14.91405 9.00976,21.89453 0.61497,0.84951 1.56506,1.0296 1.82618,2.72655 -0.40806,9.14424 -2.02821,18.21538 -0.12635,27.35126 0.97382,3.15578 -1.87866,5.13483 -4.58908,5.70687 -7.69051,3.14956 -16.22617,2.68865 -24.32364,1.92235 -3.18865,-0.14606 -1.90707,-4.42472 -2.3868,-6.47998 -0.3968,-19.84675 -0.89933,-39.69538 -1.0507,-59.54541 2.721,-0.42058 5.33409,-1.58044 7.65235,-3.05078 0.56054,0.52018 1.12109,1.04036 1.68164,1.56054 z m 180.42187,6.83008 c 1.28048,7.95458 4.89359,15.39796 9.17747,22.1349 2.74953,1.715 1.16356,4.85806 1.36024,7.52882 -0.49006,9.471 0.14144,19.1182 -0.77013,28.48667 -6.25337,4.37568 -14.3766,3.05809 -21.56749,3.6104 -2.50138,-0.0958 -5.32832,0.48771 -7.57313,-0.90337 -0.46349,-18.73922 0.0696,-37.49655 -0.66407,-56.23046 6.26296,2.55271 12.98281,-0.64898 18.37305,-3.82227 0.47225,-0.0969 1.61769,-1.53172 1.66406,-0.80469 z m -42.75781,2.45703 c 5.09237,2.81484 11.21766,2.97252 16.88281,3.7168 1.61996,0.24886 3.13635,-0.53555 4.34571,-1.54102 0.63297,18.08426 0.21477,36.20186 0.34961,54.29883 -2.22367,3.67352 -6.6519,1.65688 -10.0013,1.63823 -8.20687,-0.63724 -16.21299,-2.88588 -24.04363,-5.0894 0.69232,-10.57113 1.98814,-21.16358 1.92774,-31.79687 3.85998,-6.67602 7.9496,-13.52654 10.20117,-20.99414 l 0.0664,-0.41407 z"
         id="path930"
         inkscape:connector-curvature="0"
         sodipodi:nodetypes="ccccccccccccccccccccccccccccccccccccccccccccccccccccccccccccccccccccccccccccccccccccccccccccccccccccccccccccccccccccccccccccccccccccccccccccccccccccccccccccccccc" />
    </g>
    <text
       xml:space="preserve"
       style="font-style:normal;font-variant:normal;font-weight:normal;font-stretch:normal;font-size:5.71375179px;line-height:1.25;font-family:Lato;-inkscape-font-specification:'Lato, Normal';font-variant-ligatures:normal;font-variant-caps:normal;font-variant-numeric:normal;font-feature-settings:normal;text-align:start;letter-spacing:0px;word-spacing:0px;writing-mode:lr-tb;text-anchor:start;fill:#000000;fill-opacity:1;stroke:none;stroke-width:0.30609384"
       x="61.607971"
       y="45.192223"
       id="text973"><tspan
         sodipodi:role="line"
         id="tspan971"
         x="61.607971"
         y="45.192223"
         style="font-style:normal;font-variant:normal;font-weight:bold;font-stretch:normal;font-size:13.06000006px;font-family:Roboto;-inkscape-font-specification:'Roboto, Bold';font-variant-ligatures:normal;font-variant-caps:normal;font-variant-numeric:normal;font-feature-settings:normal;text-align:start;writing-mode:lr;text-anchor:start;stroke-width:0.30609384">ACS</tspan></text>
    <text
       xml:space="preserve"
       style="font-style:normal;font-variant:normal;font-weight:bold;font-stretch:normal;font-size:13.06000328px;line-height:1.25;font-family:Lato;-inkscape-font-specification:'Lato, Bold';font-variant-ligatures:normal;font-variant-caps:normal;font-variant-numeric:normal;font-feature-settings:normal;text-align:start;letter-spacing:0px;word-spacing:0px;writing-mode:lr-tb;text-anchor:start;fill:#000000;fill-opacity:1;stroke:none;stroke-width:0.30609384"
       x="256.34717"
       y="47.097603"
       id="text977"><tspan
         sodipodi:role="line"
         id="tspan975"
         x="256.34717"
         y="47.097603"
         style="stroke-width:0.30609384;-inkscape-font-specification:'Roboto, Bold';font-family:Roboto;font-weight:bold;font-style:normal;font-stretch:normal;font-variant:normal;font-size:13.06000006px;text-anchor:start;text-align:start;writing-mode:lr;font-variant-ligatures:normal;font-variant-caps:normal;font-variant-numeric:normal;font-feature-settings:normal">ACS</tspan></text>
    <text
       xml:space="preserve"
       style="font-style:normal;font-variant:normal;font-weight:bold;font-stretch:normal;font-size:13.06000328px;line-height:1.25;font-family:Lato;-inkscape-font-specification:'Lato, Bold';font-variant-ligatures:normal;font-variant-caps:normal;font-variant-numeric:normal;font-feature-settings:normal;text-align:start;letter-spacing:0px;word-spacing:0px;writing-mode:lr-tb;text-anchor:start;fill:#000000;fill-opacity:1;stroke:none;stroke-width:0.30609384"
       x="279.90424"
       y="-7.5532103"
       id="text981"><tspan
         sodipodi:role="line"
         id="tspan979"
         x="279.90424"
         y="-7.5532103"
         style="stroke-width:0.30609384;-inkscape-font-specification:'Roboto, Bold';font-family:Roboto;font-weight:bold;font-style:normal;font-stretch:normal;font-variant:normal;font-size:13.06000006px;text-anchor:start;text-align:start;writing-mode:lr;font-variant-ligatures:normal;font-variant-caps:normal;font-variant-numeric:normal;font-feature-settings:normal">M</tspan></text>
    <text
       xml:space="preserve"
       style="font-style:normal;font-variant:normal;font-weight:bold;font-stretch:normal;font-size:13.06000328px;line-height:1.25;font-family:Lato;-inkscape-font-specification:'Lato, Bold';font-variant-ligatures:normal;font-variant-caps:normal;font-variant-numeric:normal;font-feature-settings:normal;text-align:start;letter-spacing:0px;word-spacing:0px;writing-mode:lr-tb;text-anchor:start;fill:#000000;fill-opacity:1;stroke:none;stroke-width:0.30609384"
       x="85.107292"
       y="-7.3720894"
       id="text985"><tspan
         sodipodi:role="line"
         id="tspan983"
         x="85.107292"
         y="-7.3720894"
         style="stroke-width:0.30609384;-inkscape-font-specification:'Roboto, Bold';font-family:Roboto;font-weight:bold;font-style:normal;font-stretch:normal;font-variant:normal;font-size:13.06000006px;text-anchor:start;text-align:start;writing-mode:lr;font-variant-ligatures:normal;font-variant-caps:normal;font-variant-numeric:normal;font-feature-settings:normal">M</tspan></text>
    <text
       xml:space="preserve"
       style="font-style:normal;font-variant:normal;font-weight:bold;font-stretch:normal;font-size:13.06000328px;line-height:1.25;font-family:Lato;-inkscape-font-specification:'Lato, Bold';font-variant-ligatures:normal;font-variant-caps:normal;font-variant-numeric:normal;font-feature-settings:normal;text-align:start;letter-spacing:0px;word-spacing:0px;writing-mode:lr-tb;text-anchor:start;fill:#000000;fill-opacity:1;stroke:none;stroke-width:0.30609384"
       x="293.80606"
       y="47.38258"
       id="text989"><tspan
         sodipodi:role="line"
         id="tspan987"
         x="293.80606"
         y="47.38258"
         style="stroke-width:0.30609384;-inkscape-font-specification:'Roboto, Bold';font-family:Roboto;font-weight:bold;font-style:normal;font-stretch:normal;font-variant:normal;font-size:13.06000006px;text-anchor:start;text-align:start;writing-mode:lr;font-variant-ligatures:normal;font-variant-caps:normal;font-variant-numeric:normal;font-feature-settings:normal">ACS</tspan></text>
    <text
       xml:space="preserve"
       style="font-style:normal;font-variant:normal;font-weight:bold;font-stretch:normal;font-size:13.06000328px;line-height:1.25;font-family:Lato;-inkscape-font-specification:'Lato, Bold';font-variant-ligatures:normal;font-variant-caps:normal;font-variant-numeric:normal;font-feature-settings:normal;text-align:start;letter-spacing:0px;word-spacing:0px;writing-mode:lr-tb;text-anchor:start;fill:#000000;fill-opacity:1;stroke:none;stroke-width:0.30609384"
       x="97.731499"
       y="45.011002"
       id="text993"><tspan
         sodipodi:role="line"
         id="tspan991"
         x="97.731499"
         y="45.011002"
         style="stroke-width:0.30609384;-inkscape-font-specification:'Roboto, Bold';font-family:Roboto;font-weight:bold;font-style:normal;font-stretch:normal;font-variant:normal;font-size:13.06000006px;text-anchor:start;text-align:start;writing-mode:lr;font-variant-ligatures:normal;font-variant-caps:normal;font-variant-numeric:normal;font-feature-settings:normal">ACS</tspan></text>
  </g>
</svg>
