<?xml version="1.0" encoding="UTF-8" standalone="no"?>
<!-- Created with Inkscape (http://www.inkscape.org/) -->

<svg
   xmlns:dc="http://purl.org/dc/elements/1.1/"
   xmlns:cc="http://creativecommons.org/ns#"
   xmlns:rdf="http://www.w3.org/1999/02/22-rdf-syntax-ns#"
   xmlns:svg="http://www.w3.org/2000/svg"
   xmlns="http://www.w3.org/2000/svg"
   xmlns:sodipodi="http://sodipodi.sourceforge.net/DTD/sodipodi-0.dtd"
   xmlns:inkscape="http://www.inkscape.org/namespaces/inkscape"
   width="497.32361"
   viewBox="0 0 497.32361 205.80237"
   version="1.1"
   id="svg8"
   sodipodi:docname="mental.svg"
   inkscape:version="0.92.5 (2060ec1f9f, 2020-04-08)"
   height="205.80237">
  <metadata
     id="metadata58">
    <rdf:RDF>
      <cc:Work
         rdf:about="">
        <dc:format>image/svg+xml</dc:format>
        <dc:type
           rdf:resource="http://purl.org/dc/dcmitype/StillImage" />
        <dc:title></dc:title>
      </cc:Work>
    </rdf:RDF>
  </metadata>
  <sodipodi:namedview
     pagecolor="#ffffff"
     bordercolor="#666666"
     borderopacity="1"
     objecttolerance="10"
     gridtolerance="10"
     guidetolerance="10"
     inkscape:pageopacity="0"
     inkscape:pageshadow="2"
     inkscape:window-width="1920"
     inkscape:window-height="1043"
     id="namedview56"
     showgrid="false"
     fit-margin-top="0"
     fit-margin-left="0"
     fit-margin-right="0"
     fit-margin-bottom="0"
     inkscape:zoom="1.7269373"
     inkscape:cx="300.12277"
     inkscape:cy="196.21473"
     inkscape:window-x="0"
     inkscape:window-y="0"
     inkscape:window-maximized="1"
     inkscape:current-layer="layer1" />
  <defs
     id="defs2" />
  <g
     inkscape:label="Layer 1"
     inkscape:groupmode="layer"
     id="layer1"
     transform="translate(15.538876,161.39419)">
    <g
       id="g201"
       transform="matrix(1.655394,0,0,1.655394,-77.357986,-244.36124)">
      <path
         style="fill:#fc6f71;stroke-width:0.26458332"
         d="m 205.95463,167.76074 c 0.0557,-4.82834 0.21575,-7.20485 0.74385,-11.04661 1.2667,-9.21465 1.90902,-11.60036 4.00818,-14.88727 0.80264,-1.25679 1.1301,-1.23785 1.1301,0.0654 0,0.79313 1.45168,3.30495 3.06179,5.29775 l 1.51275,1.87229 -0.16899,2.43687 c -0.0929,1.34027 -0.34727,5.71108 -0.56518,9.7129 -0.21791,4.00182 -0.53362,8.49643 -0.70157,9.98802 l -0.30538,2.71198 -4.39327,2.6e-4 -4.39328,2.5e-4 z m 32.34046,5.83015 c 0,-0.17664 0.36541,-2.9902 0.81203,-6.25235 0.44661,-3.26216 0.7145,-6.01538 0.59531,-6.11828 -0.11919,-0.10289 -1.88359,-0.7612 -3.92088,-1.4629 -5.08157,-1.75024 -8.76775,-3.2996 -11.04542,-4.64254 -2.88278,-1.69974 -8.37915,-7.39652 -7.1363,-7.39652 0.11375,0 0.91742,0.83906 1.78594,1.86458 3.67068,4.33423 7.00479,6.26803 16.35388,9.48534 2.15976,0.74324 4.01862,1.29462 4.1308,1.2253 0.11217,-0.0693 0.28887,-1.50507 0.39266,-3.19054 0.13978,-2.26992 0.10451,-3.16594 -0.13606,-3.45581 -0.41547,-0.50061 -0.22864,-4.07624 0.72453,-13.86637 0.85298,-8.76106 1.03276,-18.49035 0.35393,-19.15381 -0.21828,-0.21334 -1.46519,-0.74273 -3.0515,-1.12966 -3.30094,-0.80516 -4.51372,-1.16676 -6.28457,-2.42427 -1.42084,-1.00896 -3.83314,-3.81468 -3.40303,-3.95804 0.15353,-0.0512 1.07437,0.74992 2.04631,1.78022 1.99772,2.11769 3.68626,3.04961 7.12091,3.93011 3.44828,0.88399 4.19482,0.94757 4.67582,0.39826 0.90706,-1.03587 3.54981,-5.74004 5.76775,-10.26677 2.71499,-5.54117 4.22474,-9.013544 4.39898,-10.530094 l -0.36184,-0.11542 -3.93306,-3.93973 c -2.16319,-2.166851 -4.7665,-5.034563 -5.78515,-6.372694 -1.01864,-1.33813 -1.94061,-2.438527 -2.04881,-2.445324 -0.10821,-0.0068 -0.70352,0.759071 -1.32292,1.701927 -0.6194,0.942859 -1.21146,1.716765 -1.31569,1.719792 -0.57732,0.01677 -5.989,-3.890452 -6.77836,-4.893966 -0.72498,-0.921652 -0.97822,-2.73294 -0.56071,-4.010377 0.42673,-1.305653 3.6655,-6.268339 5.75434,-8.817234 0.89441,-1.091406 3.23186,-3.65125 5.19432,-5.688542 l 3.56811,-3.704166 0.0116,1.284726 c 0.0191,2.112066 0.14745,4.439048 2.08282,8.320482 1.33208,2.671533 2.35308,3.658484 2.15323,3.899286 -0.20887,0.251677 -0.0276,-0.347559 0.51073,-0.290905 0.36901,-0.02133 0.65189,0.36303 0.65199,0.17601 2.4e-4,-0.428649 0.16057,0.108941 3.17356,1.77246 2.56371,1.682814 3.69347,2.651791 5.55502,5.168987 2.15501,2.914001 4.96116,5.131382 8.91145,7.041697 4.04271,1.955009 6.49462,2.012887 10.72185,0.253087 2.74073,-1.140965 3.82415,-2.017027 5.83183,-4.7157 1.94085,-2.608805 2.60771,-3.146761 8.5566,-6.902839 l 3.98097,-2.513542 -0.85764,-0.75166 c -1.49326,-1.308732 -3.57765,-2.854778 -4.59196,-3.130201 -0.66696,-0.181107 -1.43523,0.121407 -2.63426,0.312962 l -1.76224,0.281516 -1.49084,-1.559364 c -1.75308,-1.833649 -4.52533,-3.83935 -6.15536,-4.453358 -1.82455,-0.687276 -6.91046,-0.619313 -9.70142,0.129643 -4.13962,1.110864 -6.02825,2.325492 -6.72537,4.325255 -0.20402,0.585253 -0.46114,0.749763 -1.38937,0.88896 -0.62646,0.09394 -1.361,0.05204 -1.6323,-0.09313 -0.68228,-0.365061 -4.65619,0.246036 -6.28484,0.966465 -0.69981,0.309565 -1.84774,0.985189 -2.55095,1.501389 l -1.27855,0.938546 -0.55619,-1.996541 c -2.33662,-4.178268 -3.63499,-7.05388 -3.76702,-9.783019 -0.0578,-1.195011 -0.2084,-1.533363 0.50553,-2.346521 0.44826,-0.510541 0.94649,-1.325421 1.10719,-1.810845 0.45782,-1.382964 3.17818,-2.661729 8.65941,-4.85084 5.39555,-2.154888 8.39452,-2.756685 14.64458,-3.249063 7.04376,-0.554904 13.96105,-0.0093 18.74535,1.865826 2.69812,1.05746 7.72617,3.744525 9.35685,4.793981 2.74934,1.769413 6.83226,6.3132 6.4475,7.525473 -0.18036,0.568222 4.09247,5.816843 8.67532,10.656512 2.03446,2.148496 2.92674,3.30159 3.23493,4.180543 0.23405,0.667552 0.52948,1.392322 0.65654,1.610604 2.72616,4.684371 4.46119,8.472662 7.45252,16.271874 2.55828,6.670102 4.07461,11.057192 4.598,13.303192 0.56796,2.43705 1.15536,6.83195 1.16092,8.68583 0.004,1.33121 0.35785,2.61166 2.00715,7.2632 2.21713,6.25289 3.01604,9.28606 3.79389,14.40403 0.28752,1.89177 0.64595,3.91583 0.79655,4.49791 0.32795,1.26773 0.38714,27.34515 0.0632,27.85564 -0.16089,0.25357 -1.07651,0.32023 -3.63397,0.26458 l -3.41887,-0.0744 -0.17918,-2.51354 c -0.0985,-1.38245 -0.3705,-5.6287 -0.60436,-9.43611 -0.25308,-4.12003 -0.58836,-7.49413 -0.8282,-8.33438 -0.22164,-0.77649 -0.47043,-2.03688 -0.55287,-2.80087 -0.0824,-0.76398 -0.2294,-1.38906 -0.32661,-1.38906 -0.0972,0 -0.70754,0.54411 -1.3563,1.20912 -1.59827,1.63832 -4.20804,3.54865 -6.60353,4.83372 -2.05038,1.09995 -7.83029,3.50033 -10.84791,4.50513 -0.94589,0.31495 -1.86196,0.66301 -2.03568,0.77346 -0.19661,0.125 -0.52443,2.29647 -0.8682,5.75064 -0.6553,6.58454 -0.79378,7.53418 -1.09869,7.53418 -0.31599,0 -0.30982,-0.10737 0.41122,-7.14375 0.95147,-9.28509 1.04029,-10.58333 0.72408,-10.58333 -0.15208,0 -0.3515,0.12133 -0.44315,0.26961 -0.3084,0.49902 -2.81085,1.61329 -4.7186,2.10106 -3.01258,0.77025 -8.49106,1.17621 -16.04807,1.18918 -7.14698,0.0122 -8.40539,-0.4375 -9.18837,-1.38344 -0.31462,-0.38009 -0.97196,4.65453 -1.21452,10.259 -0.17281,3.99279 -0.15082,5.29167 -0.49854,5.29167 -0.32835,0 -0.1389,-4.52832 0.46491,-11.1125 0.20685,-2.25557 0.3775,-4.39121 0.37922,-4.74585 l 0.003,-0.64482 -0.76421,0.73216 c -0.42032,0.40269 -1.20256,0.83103 -1.73831,0.95186 -1.22449,0.27617 -12.61907,-0.83948 -16.39523,-1.60526 -3.65728,-0.74168 -14.10789,-3.36473 -14.72821,-3.69671 -0.47664,-0.25509 -0.50527,-0.15684 -0.50527,1.7337 0,2.58876 -1.11688,12.40924 -1.99339,17.52753 -0.13868,0.8098 -0.65245,1.23403 -0.65245,0.53873 z m 73.33443,-15.32128 c 7.29324,-2.73367 12.02936,-5.44501 15.15624,-8.67664 0.57525,-0.5945 1.20888,-1.08092 1.40811,-1.08092 0.28583,0 0.32356,-0.32088 0.17894,-1.52135 -0.17309,-1.43688 -0.44109,-2.55367 -2.14289,-8.92969 -0.38841,-1.45521 -1.20301,-4.90802 -1.8102,-7.67292 l -1.104,-5.02708 2.28579,-0.71975 c 2.54418,-0.80111 3.93422,-1.61551 4.4301,-2.59548 0.39521,-0.78105 0.44924,-2.90248 0.0739,-2.90248 -0.14552,0 -0.26633,0.44649 -0.26847,0.99219 -0.006,1.40416 -0.50271,2.21935 -1.78496,2.92668 -1.08469,0.59835 -4.5651,1.72164 -4.75276,1.53395 -0.0517,-0.0517 -0.40349,-1.38903 -0.78174,-2.97184 -0.37828,-1.58282 -1.03214,-3.63321 -1.45307,-4.55642 -0.42095,-0.92321 -1.95077,-5.26899 -3.39966,-9.65729 -2.25086,-6.81735 -2.9868,-8.682597 -5.05584,-12.814341 -1.33183,-2.659589 -2.37503,-4.870984 -2.31823,-4.914214 0.0568,-0.04323 1.09363,-0.50068 2.03951,-1.214963 2.70934,-2.04594 3.7496,-3.467273 4.43744,-4.824644 0.68292,-1.347666 0.78272,-1.805355 0.39373,-1.805355 -0.13425,0 -0.39084,0.444717 -0.57023,0.988261 -0.36682,1.111467 -2.41761,3.26113 -4.97417,5.213998 l -1.84971,0.39611 -0.0777,-0.339137 c -0.62973,-0.82935 -1.20079,-0.925468 -1.4028,-1.851517 -0.10953,-0.502193 0.0567,-0.608519 -0.19242,-0.512933 -0.57227,0.219596 -6.94167,5.474922 -9.31969,7.586506 -4.40065,3.907599 -8.91288,6.444388 -14.04844,7.760569 -3.49779,0.89645 -5.49852,0.76438 -7.89616,-0.18068 -1.09475,-0.43151 -1.24617,-1.012337 -0.97301,-0.6832 0.55888,0.67341 3.12441,1.46632 5.27337,1.45152 1.44979,-0.01 2.74963,-0.40276 4.75157,-1.01776 4.85957,-1.492874 8.11567,-3.401682 13.13487,-7.700026 2.54894,-2.18286 6.01768,-5.008459 8.50926,-6.931567 0.18283,-0.141113 0.36965,-0.135985 0.46152,0.01267 0.0849,0.137361 -1.00582,1.178872 -2.42383,2.314466 -1.418,1.135597 -3.957,3.240021 -5.64218,4.676502 l -3.06401,2.611782 0.61786,2.957952 c 1.0724,5.134231 1.85801,7.195931 5.54365,14.548451 1.99345,3.97676 2.67081,5.08041 3.73174,6.08045 0.72961,0.68777 0.86127,0.71982 1.9482,0.47434 0.64114,-0.1448 2.19978,-0.49695 3.46364,-0.78255 2.50404,-0.56585 4.0024,-1.32423 5.8778,-2.97502 1.52659,-1.34376 2.22049,-1.22189 0.75631,0.13283 -2.50172,2.31467 -4.14174,3.08761 -8.13319,3.83318 l -2.37614,0.44385 -0.18473,1.18454 c -0.59995,3.84713 -1.08519,30.34055 -0.58955,32.18864 0.0952,0.35517 0.29731,0.5223 0.52554,0.43471 0.57463,-0.2205 0.44633,0.64905 -0.14224,0.96404 -0.34028,0.18211 -0.55903,0.65303 -0.6496,1.39837 -0.331,2.72427 -0.36105,3.37275 -0.15637,3.37275 0.11996,0 2.16247,-0.72879 4.53887,-1.61953 z m -21.21151,0.82347 c 9.18464,-0.50021 12.05357,-1.08322 15.01889,-3.05207 l 1.45645,-0.96704 -0.18801,-7.97731 c -0.17383,-7.37428 0.10879,-18.77443 0.60081,-24.23459 l 0.17749,-1.96977 -1.19063,-1.22306 c -1.40285,-1.44105 -3.30986,-4.80086 -5.80575,-10.22877 -2.02351,-4.40055 -2.89843,-6.98861 -3.6072,-10.670084 -0.26614,-1.382448 -0.51604,-2.55991 -0.55536,-2.616584 -0.0393,-0.05667 -0.46164,0.189183 -0.93856,0.546344 -2.86506,2.145715 -6.25086,3.708304 -10.4149,4.806624 -3.09845,0.81726 -4.81635,0.86075 -7.38552,0.18698 -1.01865,-0.26714 -1.86415,-0.46864 -1.87889,-0.44777 -0.0147,0.0209 0.0833,3.96701 0.21798,8.7692 0.13464,4.80218 0.1957,17.24422 0.13569,27.64896 -0.0605,10.49889 -0.005,19.29899 0.12432,19.77448 0.12838,0.47124 0.47188,0.98441 0.76333,1.14038 1.48028,0.79222 5.52696,0.94667 13.46986,0.51408 z m -16.25552,-1.72062 1.11168,-1.19376 0.19772,-12.63072 c 0.18432,-11.77447 0.0951,-22.55302 -0.30451,-36.78287 l -0.16556,-5.89589 -0.56014,0.41189 c -1.8279,1.34415 -2.14025,1.45603 -4.0676,1.45703 -2.09692,0.001 -5.16997,-0.41707 -10.582,-1.43989 -3.43047,-0.64832 -4.46481,-1.0059 -5.96795,-2.063128 -0.40856,-0.287361 -0.77352,-0.479719 -0.81103,-0.427464 -0.0375,0.05226 -0.37537,1.04751 -0.7508,2.211672 -1.48268,4.59756 -8.11282,17.47531 -9.7548,18.94679 -0.43104,0.38628 -0.71971,0.74622 -0.49152,3.11923 0.29487,3.06636 0.46782,4.91343 -0.54648,16.43086 -1.09848,12.47332 -1.16807,13.59317 -0.83176,13.38531 0.1582,-0.0978 0.62973,0.26705 1.04784,0.48318 1.96986,1.01866 14.68905,3.66745 19.62826,4.23312 6.81399,0.78037 7.8152,0.87371 9.77109,0.91095 l 1.96589,0.0374 z m 56.74196,-8.61503 c 1.08841,-0.30161 2.39572,-0.80558 2.90509,-1.11992 1.33319,-0.8227 2.91055,-2.30119 2.91055,-2.7281 0,-0.59189 -0.38698,-0.4238 -1.03161,0.44809 -0.88638,1.19892 -2.63951,2.20255 -5.04261,2.8868 -1.17033,0.33323 -2.12786,0.7084 -2.12786,0.8337 0,0.31854 0.1555,0.29766 2.38644,-0.32057 z m -57.4781,-47.47869 c 0.617,-0.4337 1.19681,-1.07125 1.28848,-1.41679 0.17298,-0.652063 -0.27819,-5.050086 -0.74303,-7.243106 -0.24025,-1.133457 -0.33563,-1.253236 -0.97207,-1.22074 -0.62346,0.03183 -0.63632,-0.302334 -0.11037,-0.201031 0.32743,0.06307 0.84095,0.141567 0.84356,0.240587 0.003,0.09902 0.4361,1.581687 0.64916,2.964135 0.21306,1.382448 0.5248,3.3924 0.52741,4.218551 0.004,1.415614 -0.24179,1.792914 -1.17683,2.567554 -0.5457,0.45208 -1.72274,1.06041 -2.08654,1.15345 -0.82338,0.21055 -7.0003,-0.65846 -11.2679,-1.50159 -3.25347,-0.64277 -4.02059,-1.116544 -3.78302,-0.878962 0.0726,0.07263 1.78912,0.438612 3.81442,0.813282 9.13317,1.68961 11.21608,1.77037 13.01673,0.50466 z M 254.63057,99.2288 c -1.9905,-1.281374 -0.94752,-0.329598 -1.91569,-1.590977 0.44714,0.45285 3.15305,2.190916 3.41093,2.190916 0.13364,0 -0.63594,-0.04676 -1.49524,-0.599939 z m 20.88142,-0.52454 c -0.0734,-0.181901 0.2683,-0.07133 0.2683,0.292467 0,0.363802 -0.34166,0.550893 -0.2683,0.368991 0.0734,-0.181901 0.0734,-0.479557 0,-0.661458 z m -27.05351,-5.291666 c -1.60867,-1.63711 -3.63079,-3.851865 -4.4936,-4.921676 7.58013,-7.177765 9.0208,2.323082 7.25114,7.898238 0.092,0 -1.14887,-1.339453 -2.75754,-2.976562 z m 26.79705,1.98941 c -0.0671,-0.257432 0.17972,-0.09174 0.17433,0.344825 -0.005,0.436562 -0.2566,0.628055 -0.18413,0.448925 0.0725,-0.179131 0.0769,-0.536319 0.01,-0.79375 z m -0.82259,-2.58413 c -0.0369,-0.871903 0.15275,-1.567146 0.0238,-1.568368 -0.12892,-0.0013 0.09,0.664967 0.18261,1.34012 0.0925,0.675155 0.16825,1.38953 0.16825,1.5875 0,0.197971 0.0599,0.359947 0.13315,0.359947 0.0732,0 -0.47095,-0.847294 -0.50784,-1.719199 z m -5.44618,-2.381843 c -0.3638,-0.207968 -0.78052,-0.378124 -0.92604,-0.378124 -0.14552,0 2.41552,0.412977 2.77929,0.620945 0.3638,0.207968 -1.6019,0.135303 -1.45638,0.135303 0.14553,0 -0.0331,-0.170156 -0.39687,-0.378124 z m 13.26684,-2.451818 c 1.02058,-1.222941 2.15159,-1.885158 0.87591,-0.575364 -0.57523,0.590621 -0.86728,0.997018 -0.649,0.903105 0.21828,-0.09391 -0.64143,0.168967 -0.22691,-0.327741 z m -18.43945,-0.276631 c -0.13824,-0.118198 -0.89801,-0.95717 -1.86374,-1.724086 -0.96572,-0.766919 -1.98854,-2.184589 -2.61198,-3.045159 -1.2863,-1.775561 -1.78333,-1.948858 -0.56287,-0.196258 1.19369,1.714164 4.25679,4.576287 4.9525,4.584407 0.15876,0.0019 0.24485,0.516829 0.0861,0.381096 z m -22.67482,-3.258426 c -0.25466,0.199721 -0.46302,0.487455 -0.46302,0.639411 0,0.151955 0.0337,0.226673 0.0749,0.166042 0.0567,-2.542919 -2.90098,0.720394 0.38812,-0.805453 z m 0.89368,-0.958437 c 0.32911,-0.419645 0.31975,-0.429004 -0.0999,-0.0999 1.02028,-1.453559 2.84166,-0.370504 -0.36312,0.562917 -0.0527,0.01535 0.2633,-0.20836 0.46302,-0.463021 z m 62.6725,-1.224375 c 0,-0.05494 -0.20836,-0.263301 -0.46302,-0.463021 -0.41966,-0.329108 0.10667,-0.568455 0.43577,-0.148806 0.34565,0.44073 0.0273,0.829593 0.0273,0.611831 z m -62.10172,-1.784426 c 0.26339,-0.291042 1.7992,0.03224 1.72644,0.03224 -0.0728,0 -0.34779,0.238125 -0.61118,0.529167 -0.26339,0.291042 -0.41936,0.529167 -0.3466,0.529167 0.0728,0 -1.03205,-0.79953 -0.76866,-1.090572 z m 15.00589,0.743198 c 0,-0.04553 -0.38696,-0.432488 -0.8599,-0.859896 l -0.8599,-0.777105 0.95886,0.754674 c 0.72437,0.801544 0.76094,1.086733 0.76094,0.882327 z m 44.97773,-1.012886 c -2.52621,-2.327564 -0.19067,-2.213612 1.61966,-0.387148 1.0378,1.047041 -0.78437,1.482824 -0.65879,1.482824 0.12557,0 -0.30682,-0.493053 -0.96087,-1.095676 z m -57.57634,-0.750346 c 0.3291,-0.419645 0.2521,-0.104335 -0.16754,0.224768 -0.25466,0.199721 -0.46302,0.40808 -0.46302,0.463021 0,0.217763 0.16328,-1.50553 0.44117,-1.019225 z m 8.7682,-1.764877 c -0.92147,-0.745572 -2.70061,-2.000448 -2.24669,-1.516842 0.33502,0.356925 2.53096,1.898659 2.79056,1.919722 0.0728,0.0059 -0.14567,-0.08069 -0.54387,-0.40288 z m 41.55136,-0.386717 c 0.0988,-0.159834 0.80472,2.05673 0.423,2.306843 -0.38171,0.250113 -1.63145,-1.637923 -1.63145,-1.57678 0,0.191394 1.0197,-0.42463 1.20845,-0.730063 z m 5.3484,-5.491731 c 1.40943,-1.937324 4.02648,-6.654585 4.02648,-7.257751 0,-0.688297 -0.61894,0.181946 -1.79639,2.525745 -0.74933,1.491588 -2.30777,3.961188 -3.46321,5.487997 -1.15546,1.52681 -4.03362,0.290827 -1.94678,3.025246 1.70947,1.244713 0.64744,-0.300207 3.1799,-3.781237 z M 215.19847,146.6734 c -1.66302,-2.05445 -2.48585,-3.5733 -2.84626,-5.25382 -0.17618,-0.82149 -0.42591,-1.35723 -0.61268,-1.31433 -0.45366,0.10417 -0.50782,-0.25737 -0.30622,-2.04427 0.43441,-3.85042 2.1216,-10.47576 4.64908,-18.25625 0.70909,-2.18281 1.50242,-4.71224 1.76296,-5.62094 l 0.4737,-1.65219 2.38125,1.36488 c 1.30969,0.75069 3.09563,1.65344 3.96875,2.00612 0.87313,0.35269 1.07666,1.00596 1.50665,1.00957 0.12388,0.1184 -0.34597,0.96272 -0.81031,2.25038 -4.64647,12.88533 -7.90102,24.28621 -8.35292,26.68507 -0.2311,1.22672 -0.45211,2.26233 -0.49114,2.30136 -0.039,0.039 -0.63432,-0.62498 -1.32286,-1.47558 z m 9.86746,-31.20496 c -0.94589,-0.40424 -2.71655,-1.29058 -3.93481,-1.96966 -1.41563,-0.78909 -2.53759,-1.23467 -3.10885,-1.23467 -0.70831,0 -0.89385,-0.10657 -0.89385,-0.5134 0,-0.77405 1.12094,-3.74529 3.89883,-10.33452 3.11709,-7.393848 4.22909,-10.426224 4.45904,-12.159631 0.19543,-1.473221 0.78408,-2.363015 2.94212,-4.447268 l 1.37888,-1.162636 0.88195,1.581952 c 0.49917,0.895367 2.79953,1.759121 4.20119,2.707625 l 1.17101,1.915866 -0.0414,0.589906 c -0.0454,0.64704 -0.28192,2.983769 -1.04358,5.02106 -0.76166,2.037292 -2.30055,5.609166 -3.41975,7.937496 -2.59076,5.38974 -3.31581,7.11034 -3.31581,7.8687 0,0.71578 -1.01034,4.48333 -1.27392,4.75044 -0.0997,0.10105 -0.9552,-0.14702 -1.90108,-0.55126 z m 58.07604,-44.675273 c -3.35003,-1.303562 -8.15585,-2.491994 -10.07462,-2.491351 -1.23208,5.29e-4 -2.52843,0.311862 -5.54576,1.332368 -2.1658,0.732506 -3.98948,1.28017 -4.05262,1.21703 -0.2154,-0.215408 1.10239,-1.892782 1.92205,-2.446509 1.79473,-1.212438 6.71788,-2.44265 9.77516,-2.44265 2.77629,0 4.67844,0.58605 6.9106,2.129142 1.93175,1.33541 3.5457,2.845462 3.5457,3.254761 0,0.302745 0,0 -2.48051,-0.552791 z"
         id="path205"
         inkscape:connector-curvature="0"
         sodipodi:nodetypes="ccsscccsccccccccscscscscscsscccccccccccccccsccccccccscccccccccccscccccccccssscccccccccsccccccscscccccssscsccsssccccccscccccsccccscscscccccsccsccccccsccccssccccccscsscccccccccsccsccccccccccsccccccsccsccccccccccsccccccccsccscscccccscccsccsccscsscssccsccccccccssccccsccccccscccccscccccccccsccsscssscccscccccccccsccsccsscssccccscsccccccccscccscccccsccsscsccccsccscsccscc" />
      <path
         style="fill:#000000;stroke-width:0.26458332"
         d="m 37.416466,168.02521 c 0.05795,-5.1345 0.207701,-7.39411 0.749606,-11.31108 1.291957,-9.33843 1.781666,-11.19047 3.868823,-14.63155 0.91096,-1.5019 1.257043,-1.56473 1.264862,-0.22962 0.0051,0.87185 1.268343,3.12518 2.905064,5.18197 l 1.666928,2.09474 -0.298998,4.51984 c -0.164449,2.48591 -0.423791,6.90108 -0.576321,9.8115 -0.272894,5.20719 -0.669332,9.60769 -0.947481,10.51719 -0.12724,0.41605 -0.575897,0.46303 -4.423253,0.46316 l -4.28165,1.4e-4 z m 32.339039,5.83474 c 0,-0.3197 0.369814,-3.24792 0.821804,-6.50716 0.451993,-3.25923 0.719884,-6.01447 0.595313,-6.12274 -0.124569,-0.10828 -1.893367,-0.77025 -3.930658,-1.47104 -8.995953,-3.09446 -11.635476,-4.50341 -15.369718,-8.20425 -2.792465,-2.76748 -3.608316,-3.83646 -2.928017,-3.83646 0.205703,0 0.894504,0.67591 1.530663,1.50203 2.261936,2.93734 5.579655,5.36243 10.020197,7.32428 2.848718,1.25857 10.656101,3.90815 10.858465,3.68501 0.322014,-0.35506 0.505736,-4.59709 0.190664,-4.40236 -0.184999,0.11433 -0.214659,-0.0847 -0.0887,-0.59516 0.4719,-1.91252 0.743265,-8.55401 0.78808,-19.28776 0.0431,-10.32309 0.143835,-13.00744 0.567177,-15.11364 0.100597,-0.50049 -0.06661,-0.5955 -1.537343,-0.87357 -5.454026,-1.03118 -8.161915,-2.42078 -10.541699,-5.40966 -1.589905,-1.99684 -0.782283,-1.79744 1.190641,0.29397 2.077516,2.20227 3.540855,3.03589 6.804136,3.87611 4.068056,1.04744 4.203996,1.05629 4.203996,0.27371 0,-0.89753 0.420717,-1.66625 3.536898,-6.46254 1.465461,-2.25557 3.056662,-4.87495 3.536,-5.82083 1.213292,-2.3942 2.759906,-7.248651 2.515116,-7.894343 -0.107418,-0.283342 -1.326399,-1.378204 -2.708847,-2.433028 -4.588409,-3.501017 -6.223405,-5.394074 -7.286326,-8.436393 -0.726101,-2.07826 -0.788487,-2.492775 -0.353343,-2.347728 0.163809,0.05461 0.500989,0.749136 0.749292,1.543405 1.048036,3.352451 2.659467,5.272582 7.551635,8.998304 l 2.512523,1.913459 3.303854,-2.188512 c 4.562952,-3.022555 5.872772,-4.485105 7.030601,-7.850399 L 93.803416,86.601506 92.63287,85.62305 c -0.6438,-0.538149 -1.840251,-1.908596 -2.658784,-3.045439 -1.773389,-2.463022 -3.154241,-3.723616 -6.108621,-5.576628 -1.211559,-0.759902 -2.203032,-1.534655 -2.203273,-1.721675 -5.29e-4,-0.433353 0.458237,-0.197488 3.36667,1.730801 2.401604,1.592262 3.925199,3.064599 5.731407,5.538583 2.783763,3.812958 9.361621,7.848362 13.388281,8.213487 2.44064,0.221311 6.78336,-1.203521 9.20273,-3.019383 0.47605,-0.357306 1.68997,-1.742971 2.69759,-3.079258 2.05453,-2.724676 2.86824,-3.344857 11.18689,-8.526271 0.69097,-0.430377 1.25651,-0.843606 1.25677,-0.918282 2.6e-4,-0.07468 -0.6246,-0.614995 -1.38859,-1.200705 -3.05538,-2.342423 -3.90073,-2.62822 -6.55555,-2.216312 l -1.93389,0.300054 -1.31483,-1.498968 c -1.42792,-1.627886 -4.57156,-3.890621 -6.34672,-4.568246 -0.78473,-0.299553 -2.04964,-0.430376 -4.28807,-0.443497 -3.41226,-0.02 -6.03385,0.504796 -8.938333,1.789298 -1.449089,0.640855 -2.990697,2.183627 -3.268395,3.270864 -0.180258,0.705749 -1.664235,1.08128 -2.595719,0.656867 -1.020226,-0.464846 -5.285732,0.248272 -7.157969,1.196687 -0.436563,0.221149 -1.308473,0.819087 -1.937578,1.328751 -0.647695,0.524724 -1.241806,0.826029 -1.369719,0.694655 C 81.272927,74.40083 80.448154,72.916324 79.56434,71.229532 77.915308,68.0823 76.998104,65.23319 76.872575,62.86812 c -0.06267,-1.180732 0.03437,-1.457948 0.87185,-2.490772 0.5183,-0.639193 1.022784,-1.424831 1.121074,-1.745861 0.39973,-1.305595 3.10592,-2.87872 8.794665,-5.112395 4.502306,-1.767822 7.911883,-2.575414 13.051596,-3.091399 3.75947,-0.37742 5.04525,-0.394977 9.26041,-0.126445 6.49099,0.413515 8.89338,1.046129 15.21269,4.005919 3.93353,1.842352 6.37996,3.409683 8.00635,5.129356 1.81725,1.921474 3.56949,4.658575 3.3992,5.309757 -0.0734,0.280881 0.11232,0.854924 0.41358,1.278017 0.92945,1.30529 5.73387,6.844172 7.74899,8.933589 2.4788,2.5702 3.75704,4.273553 3.98465,5.309884 0.10056,0.457816 0.45448,1.232691 0.78649,1.721942 1.03027,1.518182 3.97829,7.739735 5.50665,11.621299 3.01656,7.661179 3.45295,8.827239 4.72358,12.621659 1.52501,4.55407 2.27145,8.19285 2.51151,12.24317 0.14991,2.52931 0.32936,3.35541 1.35196,6.22371 3.00751,8.43577 3.56312,10.47849 4.56173,16.77131 0.27971,1.76261 0.62729,3.74051 0.77241,4.39536 0.29005,1.30892 0.39022,24.89827 0.11544,27.18594 l -0.16685,1.38906 h -3.25845 -3.25845 l -0.13518,-0.8599 c -0.0744,-0.47294 -0.25781,-2.88396 -0.40768,-5.35781 -0.66554,-10.98561 -0.87874,-13.52543 -1.24157,-14.79112 -0.21261,-0.74166 -0.45232,-1.95321 -0.53269,-2.69235 l -0.14614,-1.34388 1.81495,-0.4458 c 2.56916,-0.63105 4.35743,-1.57868 5.67352,-3.00648 1.5421,-1.67297 0.85984,-1.79803 -0.75645,-0.13865 -1.2999,1.33456 -2.9536,2.1433 -5.56679,2.72244 -0.96027,0.21282 -1.5971,0.61989 -2.82699,1.80709 -2.19511,2.11891 -3.619,3.20071 -6.08662,4.62432 -2.06013,1.18853 -8.03425,3.72769 -11.50817,4.89129 -0.94589,0.31682 -1.86194,0.66641 -2.03568,0.77686 -0.19684,0.12515 -0.52256,2.29228 -0.86432,5.75064 -0.73861,7.47412 -0.82451,8.06335 -1.17559,8.06335 -0.22181,0 -0.18414,-1.08357 0.1403,-4.0349 0.71989,-6.54876 1.39465,-14.73352 1.22835,-14.89982 -0.0849,-0.0849 -0.54333,0.0469 -1.01881,0.29275 -2.39597,1.23901 -8.0095,2.82234 -11.75173,3.31466 -4.47441,0.58863 -15.19807,0.021 -17.61216,-0.93222 -0.35512,-0.14023 -0.45952,0.37728 -0.7385,3.66073 -0.24665,2.90295 -0.73287,10.22019 -0.82399,12.40036 -0.005,0.10914 -0.12735,0.19844 -0.27287,0.19844 -0.43812,0 -0.26305,-3.83039 0.68801,-15.05352 l 0.18823,-2.22123 -0.85929,0.63373 c -0.79383,0.58545 -1.08419,0.63114 -3.81156,0.59979 -4.497676,-0.0517 -13.112033,-1.3501 -22.685423,-3.41927 -2.99511,-0.64735 -5.763313,-1.177 -6.151563,-1.177 -0.699674,0 -0.705926,0.0169 -0.708453,1.91823 -0.0029,2.18667 -0.482516,6.67073 -1.447824,13.53622 -0.366464,2.60635 -0.666295,4.83877 -0.666295,4.96094 0,0.12216 -0.119062,0.22211 -0.264583,0.22211 -0.145521,0 -0.264584,-0.26157 -0.264584,-0.58127 z M 143.08995,158.2732 c 7.25333,-2.71269 10.7954,-4.69547 14.54779,-8.14355 0.96819,-0.88968 1.96418,-1.6176 2.2133,-1.6176 0.39701,0 0.42951,-0.18785 0.26323,-1.52135 -0.10433,-0.83675 -0.45552,-2.53339 -0.78041,-3.77031 -1.93138,-7.35318 -2.86305,-11.12001 -3.54512,-14.3333 l -0.76791,-3.61767 2.165,-0.67501 c 2.42673,-0.75662 3.81526,-1.57843 4.30619,-2.54863 0.39522,-0.78105 0.44923,-2.90248 0.0739,-2.90248 -0.14552,0 -0.26633,0.44649 -0.26848,0.99219 -0.008,1.93418 -1.16364,3.02329 -4.13786,3.8983 -1.9012,0.55933 -2.47282,0.52464 -2.47282,-0.15005 0,-1.14899 -1.1419,-5.0043 -2.5012,-8.4446 -0.77621,-1.96454 -2.31979,-6.36985 -3.43018,-9.78959 -1.95568,-6.022994 -4.14623,-11.109296 -6.27344,-14.566463 -0.45181,-0.734269 -0.77781,-1.362297 -0.72447,-1.395619 1.12355,-0.701807 4.41689,-3.398454 5.23693,-4.288099 1.03185,-1.119423 1.27868,-1.544778 1.72173,-2.967004 0.2811,-0.902332 -0.28519,-0.716978 -0.60406,0.197718 -0.15205,0.436166 -0.60923,1.229326 -1.01596,1.76258 -0.8234,1.079527 -5.0625,4.58814 -5.54339,4.58814 -0.38945,0 -1.30748,-1.540111 -1.5347,-2.574642 -0.1751,-0.797232 -2.99206,-3.704545 -8.2821,-8.547761 l -2.44563,-2.239055 2.25547,-3.005709 c 1.24051,-1.653141 2.78753,-4.099415 3.43782,-5.436161 1.24327,-2.55569 1.32681,-2.802922 0.94713,-2.802922 -0.12936,0 -0.65395,0.881761 -1.16575,1.95947 -0.93671,1.97244 -2.5708,4.509617 -4.77889,7.419954 -0.65691,0.865817 -1.14356,1.656432 -1.08145,1.756918 0.097,0.157033 -3.88111,2.844546 -8.5273,5.760767 -1.42533,0.89462 -2.52944,2.022473 -4.64783,4.747787 l -1.25414,1.61345 1.38643,1.305015 c 6.61134,6.223079 10.88066,8.709887 11.84846,6.901534 0.1618,-0.302328 0.44147,-0.493167 0.62149,-0.424087 0.18002,0.06908 1.51034,-0.943094 2.95627,-2.249273 2.44589,-2.209496 5.3452,-4.52065 7.06074,-5.628402 0.60474,-0.390491 0.7276,-0.403995 0.7276,-0.07998 0,0.214416 -0.63816,0.813559 -1.41813,1.331434 -1.68872,1.121243 -4.61447,3.5473 -7.05931,5.853639 l -1.77016,1.66988 0.35669,2.617928 c 0.19619,1.439853 0.67041,3.510893 1.05382,4.602303 1.22235,3.47942 6.52977,14.4607 7.84767,16.23714 0.29427,0.39666 0.46762,0.43692 0.87655,0.20358 0.28036,-0.15997 1.59173,-0.46842 2.91416,-0.68544 3.29222,-0.54027 5.07049,-1.28026 7.10054,-2.95474 2.03227,-1.67631 2.8246,-1.88401 1.33051,-0.34878 -2.10404,2.16199 -4.54259,3.31944 -8.34802,3.96238 l -1.74589,0.29498 -0.17044,3.48554 c -0.0937,1.91705 -0.3474,5.21195 -0.56369,7.322 -0.76111,7.42549 -0.79618,11.32635 -0.14136,15.72563 0.62881,4.22451 0.60994,6.47048 -0.0607,7.22287 -0.2646,0.29687 -0.4786,1.23862 -0.58713,2.58379 -0.0939,1.16417 -0.22661,2.38456 -0.29486,2.71198 -0.0682,0.32742 -0.0123,0.59531 0.12425,0.59531 0.13659,0 2.19268,-0.72717 4.56911,-1.61593 z m -15.08416,-0.22581 c 2.66485,-0.56362 7.33402,-2.0894 8.94452,-2.92286 1.05875,-0.54792 1.7698,-1.3099 2.14621,-2.29993 0.2666,-0.7012 -0.0145,-4.43365 -0.54164,-7.19293 -0.4215,-2.20614 -0.32081,-7.80435 0.25212,-14.01836 0.74894,-8.12283 0.91872,-11.14709 0.62581,-11.14709 -0.13785,0 -0.4033,0.14883 -0.5899,0.33073 -0.55793,0.5439 -1.65918,-1.05246 -4.24031,-6.14674 -4.24279,-8.37381 -6.0673,-13.22124 -6.12634,-16.276699 -0.0253,-1.307724 -0.33992,-2.212951 -0.61468,-1.768374 -0.31946,0.516895 -2.32274,0.349496 -3.7342,-0.312042 -1.51984,-0.71234 -3.24111,-2.021247 -6.61458,-5.029946 -1.30969,-1.168069 -2.63688,-2.347275 -2.94932,-2.620452 -0.55808,-0.487958 -0.58597,-0.485407 -1.5875,0.145129 -1.51127,0.951466 -3.22852,1.658787 -5.36083,2.208081 l -1.90096,0.489701 0.14067,3.047076 c 0.0774,1.675892 0.20349,6.916606 0.28027,11.646036 0.49987,30.79042 0.9557,49.43164 1.23058,50.32441 0.35379,1.14909 0.83931,1.37322 3.85971,1.78179 1.12973,0.15281 2.41123,0.32884 2.84779,0.39118 0.43657,0.0623 3.175,0.068 6.08542,0.0126 4.01127,-0.0764 5.91001,-0.23155 7.84716,-0.64126 z m -22.41141,-1.13482 0.90612,-0.85989 -0.63523,-30.29479 c -0.34938,-16.66214 -0.63981,-31.200994 -0.64541,-32.308568 l -0.0102,-2.013773 -1.52135,-0.1435 c -1.74668,-0.16475 -5.042796,-1.487749 -7.286769,-2.924767 -0.842645,-0.539623 -1.646,-1.009288 -1.785229,-1.043699 -0.139232,-0.03441 -0.659963,0.86519 -1.157182,1.999122 -1.295352,2.954116 -2.339086,4.070427 -6.22731,6.660349 -3.320423,2.211712 -3.440179,2.324428 -3.96775,3.734487 -0.299196,0.799669 -0.543991,1.577519 -0.543991,1.728539 0,0.15103 -0.483418,1.51102 -1.074259,3.0222 -0.991004,2.53467 -1.737381,3.83075 -6.647807,11.54389 -1.370134,2.15217 -1.469136,2.41999 -1.613789,4.36563 -0.08476,1.14003 -0.293989,3.58236 -0.464957,5.42738 -0.231627,2.49961 -0.238409,4.75863 -0.02661,8.86354 0.226253,4.38508 0.206613,6.69646 -0.09627,11.32979 -0.20928,3.20146 -0.383783,6.06771 -0.387784,6.36944 -0.0061,0.45835 0.243054,0.59786 1.514081,0.84791 0.836745,0.16461 3.746947,0.78052 6.467115,1.36869 4.588995,0.99226 12.118073,2.30667 16.48549,2.878 1.018645,0.13326 3.193281,0.2575 4.832531,0.2761 l 2.98045,0.0338 z m 100.35616,10.84818 c 0.0533,-4.89689 0.20617,-7.15033 0.74961,-11.04662 1.30731,-9.37316 1.78957,-11.19442 3.87433,-14.63155 0.91843,-1.51421 1.26228,-1.56606 1.26228,-0.19034 0,0.78976 1.51828,3.43292 3.08774,5.3754 l 1.47003,1.81943 -0.43479,7.31926 c -0.51289,8.63433 -0.9006,14.19324 -1.12405,16.11666 l -0.16137,1.38906 -4.39534,2.6e-4 -4.39535,2.6e-4 z m 32.34455,5.83461 c 0,-0.17417 0.36982,-2.98333 0.82181,-6.24257 0.45199,-3.25923 0.71988,-6.01575 0.59531,-6.12559 -0.12457,-0.10984 -1.50916,-0.63604 -3.07685,-1.16933 -5.07062,-1.72491 -9.53588,-3.56899 -11.70173,-4.83263 -3.09309,-1.80462 -8.64387,-7.50694 -7.30744,-7.50694 0.12825,0 0.56737,0.44649 0.97583,0.99219 1.28513,1.71692 4.0841,4.31109 5.96252,5.52623 0.99472,0.64348 3.04141,1.69659 4.54819,2.34023 2.45349,1.04804 10.28345,3.84135 10.76772,3.84135 0.33041,0 0.60166,-6.38548 0.28471,-6.70243 -0.44409,-0.44409 -0.33991,-2.84829 0.52356,-12.08298 0.84953,-9.0854 1.22943,-17.86098 0.85878,-19.83708 -0.26752,-1.42631 -0.55666,-1.59771 -4.04616,-2.3986 -3.90288,-0.89576 -5.90546,-2.0603 -8.07527,-4.69595 -1.76851,-2.14818 -1.00017,-2.01816 1.07533,0.18198 1.14233,1.21094 2.30329,2.13484 3.32269,2.64424 2.0207,1.00976 7.53615,2.34217 8.14083,1.96665 0.72976,-0.4532 3.66017,-5.52259 6.24411,-10.80187 2.49453,-5.09659 3.39277,-7.24917 3.82184,-9.158824 l 0.23753,-1.057177 -3.8778,-3.887832 c -2.13279,-2.138307 -4.77077,-5.043577 -5.86217,-6.456159 -1.09141,-1.412578 -2.07291,-2.573438 -2.18111,-2.579687 -0.10821,-0.0062 -0.70352,0.760068 -1.32292,1.702924 -0.6194,0.942859 -1.22503,1.716765 -1.34584,1.719792 -0.38972,0.0098 -5.02536,-3.268184 -6.16604,-4.360119 -0.88675,-0.848855 -1.14292,-1.309285 -1.29425,-2.326203 -0.25468,-1.711442 0.24222,-2.929255 2.69029,-6.593356 2.30711,-3.453125 4.41153,-5.972434 8.79362,-10.527316 l 3.18184,-3.307291 0.0128,1.333473 c 0.0209,2.173923 0.70551,4.269843 2.66517,8.159525 l 1.85008,3.672163 -2.4627,2.413254 c -2.7212,2.66656 -6.51951,7.511928 -6.10815,7.791963 0.14343,0.09764 1.65375,1.864664 3.35626,3.92671 2.80887,3.402036 6.83714,7.495619 7.37604,7.495619 0.11808,0 0.70183,0.472755 1.29723,1.050568 1.63812,1.589744 3.37975,2.303333 7.45556,3.054713 4.68785,0.86421 8.75218,1.43999 10.20794,1.44612 1.30768,0.006 2.49326,-0.48267 3.54851,-1.46115 0.86603,-0.803036 0.90862,-1.513251 0.32866,-5.481054 -0.60245,-4.121584 -0.42293,-3.800472 -2.23027,-3.989377 -2.72866,-0.285202 -7.66999,-2.811618 -10.7407,-5.491533 -0.87001,-0.75929 -2.25636,-2.296792 -3.08076,-3.41667 -1.75013,-2.377384 -2.98553,-3.490762 -5.96259,-5.373645 -1.19341,-0.75479 -2.17568,-1.525363 -2.18281,-1.712383 -0.0166,-0.434777 0.45429,-0.191792 3.35413,1.730801 2.3844,1.580858 3.9189,3.058752 5.6986,5.488402 1.97663,2.698496 4.77322,4.863418 8.73924,6.765311 3.18617,1.527921 4.73229,1.789258 7.36493,1.244886 2.26994,-0.469371 5.08167,-1.65857 6.5257,-2.75999 0.48686,-0.371335 1.55461,-1.585479 2.37278,-2.698097 1.80295,-2.451759 2.87505,-3.477318 4.95769,-4.742555 0.87312,-0.530434 2.98939,-1.879741 4.70281,-2.998457 l 3.11531,-2.034035 -1.52781,-1.222271 c -0.84029,-0.672248 -2.15368,-1.531993 -2.91862,-1.910538 -1.33887,-0.662567 -1.46619,-0.677056 -3.40971,-0.387993 l -2.01891,0.300273 -1.48508,-1.553202 c -1.7427,-1.822641 -4.51508,-3.829606 -6.14959,-4.451773 -1.81681,-0.69156 -6.90533,-0.628267 -9.66738,0.120247 -4.157,1.126541 -6.10314,2.341349 -6.71346,4.190614 -0.24869,0.753544 -0.43315,0.887291 -1.42993,1.036765 -0.64546,0.0968 -1.36945,0.05117 -1.66059,-0.10464 -0.61691,-0.330161 -3.52096,0.0195 -5.45916,0.657293 -0.70653,0.2325 -2.04176,0.941094 -2.96717,1.574652 l -1.68256,1.151922 -1.18535,-2.174621 c -2.29394,-4.208402 -3.20388,-6.850573 -3.36737,-9.777733 -0.0586,-1.04861 0.0443,-1.372449 0.63044,-1.984375 0.38524,-0.402196 0.8945,-1.195848 1.13169,-1.76367 0.52148,-1.248351 1.04763,-1.708503 3.35837,-2.93712 4.67413,-2.485221 11.45037,-4.715643 16.61136,-5.467684 2.82636,-0.411848 12.65254,-0.406191 15.47812,0.0089 4.06974,0.597881 9.95119,2.841646 15.11499,5.766338 3.49242,1.978064 7.8614,7.022953 7.38417,8.526551 -0.18179,0.572825 4.15243,5.952823 7.91099,9.819782 2.7549,2.834341 4.02066,4.503269 4.25646,5.612183 0.10173,0.47856 0.33171,1.048702 0.51102,1.266984 1.39948,1.703615 4.41819,8.361814 7.67728,16.933333 4.13308,10.870129 4.98345,14.071249 5.34186,20.108339 0.15298,2.57714 0.30697,3.17879 2.12838,8.31638 2.1616,6.09709 2.95945,9.13438 3.75786,14.30549 0.2921,1.89177 0.65225,3.97536 0.80039,4.63021 0.31173,1.37814 0.35052,27.24265 0.0416,27.7425 -0.14203,0.22982 -1.15972,0.29889 -3.61654,0.24543 l -3.41886,-0.0744 -0.18087,-2.51354 c -0.0995,-1.38245 -0.31123,-4.83526 -0.47057,-7.67292 -0.37756,-6.7243 -0.75337,-10.21512 -1.21994,-11.33178 -0.20767,-0.49702 -0.37758,-1.36538 -0.37758,-1.9297 0,-0.56431 -0.0943,-1.02602 -0.2095,-1.02602 -0.11523,0 -0.7403,0.54411 -1.38906,1.20912 -3.35029,3.43422 -6.89893,5.38885 -15.82312,8.71552 -2.08761,0.7782 -3.83714,1.4564 -3.88784,1.50711 -0.0507,0.0507 -0.34073,2.58924 -0.64444,5.64117 -0.65522,6.58366 -0.79373,7.53333 -1.09861,7.53333 -0.3048,0 -0.32004,0.26087 0.40992,-7.01146 0.96303,-9.59391 1.03897,-10.71562 0.72538,-10.71562 -0.15208,0 -0.3574,0.1309 -0.4563,0.29089 -0.32514,0.52613 -3.36484,1.80632 -5.26394,2.21697 -2.89798,0.62663 -6.82572,0.93131 -14.29895,1.10917 -6.0263,0.14343 -7.07598,0.10755 -8.46667,-0.28943 -0.87312,-0.24924 -1.71691,-0.61986 -1.87507,-0.8236 -0.31812,-0.40979 -0.74133,3.62209 -1.14814,10.93824 -0.21762,3.91375 -0.33598,4.58572 -0.73708,4.18462 -0.15625,-0.15626 0.36061,-8.62793 0.90593,-14.84874 l 0.13916,-1.5875 -0.79567,0.74881 c -0.43763,0.41184 -1.23401,0.84767 -1.76975,0.96849 -1.20867,0.2726 -12.28803,-0.80477 -16.12795,-1.5683 -3.60533,-0.71688 -14.36294,-3.39511 -14.99429,-3.73299 -0.47631,-0.25492 -0.50651,-0.16177 -0.50651,1.56227 0,2.68479 -1.10999,12.53977 -1.99339,17.69829 -0.13819,0.80692 -0.65245,1.23508 -0.65245,0.5432 z m 73.33443,-15.3238 c 7.29023,-2.72926 11.00548,-4.81193 14.62654,-8.19925 0.91736,-0.85814 1.81274,-1.56026 1.98975,-1.56026 0.46556,0 0.13906,-2.37823 -0.83447,-6.07796 -0.44143,-1.67759 -1.14517,-4.35985 -1.56388,-5.96058 -0.41867,-1.60073 -1.15572,-4.76573 -1.63787,-7.03334 l -0.87665,-4.12293 2.26463,-0.6894 c 2.50896,-0.76379 3.93385,-1.59355 4.43404,-2.58206 0.39521,-0.78105 0.44924,-2.90248 0.0739,-2.90248 -0.14552,0 -0.26458,0.40897 -0.26458,0.90882 0,1.35969 -0.41765,2.20541 -1.38248,2.79939 -0.88842,0.54695 -4.96101,1.94275 -5.14159,1.76218 -0.0553,-0.0553 -0.4539,-1.54777 -0.88583,-3.31668 -0.43196,-1.76891 -1.08087,-3.79934 -1.44206,-4.51207 -0.36115,-0.71273 -1.85009,-4.90875 -3.30872,-9.32448 -2.25274,-6.81975 -3.01551,-8.757696 -5.06589,-12.870739 -1.3276,-2.663169 -2.3703,-4.870622 -2.31707,-4.905455 1.03423,-0.676894 3.57225,-2.681528 4.55494,-3.597706 1.58811,-1.4806 3.09623,-4.249507 2.31457,-4.249507 -0.13128,0 -0.36621,0.365784 -0.52205,0.81285 -0.15586,0.447067 -0.64177,1.265383 -1.07984,1.818479 -0.77325,0.976304 -3.65173,3.444475 -5.08376,4.359087 l -0.70667,0.451331 -0.65109,-1.141187 c -0.35811,-0.627653 -0.72467,-1.459262 -0.81455,-1.848019 -0.0899,-0.388761 -0.96715,-1.522696 -1.94953,-2.51986 -1.89118,-1.919703 -7.85756,-7.499615 -8.3336,-7.793829 -0.16886,-0.104359 0.65161,-1.428591 2.04957,-3.307998 1.28214,-1.723689 2.84845,-4.219318 3.48069,-5.545841 1.22156,-2.562984 1.28297,-2.747513 0.91433,-2.747513 -0.12936,0 -0.66977,0.91507 -1.2009,2.033487 -1.01655,2.14054 -2.24747,4.069649 -4.48706,7.032062 -0.74409,0.984228 -1.35287,1.918708 -1.35287,2.076624 0,0.157914 -2.14313,1.654765 -4.7625,3.326336 -5.23777,3.342524 -5.77877,3.776435 -7.36124,5.904408 -2.65266,3.567022 -4.96616,5.158737 -9.01683,6.203693 -0.85877,0.221538 -1.61727,0.458663 -1.68556,0.526944 -0.0683,0.06828 0.0696,1.469088 0.30649,3.112902 0.23685,1.643814 0.4298,3.383531 0.42878,3.866042 -0.004,1.808379 0.83558,2.439879 3.92954,2.956299 2.1993,0.36708 3.65794,0.17158 7.3134,-0.98023 4.18801,-1.319617 7.74356,-3.437064 12.17083,-7.248115 2.33276,-2.008065 7.08721,-5.894625 8.77385,-7.172219 0.17934,-0.135842 0.3714,-0.128738 0.46152,0.01707 0.0849,0.137361 -1.00582,1.178872 -2.42383,2.314467 -1.418,1.135596 -3.957,3.240021 -5.64218,4.676502 l -3.06401,2.611781 0.61786,2.957952 c 0.86878,4.159372 1.68666,6.562122 3.60087,10.578502 2.93002,6.14773 4.38536,8.77196 5.43105,9.79303 1.14895,1.12192 0.43709,1.12833 5.65531,-0.0508 2.50404,-0.56584 4.0024,-1.32423 5.8778,-2.97502 1.52659,-1.34376 2.22049,-1.22189 0.75631,0.13283 -2.50153,2.31449 -4.14179,3.08762 -8.13197,3.83296 l -2.37493,0.44362 -0.17737,1.05248 c -0.59616,3.53707 -1.09559,30.47083 -0.59934,32.32115 0.0952,0.35517 0.29731,0.5223 0.52554,0.43471 0.57738,-0.22156 0.4449,0.64982 -0.14697,0.96657 -0.29022,0.15532 -0.57571,0.6536 -0.64961,1.13378 -0.26461,1.7196 -0.33729,3.63481 -0.13798,3.63481 0.11245,0 2.14882,-0.72791 4.52522,-1.61758 z m -20.94693,0.82116 c 8.98941,-0.50394 11.78949,-1.08319 14.75534,-3.05239 l 1.4569,-0.96735 -0.18672,-8.10911 c -0.17568,-7.63027 0.10557,-18.67008 0.61043,-23.95984 l 0.1997,-2.0924 -1.10395,-1.10395 c -1.44703,-1.44704 -2.92033,-4.00293 -5.5685,-9.66021 -2.36839,-5.05963 -3.23021,-7.54356 -3.94734,-11.377084 -0.25863,-1.382448 -0.50959,-2.55991 -0.55772,-2.616584 -0.0481,-0.05667 -0.47767,0.191331 -0.95459,0.55112 -2.76804,2.088298 -6.33465,3.724538 -10.54772,4.838948 -3.02344,0.79974 -5.1721,0.80596 -7.76952,0.0225 -0.72082,-0.21742 -1.32992,-0.36992 -1.35357,-0.33887 -0.0237,0.031 0.0699,4.10457 0.20793,9.05227 0.13801,4.94771 0.20057,17.38974 0.13901,27.64896 -0.0623,10.38736 -0.008,19.03279 0.12203,19.50991 0.2632,0.96393 0.79132,1.32472 2.40592,1.64367 1.56994,0.31012 6.66789,0.31451 12.09237,0.0104 z m -16.5201,-1.72026 1.11168,-1.19376 0.19772,-12.63072 c 0.18432,-11.77447 0.0951,-22.55302 -0.30451,-36.78287 l -0.16556,-5.89589 -0.56014,0.41189 c -1.82835,1.34448 -2.13997,1.45603 -4.07023,1.45703 -1.8702,0.001 -5.4402,-0.49782 -11.23268,-1.56936 -2.79109,-0.51632 -3.84435,-0.89953 -5.31464,-1.933658 -0.40856,-0.287361 -0.77352,-0.479719 -0.81103,-0.427464 -0.0375,0.05226 -0.37839,1.056841 -0.75753,2.232412 -1.44239,4.47239 -7.7217,16.70854 -9.64131,18.78751 -0.55023,0.5959 -0.5646,0.74061 -0.3257,3.27963 0.27743,2.94846 0.0964,6.40136 -0.93442,17.8242 -1.08432,12.01553 -1.08191,11.95886 -0.50905,12.00385 0.27099,0.0213 1.33412,0.33227 2.36251,0.69108 2.4023,0.83816 12.68816,3.26712 15.82525,3.73705 1.32731,0.19883 4.08016,0.50481 6.11745,0.67995 2.03729,0.17514 3.75378,0.36444 3.81441,0.42065 0.0606,0.0562 1.00481,0.10222 2.09818,0.10222 h 1.98793 z m 56.74209,-8.61258 c 1.08847,-0.30025 2.46525,-0.82944 3.05951,-1.17598 1.3463,-0.78509 3.24792,-2.83253 2.77667,-2.98961 -0.18407,-0.0614 -0.68953,0.3189 -1.12321,0.84503 -1.0422,1.26437 -2.55006,2.10909 -5.04902,2.82854 -1.12779,0.32469 -2.05052,0.69105 -2.05052,0.81414 0,0.31382 0.15891,0.29237 2.38657,-0.32212 z M 46.619534,146.59764 c -1.709677,-2.13658 -2.445906,-3.49473 -2.806909,-5.17803 -0.226081,-1.05418 -0.402863,-1.36937 -0.737156,-1.31433 -0.508203,0.0837 -0.499991,-0.20498 0.110347,-3.87886 0.649627,-3.91036 2.235214,-9.89352 4.211643,-15.89249 1.219081,-3.70023 2.249713,-7.22888 2.249713,-7.70252 0,-0.202 -0.238125,-0.36727 -0.529167,-0.36727 -0.350203,0 -0.529167,-0.17639 -0.529167,-0.52155 0,-0.6904 1.117733,-3.69208 3.303342,-8.87116 3.811579,-9.032023 4.678436,-11.443311 5.293402,-14.724409 0.07631,-0.407132 0.947889,-1.520552 2.077091,-2.653421 l 1.945611,-1.951935 0.963985,1.108165 c 0.530191,0.609489 2.261484,1.986698 3.847314,3.060462 l 2.883332,1.952297 -0.395015,0.753914 c -0.21726,0.414653 -1.080567,2.555986 -1.91846,4.758521 -0.837893,2.202532 -2.44384,5.906816 -3.568771,8.231756 -2.511785,5.19118 -3.023151,6.4593 -3.35642,8.32341 -0.395951,2.21471 -1.080354,4.23811 -1.433515,4.23811 -0.502044,0 -3.139252,-1.22589 -5.414333,-2.51681 -2.062871,-1.17052 -2.640063,-1.38527 -2.640063,-0.98228 0,0.26111 5.627357,3.3317 6.945313,3.78974 0.545703,0.18965 0.992187,0.4802 0.992187,0.64566 0,0.16546 -0.996047,3.08834 -2.21344,6.49529 -4.250341,11.89483 -7.017798,20.23427 -7.45548,22.46632 -0.242551,1.23693 -0.461089,2.27167 -0.485643,2.29943 -0.02455,0.0277 -0.627435,-0.67785 -1.339741,-1.56801 z m 168.539586,0 c -1.71264,-2.14028 -2.44596,-3.49498 -2.80951,-5.19016 -0.21842,-1.01843 -0.4009,-1.36014 -0.67101,-1.25649 -1.30786,0.50188 0.90131,-9.55266 4.61578,-21.00769 0.73141,-2.25557 1.48617,-4.65796 1.67725,-5.33864 l 0.34742,-1.23759 2.77812,1.569 c 1.52797,0.86295 3.34228,1.75639 4.03179,1.98543 0.68951,0.22904 1.31577,0.51693 1.39168,0.63976 0.0759,0.12283 -0.98535,3.41771 -2.35838,7.32196 -4.86084,13.82201 -6.74765,19.56029 -7.15637,21.76443 -0.22748,1.22672 -0.44466,2.26146 -0.48263,2.29943 -0.038,0.038 -0.65183,-0.65928 -1.36414,-1.54944 z m 10.17139,-31.00912 c -0.80037,-0.33221 -2.57441,-1.2161 -3.94231,-1.9642 -1.59362,-0.87155 -2.80551,-1.36018 -3.37344,-1.36018 -0.58659,0 -0.88634,-0.12625 -0.88634,-0.37331 0,-0.80215 1.09961,-3.75084 3.95545,-10.6069 3.26495,-7.838228 4.51122,-11.297073 4.51122,-12.520292 0,-0.969446 0.84465,-2.091618 3.09829,-4.116258 l 1.11391,-1.000725 0.85599,0.974918 c 0.4708,0.536205 2.14243,1.864392 3.71474,2.951527 1.57231,1.087134 2.85874,2.092643 2.85874,2.234462 0,0.14182 -0.19391,0.632833 -0.43091,1.091142 -0.237,0.458311 -1.06039,2.506226 -1.82976,4.550923 -0.76936,2.0447 -2.3741,5.741693 -3.56608,8.215553 -2.56567,5.32483 -3.03608,6.48606 -3.26903,8.06979 -0.19044,1.29473 -0.94592,3.99262 -1.19832,4.27931 -0.0863,0.098 -0.81179,-0.0935 -1.61215,-0.42576 z M 66.454617,87.315502 c -3.65019,-2.523773 -4.539441,-3.481276 -4.760863,-5.126254 -0.23037,-1.711463 0.240387,-2.855899 2.685653,-6.528975 2.108407,-3.167073 4.549733,-6.081442 8.788972,-10.49197 l 3.17885,-3.307291 0.01143,1.333473 c 0.01876,2.189152 0.701701,4.280871 2.676774,8.19848 l 1.870966,3.71112 -2.737969,2.771171 c -2.289241,2.317004 -7.095003,8.300162 -8.441973,10.510234 -0.199554,0.327422 -0.483013,0.590069 -0.62991,0.583658 -0.146896,-0.0064 -1.335765,-0.750549 -2.64193,-1.653646 z M 114.86696,70.806389 c -3.27287,-1.267016 -8.43134,-2.558206 -10.18645,-2.549724 -1.03513,0.005 -2.63204,0.401104 -5.531838,1.372119 -2.242146,0.750798 -4.135067,1.306645 -4.206494,1.235221 -0.07143,-0.07143 0.200654,-0.606806 0.604623,-1.189731 1.277379,-1.843262 5.584269,-3.37997 10.192219,-3.636613 3.4001,-0.189371 5.26231,0.30049 7.79304,2.049983 1.93613,1.33844 3.84845,3.065074 3.84845,3.474757 0,0.121267 -0.0298,0.208188 -0.0662,0.193159 -0.0364,-0.01503 -1.13771,-0.442158 -2.4474,-0.949171 z m 168.4073,0.0088 c -3.73913,-1.387591 -8.35999,-2.537291 -10.18646,-2.534457 -1.38178,0.0021 -5.66002,1.203703 -9.17497,2.576819 -0.72793,0.284372 -0.29398,-0.762351 0.74808,-1.804418 2.23219,-2.232192 9.86705,-3.740087 13.80851,-2.727201 1.78878,0.459685 4.73544,2.300695 6.48883,4.054097 0.7833,0.783307 1.22947,1.473372 0.8957,1.385374 -0.0364,-0.0096 -1.19724,-0.43719 -2.57969,-0.950214 z"
         id="path203"
         inkscape:connector-curvature="0"
         sodipodi:nodetypes="ssccccsccccssccccscccccssccccssscsscsscssccsccssscscscscccsccssscscccsssscccccccssssccccccccccccccccccsscscccscssccscsccsssccsccccccscssscccccccssccssscccsccccsssscsccccccscccccscccsccscccscccccccccccsccccccccscccccsscssccsssccsccccccsscccccccccssccscssssccccccccccsccccscscccccsccscscccsccscssscccsccccccsssccccsccccccsccccccsccccccccccsscsccscscccccscscccccscccccsccccccssccccscccsccccccccccsccsscsccccscccccccsccccsccccccsccccccsccccccsccccccccccsccccssccccccccscsccsscsssscscsssssscccscccscsscscssccccccccccscccscccsssscccsscccscccsssccccscccccsccscscacccccsccc" />
    </g>
    <text
       xml:space="preserve"
       style="font-style:normal;font-variant:normal;font-weight:normal;font-stretch:normal;font-size:10.66666698px;line-height:1.25;font-family:Lato;-inkscape-font-specification:'Lato, Normal';font-variant-ligatures:normal;font-variant-caps:normal;font-variant-numeric:normal;text-align:start;letter-spacing:0px;word-spacing:0px;writing-mode:lr-tb;text-anchor:start;fill:#000000;fill-opacity:1;stroke:none"
       x="358.55304"
       y="74.856438"
       id="text891"><tspan
         sodipodi:role="line"
         id="tspan889"
         x="358.55304"
         y="84.776436" /></text>
    <text
       xml:space="preserve"
       style="font-style:normal;font-variant:normal;font-weight:normal;font-stretch:normal;font-size:13.73086357px;line-height:1.25;font-family:Lato;-inkscape-font-specification:'Lato, Normal';font-variant-ligatures:normal;font-variant-caps:normal;font-variant-numeric:normal;text-align:start;letter-spacing:0px;word-spacing:0px;writing-mode:lr-tb;text-anchor:start;fill:#000000;fill-opacity:1;stroke:none;stroke-width:1.2872684"
       x="344.116"
       y="69.927322"
       id="text895"><tspan
         sodipodi:role="line"
         id="tspan893"
         x="344.116"
         y="82.697029"
         style="stroke-width:1.2872684" /></text>
    <flowRoot
       xml:space="preserve"
       id="flowRoot897"
       style="font-style:normal;font-variant:normal;font-weight:normal;font-stretch:normal;font-size:10.66666698px;line-height:1.25;font-family:Lato;-inkscape-font-specification:'Lato, Normal';font-variant-ligatures:normal;font-variant-caps:normal;font-variant-numeric:normal;text-align:start;letter-spacing:0px;word-spacing:0px;writing-mode:lr-tb;text-anchor:start;fill:#000000;fill-opacity:1;stroke:none"><flowRegion
         id="flowRegion899"><rect
           id="rect901"
           width="14.779835"
           height="13.173331"
           x="458.49619"
           y="39.641605" /></flowRegion><flowPara
         id="flowPara903" /></flowRoot>    <text
       xml:space="preserve"
       style="font-style:normal;font-variant:normal;font-weight:bold;font-stretch:normal;font-size:18.94779968px;line-height:1.25;font-family:Lato;-inkscape-font-specification:'Lato, Bold';font-variant-ligatures:normal;font-variant-caps:normal;font-variant-numeric:normal;font-feature-settings:normal;text-align:start;letter-spacing:0px;word-spacing:0px;writing-mode:lr-tb;text-anchor:start;fill:#000000;fill-opacity:1;stroke:none;stroke-width:1.01506066"
       x="366.98834"
       y="-106.24187"
       id="text907"><tspan
         sodipodi:role="line"
         id="tspan905"
         x="366.98834"
         y="-106.24187"
         style="font-style:normal;font-variant:normal;font-weight:bold;font-stretch:normal;font-size:18.94779968px;font-family:Lato;-inkscape-font-specification:'Lato, Bold';font-variant-ligatures:normal;font-variant-caps:normal;font-variant-numeric:normal;font-feature-settings:normal;text-align:start;writing-mode:lr-tb;text-anchor:start;stroke-width:1.01506066">M</tspan></text>
    <text
       xml:space="preserve"
       style="font-style:normal;font-variant:normal;font-weight:normal;font-stretch:normal;font-size:18.94779778px;line-height:1.25;font-family:Lato;-inkscape-font-specification:'Lato, Normal';font-variant-ligatures:normal;font-variant-caps:normal;font-variant-numeric:normal;font-feature-settings:normal;text-align:start;letter-spacing:0px;word-spacing:0px;writing-mode:lr-tb;text-anchor:start;fill:#000000;fill-opacity:1;stroke:none;stroke-width:1.01506066"
       x="335.55743"
       y="-24.372824"
       id="text911"><tspan
         sodipodi:role="line"
         id="tspan909"
         x="335.55743"
         y="-24.372824"
         style="stroke-width:1.01506066;-inkscape-font-specification:'Lato, Bold';font-family:Lato;font-weight:bold;font-style:normal;font-stretch:normal;font-variant:normal;font-size:18.94800059px;text-anchor:start;text-align:start;writing-mode:lr;font-variant-ligatures:normal;font-variant-caps:normal;font-variant-numeric:normal;font-feature-settings:normal">ACS</tspan></text>
    <text
       xml:space="preserve"
       style="font-style:normal;font-variant:normal;font-weight:normal;font-stretch:normal;font-size:18.94779778px;line-height:1.25;font-family:Lato;-inkscape-font-specification:'Lato, Normal';font-variant-ligatures:normal;font-variant-caps:normal;font-variant-numeric:normal;font-feature-settings:normal;text-align:start;letter-spacing:0px;word-spacing:0px;writing-mode:lr-tb;text-anchor:start;fill:#000000;fill-opacity:1;stroke:none;stroke-width:1.01506066"
       x="386.30014"
       y="-24.563883"
       id="text915"><tspan
         sodipodi:role="line"
         id="tspan913"
         x="386.30014"
         y="-24.563883"
         style="stroke-width:1.01506066;-inkscape-font-specification:'Lato, Bold';font-family:Lato;font-weight:bold;font-style:normal;font-stretch:normal;font-variant:normal;font-size:18.94800059px;text-anchor:start;text-align:start;writing-mode:lr;font-variant-ligatures:normal;font-variant-caps:normal;font-variant-numeric:normal;font-feature-settings:normal">ACS</tspan></text>
    <text
       xml:space="preserve"
       style="font-style:normal;font-variant:normal;font-weight:bold;font-stretch:normal;font-size:18.94779968px;line-height:1.25;font-family:Lato;-inkscape-font-specification:'Lato, Bold';font-variant-ligatures:normal;font-variant-caps:normal;font-variant-numeric:normal;font-feature-settings:normal;text-align:start;letter-spacing:0px;word-spacing:0px;writing-mode:lr-tb;text-anchor:start;fill:#000000;fill-opacity:1;stroke:none;stroke-width:1.01506066"
       x="87.294846"
       y="-106.41536"
       id="text919"><tspan
         sodipodi:role="line"
         id="tspan917"
         x="87.294846"
         y="-106.41536"
         style="font-style:normal;font-variant:normal;font-weight:bold;font-stretch:normal;font-size:18.94779968px;font-family:Lato;-inkscape-font-specification:'Lato, Bold';font-variant-ligatures:normal;font-variant-caps:normal;font-variant-numeric:normal;font-feature-settings:normal;text-align:start;writing-mode:lr-tb;text-anchor:start;stroke-width:1.01506066">M</tspan></text>
    <text
       xml:space="preserve"
       style="font-style:normal;font-variant:normal;font-weight:normal;font-stretch:normal;font-size:18.94779778px;line-height:1.25;font-family:Lato;-inkscape-font-specification:'Lato, Normal';font-variant-ligatures:normal;font-variant-caps:normal;font-variant-numeric:normal;font-feature-settings:normal;text-align:start;letter-spacing:0px;word-spacing:0px;writing-mode:lr-tb;text-anchor:start;fill:#000000;fill-opacity:1;stroke:none;stroke-width:1.01506066"
       x="54.898403"
       y="-25.478386"
       id="text923"><tspan
         sodipodi:role="line"
         id="tspan921"
         x="54.898403"
         y="-25.478386"
         style="stroke-width:1.01506066;-inkscape-font-specification:'Lato, Bold';font-family:Lato;font-weight:bold;font-style:normal;font-stretch:normal;font-variant:normal;font-size:18.94800059px;text-anchor:start;text-align:start;writing-mode:lr;font-variant-ligatures:normal;font-variant-caps:normal;font-variant-numeric:normal;font-feature-settings:normal">ACS</tspan></text>
    <text
       xml:space="preserve"
       style="font-style:normal;font-variant:normal;font-weight:normal;font-stretch:normal;font-size:18.94779778px;line-height:1.25;font-family:Lato;-inkscape-font-specification:'Lato, Normal';font-variant-ligatures:normal;font-variant-caps:normal;font-variant-numeric:normal;font-feature-settings:normal;text-align:start;letter-spacing:0px;word-spacing:0px;writing-mode:lr-tb;text-anchor:start;fill:#000000;fill-opacity:1;stroke:none;stroke-width:1.01506066"
       x="106.66821"
       y="-25.53833"
       id="text927"><tspan
         sodipodi:role="line"
         id="tspan925"
         x="106.66821"
         y="-25.53833"
         style="stroke-width:1.01506066;-inkscape-font-specification:'Lato, Bold';font-family:Lato;font-weight:bold;font-style:normal;font-stretch:normal;font-variant:normal;font-size:18.94800059px;text-anchor:start;text-align:start;writing-mode:lr;font-variant-ligatures:normal;font-variant-caps:normal;font-variant-numeric:normal;font-feature-settings:normal">ACS</tspan></text>
  </g>
</svg>
